<svg width="114" height="114" viewBox="0 0 114 114" fill="none" xmlns="http://www.w3.org/2000/svg">
<g clip-path="url(#clip0_5_2077)">
<path d="M20 0H111V49H76.5L75 40L20 39V0Z" fill="#6AE18A"/>
<path d="M112.215 -2.14844e-05H92.6994C91.7137 -2.14844e-05 90.9143 0.798869 90.9143 1.78501C90.9143 2.77094 91.7134 3.57005 92.6994 3.57005H110.43V47.5992H83.1795C83.0463 47.5992 82.9172 47.615 82.7925 47.6426C81.2116 47.1285 79.5473 46.8039 77.8246 46.6939V42.9584C77.8246 42.7827 77.8155 42.6093 77.799 42.4378C83.1962 38.5188 86.3926 32.2887 86.3926 25.5845C86.3926 14.1017 77.0509 4.75992 65.568 4.75992C54.0852 4.75992 44.7434 14.1017 44.7434 25.5845C44.7434 29.9461 46.0845 34.1105 48.5627 37.6033H20.7057V3.56983H84.1316C85.1172 3.56983 85.9166 2.77094 85.9166 1.78479C85.9166 0.798869 85.1175 -0.000244141 84.1316 -0.000244141H18.9207C17.935 -2.14844e-05 17.1356 0.798869 17.1356 1.78501V37.6033H5.35488C2.40202 37.6033 0 40.0055 0 42.9582V84.3693C0 87.322 2.40202 89.7242 5.35488 89.7242H27.0124C27.9981 89.7242 28.7975 88.9253 28.7975 87.9392C28.7975 86.9533 27.9984 86.1541 27.0124 86.1541H5.35488C4.37052 86.1541 3.56985 85.3535 3.56985 84.3691V62.5924H56.6522C56.3378 64.0114 56.1668 65.4834 56.1668 66.9955V72.2314C56.1668 72.2978 56.171 72.363 56.1779 72.4276C53.8499 73.6573 52.1272 75.885 51.5863 78.5384H40.816C39.8303 78.5384 39.031 79.3373 39.031 80.3234C39.031 81.3094 39.8301 82.1085 40.816 82.1085H51.4069V86.1544H35.1042C34.1185 86.1544 33.3192 86.9533 33.3192 87.9394C33.3192 88.9253 34.1183 89.7244 35.1042 89.7244H51.4069V112.215C51.4069 113.201 52.206 114 53.1919 114H99.8391C100.825 114 101.624 113.201 101.624 112.215V80.3237C101.624 76.9061 99.6923 73.9325 96.8641 72.4336V66.9959C96.8641 60.6088 93.9037 54.9026 89.2856 51.1693H112.215C113.2 51.1693 114 50.3704 114 49.3842V1.78501C114 0.798869 113.201 -2.14844e-05 112.215 -2.14844e-05ZM48.3131 25.5845C48.3131 16.0702 56.0535 8.32977 65.5678 8.32977C75.0821 8.32977 82.8226 16.0702 82.8226 25.5845C82.8226 30.9169 80.3818 35.8873 76.2301 39.1503C75.2625 38.1944 73.9339 37.6033 72.4699 37.6033H67.3531V35.9374H68.9001C71.1966 35.9374 73.0651 34.0688 73.0651 31.7724V27.9645C73.0651 25.668 71.1966 23.7995 68.9001 23.7995H67.3531V18.8017H72.2319C73.2176 18.8017 74.0169 18.0028 74.0169 17.0167C74.0169 16.0308 73.2178 15.2317 72.2319 15.2317H67.3531V13.2086C67.3531 12.2227 66.5539 11.4236 65.568 11.4236C64.5821 11.4236 63.783 12.2225 63.783 13.2086V15.2317H62.236C59.9395 15.2317 58.071 17.1002 58.071 19.3967V23.2045C58.071 25.501 59.9395 27.3696 62.236 27.3696H63.783V32.3675H58.9042C57.9185 32.3675 57.1191 33.1664 57.1191 34.1526C57.1191 35.1385 57.9182 35.9376 58.9042 35.9376H63.783V37.6035H53.1901C50.0453 34.3659 48.3131 30.1018 48.3131 25.5845ZM67.3528 32.3675V27.3696H68.8999C69.2278 27.3696 69.4948 27.6363 69.4948 27.9645V31.7724C69.4948 32.1006 69.2278 32.3673 68.8999 32.3673H67.3528V32.3675ZM63.783 18.8017V23.7997H62.236C61.908 23.7997 61.641 23.533 61.641 23.2048V19.3967C61.641 19.0685 61.908 18.8017 62.236 18.8017H63.783ZM3.56985 42.9582C3.56985 41.9738 4.37052 41.1731 5.35488 41.1731H72.4697C73.4541 41.1731 74.2547 41.9738 74.2547 42.9582V46.7758C71.3121 47.1029 68.5579 48.0588 66.1285 49.5074C66.1004 49.5063 66.0726 49.5031 66.0441 49.5031H3.56985V42.9582ZM3.56985 59.023V53.0732H61.6958C60.0709 54.8017 58.7414 56.8109 57.7955 59.023H3.56985ZM98.0542 80.3237V110.43H54.9769V80.3237C54.9769 77.371 57.379 74.9688 60.3318 74.9688H92.6994C95.6522 74.9686 98.0542 77.371 98.0542 80.3237ZM74.2547 62.5929V71.3987H65.4489V66.9957C65.4489 65.4284 65.7782 63.9375 66.3683 62.5851C66.4181 62.5893 66.4687 62.5927 66.5199 62.5927H74.2547V62.5929ZM68.8524 59.023C70.324 57.6081 72.1831 56.5939 74.2547 56.1621V59.023H68.8524ZM77.8246 71.3987V56.0089C83.3117 56.6589 87.5825 61.3364 87.5825 66.9957V71.3987H77.8246ZM93.2943 66.9959V71.421C93.0975 71.4078 91.1523 71.3989 91.1523 71.3989V66.9959C91.1523 58.9253 84.5862 52.3592 76.5156 52.3592C68.445 52.3592 61.8788 58.9253 61.8788 66.9959V71.3989C61.8788 71.3989 59.9337 71.4081 59.7369 71.421V66.9959C59.7369 57.7441 67.2638 50.2172 76.5156 50.2172C85.7674 50.2172 93.2943 57.7439 93.2943 66.9959Z" fill="#222D39"/>
<path d="M106.503 7.61597H91.2714C90.2857 7.61597 89.4863 8.41486 89.4863 9.401C89.4863 10.3869 90.2854 11.186 91.2714 11.186H106.503C107.489 11.186 108.288 10.3871 108.288 9.401C108.288 8.41486 107.489 7.61597 106.503 7.61597Z" fill="#222D39"/>
<path d="M106.503 15.2317H95.0795C94.0938 15.2317 93.2944 16.0306 93.2944 17.0167C93.2944 18.0026 94.0935 18.8018 95.0795 18.8018H106.503C107.489 18.8018 108.288 18.0029 108.288 17.0167C108.288 16.0306 107.489 15.2317 106.503 15.2317Z" fill="#222D39"/>
<path d="M39.8646 7.61597H24.6327C23.647 7.61597 22.8477 8.41486 22.8477 9.401C22.8477 10.3869 23.6468 11.186 24.6327 11.186H39.8644C40.8501 11.186 41.6494 10.3871 41.6494 9.401C41.6494 8.41486 40.8503 7.61597 39.8646 7.61597Z" fill="#222D39"/>
<path d="M36.0565 15.2317H24.6327C23.647 15.2317 22.8477 16.0306 22.8477 17.0167C22.8477 18.0026 23.6468 18.8018 24.6327 18.8018H36.0565C37.0422 18.8018 37.8415 18.0029 37.8415 17.0167C37.8415 16.0306 37.0424 15.2317 36.0565 15.2317Z" fill="#222D39"/>
<path d="M106.503 41.8872H100.791C99.8057 41.8872 99.0063 42.6861 99.0063 43.6722C99.0063 44.6584 99.8055 45.4573 100.791 45.4573H106.503C107.489 45.4573 108.288 44.6584 108.288 43.6722C108.288 42.6861 107.489 41.8872 106.503 41.8872Z" fill="#222D39"/>
<path d="M93.1755 41.8872H87.4637C86.478 41.8872 85.6787 42.6861 85.6787 43.6722C85.6787 44.6584 86.4778 45.4573 87.4637 45.4573H93.1755C94.1612 45.4573 94.9606 44.6584 94.9606 43.6722C94.9606 42.6861 94.1612 41.8872 93.1755 41.8872Z" fill="#222D39"/>
<path d="M33.2004 24.7516C30.6414 24.7516 28.5596 26.8336 28.5596 29.3924C28.5596 31.9512 30.6416 34.0332 33.2004 34.0332C35.7592 34.0332 37.8412 31.9512 37.8412 29.3924C37.8412 26.8336 35.7592 24.7516 33.2004 24.7516ZM33.2004 30.4634C32.6099 30.4634 32.1294 29.9829 32.1294 29.3924C32.1294 28.8019 32.6099 28.3214 33.2004 28.3214C33.7909 28.3214 34.2714 28.8019 34.2714 29.3924C34.2714 29.9829 33.7909 30.4634 33.2004 30.4634Z" fill="#222D39"/>
<path d="M97.9353 24.7516C95.3763 24.7516 93.2944 26.8336 93.2944 29.3924C93.2944 31.9512 95.3765 34.0332 97.9353 34.0332C100.494 34.0332 102.576 31.9512 102.576 29.3924C102.576 26.8336 100.494 24.7516 97.9353 24.7516ZM97.9353 30.4634C97.3448 30.4634 96.8643 29.9829 96.8643 29.3924C96.8643 28.8019 97.3448 28.3214 97.9353 28.3214C98.5257 28.3214 99.0062 28.8019 99.0062 29.3924C99.0062 29.9829 98.5257 30.4634 97.9353 30.4634Z" fill="#222D39"/>
<circle cx="76.5" cy="92.4999" r="12.5" fill="#6AE18A"/>
<path d="M76.5156 77.5865C68.1825 77.5865 61.4028 84.366 61.4028 92.6993C61.4028 101.033 68.1823 107.812 76.5156 107.812C84.8488 107.812 91.6284 101.033 91.6284 92.6993C91.6284 84.366 84.849 77.5865 76.5156 77.5865ZM76.5156 104.242C70.151 104.242 64.9729 99.064 64.9729 92.6993C64.9729 86.3347 70.151 81.1566 76.5156 81.1566C82.8803 81.1566 88.0583 86.3347 88.0583 92.6993C88.0583 99.064 82.8805 104.242 76.5156 104.242Z" fill="#222D39"/>
<path d="M84.5228 88.1919C83.8736 87.4498 82.746 87.3752 82.0039 88.0238L75.7128 93.5288L72.6065 90.0772C71.947 89.3444 70.8183 89.2852 70.0856 89.9447C69.3528 90.6042 69.2934 91.7328 69.9529 92.4656L74.2368 97.2255C74.589 97.6167 75.0755 97.8163 75.564 97.8163C75.9815 97.8163 76.4005 97.6709 76.739 97.3747L84.3549 90.7108C85.0966 90.0614 85.1719 88.9338 84.5228 88.1919Z" fill="#222D39"/>
</g>
<defs>
<clipPath id="clip0_5_2077">
<rect width="114" height="114" fill="white"/>
</clipPath>
</defs>
</svg>
