<svg width="121" height="104" viewBox="0 0 121 104" fill="none" xmlns="http://www.w3.org/2000/svg">
<circle cx="96.0044" cy="80.0046" r="14" fill="#FF8C83"/>
<path d="M72.1845 80.4159H35.3308C33.9401 80.4159 33.7441 80.2219 33.7256 78.8083C33.7132 77.9147 33.7132 77.0191 33.7029 76.1256C33.6713 75.994 33.6264 75.8661 33.5687 75.7438C32.8734 76.4268 32.2999 77.1429 31.5839 77.663C29.663 79.0559 29.1575 80.8781 29.2916 83.1915C29.4794 86.4479 29.3576 89.725 29.3308 92.9918C29.3308 93.6975 29.5372 94.0649 30.2263 94.36C32.0997 95.1545 33.0694 97.0778 32.7434 99.0816C32.5799 100.02 32.1142 100.88 31.4174 101.529C30.7206 102.179 29.8307 102.583 28.8831 102.681C26.8199 102.842 25.0331 101.723 24.344 99.841C23.9408 98.7997 23.9607 97.642 24.3994 96.6152C24.8382 95.5884 25.6609 94.7738 26.6919 94.3455C27.3604 94.0566 27.5172 93.7078 27.5172 93.0454C27.4925 88.8149 27.5172 84.5844 27.4883 80.354C27.4633 79.965 27.5263 79.5753 27.6728 79.214C27.8193 78.8528 28.0454 78.5293 28.3343 78.2676C29.9532 76.7281 31.5309 75.146 33.0674 73.5212C33.4438 73.1075 33.6698 72.579 33.709 72.021C33.773 69.3774 33.7379 66.7318 33.7379 63.9397C32.0543 64.0099 30.5007 63.527 29.0337 64.8642C26.9024 66.804 24.575 68.5293 22.3013 70.3102C21.802 70.7043 21.6617 71.0407 21.8392 71.6805C22.1326 72.6614 22.0649 73.7151 21.6486 74.6505C21.2323 75.5859 20.4947 76.3413 19.5696 76.7797C18.6729 77.2176 17.6535 77.3358 16.6804 77.1148C15.7073 76.8938 14.839 76.3467 14.2193 75.5644C13.5997 74.7821 13.266 73.8114 13.2736 72.8134C13.2811 71.8153 13.6295 70.8499 14.2609 70.077C14.8956 69.2957 15.7826 68.7598 16.7694 68.5613C17.7562 68.3629 18.7813 68.5143 19.6686 68.9895C20.3103 69.3341 20.6714 69.2453 21.1831 68.8264C23.496 66.9299 25.8708 65.1119 28.1568 63.1823C28.5831 62.7946 29.0824 62.4958 29.6255 62.3034C30.1686 62.111 30.7446 62.0288 31.3198 62.0618C33.7297 62.1567 33.7317 62.0907 33.7317 59.6494C33.7317 58.4917 33.7317 57.334 33.7317 56.0524H32.4938C27.7813 56.0524 23.0709 56.0751 18.3605 56.0215C17.689 55.9962 17.0412 55.7665 16.5036 55.3632C13.9988 53.4357 11.5374 51.4422 9.09448 49.4405C8.47551 48.9308 8.02571 48.7822 7.21485 49.1929C6.68995 49.4523 6.11749 49.6016 5.53274 49.6314C4.948 49.6612 4.36333 49.5709 3.81477 49.3662C3.26621 49.1615 2.76537 48.8466 2.34308 48.4409C1.9208 48.0352 1.58601 47.5474 1.35935 47.0075C1.12658 46.4696 1.00442 45.8903 1.00012 45.3042C0.99582 44.7181 1.10948 44.1371 1.33434 43.5958C1.55919 43.0546 1.89064 42.5641 2.30895 42.1536C2.72726 41.7432 3.22388 41.4211 3.76923 41.2065C6.13991 40.2861 8.76642 41.4583 9.47411 43.8893C9.71964 44.7313 9.4865 45.7053 9.53395 46.6154C9.55252 46.9662 9.63711 47.4408 9.87232 47.6307C12.3936 49.7053 14.9383 51.7504 17.5063 53.7659C17.8197 54.0196 18.2038 54.1702 18.6061 54.1972C23.4877 54.222 28.3714 54.2096 33.2551 54.1972C33.3848 54.1836 33.5131 54.1594 33.6389 54.125V48.1796C32.6073 48.1796 31.586 48.2456 30.577 48.1548C29.9764 48.1186 29.397 47.9188 28.9017 47.577C26.2628 45.5381 23.6672 43.4497 21.082 41.3386C20.6157 40.9589 20.2959 40.897 19.7388 41.1983C18.8473 41.7012 17.8063 41.8712 16.8012 41.6781C15.7961 41.485 14.8922 40.9412 14.2505 40.1438C13.6144 39.3638 13.267 38.3881 13.2668 37.3816C13.2667 36.375 13.6139 35.3992 14.2499 34.6191C14.8858 33.839 15.7714 33.3023 16.7572 33.0997C17.7429 32.8971 18.7684 33.041 19.6604 33.5071C21.4946 34.4295 22.4107 36.4601 21.8247 38.5547C21.6411 39.2151 21.8247 39.535 22.3013 39.9168C24.7772 41.8772 27.2304 43.881 29.7187 45.8353C30.0728 46.0882 30.4913 46.2356 30.9257 46.2604C31.8109 46.3244 32.7042 46.281 33.7256 46.281V45.1027C33.7256 40.8021 33.7256 36.5028 33.7256 32.2049C33.7256 29.9865 33.7256 29.9865 35.9745 29.6728C35.9745 27.9497 35.96 26.2059 35.9745 24.46C35.9834 21.4959 36.5344 18.5584 37.6003 15.7927C41.2688 6.41135 50.6545 0.439145 60.7892 1.04173C70.7774 1.63606 79.3956 8.76597 81.8591 18.5147C82.0654 19.3401 82.3914 19.6455 83.291 19.6414C93.469 19.6063 103.647 19.6187 113.827 19.6208C115.356 19.6208 115.538 19.8024 115.538 21.348C115.538 31.083 115.538 40.8165 115.538 50.5487C115.538 52.0531 115.389 52.1996 113.887 52.1996C104.671 52.1996 95.4552 52.1996 86.2394 52.1996C84.8343 52.1996 84.8343 52.1996 84.8343 53.6173C84.8343 55.4746 84.8714 57.3319 84.8157 59.1892C84.7889 60.0394 85.1252 60.349 85.9237 60.3964C89.2043 60.6028 92.1857 59.7938 94.8204 57.8003C96.0708 56.8531 96.0398 56.8944 97.2798 57.7838C101.163 60.576 105.357 61.292 109.824 59.3976C110.809 58.9849 111.661 58.2131 112.507 57.5403C113.27 56.9377 113.815 56.9212 114.273 57.7199C118.422 65.0376 120.782 72.8278 119.744 81.2971C118.482 91.5967 112.699 98.3511 102.88 101.597C100.839 102.272 98.6932 102.819 96.5639 102.978C94.9009 103.102 93.1575 102.66 91.5048 102.251C84.0462 100.406 78.1102 96.5103 74.6398 89.4051C73.5056 87.0487 72.7554 84.526 72.4177 81.9327C72.3702 81.4683 72.2898 81.002 72.1845 80.4159ZM35.6856 31.7137C35.6609 32.0914 35.6237 32.3927 35.6217 32.694C35.6217 47.6224 35.6141 62.5495 35.599 77.4752C35.599 78.41 35.8899 78.6081 36.7771 78.6061C48.158 78.5772 59.5396 78.5772 70.9218 78.6061C71.84 78.6061 72.1598 78.3873 72.1721 77.4215C72.199 70.5578 74.2354 64.2389 77.5036 58.277C78.3289 56.7561 78.6549 56.7665 79.965 57.8643C80.8192 58.5804 81.822 59.1211 82.9485 59.8681V52.212C81.3351 52.212 79.7649 52.212 78.203 52.212C76.7588 52.212 76.5834 52.0386 76.5813 50.623C76.5813 44.7416 76.5813 38.8602 76.5813 32.9788V31.722L35.6856 31.7137ZM113.666 21.5874H78.4444C78.4197 21.8578 78.3928 22.027 78.3928 22.1941C78.3928 31.2742 78.4032 40.3542 78.3701 49.4343C78.3701 50.3898 78.855 50.3671 79.5297 50.365C90.4966 50.3568 101.463 50.3568 112.428 50.365H113.666V21.5874ZM82.6349 80.1105C82.6267 83.6562 84.0257 87.0603 86.5247 89.5753C89.0237 92.0903 92.4184 93.5105 95.9635 93.5242C103.416 93.5696 109.548 87.5148 109.548 80.1105C109.548 72.7556 103.47 66.6451 96.1141 66.6101C88.6946 66.5729 82.6597 72.6235 82.6349 80.1187V80.1105ZM45.7687 29.7182H72.9087C72.9087 27.8382 72.9087 26.0222 72.9087 24.2062C72.8801 21.3348 71.9477 18.5455 70.2439 16.2343C68.5402 13.923 66.1518 12.2074 63.4178 11.3311C57.8615 9.57698 51.7707 11.6551 48.2962 16.3292C45.2488 20.407 45.6738 25.0461 45.7687 29.7182ZM80.2064 19.6331C80.093 19.1441 80.0331 18.8077 79.9403 18.4878C77.0724 8.50182 67.7217 1.99307 57.325 3.01045C48.7852 3.85448 42.8719 8.51627 39.4263 16.3148C38.3443 18.8151 37.8151 21.5196 37.8747 24.2433C37.8933 26.0511 37.8747 27.8589 37.8747 29.6707H43.8169C43.8169 27.9682 43.7942 26.3565 43.8169 24.7469C43.8245 23.7846 43.8934 22.8237 44.0232 21.8701C45.0693 14.8537 51.1972 9.26124 58.2597 8.86915C65.7596 8.45642 72.3991 13.2214 74.2684 20.3142C74.9823 23.0196 74.776 25.7704 74.8193 28.513C74.8193 28.9051 74.8193 29.2972 74.8193 29.679H76.5751V28.48C76.5751 25.9706 76.5937 23.4612 76.5751 20.9518C76.5751 20.0273 76.9878 19.6249 77.8709 19.6228L80.2064 19.6331ZM97.024 64.7198C97.5171 64.8126 97.9483 64.9096 98.3857 64.9695C107.051 66.1932 112.991 74.8378 111.015 83.369C109.503 89.8984 104.483 94.4363 97.8617 95.2969C97.5522 95.3361 97.0364 95.6147 97.0219 95.7983C96.9559 97.5318 96.9827 99.2653 96.9827 101.226C98.916 100.73 100.659 100.373 102.347 99.8348C111.902 96.7868 117.661 89.1657 118.09 79.1509C118.358 72.8485 116.819 66.9753 114.104 61.3436C113.827 60.7699 113.505 60.2189 113.194 59.6391C107.86 63.2917 102.498 62.9409 97.0261 60.0518L97.024 64.7198ZM78.9396 59.6391C78.7869 59.9011 78.6611 60.1013 78.5517 60.3097C76.1088 64.9509 74.5057 69.8644 74.0889 75.0999C73.6391 80.7461 74.5015 86.1487 77.6934 90.9797C81.3206 96.469 86.6727 99.3024 92.9223 100.699C93.6073 100.852 94.3046 100.947 95.1382 101.094C95.1382 99.3953 95.099 97.8537 95.1526 96.3163C95.1795 95.5404 94.8534 95.3608 94.1499 95.2576C87.9024 94.3331 83.5613 90.8972 81.5764 84.9394C79.5483 78.8413 81.0462 73.3995 85.639 68.8987C87.9085 66.672 90.7022 65.4131 93.861 64.9468C94.3005 64.8807 95.0495 64.598 95.0701 64.3669C95.1836 62.9822 95.1258 61.5851 95.1258 60.0435C89.5901 62.9388 84.2566 63.2773 78.9396 59.6391ZM7.87716 45.274C7.87431 44.9442 7.80655 44.6182 7.67773 44.3145C7.54892 44.0109 7.36158 43.7357 7.1264 43.5045C6.89122 43.2733 6.61281 43.0907 6.30708 42.9671C6.00135 42.8435 5.67426 42.7814 5.34452 42.7842C5.01477 42.787 4.68882 42.8548 4.38526 42.9837C4.08171 43.1125 3.80649 43.2999 3.57534 43.5351C3.34418 43.7703 3.16162 44.0488 3.03806 44.3546C2.9145 44.6604 2.85236 44.9875 2.8552 45.3173C2.86095 45.9834 3.13102 46.6199 3.60598 47.0869C4.08094 47.5538 4.7219 47.8129 5.38785 47.8071C6.0538 47.8014 6.6902 47.5313 7.15704 47.0562C7.62387 46.5812 7.8829 45.9401 7.87716 45.274ZM17.6425 75.3372C18.2989 75.3312 18.9275 75.0716 19.397 74.6128C19.8665 74.154 20.1405 73.5315 20.1617 72.8753C20.1496 72.2024 19.8775 71.5603 19.4025 71.0836C18.9275 70.607 18.2864 70.3327 17.6136 70.3184C16.9565 70.3415 16.3343 70.6201 15.8792 71.0948C15.4242 71.5696 15.1722 72.2032 15.1769 72.8609C15.1722 73.1865 15.2327 73.5098 15.3548 73.8117C15.477 74.1136 15.6582 74.388 15.888 74.6187C16.1177 74.8495 16.3913 75.0319 16.6927 75.1553C16.994 75.2787 17.3169 75.3406 17.6425 75.3372ZM25.9409 98.3758C25.9626 99.0332 26.2362 99.657 26.7052 100.118C27.1743 100.579 27.8026 100.842 28.4601 100.852C29.7641 100.852 30.9484 99.6532 30.9567 98.3345C30.95 98.0009 30.8775 97.6719 30.7435 97.3664C30.6094 97.0608 30.4164 96.7847 30.1755 96.5539C29.9345 96.3231 29.6504 96.1421 29.3395 96.0213C29.0285 95.9005 28.6967 95.8422 28.3632 95.8499C27.7072 95.864 27.0836 96.1379 26.6295 96.6115C26.1753 97.0852 25.9276 97.7197 25.9409 98.3758ZM17.6652 39.8631C18.3208 39.8512 18.9467 39.5873 19.4131 39.1263C19.8795 38.6652 20.1505 38.0423 20.17 37.3867C20.17 36.0371 18.9321 34.8154 17.5786 34.8567C16.9232 34.8912 16.3066 35.1775 15.8572 35.6558C15.4078 36.1341 15.1604 36.7675 15.1666 37.4239C15.1668 37.7492 15.232 38.0712 15.3584 38.371C15.4848 38.6708 15.6698 38.9423 15.9026 39.1695C16.1353 39.3968 16.4112 39.5752 16.7139 39.6943C17.0166 39.8134 17.34 39.8708 17.6652 39.8631Z" fill="#222D39" stroke="#222D39"/>
<path d="M45.802 83.759C49.3404 83.759 52.8789 83.7384 56.4174 83.7921C56.8094 83.7921 57.4263 84.1718 57.5357 84.5061C57.7564 85.1809 57.3294 85.5833 56.5763 85.5771C55.1691 85.5771 53.7599 85.5771 52.3507 85.5771C46.6149 85.5771 40.877 85.5771 35.1391 85.5565C34.7122 85.5492 34.2991 85.4045 33.961 85.1438C33.7939 85.0034 33.7774 84.3947 33.9383 84.2172C34.2142 83.9443 34.5822 83.7846 34.9699 83.7694C38.0957 83.7364 41.2216 83.7487 44.3494 83.7487L45.802 83.759Z" fill="#222D39"/>
<path d="M97.8949 14.4617H105.832C106.105 14.4617 106.451 14.3833 106.639 14.5133C106.963 14.7382 107.398 15.0973 107.402 15.4048C107.406 15.7122 106.975 16.0734 106.655 16.3004C106.468 16.4325 106.123 16.3602 105.849 16.3602C100.526 16.3602 95.201 16.3602 89.875 16.3602C89.1488 16.3602 88.1729 16.5398 88.1646 15.4254C88.1564 14.311 89.1137 14.4658 89.8565 14.4637C92.5366 14.4575 95.2168 14.4617 97.8949 14.4617Z" fill="#222D39"/>
<rect x="50.0044" y="41.0046" width="18" height="26" fill="#FF8C83"/>
<path d="M49.3733 54.0714C49.3733 49.8781 49.3733 45.682 49.3733 41.4831C49.3733 40.084 49.6024 39.8446 50.96 39.8425C56.5266 39.8425 62.0974 39.8425 67.6723 39.8425C68.999 39.8425 69.2589 40.0902 69.261 41.3779C69.261 49.7701 69.261 58.1567 69.261 66.5379C69.261 68.1269 69.131 68.2528 67.5671 68.2528C62.0362 68.2528 56.5039 68.2528 50.9703 68.2528C49.5446 68.2528 49.3837 68.0836 49.3837 66.639C49.3754 62.4498 49.372 58.2606 49.3733 54.0714ZM67.2576 66.3769V41.8381H51.3396V66.3769H67.2576Z" fill="#222D39"/>
<path d="M96.1118 43.0204C92.4378 43.0204 88.7646 43.0204 85.092 43.0204C84.7516 43.0204 84.3451 43.0679 84.0934 42.9028C83.9502 42.8038 83.8307 42.6744 83.7433 42.5239C83.6559 42.3734 83.6029 42.2054 83.5879 42.0319C83.6044 41.7534 83.9263 41.3984 84.2069 41.256C84.4875 41.1136 84.8774 41.1797 85.2199 41.1797C92.3932 41.1797 99.5684 41.1797 106.746 41.1797C107.088 41.1797 107.482 41.0992 107.761 41.2374C108.103 41.4067 108.586 41.7719 108.586 42.0485C108.586 42.3683 108.174 42.7418 107.846 42.9792C107.664 43.1133 107.313 43.0246 107.039 43.0266L96.1118 43.0204Z" fill="#222D39"/>
<path d="M96.0379 36.8625C92.291 36.8625 88.5421 36.8811 84.7952 36.8316C84.3826 36.8316 83.7368 36.5035 83.6213 36.1753C83.3572 35.4365 83.8276 35.0424 84.6095 35.0445C86.7429 35.0445 88.8743 35.0445 91.0056 35.0445H106.893C107.167 35.0445 107.512 34.9495 107.704 35.0754C108.06 35.2983 108.335 35.6553 108.642 35.9545C108.327 36.2538 108.05 36.7346 107.687 36.813C107.029 36.9554 106.319 36.8605 105.624 36.8605L96.0379 36.8625Z" fill="#222D39"/>
<path d="M96.0358 28.8803H107.054C107.328 28.8803 107.673 28.7916 107.858 28.9278C108.172 29.1672 108.543 29.5304 108.576 29.873C108.599 30.1185 108.141 30.459 107.834 30.6633C107.664 30.7768 107.367 30.7046 107.128 30.7046H84.9892C84.7829 30.7046 84.5167 30.7768 84.3847 30.6778C84.069 30.4425 83.5594 30.0814 83.6027 29.8523C83.6584 29.4994 84.069 29.1424 84.428 28.9237C84.6508 28.7834 85.0284 28.8865 85.3379 28.8865L96.0358 28.8803Z" fill="#222D39"/>
<path d="M96.0564 73.8123C99.6032 73.8123 102.323 76.5156 102.337 80.0651C102.351 83.6146 99.6321 86.3696 96.1163 86.3902C95.2808 86.4063 94.4507 86.2542 93.6753 85.9427C92.8999 85.6312 92.1951 85.1669 91.6029 84.5772C91.0107 83.9876 90.5432 83.2848 90.2283 82.5107C89.9133 81.7366 89.7574 80.907 89.7697 80.0713C89.78 76.5342 92.5097 73.8164 96.0564 73.8123ZM100.509 80.0672C100.493 78.8897 100.015 77.7656 99.1777 76.9378C98.3404 76.11 97.2111 75.6448 96.0337 75.6427C94.857 75.6672 93.7359 76.1479 92.9067 76.9834C92.0776 77.8188 91.6053 78.9438 91.5895 80.1208C91.604 82.5044 93.7023 84.5783 96.0895 84.568C98.4766 84.5577 100.528 82.4775 100.509 80.0672Z" fill="#222D39" stroke="#222D39"/>
<path d="M56.3307 58.2131C56.3307 57.8355 56.3141 57.4578 56.3307 57.0802C56.3925 55.8007 56.2192 54.7317 55.2516 53.6442C53.4834 51.6569 53.993 48.452 56.0769 46.7392C57.0854 45.9193 58.3669 45.5116 59.6637 45.5981C60.9605 45.6846 62.1765 46.2589 63.0672 47.2056C64.8436 49.1062 64.8787 52.2698 63.0445 54.1209C62.7833 54.3604 62.5793 54.6555 62.4475 54.9845C62.3157 55.3135 62.2595 55.6679 62.2831 56.0215C62.3223 57.6332 62.2831 59.247 62.2996 60.8587C62.2996 61.6842 61.9613 62.0598 61.1298 62.0453C59.9289 62.0247 58.7261 62.0267 57.5273 62.0453C56.6401 62.0618 56.2894 61.647 56.3245 60.7844C56.3595 59.9218 56.3307 59.0716 56.3307 58.2131ZM58.1484 56.9275C58.1484 57.7158 58.2041 58.5103 58.136 59.2924C58.0493 60.2561 58.6291 60.2396 59.2935 60.2293C59.9248 60.219 60.5438 60.3242 60.4922 59.3295C60.4262 58.0914 60.5252 56.8532 60.4633 55.6274C60.4056 54.513 60.6078 53.669 61.5713 52.8786C62.964 51.7353 62.865 49.6531 61.5837 48.4005C61.2852 48.0907 60.9266 47.8452 60.5299 47.6791C60.1332 47.5129 59.7067 47.4296 59.2766 47.4342C58.8465 47.4389 58.4219 47.5313 58.0289 47.706C57.6358 47.8807 57.2826 48.1339 56.9909 48.45C55.7426 49.7439 55.689 51.8364 57.0858 52.9343C58.0101 53.6586 58.2495 54.4387 58.1566 55.487C58.1133 55.9637 58.1484 56.4466 58.1484 56.9275Z" fill="#222D39"/>
</svg>
