<svg width="118" height="105" viewBox="0 0 118 105" fill="none" xmlns="http://www.w3.org/2000/svg">
<g clip-path="url(#clip0_5_2127)">
<rect x="78" y="4" width="38" height="29" fill="#FFD459"/>
<path d="M64.5006 70.3359C71.1829 69.1019 78.5147 73.5327 81.1999 80.4188C82.6755 84.2005 83.1435 88.19 83.4529 92.1872C83.7086 95.5456 83.7726 98.9219 83.8851 102.291C83.9541 104.41 83.3736 104.997 81.315 104.997H32.0456C30.0432 104.997 29.4422 104.41 29.4883 102.406C29.6085 95.7354 29.7005 89.0649 31.4881 82.5944C33.3268 75.9238 37.664 71.7624 44.4716 70.3205C45.1848 70.1993 45.9066 70.1358 46.63 70.1307C47.3 70.0999 47.9726 70.1307 48.6759 70.1307C49.1873 68.558 49.0058 67.288 47.6197 65.9898C44.6839 63.2395 43.4794 59.6297 43.2518 55.6504C43.0702 52.469 42.9526 49.2723 42.569 46.1115C42.0575 41.8603 43.6047 38.5147 46.8499 36.0286C51.7088 32.3008 57.2352 30.8974 63.314 32.0494C65.3829 32.4394 66.8456 33.5708 67.6614 35.5797C67.9658 36.2757 68.4282 36.8907 69.0117 37.3756C72.7761 40.5518 73.6149 44.1257 71.2493 48.3718C70.3338 50.0138 70.1804 51.6455 70.2469 53.4004C70.3747 56.7357 70.0321 59.9914 68.2496 62.8931C67.4568 64.1759 66.5797 65.5536 65.4135 66.4644C63.9098 67.6266 63.9635 68.8428 64.5006 70.3359ZM40.1651 101.295V97.6673C40.1651 94.8067 40.1421 91.946 40.1651 89.088C40.1804 87.8205 40.9195 87.0688 42.0012 87.0791C43.083 87.0893 43.7019 87.7692 43.8067 88.9905C43.8374 89.3727 43.8221 89.7601 43.8221 90.1424C43.8221 93.3853 43.8655 96.6308 43.799 99.8737C43.776 101 44.0318 101.413 45.2593 101.413C52.875 101.354 60.4907 101.385 68.1064 101.38C68.5514 101.38 68.9963 101.334 69.5206 101.303V99.7634C69.5206 96.305 69.5206 92.8474 69.5206 89.3907C69.5206 88.2593 69.83 87.3382 71.0934 87.1227C72.3567 86.9072 73.1776 87.7795 73.1878 89.3676C73.2108 92.8671 73.1878 96.3666 73.1878 99.8686V101.28H80.2486C80.1207 95.1402 79.9724 89.1136 78.3203 83.2794C76.8576 78.1225 73.4205 74.9258 68.1115 73.8662C67.5976 73.7501 67.0641 73.7519 66.5509 73.8714C66.0377 73.9909 65.558 74.225 65.1476 74.5564C62.7539 76.3266 60.2605 77.9635 57.8234 79.6876C56.9079 80.3315 56.0512 80.37 55.1331 79.6876C52.8085 77.9635 50.4276 76.3138 48.1439 74.5358C47.7543 74.2124 47.2949 73.9845 46.8021 73.8705C46.3093 73.7565 45.7968 73.7594 45.3053 73.879C39.9349 74.9489 36.5286 78.1893 35.0453 83.4026C33.6541 88.2772 33.4112 93.3161 33.2245 98.3523C33.1887 99.3196 33.2245 100.287 33.2245 101.323L40.1651 101.295ZM46.9113 54.0546H47.0034C47.0034 54.9064 46.9139 55.771 47.0162 56.6202C47.5276 60.6585 49.4149 63.8039 53.1537 65.5562C58.1712 67.8883 64.1221 65.0431 65.8406 59.2756C66.5618 56.846 66.462 54.1572 66.6206 51.5788C66.7101 50.1318 65.4724 49.3493 64.1042 49.8239C59.4499 51.4377 54.8109 51.6788 50.1975 49.6469C49.907 49.5087 49.5747 49.4876 49.2692 49.5879C47.8243 50.3242 46.3692 51.0913 46.9062 53.1797C46.9424 53.4701 46.9441 53.7638 46.9113 54.0546ZM46.3743 47.1121C46.842 46.802 47.2873 46.4591 47.7066 46.0858C48.6503 45.1032 49.5735 45.0442 50.7754 45.7395C51.8782 46.3714 53.0671 46.8381 54.3045 47.1249C57.7518 47.9177 61.0635 47.2532 64.2269 45.8087C65.3956 45.2751 66.3393 45.3649 67.2088 46.3219C67.4116 46.5151 67.6287 46.6927 67.8583 46.8529C69.5155 44.4054 69.137 42.3965 66.9505 40.3748C65.9436 39.4288 65.0819 38.3386 64.3932 37.1396C63.8817 36.2826 63.3702 35.7618 62.4112 35.5797C58.1968 34.7741 54.2559 35.6207 50.668 37.822C46.4254 40.4235 45.6863 42.5786 46.3743 47.1121ZM52.5118 69.6894C52.3257 70.4226 52.1941 71.1687 52.118 71.9215C52.095 72.3653 52.2791 73.0016 52.6013 73.2556C53.8647 74.2459 55.1817 75.7648 56.5473 75.8417C57.762 75.9084 59.0688 74.328 60.3347 73.4737C60.5252 73.3757 60.6981 73.2465 60.8462 73.0914C60.9945 72.8784 61.1863 72.5783 61.1479 72.3628C60.9843 71.4109 60.7439 70.4693 60.5674 69.6868L52.5118 69.6894Z" fill="#222D39"/>
<path d="M13 7.5L9.5 5.5L5.5 8.5V11L7 14L5.5 16L1.5 17.5V23C1.83333 23.1667 3 23.7 5 24.5C7 25.3 7.16667 26.5 7 27L5 31L9.5 35.5C10 35 11.4 33.8 13 33C14.6 32.2 15.6667 33.3333 16 34L17 38H21.5C22 38 23.1 37.6 23.5 36C23.9 34.4 26 33.3333 27 33L31 35.5L34.5 31L33.5 28L32.5 24.5L37.5 23L38 19L36.5 16.5L34.5 16L33.5 12.5V9.5L31 5.5L29 6.5H25L23 5.5V2H20L17 3L16 6.5L13 7.5Z" fill="#FFD459"/>
<path d="M96.6538 2.77083C98.0501 1.60348 99.6408 1.32383 101.352 1.33665C105.988 1.37001 110.627 1.33665 115.263 1.34948C117.499 1.34948 117.997 1.83438 117.997 4.01771C117.997 13.5395 117.997 23.0596 117.997 32.578C117.997 34.7383 117.55 35.1796 115.358 35.1821C110.676 35.1821 105.996 35.1821 101.316 35.1821C99.2316 35.1821 98.9222 35.4207 98.4158 37.4014C98.1601 38.3507 97.6077 38.9048 96.6257 38.8946C95.6437 38.8843 95.0913 38.2788 94.8586 37.3552C94.3829 35.4515 94.0633 35.1898 92.0609 35.1847C87.3784 35.1847 82.6985 35.1847 78.0186 35.1847C75.717 35.1847 75.3053 34.7742 75.3027 32.5242C75.3027 23.004 75.3027 13.4839 75.3027 3.96383C75.3002 1.85491 75.8168 1.34178 77.947 1.34178C82.499 1.34178 87.0536 1.36487 91.6057 1.32639C93.447 1.31869 95.1834 1.50855 96.6538 2.77083ZM114.33 5.11066C113.852 5.085 113.438 5.04652 113.026 5.04652C109.067 5.04652 105.11 5.04652 101.155 5.04652C98.9759 5.04652 98.49 5.55964 98.49 7.78402C98.49 15.3406 98.49 22.8963 98.49 30.4512C98.49 30.8668 98.5258 31.2824 98.5386 31.5646H114.327L114.33 5.11066ZM78.9955 5.04395V31.5877H94.7435C94.7797 31.4544 94.802 31.3177 94.81 31.1798C94.81 23.1648 94.81 15.1499 94.81 7.13492C94.81 5.69818 94.1349 5.06448 92.6644 5.05165C89.946 5.02856 87.2275 5.05165 84.5065 5.05165L78.9955 5.04395Z" fill="#222D39"/>
<path d="M20.0929 0.00759513C21.1976 0.00759513 22.3024 0.00759513 23.4174 0.00759513C24.9671 0.0306856 25.5834 0.633603 25.6192 2.16014C25.6397 2.97087 25.5834 3.78417 25.6448 4.59233C25.6704 4.9233 25.8366 5.40306 26.077 5.51595C26.3174 5.62884 26.7879 5.41846 27.0334 5.20551C27.706 4.62056 28.2916 3.92271 28.9489 3.33005C29.8312 2.51676 30.7978 2.48597 31.6648 3.33005C33.4088 5.01822 35.1231 6.73718 36.8075 8.48692C37.7 9.41311 37.6566 10.3393 36.7641 11.3091C36.1861 11.9351 35.5417 12.497 34.9739 13.1384C34.7566 13.3949 34.5264 13.8439 34.6185 14.0825C34.7105 14.3211 35.1913 14.5161 35.5135 14.5392C36.4035 14.6033 37.3036 14.5392 38.191 14.5751C39.4288 14.6264 40.0835 15.2576 40.1014 16.4839C40.132 18.9161 40.132 21.3483 40.1014 23.7805C40.086 25.0223 39.462 25.6662 38.2217 25.7458C37.2883 25.8073 36.3498 25.7329 35.4087 25.7894C35.1197 25.8073 34.7029 25.9869 34.6031 26.2101C34.5034 26.4333 34.6773 26.8567 34.8588 27.0696C35.4496 27.7392 36.1222 28.3344 36.7334 28.9887C37.631 29.9508 37.677 30.8872 36.7896 31.8108C35.1154 33.5623 33.4054 35.2813 31.6596 36.9677C30.7237 37.8734 29.8363 37.8195 28.8466 36.8984C28.1919 36.2878 27.5986 35.6156 26.9311 35.0179C26.724 34.8331 26.3072 34.6766 26.0923 34.7613C25.962 34.8459 25.8526 34.9592 25.7724 35.0926C25.6922 35.2259 25.6434 35.3759 25.6295 35.531C25.5707 36.4649 25.6116 37.4064 25.5962 38.3531C25.5758 39.5179 24.9927 40.2363 23.8061 40.2543C21.2974 40.2979 18.7886 40.2927 16.2799 40.2543C15.0959 40.2389 14.5153 39.5154 14.4693 38.3685C14.4335 37.4321 14.4847 36.4905 14.4284 35.5464C14.4196 35.3937 14.378 35.2448 14.3065 35.1097C14.235 34.9747 14.1352 34.8567 14.0141 34.7639C13.8121 34.6715 13.385 34.8357 13.1779 35.0204C12.5104 35.6156 11.9197 36.3032 11.265 36.901C10.2421 37.8528 9.35211 37.8605 8.36242 36.901C6.68994 35.259 5.03535 33.5982 3.39866 31.9186C2.37573 30.8667 2.39875 30.0047 3.42423 28.922C4.01242 28.3062 4.64919 27.7341 5.21436 27.0978C5.40616 26.8798 5.58517 26.4667 5.50078 26.2486C5.41639 26.0305 5.0021 25.8304 4.73358 25.8125C3.84364 25.756 2.94346 25.8125 2.05607 25.7765C0.662326 25.7047 0.0511254 25.0787 0.0357815 23.6856C0.0102083 21.3406 0.0102083 18.9939 0.0357815 16.6456C0.0511254 15.1857 0.675112 14.5931 2.17115 14.5777C2.97926 14.5623 3.78993 14.6162 4.59549 14.5546C4.91771 14.5315 5.38314 14.357 5.49567 14.1159C5.60819 13.8747 5.39593 13.4206 5.18879 13.1794C4.63385 12.5354 3.9894 11.971 3.39866 11.3476C2.44222 10.3213 2.40898 9.42337 3.36542 8.43561C5.00892 6.71837 6.68994 5.02934 8.40846 3.36854C9.31631 2.48597 10.2855 2.51163 11.2215 3.36854C11.7841 3.88166 12.2777 4.48458 12.8608 4.97717C13.2205 5.22588 13.6075 5.43247 14.0141 5.59292C14.1701 5.14907 14.4182 4.71805 14.4616 4.26394C14.5409 3.4609 14.4616 2.64247 14.5077 1.83431C14.5793 0.669521 15.2467 0.0383831 16.4001 0.0152926C17.625 -0.0154947 18.873 0.0101607 20.0929 0.00759513ZM3.68252 22.0718C5.98411 22.0205 7.87142 21.846 9.09126 24.7529C10.3392 27.729 8.5798 28.8322 7.18606 30.3125L9.85334 33.1809C11.4312 31.4773 12.5999 29.9662 15.5536 31.1848C18.5073 32.4035 18.0854 34.4303 18.1442 36.5495H21.9188C22.3075 32.3342 22.3024 32.3214 25.9287 30.7564C28.2942 29.7301 28.7852 32.383 30.1662 32.9551L32.8309 30.3767C32.1788 28.9528 29.8593 28.4396 30.5293 26.3153C30.9359 25.0325 31.3323 23.4393 32.2862 22.7235C33.3091 21.9538 34.9663 22.0795 36.4316 21.7973V18.1695C34.1454 18.2337 32.2453 18.4594 31.0254 15.5295C29.7826 12.5431 31.5599 11.4528 32.946 9.96471L30.2506 7.08354C28.7162 8.84867 27.5117 10.2751 24.5835 9.1078C21.594 7.91736 22.0492 5.87514 21.9904 3.73799H17.9473C19.1288 7.35806 17.0062 8.62803 14.1931 9.5773C11.7892 10.388 11.3059 7.95328 9.95564 7.32983L7.22442 9.85952C7.99161 11.327 10.2702 11.8658 9.59505 13.9645C9.17565 15.2806 8.73068 16.8918 7.74611 17.6384C6.76154 18.385 5.1223 18.1516 3.68252 18.3799V22.0718Z" fill="#222D39"/>
<path d="M21.8932 57.1437C25.1283 57.1437 28.1766 57.1437 31.2275 57.1437C31.6552 57.1126 32.0852 57.1385 32.5061 57.2206C33.4396 57.4772 33.9536 58.1468 33.8743 59.1089C33.8646 59.5217 33.7022 59.9162 33.4185 60.2154C33.1349 60.5147 32.7504 60.6973 32.3399 60.7278C32.0854 60.7583 31.8291 60.7721 31.5727 60.7689C27.9209 60.7689 24.2664 60.7817 20.6146 60.7689C18.8245 60.7689 18.2312 60.1583 18.226 58.4008C18.2124 54.7354 18.2124 51.0709 18.226 47.4072C18.226 45.9397 18.914 45.0981 20.0443 45.0981C21.1746 45.0981 21.8779 45.9089 21.8881 47.3764C21.9086 50.5731 21.8932 53.7673 21.8932 57.1437Z" fill="#222D39"/>
<path d="M94.8254 57.136C94.8254 53.9444 94.8254 50.9246 94.8254 47.8998C94.8048 47.4324 94.8374 46.9641 94.9225 46.5041C95.0196 46.1158 95.2431 45.7711 95.5577 45.5248C95.8723 45.2785 96.2599 45.1448 96.659 45.1448C97.058 45.1448 97.4456 45.2785 97.7602 45.5248C98.0748 45.7711 98.2984 46.1158 98.3954 46.5041C98.4722 46.8796 98.5057 47.2627 98.4951 47.6458C98.4951 51.1812 98.4951 54.7183 98.4951 58.2571C98.4951 60.2044 97.9351 60.7586 95.9838 60.7637C92.4036 60.7637 88.8463 60.7637 85.2789 60.7637C85.1101 60.7637 84.9388 60.7637 84.7674 60.7637C83.6013 60.6868 82.8366 59.9941 82.8213 58.9883C82.8213 57.9441 83.6141 57.1565 84.8365 57.1437C87.6495 57.1154 90.4421 57.1437 93.2475 57.1437L94.8254 57.136Z" fill="#222D39"/>
<path d="M58.2148 20.517C55.9618 20.517 53.7088 20.5324 51.4533 20.517C50.0647 20.517 49.3077 19.8372 49.3205 18.7006C49.3333 17.564 50.126 16.9047 51.4968 16.9047C56.0045 16.8944 60.5122 16.8944 65.0199 16.9047C66.3701 16.9047 67.1706 17.623 67.1578 18.7314C67.145 19.8397 66.3676 20.4965 64.9764 20.5068C62.7234 20.5273 60.4704 20.5145 58.2148 20.517Z" fill="#222D39"/>
<path d="M106.479 12.4944C105.587 12.4944 104.689 12.5328 103.802 12.4944C102.6 12.4328 101.896 11.7478 101.876 10.6984C101.856 9.64911 102.503 8.88712 103.712 8.84864C105.541 8.78706 107.372 8.79989 109.198 8.84864C110.287 8.87686 110.937 9.52083 111.024 10.6112C111.103 11.599 110.297 12.3815 109.159 12.4841C108.694 12.5252 108.223 12.4995 107.755 12.5021H106.477L106.479 12.4944Z" fill="#222D39"/>
<path d="M106.443 16.4481C107.293 16.4481 108.144 16.4147 109.001 16.4481C110.244 16.5019 111.047 17.2511 111.047 18.2876C111.047 19.2805 110.279 20.0656 109.118 20.104C107.328 20.1605 105.538 20.163 103.748 20.104C102.549 20.0656 101.868 19.3344 101.874 18.2748C101.879 17.2152 102.574 16.5173 103.763 16.4532C104.653 16.4096 105.548 16.4481 106.443 16.4481Z" fill="#222D39"/>
<path d="M106.369 27.7085C105.433 27.7085 104.497 27.7496 103.556 27.7085C102.513 27.6495 101.904 27.0543 101.876 25.9922C101.845 24.8659 102.492 24.1962 103.564 24.1372C105.472 24.0577 107.4 24.0705 109.3 24.1372C109.536 24.1406 109.77 24.1921 109.986 24.2887C110.202 24.3853 110.396 24.5249 110.556 24.6992C110.717 24.8734 110.84 25.0785 110.919 25.3021C110.998 25.5257 111.031 25.7631 111.016 25.9999C110.919 27.0107 110.348 27.6624 109.295 27.7137C108.326 27.747 107.356 27.7085 106.369 27.7085Z" fill="#222D39"/>
<path d="M86.954 8.83322C87.8491 8.83322 88.7441 8.7896 89.6341 8.83322C90.7005 8.90249 91.391 9.45153 91.4395 10.5932C91.483 11.64 90.7695 12.4251 89.6034 12.4636C87.7757 12.5217 85.9464 12.5217 84.1154 12.4636C83.0515 12.4276 82.3738 11.7939 82.2894 10.6933C82.2127 9.68243 82.9825 8.89736 84.1486 8.83579C85.0795 8.78191 86.0206 8.83065 86.954 8.83322Z" fill="#222D39"/>
<path d="M86.898 20.1219C86.0055 20.1219 85.1079 20.1655 84.2205 20.1219C83.0415 20.0527 82.2922 19.3189 82.2795 18.326C82.2667 17.3331 83.0211 16.5147 84.1719 16.4813C86.0004 16.4275 87.8314 16.4198 89.6599 16.4813C90.7135 16.5224 91.4219 17.1253 91.4347 18.2773C91.4475 19.4292 90.7672 20.0142 89.7059 20.1065C88.7751 20.1861 87.834 20.1219 86.8929 20.1219H86.898Z" fill="#222D39"/>
<path d="M86.8469 24.0936C87.7394 24.0936 88.637 24.0654 89.527 24.0936C90.7084 24.1423 91.4245 24.8402 91.4398 25.8895C91.4552 26.9722 90.7954 27.6854 89.5832 27.706C87.7931 27.7547 86.003 27.7496 84.2256 27.706C83.0518 27.6803 82.2923 26.9363 82.2795 25.9408C82.2642 24.8966 83.0723 24.1449 84.2947 24.091C85.1437 24.0679 85.9953 24.0936 86.8469 24.0936Z" fill="#222D39"/>
<path d="M20.0594 27.8778C18.0174 27.8557 16.0656 27.0305 14.6237 25.5796C13.1818 24.1288 12.3651 22.1681 12.3491 20.1194C12.3547 18.592 12.8112 17.1004 13.661 15.833C14.5108 14.5656 15.7158 13.5792 17.1239 12.9983C18.5321 12.4174 20.0802 12.2681 21.5728 12.5691C23.0655 12.8701 24.4358 13.6081 25.5108 14.6898C26.5858 15.7714 27.3173 17.1484 27.6129 18.6468C27.9085 20.1452 27.755 21.6978 27.1718 23.1088C26.5885 24.5197 25.6017 25.7257 24.3359 26.5745C23.0701 27.4233 21.582 27.8768 20.0594 27.8778ZM19.9827 16.1043C19.183 16.1151 18.4045 16.3639 17.7459 16.8192C17.0874 17.2745 16.5784 17.9158 16.2836 18.6617C15.9888 19.4075 15.9214 20.2244 16.0899 21.0088C16.2585 21.7932 16.6555 22.5096 17.2304 23.0674C17.8054 23.6251 18.5325 23.999 19.3196 24.1416C20.1067 24.2842 20.9182 24.1891 21.6513 23.8684C22.3844 23.5476 23.0061 23.0157 23.4375 22.3401C23.8689 21.6644 24.0906 20.8755 24.0744 20.0733C24.0685 19.5422 23.9576 19.0177 23.7482 18.5299C23.5388 18.0422 23.235 17.601 22.8544 17.2319C22.4739 16.8627 22.0241 16.573 21.5312 16.3794C21.0382 16.1859 20.5119 16.0923 19.9827 16.1043Z" fill="#222D39"/>
</g>
<defs>
<clipPath id="clip0_5_2127">
<rect width="118" height="105" fill="white"/>
</clipPath>
</defs>
</svg>
