<svg width="90" height="113" viewBox="0 0 90 113" fill="none" xmlns="http://www.w3.org/2000/svg">
<path d="M44.3275 112.06C44.1802 112.054 44.0385 112.002 43.9226 111.91C43.8067 111.819 43.7226 111.693 43.6823 111.551C41.9113 105.097 37.3122 101.753 32.4523 98.2025C31.409 97.4456 30.3381 96.6612 29.281 95.8355C27.4126 94.2991 25.4451 92.8877 23.3915 91.6107C23.3106 91.5689 23.2391 91.5111 23.1812 91.4408C23.1232 91.3705 23.0802 91.2892 23.0545 91.2017C23.0288 91.1142 23.0211 91.0225 23.0318 90.9319C23.0426 90.8414 23.0715 90.754 23.1169 90.6749C23.16 90.5935 23.2189 90.5215 23.2903 90.4633C23.3617 90.4051 23.444 90.3619 23.5324 90.3362C23.6207 90.3105 23.7133 90.3029 23.8047 90.3138C23.8961 90.3247 23.9843 90.354 24.0642 90.3997C26.1824 91.7053 28.2098 93.1536 30.1322 94.7346C31.1756 95.5465 32.2327 96.3171 33.2623 97.074C37.8614 100.418 42.2271 103.611 44.4236 109.322C46.6751 104.106 49.2561 102.345 53.5943 99.3722C55.0358 98.3951 56.6695 97.2667 58.5778 95.8355L60.4174 94.4594C69.643 87.8539 85.1287 76.8171 86.9272 21.3034C74.5715 18.1795 57.4245 12.4135 44.7531 2.58781C30.9559 12.441 11.077 18.6337 2.53781 20.9869C2.53781 21.5786 2.62019 22.363 2.6751 23.175C2.8673 26.0786 3.14184 30.0557 3.33404 31.0465C3.35403 31.1352 3.35594 31.227 3.33962 31.3164C3.32329 31.4059 3.28908 31.4911 3.23906 31.5669C3.18905 31.6428 3.12425 31.7077 3.04856 31.7578C2.97288 31.8079 2.88788 31.8421 2.79865 31.8584C2.70934 31.8786 2.61693 31.8806 2.52683 31.8644C2.43673 31.8482 2.35074 31.814 2.27399 31.764C2.19723 31.714 2.13124 31.6491 2.07988 31.5732C2.02852 31.4972 1.99284 31.4117 1.97493 31.3217C1.75527 30.2483 1.49443 26.3676 1.2885 23.2575C1.21986 22.1291 1.15124 21.152 1.09632 20.5052C1.08725 20.3422 1.13404 20.181 1.22893 20.0484C1.32382 19.9157 1.46107 19.8196 1.61797 19.7759C9.8551 17.5465 30.4479 11.2575 44.355 1.14285C44.475 1.05023 44.6222 1 44.7737 1C44.9252 1 45.0724 1.05023 45.1924 1.14285C57.9051 11.1612 75.3952 16.9685 87.7509 20.0649C87.9043 20.1053 88.0395 20.1968 88.1343 20.3243C88.229 20.4518 88.2778 20.6078 88.2726 20.7667C87.4901 45.6199 83.9756 63.9639 77.5644 76.8447C73.9003 84.4616 68.2329 90.9323 61.1724 95.5603C60.5272 96.0282 59.9232 96.4548 59.3603 96.9364C57.4246 98.3951 55.7771 99.5236 54.3219 100.514C49.462 103.845 47.238 105.358 44.959 111.592C44.9109 111.724 44.8255 111.838 44.7132 111.921C44.601 112.004 44.4669 112.053 44.3275 112.06Z" fill="#222D39" stroke="#222D39" stroke-width="1.5"/>
<path d="M44.5194 99.3585C44.4797 99.3645 44.4391 99.3569 44.4042 99.337C44.3694 99.317 44.3422 99.2858 44.3272 99.2484C42.9544 97.3218 38.2455 93.5237 36.1725 92.1062C36.1513 92.0857 36.1344 92.0611 36.1229 92.0339C36.1114 92.0067 36.1055 91.9775 36.1055 91.948C36.1055 91.9185 36.1114 91.8892 36.1229 91.862C36.1344 91.8349 36.1513 91.8103 36.1725 91.7897C36.1878 91.7635 36.2085 91.7407 36.233 91.7228C36.2576 91.705 36.2856 91.6924 36.3153 91.6859C36.345 91.6795 36.3756 91.6792 36.4054 91.6853C36.4352 91.6913 36.4634 91.7034 36.4882 91.7209C39.4409 93.7448 42.1537 96.0995 44.5743 98.7393C45.9472 96.9778 49.7912 93.7576 55.9553 89.1062C73.8024 75.7851 78.0994 56.6292 79.8979 25.9549C64.4121 22.0741 52.9762 17.0787 44.945 10.6934C36.7079 16.831 22.4988 21.0283 13.9597 23.5328C12.175 24.0695 10.6099 24.5237 9.45672 24.909V25.1705C9.58027 26.1888 9.74501 27.5925 9.74501 27.9916C9.74501 28.0536 9.7204 28.1131 9.67663 28.157C9.63286 28.2009 9.5735 28.2255 9.5116 28.2255C9.4497 28.2255 9.39034 28.2009 9.34657 28.157C9.3028 28.1131 9.27824 28.0536 9.27824 27.9916C9.27824 27.62 9.11348 26.175 9.00365 25.2393V24.7989C8.99732 24.7466 9.0088 24.6937 9.03621 24.6487C9.06361 24.6038 9.10537 24.5694 9.15469 24.5512C10.3353 24.1521 11.969 23.6842 13.8498 23.175C22.4164 20.6567 36.7353 16.4457 44.8352 10.2943C44.8772 10.2641 44.9276 10.2478 44.9793 10.2478C45.0311 10.2478 45.0815 10.2641 45.1235 10.2943C53.1409 16.7072 64.6181 21.7163 80.2274 25.6246C80.2794 25.6372 80.3255 25.6673 80.358 25.7099C80.3904 25.7525 80.4073 25.8049 80.4058 25.8585C78.6074 56.7805 74.2143 76.1016 56.2573 89.5466C49.8324 94.3631 45.9746 97.6521 44.794 99.3035C44.7603 99.3412 44.7154 99.3669 44.6659 99.3769C44.6164 99.3868 44.565 99.3804 44.5194 99.3585Z" fill="#222D39" stroke="#222D39" stroke-width="2"/>
<path d="M28.1963 83.285C43.2163 83.285 55.3925 71.3199 55.3925 56.5602C55.3925 41.8005 43.2163 29.8354 28.1963 29.8354C13.1762 29.8354 1 41.8005 1 56.5602C1 71.3199 13.1762 83.285 28.1963 83.285Z" fill="#88B4FF"/>
<path d="M28.2099 83.9869C22.8224 83.8812 17.5861 82.1833 13.1575 79.1061C8.72903 76.0289 5.30557 71.7094 3.31654 66.6894C1.32751 61.6695 0.86149 56.1726 1.97691 50.8882C3.09233 45.6038 5.73951 40.7672 9.58648 36.985C13.4334 33.2028 18.3089 30.6435 23.6013 29.628C28.8936 28.6125 34.3674 29.1861 39.3358 31.2768C44.3043 33.3675 48.5462 36.8822 51.5297 41.3801C54.5131 45.8781 56.1052 51.1589 56.1063 56.5603C56.0229 63.9015 53.0401 70.9103 47.8112 76.0512C42.5823 81.192 35.5338 84.0456 28.2099 83.9869ZM28.2099 30.5236C23.0961 30.6266 18.1265 32.2407 13.9242 35.1635C9.72187 38.0863 6.47399 42.1878 4.5878 46.9535C2.70161 51.7192 2.26108 56.9371 3.32144 61.9528C4.38181 66.9685 6.89587 71.5587 10.5484 75.1479C14.2009 78.7371 18.8292 81.1654 23.853 82.1284C28.8768 83.0913 34.0724 82.5461 38.7883 80.561C43.5042 78.5759 47.5304 75.2393 50.3621 70.9697C53.1938 66.7 54.7049 61.6874 54.706 56.5603C54.6263 49.5889 51.7926 42.9336 46.8259 38.0531C41.8592 33.1725 35.1648 30.4648 28.2099 30.5236Z" fill="#222D39" stroke="#222D39"/>
<path d="M16.5649 56.0061C16.5649 51.2092 19.5341 47.0933 23.7309 45.3983L25.8723 41.097C18.5723 42.1341 12.9399 48.4241 12.9399 56.0061C12.9399 62.9042 17.6021 68.7335 23.9408 70.5097L24.3526 66.8447C19.8302 65.3188 16.5649 61.0367 16.5649 56.0061Z" fill="#222D39"/>
<path d="M43.06 56.006C43.06 49.1093 38.3998 43.2811 32.0634 41.5035L31.6422 45.1658C36.1672 46.6902 39.4351 50.9736 39.4351 56.006C39.4351 60.7749 36.5004 64.8706 32.3424 66.5839L30.1416 70.913C37.4348 69.8701 43.06 63.5831 43.06 56.006Z" fill="#222D39"/>
<path d="M36.6203 54.181C36.763 53.9002 36.7495 53.5918 36.5847 53.3233C36.42 53.0547 36.1275 52.9477 35.8124 52.9477H28.9227L30.4058 40.0535C30.4563 39.6163 30.1854 39.1635 29.7633 39.0382C29.6762 39.0123 29.5879 39 29.5008 39C29.1662 39 28.8499 39.1904 28.6942 39.5032L19.3767 58.2254C19.2369 58.5062 19.2523 58.8802 19.4175 59.147C19.5827 59.4138 19.8741 59.6311 20.188 59.6311H26.9868L25.5931 72.04C25.5444 72.4754 25.8141 72.8416 26.2339 72.9672C26.3201 72.993 26.4074 73 26.4936 73C26.8276 73 27.1438 72.8146 27.3016 72.5041L36.6203 54.181Z" fill="#222D39"/>
</svg>
