<svg xmlns="http://www.w3.org/2000/svg" width="375" viewBox="0 0 375 375" height="375" version="1.0"><path fill="#FF5B00" d="M 21.847656 111.855469 C 20.113281 114.878906 16.230469 116.316406 12.589844 115.300781 C 9.570312 121.867188 7.402344 129.9375 6.699219 137.867188 C 5.9375 151.707031 9.261719 141.191406 12.707031 132.8125 C 12.890625 128.804688 14.011719 125.230469 16.070312 122.105469 C 17.960938 119.226562 20.625 116.769531 24.046875 114.738281 C 24.855469 106.597656 29.832031 101.261719 35.949219 97.667969 C 44.449219 92.671875 54.367188 90.875 64.1875 89.921875 C 73.527344 89.007812 73.402344 87.074219 73.296875 82.382812 C 73.066406 71.851562 78.425781 69.554688 88.816406 65.027344 C 90.117188 64.460938 91.503906 63.855469 92.984375 63.183594 C 90.808594 60.851562 90.214844 58.027344 91.867188 55.0625 C 90.28125 53.15625 83.242188 53.5 78.953125 55.621094 C 81.933594 50.824219 89.113281 46.984375 95.882812 50.84375 C 96.707031 50.292969 97.597656 49.835938 98.546875 49.527344 C 106.230469 47.019531 114.199219 46.207031 122.164062 45.398438 C 125.574219 45.046875 128.988281 44.699219 132.304688 44.226562 C 142.824219 34.960938 160.710938 37.304688 172.691406 42.238281 C 175.847656 37.390625 172.941406 33.679688 168.273438 32.820312 C 145.804688 28.703125 148.992188 36.078125 136.289062 39.027344 C 139.550781 36.195312 138.996094 34.449219 137.382812 34.125 C 131.242188 32.871094 125.597656 34.914062 124.953125 36.976562 C 124.355469 38.886719 127.632812 41.40625 126.449219 43.96875 C 117.320312 36.816406 105.953125 38.882812 95.96875 43.035156 L 95.757812 43.125 L 95.523438 43.175781 C 91.132812 44.179688 86.953125 45.890625 82.898438 48 C 76.488281 51.335938 71.554688 54.515625 67.769531 60.589844 C 68.511719 52.523438 54.878906 63.195312 50.886719 66.308594 C 46.925781 69.394531 43.191406 73.019531 39.71875 77.285156 C 44.726562 75.5 49.703125 73.664062 54.113281 71.027344 C 63.019531 65.710938 66.660156 57.328125 82.4375 64.128906 C 67.511719 62.691406 68.710938 68.792969 56.972656 75.804688 C 51.75 78.925781 58.078125 79.226562 63.953125 84.59375 C 57.757812 82.160156 46.503906 81.308594 37.277344 84.191406 C 30.757812 86.222656 25.652344 90.746094 22.324219 95.148438 C 16.617188 102.714844 12.976562 112.703125 21.847656 111.855469 Z M 197.84375 286.074219 C 206.570312 292.777344 214.480469 295.714844 222.863281 297.953125 C 224.914062 298.5 226.335938 297.859375 223.769531 296.253906 C 219.433594 293.539062 214.6875 290.898438 209.574219 289.507812 C 226.960938 290.902344 244.789062 311.777344 245.382812 311.863281 C 254.304688 313.15625 263.652344 313.730469 272.546875 312.859375 C 263.597656 311.230469 254.621094 309.746094 245.628906 308.363281 C 259.226562 307.320312 274.800781 312.566406 287.925781 309.558594 C 271.730469 306.082031 255.402344 303.242188 239.035156 300.730469 C 253.90625 299.265625 288.609375 308.738281 297.671875 304.75 C 273.972656 299.550781 249.953125 295.707031 225.921875 292.414062 C 238.386719 290.265625 299.492188 302.179688 303.683594 299.917969 C 264.097656 291.09375 223.5625 285.765625 183.253906 281.550781 C 183.894531 282.699219 185.671875 283.84375 189.046875 284.882812 C 204.699219 296.726562 219.007812 313.03125 240.246094 311.59375 C 238.070312 308.238281 214.695312 305.121094 205.859375 295.375 C 215.339844 301.226562 228.75 305.539062 235.503906 306.03125 C 225.539062 300.394531 208.808594 297.503906 197.84375 286.074219 Z M 312.625 283.625 C 290.613281 278 268.15625 274 245.480469 272.34375 C 243.710938 272.621094 241.949219 272.867188 240.21875 273.050781 C 264.441406 275.933594 288.9375 279.796875 312.589844 285.746094 C 312.714844 284.972656 312.722656 284.269531 312.625 283.625 Z M 257.4375 270.371094 C 275.25 272.289062 292.894531 275.582031 310.277344 279.898438 C 306.738281 277.214844 299.972656 276.433594 294.457031 274.816406 C 285.007812 274.363281 277.417969 269.355469 267.589844 269.4375 C 264.332031 269.464844 260.910156 269.851562 257.4375 270.371094 Z M 311.703125 288.65625 C 283.414062 281.558594 253.476562 276.808594 224.40625 274.503906 C 215.386719 276.191406 207.71875 273.523438 198.839844 273.425781 C 197.953125 273.414062 196.921875 273.5 195.824219 273.667969 C 234.101562 277.878906 272.585938 283.09375 310.171875 291.59375 C 310.378906 291.242188 310.585938 290.886719 310.78125 290.523438 C 311.144531 289.867188 311.449219 289.25 311.703125 288.65625 Z M 308.417969 294.316406 C 268.875 285.460938 228.363281 280.125 188.097656 275.898438 C 186.328125 276.671875 184.820312 277.585938 183.910156 278.5625 C 224.796875 282.84375 265.960938 288.257812 306.089844 297.335938 C 306.902344 296.382812 307.675781 295.375 308.417969 294.316406 Z M 72.410156 215.902344 C 64.113281 217.871094 55.550781 217.300781 47.894531 213.339844 C 35.066406 210.796875 24.765625 205.484375 17.394531 196.964844 C 10.074219 188.503906 5.726562 176.980469 4.753906 161.980469 C 0.976562 154.5625 0.417969 145.546875 1.136719 137.390625 C 2.03125 127.273438 5.160156 116.894531 9.421875 109.207031 C 12.347656 97.039062 19.425781 87.375 30.277344 80.796875 C 35.386719 73.007812 41.164062 66.832031 47.460938 61.925781 C 53.8125 56.972656 60.6875 53.3125 67.9375 50.589844 C 72.003906 47.859375 76.101562 45.242188 80.324219 43.050781 C 84.675781 40.785156 89.207031 38.933594 94.039062 37.800781 C 100.96875 34.9375 107.9375 33.007812 115.027344 33.554688 C 122.546875 29.523438 130.867188 27.914062 139.339844 29.058594 C 150.585938 26.148438 162.148438 26.503906 173.550781 28.152344 C 193.011719 22.6875 216.152344 31.375 234.210938 38.140625 C 247.152344 38.488281 256.964844 43.253906 266.96875 51.015625 C 274.714844 53.320312 281.410156 56.777344 287.492188 60.90625 C 293.59375 65.042969 299.027344 69.804688 304.292969 74.726562 C 311.777344 79.234375 318.429688 84.136719 323.75 89.667969 C 329.035156 95.167969 333.007812 101.28125 335.199219 108.234375 C 348.894531 119.714844 356.207031 131.339844 357.132812 143.105469 C 361.28125 148.886719 363.90625 154.652344 365.652344 160.40625 C 369.351562 172.652344 370.34375 186.988281 370.480469 199.714844 C 370.550781 206.863281 370.191406 213.976562 369.386719 221.058594 C 371.601562 233.542969 368.378906 245.964844 359.714844 258.324219 C 358.367188 264.074219 355.765625 268.132812 351.914062 270.5 C 348.019531 280.917969 332.03125 286.238281 319.902344 283.207031 C 310.835938 312.308594 285.382812 323.644531 243.539062 317.210938 C 238.714844 317.734375 234.199219 317.453125 229.910156 316.558594 C 234.152344 324.664062 237.867188 333.28125 239.125 342.410156 L 239.125 342.421875 C 239.425781 344.597656 238.65625 346.34375 237.195312 347.636719 C 232.386719 351.90625 222.652344 349.691406 219.894531 344.003906 C 213.707031 331.261719 204.34375 322.261719 192.421875 310.804688 C 189.59375 308.089844 186.628906 305.238281 183.484375 302.125 C 179.078125 297.761719 176.984375 291.3125 177.160156 285.1875 C 174.96875 283.738281 172.90625 282.117188 171.164062 280.441406 C 164.765625 282.582031 158.179688 282.628906 152.714844 282.78125 C 144.660156 290.289062 122.867188 287.703125 104.867188 276.714844 C 92.167969 268.96875 80.976562 258.980469 80.429688 245.925781 C 76.96875 240.808594 74.710938 235.4375 73.476562 229.847656 C 72.480469 225.328125 72.160156 220.671875 72.410156 215.902344 Z M 69.050781 205.761719 C 63.6875 203.855469 58.230469 202.199219 53.390625 199.085938 C 47.144531 201.746094 41.351562 200.609375 38.257812 198.089844 C 41.640625 198.441406 44.332031 197.738281 46.25 196.421875 C 49.3125 194.3125 45.539062 193.0625 42.371094 191.894531 C 27.5625 186.453125 18.210938 185.734375 17.601562 167.632812 C 20.21875 174.121094 25.476562 179.347656 29.082031 181.320312 C 36.398438 184.695312 35.054688 183.105469 33.402344 179.90625 C 31.535156 176.277344 28.808594 170.519531 29.390625 166.402344 C 36.097656 181.691406 55.140625 195.308594 70.796875 200.464844 C 79.21875 203.234375 81.296875 195.230469 88.101562 190.316406 C 92.644531 182.800781 101.109375 178.433594 109.6875 177.671875 C 109.859375 176.628906 110.101562 175.609375 110.402344 174.609375 C 98.890625 173.667969 90.085938 168.140625 81.949219 165.652344 C 78.871094 164.710938 74.710938 166.023438 71.972656 163.4375 C 80.566406 162.207031 83.910156 157.886719 82.441406 151.679688 C 85.382812 152.769531 84.597656 157.121094 85.929688 159.9375 C 88.59375 165.566406 110.027344 173.65625 113.289062 168.121094 C 109.132812 167.246094 105.640625 161.664062 106.742188 157.851562 C 111.191406 166.0625 115.796875 163.613281 121.671875 157.738281 C 120.863281 152.863281 120.757812 148.007812 121.425781 143.335938 C 121.894531 140.035156 122.75 136.828125 124 133.769531 L 123.3125 133.886719 L 123.300781 133.886719 C 115.261719 135.257812 108.203125 135.972656 100.085938 135.019531 C 97.175781 134.679688 94.273438 134.339844 91.523438 134.433594 C 96.175781 136.796875 100.03125 141.734375 97.285156 147.175781 C 92.183594 134.730469 75.398438 139.414062 67.160156 144.796875 C 61.980469 148.183594 57.246094 152.136719 53.316406 156.714844 C 50.691406 159.773438 51.089844 166.34375 54.011719 169.09375 C 62.65625 177.25 73.464844 172.652344 81.613281 187.191406 C 69.519531 176.925781 58.90625 181.367188 50.195312 173.152344 C 46.050781 169.246094 45.09375 162.238281 46.902344 157 C 42.804688 156.753906 37.285156 156.25 32.496094 154.890625 L 32.5 154.886719 C 24.984375 152.746094 19.210938 148.636719 21.488281 140.636719 C 23.15625 134.753906 34.144531 120.734375 47.972656 120.390625 C 55.085938 120.214844 56.878906 109.925781 69.050781 109.320312 C 60.140625 111.308594 57.632812 121.058594 50.226562 122.730469 C 38.761719 125.320312 29.082031 134.292969 26.847656 142.140625 C 25.753906 145.988281 29.394531 148.207031 34.015625 149.523438 L 34.023438 149.523438 C 39.578125 151.101562 46.445312 151.417969 50.199219 151.59375 L 50.40625 151.605469 C 54.429688 147.214844 59.089844 143.410156 64.101562 140.128906 C 70.328125 136.066406 77.140625 132.789062 84.019531 130.21875 C 89.515625 128.164062 95.105469 128.820312 100.71875 129.480469 C 108.316406 130.371094 114.847656 129.675781 122.375 128.394531 L 122.375 128.390625 C 123.980469 128.117188 125.582031 127.84375 127.226562 127.589844 C 128.96875 124.890625 131.089844 122.359375 133.605469 120.050781 C 132.554688 116.078125 130.71875 111.894531 132.023438 107.804688 C 137.574219 90.402344 131.691406 90.757812 121.730469 82.039062 L 121.71875 82.03125 L 121.6875 82 C 117.15625 77.230469 118.1875 69.207031 121.203125 61.632812 C 122.808594 57.617188 124.980469 53.671875 127.125 50.476562 C 125.652344 50.636719 124.179688 50.785156 122.710938 50.9375 C 115.0625 51.714844 107.417969 52.496094 100.269531 54.828125 C 91.894531 57.554688 99.628906 60.972656 103.070312 62.140625 C 106.929688 63.453125 109.441406 64.15625 115.804688 63.296875 C 111.820312 67.839844 100.050781 65.050781 91.042969 70.128906 C 83.363281 73.480469 78.882812 75.246094 79.066406 82.664062 C 79.347656 94.085938 111.191406 92.144531 119.25 99.167969 L 119.25 99.179688 C 120.871094 100.59375 121.546875 102.34375 121.5625 104.214844 C 121.710938 117.308594 102.933594 119.210938 93.746094 119.589844 C 83.847656 120 73.296875 120.4375 60.832031 132.988281 C 69.878906 117.773438 85.800781 114.347656 93.527344 114.027344 C 99.042969 113.800781 116.097656 113.023438 116.003906 104.257812 C 115.976562 101.898438 110.207031 100.550781 104.816406 99.28125 C 94.882812 96.9375 79.148438 95.238281 65.089844 96.15625 C 53.796875 96.890625 43.507812 99.675781 38.761719 102.464844 C 27.046875 109.351562 31.085938 116.429688 39.8125 116.554688 C 32.375 118.03125 25.296875 118.195312 20.714844 125.160156 C 18.03125 129.242188 18.203125 135.035156 18.964844 139.539062 C 15.820312 135.6875 13.304688 145.496094 12.464844 148.375 C 8.039062 163.488281 11.117188 181.207031 21.605469 193.320312 C 28.867188 201.710938 39.066406 205.957031 49.730469 208.019531 C 53.066406 209.800781 60.15625 211.472656 66.394531 210.523438 C 72.390625 209.613281 73.039062 207.183594 69.050781 205.761719 Z M 84.050781 241.265625 C 90.75 237.445312 98.390625 240.613281 102.964844 248.734375 C 96.078125 244.648438 90.191406 242.980469 88.074219 246.210938 C 81.628906 256.039062 101.375 268.851562 107.914062 272.289062 L 108.042969 272.367188 C 121.035156 280.136719 146.867188 289.226562 153.351562 269.449219 C 155.683594 262.335938 157.691406 253.792969 154.03125 252.320312 C 146.472656 249.285156 138.632812 258.082031 133.414062 246.84375 C 140.285156 252.070312 149.121094 244.34375 156.105469 247.152344 C 157.644531 247.773438 158.769531 248.839844 159.574219 250.164062 C 167 239.914062 138.316406 222.742188 125.300781 238.375 C 127.074219 228.988281 134.644531 225.488281 143.929688 225.542969 C 144.097656 220.78125 146.707031 216.121094 149.386719 212.324219 C 155.535156 203.628906 166.765625 211.324219 171.988281 203.746094 C 171.992188 212.910156 157.957031 209.859375 153.949219 215.53125 C 152.070312 218.1875 148.902344 225.058594 151.582031 228.414062 C 155.632812 233.472656 160.960938 235.992188 167.644531 238.507812 C 173.183594 240.597656 178 242.722656 182.933594 245.8125 C 187.023438 248.378906 189.777344 250.511719 193.960938 247.480469 C 195.214844 246.574219 196.460938 245.667969 197.894531 245.144531 C 201.53125 239.679688 205.09375 239.511719 209.195312 239.859375 C 201.953125 243.34375 204.34375 250.71875 211.605469 250.78125 C 217.957031 250.839844 225.667969 239.460938 229.429688 240.722656 C 224.664062 244.152344 232.597656 245.894531 236.683594 251.28125 C 244.835938 259.433594 252.015625 252.328125 259.941406 257.519531 C 247.359375 256.347656 244.347656 266.824219 232.738281 255.207031 C 230.5625 253.03125 228.394531 250.859375 225.988281 250.457031 C 221.0625 249.636719 209.4375 258.082031 220.875 260.550781 C 216.671875 262.371094 213.082031 260.058594 209.910156 256.152344 C 207.636719 255.632812 205.9375 254.128906 204.230469 252.621094 C 201.304688 250.027344 200.417969 249.691406 197.234375 251.996094 C 190.902344 256.585938 186.175781 254.402344 179.984375 250.523438 C 175.964844 248.007812 172.503906 245.8125 167.910156 249.375 C 161.90625 254.035156 159.1875 262.476562 158.285156 270.417969 C 157.492188 277.457031 165.222656 276.71875 175.378906 273.460938 C 186.054688 270.03125 193.980469 266.652344 184.992188 259.617188 C 200.734375 266.90625 216.679688 274.601562 233.042969 264.6875 C 227.511719 270.820312 246.039062 268.289062 249.933594 267.710938 C 261.808594 265.957031 270.21875 260.214844 279.191406 252.78125 C 280.664062 259.433594 267.054688 261.585938 283.65625 267.160156 C 292.632812 270.171875 300.652344 269.402344 309.449219 266.160156 C 313.742188 264.578125 317.550781 262.527344 320.039062 260.132812 C 319.496094 265.59375 318.503906 268.039062 311.367188 271.398438 C 305.722656 274.054688 314.730469 276.140625 320.238281 277.472656 C 325.78125 278.808594 335.472656 277.527344 341.371094 273.4375 C 347.484375 269.199219 349.582031 262.054688 342.625 257.992188 C 347.171875 257.5625 350.777344 258.167969 351.679688 263.214844 C 355.476562 257.964844 354.523438 250.988281 354.671875 244.875 C 357.242188 254.234375 363.625 245.605469 364.988281 235.660156 C 366.980469 221.113281 361.1875 222.082031 356.152344 226.785156 C 352.703125 230.003906 350.148438 235.210938 348.539062 237.4375 C 345.582031 241.527344 341.972656 245 337.890625 247.8125 C 332.222656 251.722656 337.128906 258.722656 330.242188 264.859375 C 332.660156 259.003906 332 251.101562 325.527344 252.101562 C 318.921875 253.121094 308.300781 253.460938 305.054688 246.3125 C 301.640625 253.492188 294.003906 257.042969 286.425781 259.078125 C 295.539062 254.445312 308.164062 240.519531 299.269531 227.75 C 297.652344 225.429688 295.507812 223.472656 293.1875 222.25 C 287.0625 219.027344 279.863281 217.941406 272.664062 216.855469 C 269.136719 216.324219 265.605469 215.792969 262.101562 215 C 257.480469 218.996094 244.507812 217.089844 238.304688 208.640625 C 248.316406 212.65625 255.195312 214.351562 258.179688 211.019531 C 263.078125 205.550781 264.015625 200.304688 262.398438 198.796875 C 261.023438 197.507812 257.75 199.433594 253.839844 200.917969 C 248.796875 202.832031 243.429688 200.378906 238.355469 199.148438 C 231.421875 197.464844 226.613281 196.351562 220.097656 199.550781 C 212.316406 203.371094 205.28125 202.621094 196.800781 201.8125 C 202.496094 210.519531 198.898438 217.664062 212.339844 213.890625 C 216.207031 212.804688 219.792969 211.792969 223.539062 213.558594 C 228.304688 215.800781 232.605469 218.386719 236.894531 220.96875 C 244.128906 225.324219 250.789062 229.890625 260.210938 232.34375 C 265.5 233.71875 272.945312 235.851562 279.113281 234.125 C 277.800781 237.238281 273.972656 238.613281 269.625 239.339844 C 271.957031 241.921875 271.019531 246.105469 268.472656 248.632812 C 268.050781 246 266.183594 239.125 258.304688 237.253906 C 248.679688 234.96875 241.414062 230.183594 234.039062 225.746094 C 229.882812 223.246094 225.722656 220.742188 221.160156 218.597656 C 219.304688 217.722656 216.675781 218.457031 213.847656 219.253906 C 194.605469 224.660156 207.410156 224.34375 193.148438 236.761719 L 193.105469 236.710938 C 186.648438 241.398438 176.6875 235.449219 171.53125 231.269531 C 169.855469 229.910156 165.941406 232.480469 163.316406 228.566406 C 168.195312 229.707031 173.984375 222.796875 170.972656 217.820312 C 176.382812 218.140625 173.582031 223.882812 174.816406 226.785156 C 176.222656 230.109375 186.210938 235.183594 190.046875 232.039062 C 202.230469 220.617188 194.617188 203.351562 182.738281 195.664062 C 175.996094 191.300781 167.679688 189.144531 159.902344 190 C 143.554688 191.800781 148.503906 209.648438 133.808594 211.566406 C 141.449219 207.234375 142.121094 191.726562 148.132812 188.003906 C 137.847656 184.765625 126.785156 179.777344 115.796875 181.910156 C 112.183594 182.609375 113.644531 184.734375 116.425781 188.195312 C 100.402344 175.027344 83.328125 197.605469 99.421875 212.441406 C 85.554688 210.195312 90.09375 193.035156 82.359375 203.277344 C 74.378906 213.84375 77.53125 230.691406 84.050781 241.265625 Z M 364.914062 199.757812 C 364.792969 188.097656 363.726562 173.34375 360.304688 162.019531 C 359.144531 158.1875 357.5625 154.367188 355.339844 150.554688 C 354.289062 151.835938 352.820312 152.730469 351.183594 152.996094 C 352.859375 158.039062 354.199219 163.1875 355.28125 168.386719 C 356.597656 174.726562 357.535156 181.160156 358.214844 187.589844 C 362.816406 192.679688 363.449219 201.78125 357.875 202.636719 C 360.617188 198.570312 358.558594 194.65625 356.285156 199.640625 C 354.234375 204.136719 354.234375 206.488281 355.730469 211.203125 C 356.574219 213.863281 357.417969 216.503906 357.203125 219.246094 C 364.246094 216.027344 365.027344 210.519531 364.914062 199.757812 Z M 351.671875 145.070312 C 351.148438 135.09375 347.292969 127.679688 340.851562 120.355469 C 330.808594 108.929688 319.261719 108.792969 319.507812 113.375 C 320.3125 128.144531 332.847656 122.425781 336.929688 133.96875 C 331.054688 126.25 314.851562 128.8125 313.949219 114.898438 C 313.34375 105.675781 320.914062 104.097656 328.171875 105.5 C 326.152344 101.179688 323.28125 97.214844 319.734375 93.53125 C 312.84375 86.359375 308.6875 83.738281 307.785156 89.667969 C 305.800781 102.695312 284.933594 108.488281 273.402344 104.578125 C 256.039062 98.691406 258.359375 121.753906 243.296875 118.820312 C 258.324219 113.929688 253.324219 91.886719 275.191406 99.300781 C 286.972656 103.289062 299.191406 98.15625 301.105469 87.324219 C 302.359375 80.246094 296.074219 74.320312 288.886719 68.683594 C 279.515625 61.324219 270.472656 56.484375 258.75 56.289062 C 255.480469 56.234375 252.210938 56.179688 250.117188 57.621094 C 250.09375 57.636719 250.074219 57.644531 250.058594 57.660156 C 242.871094 63.480469 258.753906 64.628906 259.300781 72.578125 C 254.863281 67.699219 251.6875 70.605469 245.566406 66.492188 C 235.972656 68.378906 221.6875 68.832031 214.554688 76.632812 C 211.761719 79.679688 212.476562 80.503906 215.761719 81.664062 C 221.707031 83.769531 227.378906 90.226562 219.058594 94.921875 L 219.054688 94.910156 C 218.601562 95.167969 218.152344 95.359375 217.707031 95.476562 C 197.1875 100.957031 180.847656 94.378906 173.511719 120.121094 C 172.007812 125.398438 174.324219 131.199219 175.066406 137.023438 C 175.847656 143.15625 173.410156 146.074219 177.449219 150.601562 C 181.15625 154.761719 187.054688 154.773438 188.609375 148.394531 C 190.886719 139.050781 188.003906 134.65625 198.894531 128.804688 C 192.804688 136.785156 196.054688 141.351562 194.019531 149.699219 C 191.449219 160.234375 180.042969 161.894531 173.324219 154.355469 C 170.820312 159.8125 167.117188 162.761719 174.53125 166.296875 C 182.285156 169.992188 187.785156 164.554688 194.347656 159.273438 C 199.675781 154.984375 205.535156 150.257812 212.519531 149.164062 C 205.03125 140.554688 206.058594 125.335938 212.085938 117.988281 C 209.714844 131.328125 208.828125 146.117188 226.488281 150.929688 C 230.511719 152.023438 234.554688 153.125 238.230469 152.59375 C 250.746094 150.789062 255.53125 141.824219 258.734375 130.597656 C 260.714844 123.660156 262.679688 116.789062 268.414062 112.183594 C 273.660156 107.96875 281.84375 112.136719 285.457031 116.632812 C 293.191406 126.265625 280.746094 133.328125 276.074219 140.242188 C 276.101562 133.65625 286.210938 126.472656 281.117188 120.125 C 279.574219 118.207031 274.480469 114.453125 271.902344 116.523438 C 267.5625 120.011719 265.839844 126.039062 264.101562 132.125 C 260.296875 145.449219 253.894531 155.835938 239.246094 158.078125 C 242.46875 166.289062 246.015625 168.921875 250.277344 168.023438 C 255.941406 166.828125 264.664062 162.292969 272.839844 152.347656 C 268.09375 164.777344 261.121094 170.386719 251.410156 173.476562 C 238.011719 177.742188 237.949219 159.835938 225.03125 156.316406 C 220.601562 155.109375 216.191406 153.910156 212.277344 154.90625 C 206.984375 156.25 202.421875 159.925781 197.839844 163.613281 C 186.757812 172.535156 174.203125 177.207031 161.023438 182.335938 C 159.285156 183.015625 157.542969 183.691406 155.789062 184.382812 C 156.308594 184.507812 156.832031 184.625 157.347656 184.734375 C 158.015625 184.621094 158.671875 184.53125 159.3125 184.460938 C 168.34375 183.464844 177.980469 185.953125 185.773438 190.996094 C 187.964844 192.414062 190.015625 194.039062 191.871094 195.847656 C 195.847656 196.046875 200.476562 197.511719 204.867188 197.109375 C 213.476562 196.324219 208.699219 189.164062 202.742188 188.703125 C 196.285156 188.203125 193.335938 186.675781 188.257812 182.792969 C 201.941406 187.058594 215.703125 181.792969 223.601562 169.589844 C 221.292969 176.273438 218.734375 180.578125 214.769531 183.714844 C 205.152344 191.335938 230.066406 189.648438 239.664062 193.738281 C 244 195.585938 248.808594 195.960938 253.140625 195.398438 C 257.019531 194.898438 260.066406 189.96875 262.929688 187.492188 C 265.703125 185.09375 268.652344 182.9375 271.601562 180.78125 L 271.613281 180.78125 C 288.847656 167.757812 299.234375 147.480469 297.140625 123.84375 C 295.480469 105.035156 303.128906 106.34375 308.628906 101.285156 C 299.566406 110.730469 302.195312 118.039062 302.640625 124.691406 C 303.585938 138.757812 300.007812 153.46875 293.4375 166.429688 C 294.988281 171.6875 294.957031 178.582031 298.789062 182.753906 C 311.433594 196.53125 319.582031 190.644531 329.328125 177.882812 C 333.40625 173.457031 337.441406 171.214844 340.589844 173.109375 C 333.558594 174.167969 335.523438 181.273438 337.253906 187.554688 C 339.285156 194.9375 337.398438 202.058594 334.289062 209.949219 C 337.351562 215.171875 338.328125 222.351562 333.15625 224.996094 C 334.394531 208.058594 322.21875 228.59375 319.800781 233.855469 C 318.824219 222.300781 324.035156 219.152344 327.996094 210.519531 C 331.242188 203.449219 335.320312 192.464844 330.589844 185.332031 C 326.542969 190.335938 320.976562 196.015625 314.199219 196.804688 C 313.675781 201.933594 310.972656 207.398438 304.769531 208.808594 C 307.21875 205.042969 308.53125 200.757812 308.644531 196.273438 C 303.339844 194.730469 298.011719 190.863281 294.691406 186.527344 C 288.019531 177.820312 292.496094 171.347656 278.273438 182.785156 C 277.183594 183.660156 276.019531 184.445312 274.894531 185.269531 L 274.894531 185.273438 C 265.425781 192.195312 270.523438 199.945312 265.722656 210.058594 C 268.265625 210.550781 270.882812 210.941406 273.492188 211.339844 C 281.144531 212.492188 288.800781 213.644531 295.785156 217.320312 C 297.382812 218.164062 298.90625 219.25 300.300781 220.519531 C 309.6875 217.398438 313.597656 213.414062 319.105469 203.972656 C 318.945312 212.335938 310.761719 221.535156 304.066406 224.878906 C 306.648438 228.71875 308.070312 233.273438 307.597656 237.898438 C 312.46875 246.726562 313.109375 248.011719 324.734375 246.558594 C 328.417969 246.101562 331.933594 245.015625 334.878906 243.121094 C 338.4375 240.839844 341.464844 237.726562 344.019531 234.191406 C 347.101562 229.917969 349.515625 225.015625 351.347656 220.15625 C 352.105469 218.152344 351.273438 215.53125 350.429688 212.882812 C 348.507812 206.839844 348.59375 203.105469 351.226562 197.328125 C 352.195312 195.199219 353.164062 193.082031 352.988281 191.210938 C 352.304688 183.972656 351.316406 176.6875 349.828125 169.523438 C 348.355469 162.4375 346.410156 155.367188 343.675781 148.65625 L 343.679688 148.65625 C 342.574219 146.039062 339.765625 143.945312 337.429688 144.871094 C 327.417969 148.851562 318.675781 160.074219 315.066406 170.28125 C 316.867188 173.375 317.695312 175.855469 316.261719 178.558594 C 314.976562 172.859375 308.09375 171.460938 303.351562 173.582031 C 304.09375 170.949219 306.488281 168.582031 309.769531 168.535156 C 310.996094 165.085938 312.199219 161.601562 314.429688 158.644531 C 311.054688 151.648438 309.570312 138.585938 318.398438 132.898438 C 313.972656 139.261719 314.082031 155.933594 320.875 150.710938 C 323.960938 148.339844 327.222656 141.414062 335.417969 139.679688 C 341.1875 138.460938 347.011719 142.148438 349.027344 147.035156 C 349.769531 148.839844 351.765625 146.910156 351.671875 145.070312 Z M 257.03125 50.703125 C 250.078125 46.191406 242.4375 43.933594 234.109375 43.703125 L 234.003906 43.96875 C 233.085938 46.355469 232.164062 48.742188 229.191406 49.539062 C 226.121094 50.359375 223.238281 49.613281 220.371094 48.875 C 218.085938 48.285156 215.808594 47.695312 214.140625 48.324219 C 207.972656 50.652344 206.796875 55.675781 205.839844 59.78125 C 204.710938 64.609375 203.785156 68.578125 198.277344 69.207031 C 194.09375 69.683594 180.253906 70.660156 179.417969 74.859375 C 178.527344 79.359375 177.296875 83.066406 173.394531 86 C 169.386719 89.015625 164.605469 89.519531 159.8125 90.019531 C 155.996094 90.417969 152.164062 90.820312 149.375 92.640625 C 146.191406 94.71875 142.832031 97.449219 140.496094 100.589844 C 138.796875 102.875 137.652344 105.367188 137.582031 107.9375 C 137.378906 115.792969 140.359375 123.496094 143.359375 131.230469 C 148.375 144.179688 140.859375 149.109375 146.261719 161.867188 C 138.453125 155.785156 141.019531 140.601562 138.167969 133.238281 C 133.894531 122.558594 128.109375 135.964844 126.945312 144.121094 C 125.640625 153.246094 127.6875 163.234375 132.515625 172.550781 C 125.75 170.890625 124.285156 160.144531 118.863281 169.722656 C 117.511719 171.792969 116.417969 173.960938 115.738281 176.238281 C 133.324219 173.316406 141.484375 183.96875 159.019531 177.144531 C 165.230469 174.097656 171.484375 173.71875 164.585938 163.722656 C 162.171875 160.21875 165.074219 157.394531 166.820312 154.554688 C 171.34375 147.1875 170.59375 124.277344 160.203125 122.292969 C 151.519531 120.632812 145.214844 112.046875 155.371094 106.640625 C 150.757812 112.640625 154.773438 115.96875 160.722656 117.105469 C 168.960938 118.6875 168.035156 117.144531 171.066406 110.671875 C 180.117188 91.375 196.097656 95.476562 216.269531 90.089844 C 216.296875 90.082031 216.320312 90.074219 216.332031 90.066406 L 216.332031 90.058594 C 219.152344 88.464844 215.199219 87.378906 213.90625 86.921875 C 207.417969 81.414062 197.050781 87.320312 194.78125 82.195312 C 203.488281 81.988281 208.125 75.425781 210.449219 72.878906 C 218.375 64.214844 232.570312 63.265625 243.316406 61.25 C 242.667969 52.78125 250.101562 50.671875 257.03125 50.703125 Z M 228.773438 42.070312 C 213.402344 36.457031 194.488281 29.683594 177.878906 32.859375 C 180.15625 37.644531 181.019531 39.597656 177.867188 44.539062 C 180.34375 46.417969 184.230469 50.164062 184.277344 53.796875 C 174.710938 45.148438 148.648438 36.359375 135.566406 48.785156 L 135.511719 48.84375 C 132.863281 51.390625 128.886719 57.386719 126.375 63.6875 C 124.070312 69.464844 123.027344 75.320312 125.722656 78.160156 L 125.75 78.191406 C 129.433594 82.015625 133.894531 85.132812 138.363281 88.246094 C 142.824219 91.363281 141.914062 90.863281 146.347656 87.972656 C 154.421875 81.65625 144.296875 62.828125 160.648438 51.621094 C 150.003906 64.375 153.1875 85.382812 164.171875 82.054688 C 176.097656 78.4375 174.542969 73.226562 170.363281 70.757812 C 167.808594 69.25 165.804688 66.234375 164.433594 63.609375 C 170.128906 68.074219 182.839844 65.960938 189.878906 64.8125 C 192.5 64.382812 195.121094 63.953125 197.644531 63.664062 C 199.25 63.480469 199.769531 61.242188 200.40625 58.515625 C 201.671875 53.109375 203.214844 46.492188 212.179688 43.113281 C 215.484375 41.863281 218.621094 42.671875 221.761719 43.484375 C 223.914062 44.042969 226.074219 44.597656 227.753906 44.152344 C 227.988281 44.089844 228.378906 43.09375 228.773438 42.070312 Z M 119.429688 210.316406 L 119.429688 210.324219 C 114.132812 212.152344 113.777344 216.925781 113.117188 222.125 C 112.621094 226.027344 112.648438 230.046875 113.03125 233.9375 C 113.402344 237.777344 113.976562 241.777344 115.0625 245.570312 C 120.148438 261.808594 138.257812 262.734375 135.746094 270.09375 C 130.988281 264.425781 123.753906 265.863281 118.570312 262.175781 C 115.714844 265.203125 112.800781 265.429688 109.207031 264.90625 C 118.214844 257.164062 111.597656 254.101562 109.695312 247.097656 C 106.671875 235.964844 104.699219 223.929688 88.171875 229.246094 C 91.25 225.546875 96.570312 224.070312 101.078125 225.921875 C 108.5625 228.996094 107.324219 225.042969 107.597656 221.429688 C 109.074219 209.847656 104.59375 205.839844 106.875 201.796875 C 108.917969 206.75 111.746094 207.070312 117.617188 205.046875 L 117.621094 205.054688 C 124.050781 202.835938 128.242188 198.699219 132.785156 191.082031 C 131.523438 201.007812 126.964844 207.714844 119.429688 210.316406 Z M 197.964844 102.5625 C 204.605469 107.738281 218.277344 95.011719 225.921875 106.800781 C 227.007812 105.667969 228.054688 104.554688 229.101562 103.4375 C 236.445312 95.601562 251.433594 79.035156 262.644531 77.789062 C 272.757812 76.667969 279.332031 88.546875 287.621094 85.71875 C 279.058594 93.183594 271.71875 82.390625 263.253906 83.332031 C 253.949219 84.367188 239.089844 100.929688 233.15625 107.25 C 227.070312 113.738281 229.976562 114.757812 228.078125 123.023438 C 225.492188 134.292969 240.925781 134.335938 234.636719 142.207031 C 233.824219 133.320312 219.761719 134.339844 222.644531 121.777344 C 223.679688 117.277344 223.601562 113.417969 220.980469 109.398438 C 214.550781 99.527344 203.773438 112.136719 197.964844 102.5625 Z M 214.117188 310.4375 C 209.074219 307.53125 207.644531 307.757812 210.890625 311.53125 C 217.804688 319.546875 224.902344 328.171875 228.003906 339.976562 C 220.105469 322.113281 189.984375 293.527344 187.75 291.929688 C 183.589844 288.953125 184.632812 295.425781 187.414062 298.179688 C 190.480469 301.214844 193.453125 304.070312 196.285156 306.789062 C 208.609375 318.632812 218.292969 327.9375 224.910156 341.582031 C 225.988281 343.804688 231.445312 345.300781 233.507812 343.472656 C 233.585938 343.402344 233.625 343.304688 233.609375 343.171875 C 231.597656 328.589844 226.21875 317.414062 214.117188 310.4375 Z M 214.117188 310.4375"/></svg>