<svg xmlns="http://www.w3.org/2000/svg" width="375" viewBox="0 0 375 375" height="375" version="1.0"><defs><clipPath id="a"><path d="M 0 87.335938 L 375 87.335938 L 375 274.835938 L 0 274.835938 Z M 0 87.335938"/></clipPath><clipPath id="b"><path d="M 93 87.335938 L 282 87.335938 L 282 274.835938 L 93 274.835938 Z M 93 87.335938"/></clipPath></defs><g clip-path="url(#a)"><path fill="#FD7B33" d="M 281.25 274.835938 C 225 274.835938 198.4375 229.523438 173.4375 188.898438 C 151.5625 151.398438 131.25 118.585938 93.75 118.585938 C 59.375 118.585938 31.25 146.710938 31.25 181.085938 C 31.25 215.460938 59.375 243.585938 93.75 243.585938 L 93.75 274.835938 C 42.1875 274.835938 0 232.648438 0 181.085938 C 0 129.523438 42.1875 87.335938 93.75 87.335938 C 150 87.335938 176.5625 132.648438 201.5625 173.273438 C 225 210.773438 243.75 243.585938 281.25 243.585938 C 315.625 243.585938 343.75 215.460938 343.75 181.085938 C 343.75 146.710938 315.625 118.585938 281.25 118.585938 L 281.25 87.335938 C 332.8125 87.335938 375 129.523438 375 181.085938 C 375 232.648438 332.8125 274.835938 281.25 274.835938 Z M 281.25 274.835938"/></g><g clip-path="url(#b)"><path fill="#FD7B33" d="M 168.75 238.898438 C 151.5625 260.773438 123.4375 274.835938 93.75 274.835938 L 93.75 243.585938 C 118.75 243.585938 139.0625 229.523438 150 209.210938 C 154.6875 218.585938 160.9375 227.960938 168.75 238.898438 Z M 281.25 87.335938 L 281.25 118.585938 C 256.25 118.585938 235.9375 132.648438 225 152.960938 C 218.75 143.585938 212.5 134.210938 206.25 123.273438 C 223.4375 101.398438 251.5625 87.335938 281.25 87.335938 Z M 281.25 87.335938"/></g></svg>