<svg xmlns="http://www.w3.org/2000/svg" width="375" viewBox="0 0 375 375" height="375" version="1.0"><path fill="#FD7B33" d="M 77.820312 -0.0859375 L 1.753906 75.980469 L 110.25 184.480469 L 118.914062 175.816406 L 19.082031 75.980469 L 77.820312 17.242188 L 177.652344 117.078125 L 186.316406 108.414062 Z M 338.59375 2.476562 C 330.027344 2.476562 321.480469 5.730469 314.96875 12.214844 L 309.800781 17.410156 L 304.535156 12.167969 L 259.105469 57.597656 L 35.789062 280.890625 L -0.257812 374.621094 L 93.496094 338.597656 L 94.40625 337.664062 L 362.21875 69.851562 L 356.976562 64.585938 L 362.171875 59.417969 C 372.054688 49.507812 374.28125 34.859375 369.089844 22.675781 L 372.605469 22.675781 L 362.171875 12.214844 C 355.683594 5.753906 347.140625 2.5 338.59375 2.476562 Z M 338.570312 14.683594 C 343.957031 14.683594 349.339844 16.742188 353.480469 20.90625 C 361.789062 29.1875 361.789062 42.445312 353.480469 50.730469 L 348.289062 55.945312 L 318.441406 26.097656 L 323.660156 20.90625 C 327.800781 16.742188 333.183594 14.65625 338.570312 14.683594 Z M 304.535156 29.496094 L 344.890625 69.851562 L 317.21875 97.523438 L 276.863281 57.167969 Z M 83.945312 45.34375 C 80.570312 45.34375 77.820312 48.09375 77.820312 51.46875 C 77.820312 54.84375 80.570312 57.597656 83.945312 57.597656 C 87.320312 57.597656 90.074219 54.84375 90.074219 51.46875 C 90.074219 48.09375 87.320312 45.34375 83.945312 45.34375 Z M 65.5625 63.726562 C 62.1875 63.726562 59.4375 66.476562 59.4375 69.851562 C 59.4375 73.226562 62.1875 75.980469 65.5625 75.980469 C 68.9375 75.980469 71.691406 73.226562 71.691406 69.851562 C 71.691406 66.476562 68.9375 63.726562 65.5625 63.726562 Z M 102.328125 63.726562 C 98.953125 63.726562 96.199219 66.476562 96.199219 69.851562 C 96.199219 73.226562 98.953125 75.980469 102.328125 75.980469 C 105.703125 75.980469 108.457031 73.226562 108.457031 69.851562 C 108.457031 66.476562 105.703125 63.726562 102.328125 63.726562 Z M 267.769531 66.261719 L 308.125 106.617188 L 94.09375 320.648438 C 93.015625 317.273438 91.34375 313.683594 88.277344 310.617188 C 83.777344 306.117188 78.105469 304.46875 73.652344 303.582031 C 72.242188 303.292969 72.242188 303.4375 71.09375 303.292969 C 70.949219 302.144531 71.09375 302.144531 70.804688 300.734375 C 69.921875 296.28125 68.269531 290.609375 63.769531 286.109375 C 60.703125 283.046875 57.113281 281.371094 53.738281 280.292969 Z M 120.710938 82.109375 C 117.335938 82.109375 114.582031 84.859375 114.582031 88.234375 C 114.582031 91.609375 117.335938 94.363281 120.710938 94.363281 C 124.085938 94.363281 126.839844 91.609375 126.839844 88.234375 C 126.839844 84.859375 124.085938 82.109375 120.710938 82.109375 Z M 267.769531 82.109375 C 264.394531 82.109375 261.640625 84.859375 261.640625 88.234375 C 261.640625 91.609375 264.394531 94.363281 267.769531 94.363281 C 271.144531 94.363281 273.898438 91.609375 273.898438 88.234375 C 273.898438 84.859375 271.144531 82.109375 267.769531 82.109375 Z M 102.328125 100.488281 C 98.953125 100.488281 96.199219 103.242188 96.199219 106.617188 C 96.199219 109.992188 98.953125 112.746094 102.328125 112.746094 C 105.703125 112.746094 108.457031 109.992188 108.457031 106.617188 C 108.457031 103.242188 105.703125 100.488281 102.328125 100.488281 Z M 139.09375 100.488281 C 135.71875 100.488281 132.964844 103.242188 132.964844 106.617188 C 132.964844 109.992188 135.71875 112.746094 139.09375 112.746094 C 142.46875 112.746094 145.21875 109.992188 145.21875 106.617188 C 145.21875 103.242188 142.46875 100.488281 139.09375 100.488281 Z M 249.386719 100.488281 C 246.011719 100.488281 243.261719 103.242188 243.261719 106.617188 C 243.261719 109.992188 246.011719 112.746094 249.386719 112.746094 C 252.761719 112.746094 255.515625 109.992188 255.515625 106.617188 C 255.515625 103.242188 252.761719 100.488281 249.386719 100.488281 Z M 157.476562 118.871094 C 154.101562 118.871094 151.347656 121.625 151.347656 125 C 151.347656 128.375 154.101562 131.128906 157.476562 131.128906 C 160.851562 131.128906 163.601562 128.375 163.601562 125 C 163.601562 121.625 160.851562 118.871094 157.476562 118.871094 Z M 231.003906 118.871094 C 227.628906 118.871094 224.878906 121.625 224.878906 125 C 224.878906 128.375 227.628906 131.128906 231.003906 131.128906 C 234.378906 131.128906 237.132812 128.375 237.132812 125 C 237.132812 121.625 234.378906 118.871094 231.003906 118.871094 Z M 139.09375 137.253906 C 135.71875 137.253906 132.964844 140.007812 132.964844 143.382812 C 132.964844 146.757812 135.71875 149.511719 139.09375 149.511719 C 142.46875 149.511719 145.21875 146.757812 145.21875 143.382812 C 145.21875 140.007812 142.46875 137.253906 139.09375 137.253906 Z M 212.621094 137.253906 C 209.246094 137.253906 206.496094 140.007812 206.496094 143.382812 C 206.496094 146.757812 209.246094 149.511719 212.621094 149.511719 C 215.996094 149.511719 218.75 146.757812 218.75 143.382812 C 218.75 140.007812 215.996094 137.253906 212.621094 137.253906 Z M 194.238281 155.636719 C 190.867188 155.636719 188.113281 158.390625 188.113281 161.765625 C 188.113281 165.140625 190.867188 167.890625 194.238281 167.890625 C 197.613281 167.890625 200.367188 165.140625 200.367188 161.765625 C 200.367188 158.390625 197.613281 155.636719 194.238281 155.636719 Z M 175.859375 174.019531 C 172.484375 174.019531 169.730469 176.773438 169.730469 180.148438 C 169.730469 183.523438 172.484375 186.273438 175.859375 186.273438 C 179.234375 186.273438 181.984375 183.523438 181.984375 180.148438 C 181.984375 176.773438 179.234375 174.019531 175.859375 174.019531 Z M 265.972656 188.070312 L 257.308594 196.734375 L 357.144531 296.570312 L 298.40625 355.304688 L 198.574219 255.472656 L 189.90625 264.136719 L 298.40625 372.636719 L 374.472656 296.570312 Z M 157.476562 192.402344 C 154.101562 192.402344 151.347656 195.15625 151.347656 198.53125 C 151.347656 201.902344 154.101562 204.65625 157.476562 204.65625 C 160.851562 204.65625 163.601562 201.902344 163.601562 198.53125 C 163.601562 195.15625 160.851562 192.402344 157.476562 192.402344 Z M 139.09375 210.785156 C 135.71875 210.785156 132.964844 213.535156 132.964844 216.910156 C 132.964844 220.285156 135.71875 223.039062 139.09375 223.039062 C 142.46875 223.039062 145.21875 220.285156 145.21875 216.910156 C 145.21875 213.535156 142.46875 210.785156 139.09375 210.785156 Z M 249.386719 212.769531 C 246.011719 212.769531 243.261719 215.5 243.261719 218.898438 C 243.261719 222.273438 246.011719 225.027344 249.386719 225.027344 C 252.761719 225.027344 255.515625 222.273438 255.515625 218.898438 C 255.515625 215.5 252.761719 212.769531 249.386719 212.769531 Z M 120.710938 229.167969 C 117.335938 229.167969 114.582031 231.917969 114.582031 235.292969 C 114.582031 238.667969 117.335938 241.421875 120.710938 241.421875 C 124.085938 241.421875 126.839844 238.667969 126.839844 235.292969 C 126.839844 231.917969 124.085938 229.167969 120.710938 229.167969 Z M 267.769531 229.167969 C 264.394531 229.167969 261.640625 231.917969 261.640625 235.292969 C 261.640625 238.667969 264.394531 241.421875 267.769531 241.421875 C 271.144531 241.421875 273.898438 238.667969 273.898438 235.292969 C 273.898438 231.917969 271.144531 229.167969 267.769531 229.167969 Z M 231.003906 231.152344 C 227.628906 231.152344 224.878906 233.882812 224.878906 237.28125 C 224.878906 240.65625 227.628906 243.40625 231.003906 243.40625 C 234.378906 243.40625 237.132812 240.65625 237.132812 237.28125 C 237.132812 233.882812 234.378906 231.152344 231.003906 231.152344 Z M 102.328125 247.550781 C 98.953125 247.550781 96.199219 250.300781 96.199219 253.675781 C 96.199219 257.050781 98.953125 259.804688 102.328125 259.804688 C 105.703125 259.804688 108.457031 257.050781 108.457031 253.675781 C 108.457031 250.300781 105.703125 247.550781 102.328125 247.550781 Z M 286.152344 249.535156 C 282.777344 249.535156 280.023438 252.265625 280.023438 255.664062 C 280.023438 259.039062 282.777344 261.789062 286.152344 261.789062 C 289.527344 261.789062 292.28125 259.039062 292.28125 255.664062 C 292.28125 252.265625 289.527344 249.535156 286.152344 249.535156 Z M 83.945312 265.929688 C 80.570312 265.929688 77.820312 268.683594 77.820312 272.058594 C 77.820312 275.433594 80.570312 278.1875 83.945312 278.1875 C 87.320312 278.1875 90.074219 275.433594 90.074219 272.058594 C 90.074219 268.683594 87.320312 265.929688 83.945312 265.929688 Z M 304.535156 265.929688 C 301.160156 265.929688 298.40625 268.683594 298.40625 272.058594 C 298.40625 275.433594 301.160156 278.1875 304.535156 278.1875 C 307.910156 278.1875 310.660156 275.433594 310.660156 272.058594 C 310.660156 268.683594 307.910156 265.929688 304.535156 265.929688 Z M 267.769531 267.917969 C 264.394531 267.917969 261.640625 270.648438 261.640625 274.046875 C 261.640625 277.421875 264.394531 280.171875 267.769531 280.171875 C 271.144531 280.171875 273.898438 277.421875 273.898438 274.046875 C 273.898438 270.648438 271.144531 267.917969 267.769531 267.917969 Z M 322.917969 286.300781 C 319.542969 286.300781 316.789062 289.027344 316.789062 292.429688 C 316.789062 295.800781 319.542969 298.554688 322.917969 298.554688 C 326.292969 298.554688 329.042969 295.800781 329.042969 292.429688 C 329.042969 289.027344 326.292969 286.300781 322.917969 286.300781 Z M 45.097656 290.847656 C 45.671875 290.945312 46.105469 290.96875 46.75 291.085938 C 49.957031 291.734375 53.476562 293.144531 55.105469 294.773438 C 56.730469 296.402344 58.144531 299.917969 58.789062 303.125 C 59.4375 306.335938 59.4375 308.824219 59.4375 308.824219 L 59.4375 314.949219 L 65.5625 314.949219 C 65.5625 314.949219 68.054688 314.949219 71.261719 315.597656 C 74.46875 316.242188 77.984375 317.65625 79.613281 319.285156 C 81.242188 320.910156 82.652344 324.429688 83.300781 327.636719 C 83.417969 328.28125 83.445312 328.714844 83.539062 329.289062 L 41.078125 345.613281 L 28.773438 333.308594 Z M 304.535156 304.683594 C 301.160156 304.683594 298.40625 307.410156 298.40625 310.808594 C 298.40625 314.183594 301.160156 316.9375 304.535156 316.9375 C 307.910156 316.9375 310.660156 314.183594 310.660156 310.808594 C 310.660156 307.410156 307.910156 304.683594 304.535156 304.683594 Z M 304.535156 304.683594"/></svg>