<svg xmlns="http://www.w3.org/2000/svg" width="375" viewBox="0 0 375 375" height="375" version="1.0"><defs><clipPath id="a"><path d="M 97 187 L 278 187 L 278 366.703125 L 97 366.703125 Z M 97 187"/></clipPath><clipPath id="b"><path d="M 0 8.203125 L 375 8.203125 L 375 269 L 0 269 Z M 0 8.203125"/></clipPath></defs><g clip-path="url(#a)"><path fill="#FD7B33" d="M 187.5 366.703125 C 138.078125 366.703125 97.851562 326.503906 97.851562 277.078125 C 97.851562 227.652344 138.078125 187.453125 187.5 187.453125 C 236.921875 187.453125 277.148438 227.652344 277.148438 277.078125 C 277.148438 326.503906 236.921875 366.703125 187.5 366.703125 Z M 187.5 203.75 C 147.058594 203.75 114.152344 236.648438 114.152344 277.078125 C 114.152344 317.507812 147.058594 350.40625 187.5 350.40625 C 227.941406 350.40625 260.847656 317.507812 260.847656 277.078125 C 260.847656 236.648438 227.941406 203.75 187.5 203.75 Z M 187.5 203.75"/></g><path fill="#FD7B33" d="M 187.5 334.113281 C 183 334.113281 179.351562 330.460938 179.351562 325.964844 L 179.351562 228.191406 C 179.351562 223.695312 183 220.042969 187.5 220.042969 C 192 220.042969 195.648438 223.695312 195.648438 228.191406 L 195.648438 325.964844 C 195.648438 330.460938 192 334.113281 187.5 334.113281 Z M 187.5 334.113281"/><path fill="#FD7B33" d="M 187.5 334.113281 C 185.414062 334.113281 183.328125 333.3125 181.730469 331.734375 L 149.128906 299.140625 C 145.953125 295.964844 145.953125 290.800781 149.128906 287.621094 C 152.308594 284.445312 157.476562 284.445312 160.65625 287.621094 L 187.5 314.445312 L 214.328125 287.621094 C 217.507812 284.445312 222.675781 284.445312 225.851562 287.621094 C 229.03125 290.800781 229.03125 295.964844 225.851562 299.140625 L 193.253906 331.734375 C 191.671875 333.3125 189.585938 334.113281 187.5 334.113281 Z M 187.5 334.113281"/><g clip-path="url(#b)"><path fill="#FD7B33" d="M 334.199219 268.929688 L 301.597656 268.929688 C 297.097656 268.929688 293.449219 265.28125 293.449219 260.78125 C 293.449219 256.285156 297.097656 252.636719 301.597656 252.636719 L 334.199219 252.636719 C 347.675781 252.636719 358.648438 241.667969 358.648438 228.191406 L 358.648438 48.941406 C 358.648438 35.464844 347.675781 24.5 334.199219 24.5 L 40.800781 24.5 C 27.324219 24.5 16.351562 35.464844 16.351562 48.941406 L 16.351562 228.191406 C 16.351562 241.667969 27.324219 252.636719 40.800781 252.636719 L 73.402344 252.636719 C 77.902344 252.636719 81.550781 256.285156 81.550781 260.78125 C 81.550781 265.28125 77.902344 268.929688 73.402344 268.929688 L 40.800781 268.929688 C 18.324219 268.929688 0.0546875 250.648438 0.0546875 228.191406 L 0.0546875 48.941406 C 0.0546875 26.488281 18.324219 8.203125 40.800781 8.203125 L 334.199219 8.203125 C 356.675781 8.203125 374.945312 26.488281 374.945312 48.941406 L 374.945312 228.191406 C 374.945312 250.648438 356.675781 268.929688 334.199219 268.929688 Z M 334.199219 268.929688"/></g><path fill="#FD7B33" d="M 187.5 155.023438 C 178.796875 155.023438 170.109375 152.351562 162.675781 146.992188 L 36.027344 55.558594 C 32.375 52.917969 31.5625 47.816406 34.203125 44.167969 C 36.839844 40.5 41.925781 39.71875 45.578125 42.34375 L 172.226562 133.777344 C 181.484375 140.472656 193.53125 140.472656 202.789062 133.777344 L 329.4375 42.34375 C 333.089844 39.71875 338.175781 40.5 340.816406 44.167969 C 343.457031 47.816406 342.625 52.917969 338.988281 55.542969 L 212.339844 146.976562 C 204.890625 152.335938 196.203125 155.023438 187.5 155.023438 Z M 187.5 155.023438"/><path fill="#FD7B33" d="M 40.800781 236.339844 C 38.714844 236.339844 36.628906 235.539062 35.03125 233.960938 C 31.855469 230.78125 31.855469 225.617188 35.03125 222.441406 L 116.53125 140.960938 C 119.710938 137.785156 124.875 137.785156 128.054688 140.960938 C 131.234375 144.140625 131.234375 149.304688 128.054688 152.484375 L 46.554688 233.960938 C 44.976562 235.539062 42.890625 236.339844 40.800781 236.339844 Z M 40.800781 236.339844"/><path fill="#FD7B33" d="M 334.199219 236.339844 C 332.109375 236.339844 330.023438 235.539062 328.425781 233.960938 L 246.929688 152.484375 C 243.75 149.304688 243.75 144.140625 246.929688 140.960938 C 250.105469 137.785156 255.273438 137.785156 258.453125 140.960938 L 339.953125 222.441406 C 343.128906 225.617188 343.128906 230.78125 339.953125 233.960938 C 338.371094 235.539062 336.285156 236.339844 334.199219 236.339844 Z M 334.199219 236.339844"/></svg>