<svg xmlns="http://www.w3.org/2000/svg" width="375" viewBox="0 0 375 375" height="375" version="1.0"><defs><clipPath id="a"><path d="M 0 25.3125 L 375 25.3125 L 375 350.0625 L 0 350.0625 Z M 0 25.3125"/></clipPath></defs><g clip-path="url(#a)"><path fill="#FD7B33" d="M 266.074219 341.464844 C 210.75 341.464844 165.742188 296.40625 165.742188 241.015625 C 165.742188 185.632812 210.75 140.570312 266.074219 140.570312 C 321.398438 140.570312 366.410156 185.632812 366.410156 241.015625 C 366.410156 296.40625 321.398438 341.464844 266.074219 341.464844 Z M 16.964844 280.597656 C 12.917969 280.597656 9.625 277.300781 9.625 273.242188 L 9.625 84.707031 L 281.628906 84.707031 L 281.628906 133.082031 C 276.546875 132.347656 271.355469 131.964844 266.074219 131.964844 C 221.902344 131.964844 183.792969 158.421875 166.710938 196.335938 L 158.035156 196.335938 L 158.035156 204.945312 L 163.277344 204.945312 C 159.3125 216.242188 157.144531 228.378906 157.144531 241.015625 C 157.144531 254.972656 159.777344 268.320312 164.574219 280.597656 Z M 16.964844 44.214844 L 27.367188 44.214844 L 27.367188 53.582031 L 35.964844 53.582031 L 35.964844 44.214844 L 55.859375 44.214844 L 55.859375 53.582031 L 64.457031 53.582031 L 64.457031 44.214844 L 84.351562 44.214844 L 84.351562 53.582031 L 92.949219 53.582031 L 92.949219 44.214844 L 112.839844 44.214844 L 112.839844 53.582031 L 121.433594 53.582031 L 121.433594 44.214844 L 141.328125 44.214844 L 141.328125 53.582031 L 149.925781 53.582031 L 149.925781 44.214844 L 169.820312 44.214844 L 169.820312 53.582031 L 178.417969 53.582031 L 178.417969 44.214844 L 198.308594 44.214844 L 198.308594 53.582031 L 206.902344 53.582031 L 206.902344 44.214844 L 226.796875 44.214844 L 226.796875 53.582031 L 235.394531 53.582031 L 235.394531 44.214844 L 255.285156 44.214844 L 255.285156 53.582031 L 263.882812 53.582031 L 263.882812 44.214844 L 274.289062 44.214844 C 278.335938 44.214844 281.628906 47.515625 281.628906 51.566406 L 281.628906 76.785156 L 9.625 76.785156 L 9.625 51.566406 C 9.625 47.515625 12.917969 44.214844 16.964844 44.214844 Z M 291.183594 134.890625 L 291.183594 51.566406 C 291.183594 42.238281 283.605469 34.652344 274.289062 34.652344 L 263.882812 34.652344 L 263.882812 25.285156 L 255.285156 25.285156 L 255.285156 34.652344 L 235.394531 34.652344 L 235.394531 25.285156 L 226.796875 25.285156 L 226.796875 34.652344 L 206.902344 34.652344 L 206.902344 25.285156 L 198.308594 25.285156 L 198.308594 34.652344 L 178.417969 34.652344 L 178.417969 25.285156 L 169.820312 25.285156 L 169.820312 34.652344 L 149.925781 34.652344 L 149.925781 25.285156 L 141.328125 25.285156 L 141.328125 34.652344 L 121.433594 34.652344 L 121.433594 25.285156 L 112.839844 25.285156 L 112.839844 34.652344 L 92.949219 34.652344 L 92.949219 25.285156 L 84.351562 25.285156 L 84.351562 34.652344 L 64.457031 34.652344 L 64.457031 25.285156 L 55.859375 25.285156 L 55.859375 34.652344 L 35.964844 34.652344 L 35.964844 25.285156 L 27.367188 25.285156 L 27.367188 34.652344 L 16.964844 34.652344 C 7.648438 34.652344 0.0703125 42.238281 0.0703125 51.566406 L 0.0703125 273.242188 C 0.0703125 282.570312 7.648438 290.160156 16.964844 290.160156 L 168.847656 290.160156 C 186.828125 325.671875 223.660156 350.074219 266.074219 350.074219 C 326.140625 350.074219 375.003906 301.148438 375.003906 241.015625 C 375.003906 189.53125 339.183594 146.269531 291.183594 134.890625"/></g><path fill="#FD7B33" d="M 266.074219 158.898438 C 267.429688 158.898438 268.527344 157.796875 268.527344 156.441406 L 268.527344 150.453125 C 268.527344 149.097656 267.429688 147.996094 266.074219 147.996094 C 264.722656 147.996094 263.625 149.097656 263.625 150.453125 L 263.625 156.441406 C 263.625 157.796875 264.722656 158.898438 266.074219 158.898438"/><path fill="#FD7B33" d="M 266.074219 323.140625 C 264.722656 323.140625 263.625 324.238281 263.625 325.59375 L 263.625 331.582031 C 263.625 332.9375 264.722656 334.035156 266.074219 334.035156 C 267.429688 334.035156 268.527344 332.9375 268.527344 331.582031 L 268.527344 325.59375 C 268.527344 324.238281 267.429688 323.140625 266.074219 323.140625"/><path fill="#FD7B33" d="M 356.53125 238.5625 L 350.550781 238.5625 C 349.195312 238.5625 348.101562 239.660156 348.101562 241.015625 C 348.101562 242.371094 349.195312 243.472656 350.550781 243.472656 L 356.53125 243.472656 C 357.886719 243.472656 358.988281 242.371094 358.988281 241.015625 C 358.988281 239.660156 357.886719 238.5625 356.53125 238.5625"/><path fill="#FD7B33" d="M 181.597656 238.5625 L 175.613281 238.5625 C 174.257812 238.5625 173.164062 239.660156 173.164062 241.015625 C 173.164062 242.371094 174.257812 243.472656 175.613281 243.472656 L 181.597656 243.472656 C 182.953125 243.472656 184.050781 242.371094 184.050781 241.015625 C 184.050781 239.660156 182.953125 238.5625 181.597656 238.5625"/><path fill="#FD7B33" d="M 343.828125 287.324219 L 338.734375 284.183594 C 338.078125 283.777344 337.214844 283.980469 336.808594 284.640625 C 336.402344 285.300781 336.609375 286.164062 337.265625 286.570312 L 342.359375 289.710938 C 342.589844 289.855469 342.84375 289.921875 343.09375 289.921875 C 343.5625 289.921875 344.023438 289.683594 344.285156 289.253906 C 344.695312 288.59375 344.488281 287.726562 343.828125 287.324219"/><path fill="#FD7B33" d="M 194.882812 195.464844 L 189.789062 192.324219 C 189.132812 191.917969 188.265625 192.125 187.863281 192.78125 C 187.457031 193.441406 187.660156 194.304688 188.324219 194.710938 L 193.410156 197.855469 C 193.644531 197.996094 193.898438 198.0625 194.148438 198.0625 C 194.617188 198.0625 195.074219 197.824219 195.339844 197.394531 C 195.746094 196.734375 195.542969 195.871094 194.882812 195.464844"/><path fill="#FD7B33" d="M 307.785156 314.578125 C 307.417969 313.898438 306.566406 313.648438 305.882812 314.023438 C 305.203125 314.390625 304.953125 315.242188 305.328125 315.921875 L 308.191406 321.179688 C 308.445312 321.644531 308.925781 321.910156 309.421875 321.910156 C 309.648438 321.910156 309.878906 321.855469 310.089844 321.738281 C 310.769531 321.367188 311.023438 320.515625 310.652344 319.835938 L 307.785156 314.578125"/><path fill="#FD7B33" d="M 223.957031 160.855469 C 223.589844 160.175781 222.734375 159.929688 222.054688 160.296875 C 221.375 160.667969 221.125 161.519531 221.5 162.199219 L 224.363281 167.453125 C 224.617188 167.921875 225.101562 168.1875 225.597656 168.1875 C 225.824219 168.1875 226.050781 168.132812 226.265625 168.015625 C 226.941406 167.644531 227.191406 166.792969 226.824219 166.113281 L 223.957031 160.855469"/><path fill="#FD7B33" d="M 193.410156 284.183594 L 188.324219 287.324219 C 187.660156 287.726562 187.457031 288.59375 187.863281 289.253906 C 188.128906 289.683594 188.585938 289.921875 189.058594 289.921875 C 189.308594 289.921875 189.5625 289.855469 189.789062 289.710938 L 194.882812 286.570312 C 195.542969 286.167969 195.746094 285.300781 195.339844 284.644531 C 194.933594 283.980469 194.070312 283.777344 193.410156 284.183594"/><path fill="#FD7B33" d="M 342.359375 192.324219 L 337.265625 195.464844 C 336.609375 195.871094 336.402344 196.734375 336.808594 197.394531 C 337.074219 197.824219 337.535156 198.0625 338.003906 198.0625 C 338.253906 198.0625 338.507812 197.996094 338.734375 197.855469 L 343.828125 194.710938 C 344.488281 194.304688 344.695312 193.441406 344.285156 192.78125 C 343.878906 192.125 343.019531 191.917969 342.359375 192.324219"/><path fill="#FD7B33" d="M 226.265625 314.023438 C 225.585938 313.648438 224.734375 313.898438 224.363281 314.578125 L 221.5 319.835938 C 221.125 320.515625 221.375 321.367188 222.054688 321.738281 C 222.273438 321.855469 222.5 321.910156 222.726562 321.910156 C 223.222656 321.910156 223.703125 321.644531 223.957031 321.179688 L 226.824219 315.921875 C 227.191406 315.242188 226.941406 314.390625 226.265625 314.023438"/><path fill="#FD7B33" d="M 310.089844 160.296875 C 309.414062 159.929688 308.5625 160.175781 308.191406 160.859375 L 305.328125 166.113281 C 304.953125 166.792969 305.203125 167.644531 305.882812 168.015625 C 306.097656 168.132812 306.328125 168.1875 306.554688 168.1875 C 307.050781 168.1875 307.53125 167.921875 307.785156 167.453125 L 310.652344 162.199219 C 311.023438 161.519531 310.769531 160.667969 310.089844 160.296875"/><path fill="#FD7B33" d="M 307.949219 215.050781 L 305.164062 211.011719 L 269.777344 235.472656 C 268.683594 234.851562 267.421875 234.492188 266.074219 234.492188 C 265.785156 234.492188 265.5 234.507812 265.222656 234.542969 L 232.058594 176.117188 L 227.792969 178.542969 L 260.789062 236.675781 C 259.425781 238.03125 258.578125 239.914062 258.578125 241.996094 C 258.578125 246.136719 261.9375 249.496094 266.074219 249.496094 C 270.214844 249.496094 273.570312 246.136719 273.570312 241.996094 C 273.570312 241.003906 273.375 240.0625 273.027344 239.199219 L 307.949219 215.050781"/><path fill="#FD7B33" d="M 41.78125 161.839844 L 65.34375 161.839844 L 65.34375 153.234375 L 41.78125 153.234375 L 41.78125 161.839844"/><path fill="#FD7B33" d="M 100.570312 161.839844 L 124.132812 161.839844 L 124.132812 153.234375 L 100.570312 153.234375 L 100.570312 161.839844"/><path fill="#FD7B33" d="M 182.917969 153.234375 L 159.359375 153.234375 L 159.359375 161.839844 L 182.917969 161.839844 L 182.917969 153.234375"/><path fill="#FD7B33" d="M 41.78125 118.785156 L 65.34375 118.785156 L 65.34375 110.179688 L 41.78125 110.179688 L 41.78125 118.785156"/><path fill="#FD7B33" d="M 100.570312 118.785156 L 124.132812 118.785156 L 124.132812 110.179688 L 100.570312 110.179688 L 100.570312 118.785156"/><path fill="#FD7B33" d="M 182.917969 110.179688 L 159.359375 110.179688 L 159.359375 118.785156 L 182.917969 118.785156 L 182.917969 110.179688"/><path fill="#FD7B33" d="M 41.78125 248.003906 L 65.34375 248.003906 L 65.34375 239.394531 L 41.78125 239.394531 L 41.78125 248.003906"/><path fill="#FD7B33" d="M 100.570312 248.003906 L 124.132812 248.003906 L 124.132812 239.394531 L 100.570312 239.394531 L 100.570312 248.003906"/><path fill="#FD7B33" d="M 41.78125 204.945312 L 65.34375 204.945312 L 65.34375 196.335938 L 41.78125 196.335938 L 41.78125 204.945312"/><path fill="#FD7B33" d="M 100.570312 204.945312 L 124.132812 204.945312 L 124.132812 196.335938 L 100.570312 196.335938 L 100.570312 204.945312"/><path fill="#FD7B33" d="M 241.707031 110.179688 L 218.144531 110.179688 L 218.144531 118.785156 L 241.707031 118.785156 L 241.707031 110.179688"/></svg>