<svg xmlns="http://www.w3.org/2000/svg" width="375" viewBox="0 0 375 375" height="375" version="1.0"><path fill="#FF1616" d="M 0.285156 177.421875 C 0.285156 184.585938 6.09375 190.394531 13.253906 190.394531 L 107.546875 190.394531 C 114.707031 190.394531 120.511719 184.585938 120.511719 177.421875 L 120.511719 50.921875 C 120.511719 43.757812 114.707031 37.953125 107.546875 37.953125 L 13.253906 37.953125 C 6.09375 37.953125 0.285156 43.757812 0.285156 50.921875 Z M 231.277344 335.894531 C 250.8125 337.492188 268.0625 321.070312 270.273438 302.085938 C 274.261719 281.679688 270.230469 273.285156 260.046875 255.734375 C 254.621094 243.675781 256.007812 245.578125 258.945312 231.84375 C 269.171875 229.015625 281.910156 232.191406 293.078125 231.128906 C 311.347656 230.703125 330.058594 231.921875 347.925781 227.570312 C 359.925781 221.9375 367.792969 209.023438 370.929688 196.492188 C 370.164062 184.992188 352.472656 175.558594 364.375 163.863281 C 374.722656 153.695312 369.101562 141.300781 359.460938 133.191406 C 350.582031 121.238281 370.46875 108.570312 361.3125 96.308594 C 354.667969 87.042969 341.507812 80.15625 344.894531 66.742188 C 346.445312 53.269531 333.242188 44.5625 323.671875 37.683594 C 306.816406 29.265625 287.074219 31.457031 268.796875 31.023438 C 238.199219 31.988281 207.335938 32.375 177.394531 39.433594 C 163.027344 42.15625 148.59375 44.570312 134.269531 47.496094 L 133.847656 183.464844 C 145.9375 181.746094 155.679688 190.402344 162.074219 199.71875 C 176.226562 218.792969 190.835938 229.328125 200.976562 250.515625 C 210.449219 264.792969 212.453125 268.914062 217.984375 286.171875 C 225.855469 304.449219 224.09375 312.503906 226.203125 332.003906 C 226.203125 332.003906 233.082031 335.949219 231.273438 335.886719 Z M 231.277344 335.894531"/></svg>