<svg xmlns="http://www.w3.org/2000/svg" width="375" viewBox="0 0 375 375" height="375" version="1.0"><defs><clipPath id="a"><path d="M 22 0 L 337.566406 0 L 337.566406 375 L 22 375 Z M 22 0"/></clipPath></defs><path fill="#FD7B33" d="M 240.546875 91.804688 C 232.292969 91.804688 225.566406 98.503906 225.566406 106.828125 C 225.566406 115.132812 232.292969 121.828125 240.546875 121.828125 C 248.828125 121.828125 255.527344 115.132812 255.527344 106.828125 C 255.527344 98.503906 248.828125 91.804688 240.546875 91.804688 Z M 240.546875 91.804688"/><path fill="#FD7B33" d="M 237.023438 214.859375 C 237.023438 223.167969 243.777344 229.878906 252.074219 229.878906 C 260.328125 229.878906 267.027344 223.167969 267.027344 214.859375 C 267.027344 206.5625 260.328125 199.847656 252.074219 199.847656 C 243.773438 199.847656 237.023438 206.5625 237.023438 214.859375 Z M 237.023438 214.859375"/><path fill="#FD7B33" d="M 127.351562 75.515625 C 119.042969 75.515625 112.316406 82.242188 112.316406 90.558594 C 112.316406 98.855469 119.042969 105.566406 127.351562 105.566406 C 135.671875 105.566406 142.386719 98.851562 142.386719 90.558594 C 142.386719 82.242188 135.671875 75.515625 127.351562 75.515625 Z M 127.351562 75.515625"/><g clip-path="url(#a)"><path fill="#FD7B33" d="M 195.132812 0 C 130.554688 0 70.996094 48.464844 58.621094 101.875 C 55.816406 113.75 52.75 144.757812 52.75 144.757812 L 23.011719 219.613281 C 22.441406 220.960938 22.15625 222.480469 22.15625 224.074219 C 22.15625 230.386719 27.332031 235.542969 33.667969 235.542969 L 52.75 235.542969 L 52.75 275.308594 C 52.75 306.324219 77.878906 331.441406 108.859375 331.441406 L 131.160156 331.441406 L 131.160156 375 L 283.015625 375 L 283.015625 254.226562 C 316.136719 228.179688 337.40625 187.71875 337.40625 142.320312 C 337.40625 63.707031 273.6875 0 195.132812 0 Z M 87.703125 173.125 C 79 173.125 71.878906 166.011719 71.878906 157.210938 C 71.878906 148.460938 78.996094 141.359375 87.703125 141.359375 C 96.492188 141.359375 103.644531 148.460938 103.644531 157.210938 C 103.644531 166.015625 96.492188 173.125 87.703125 173.125 Z M 297.730469 151.628906 L 282.929688 166.429688 L 264.878906 153.6875 C 261.402344 155.5 257.746094 156.941406 253.9375 157.914062 L 250.605469 177.546875 L 257.5 177.546875 L 259.34375 188.042969 C 260.066406 188.238281 260.792969 188.34375 261.507812 188.601562 C 263.359375 189.289062 265.070312 190.171875 266.664062 191.183594 L 274.988281 185.335938 L 281.8125 192.152344 L 275.683594 200.851562 C 277.007812 203.183594 278.042969 205.667969 278.625 208.296875 L 288.667969 210.023438 L 288.667969 219.679688 L 278.210938 221.480469 C 278.003906 222.214844 277.902344 222.957031 277.640625 223.679688 C 276.957031 225.546875 276.0625 227.273438 275.027344 228.890625 L 280.90625 237.171875 L 274.066406 244 L 265.417969 237.859375 C 263.074219 239.183594 260.597656 240.21875 257.953125 240.796875 L 256.191406 250.855469 L 246.535156 250.855469 L 244.796875 240.359375 C 244.046875 240.148438 243.296875 240.046875 242.554688 239.773438 C 240.699219 239.089844 238.980469 238.207031 237.371094 237.1875 L 229.035156 243.09375 L 222.242188 236.253906 L 228.386719 227.574219 C 227.0625 225.226562 226.027344 222.753906 225.445312 220.109375 L 215.347656 218.359375 L 215.347656 208.742188 L 225.898438 206.945312 C 226.105469 206.203125 226.210938 205.460938 226.480469 204.726562 C 227.15625 202.886719 228.035156 201.175781 229.046875 199.566406 L 223.164062 191.234375 L 229.980469 184.417969 L 238.679688 190.558594 C 241.007812 189.25 243.484375 188.214844 246.113281 187.621094 L 247.617188 178.898438 L 229.433594 178.898438 L 225.632812 157.121094 C 224.816406 156.863281 223.996094 156.652344 223.183594 156.339844 C 220.253906 155.265625 217.53125 153.917969 214.929688 152.402344 L 197.503906 164.675781 L 182.730469 149.859375 L 195.445312 131.871094 C 193.621094 128.390625 192.179688 124.722656 191.195312 120.894531 L 170.25 117.292969 L 170.25 100.09375 L 159.703125 101.914062 C 159.53125 102.421875 159.492188 102.9375 159.300781 103.429688 C 158.609375 105.296875 157.71875 107.007812 156.746094 108.664062 L 164.832031 120.121094 L 155.09375 129.824219 L 143.222656 121.453125 C 141.019531 122.59375 138.742188 123.527344 136.339844 124.164062 L 133.941406 137.898438 L 120.269531 137.910156 L 117.777344 123.578125 C 117.296875 123.410156 116.792969 123.371094 116.3125 123.1875 C 114.433594 122.484375 112.695312 121.578125 111.027344 120.597656 L 99.53125 128.695312 L 89.835938 118.976562 L 98.242188 107.066406 C 97.128906 104.886719 96.261719 102.597656 95.628906 100.234375 L 81.796875 97.863281 L 81.796875 84.113281 L 96.054688 81.664062 C 96.210938 81.15625 96.328125 80.667969 96.507812 80.175781 C 97.195312 78.296875 98.105469 76.574219 99.078125 74.914062 L 90.976562 63.457031 L 100.660156 53.75 L 112.582031 62.132812 C 114.789062 60.988281 117.082031 60.046875 119.492188 59.40625 L 121.890625 45.660156 L 135.566406 45.660156 L 138.058594 60 C 138.554688 60.15625 139.058594 60.195312 139.535156 60.375 C 141.417969 61.078125 143.140625 61.988281 144.8125 62.953125 L 156.273438 54.882812 L 166.007812 64.589844 L 157.582031 76.484375 C 158.726562 78.675781 159.65625 80.953125 160.277344 83.355469 L 174.019531 85.714844 L 174.019531 95.707031 L 192.011719 92.621094 C 192.269531 91.804688 192.476562 90.988281 192.789062 90.171875 C 193.863281 87.230469 195.226562 84.46875 196.769531 81.851562 L 184.40625 64.5 L 199.277344 49.667969 L 217.304688 62.410156 C 220.792969 60.59375 224.464844 59.15625 228.289062 58.171875 L 231.824219 37.214844 L 252.78125 37.214844 L 256.582031 58.972656 C 257.398438 59.214844 258.21875 59.441406 259.03125 59.738281 C 261.945312 60.8125 264.683594 62.175781 267.269531 63.695312 L 284.703125 51.421875 L 299.453125 66.222656 L 286.738281 84.273438 C 288.539062 87.730469 289.976562 91.386719 290.960938 95.1875 L 311.953125 98.800781 L 311.953125 119.761719 L 290.175781 123.507812 C 289.914062 124.324219 289.707031 125.140625 289.410156 125.945312 C 288.320312 128.871094 286.960938 131.605469 285.425781 134.210938 Z M 297.730469 151.628906"/></g></svg>