<svg xmlns="http://www.w3.org/2000/svg" width="375" viewBox="0 0 375 375" height="375" version="1.0"><defs><clipPath id="a"><path d="M 2 20.113281 L 369 20.113281 L 369 354.613281 L 2 354.613281 Z M 2 20.113281"/></clipPath></defs><g clip-path="url(#a)"><path fill="#FD7B33" d="M 249.273438 20.113281 C 222.957031 20.113281 201.449219 41.605469 201.449219 67.898438 L 201.449219 160.171875 L 159.261719 118.019531 C 158.507812 117.246094 157.640625 116.652344 156.648438 116.234375 C 155.65625 115.816406 154.621094 115.605469 153.546875 115.605469 C 152.753906 115.609375 151.976562 115.722656 151.21875 115.953125 C 150.460938 116.1875 149.753906 116.523438 149.097656 116.964844 C 148.4375 117.40625 147.859375 117.9375 147.359375 118.550781 C 146.859375 119.167969 146.460938 119.839844 146.164062 120.574219 C 145.863281 121.308594 145.679688 122.070312 145.609375 122.859375 C 145.539062 123.648438 145.585938 124.429688 145.746094 125.207031 C 145.910156 125.980469 146.183594 126.714844 146.5625 127.410156 C 146.945312 128.105469 147.421875 128.726562 147.988281 129.28125 L 203.082031 184.332031 C 203.269531 184.574219 203.46875 184.804688 203.679688 185.023438 C 203.890625 185.246094 204.117188 185.453125 204.351562 185.648438 C 204.589844 185.839844 204.835938 186.023438 205.09375 186.1875 C 205.351562 186.355469 205.617188 186.503906 205.890625 186.640625 C 206.164062 186.777344 206.445312 186.894531 206.734375 187 C 207.023438 187.101562 207.316406 187.1875 207.613281 187.257812 C 207.910156 187.328125 208.210938 187.378906 208.515625 187.414062 C 208.820312 187.449219 209.125 187.464844 209.429688 187.464844 C 209.738281 187.464844 210.042969 187.445312 210.347656 187.410156 C 210.648438 187.375 210.949219 187.324219 211.25 187.253906 C 211.546875 187.183594 211.839844 187.09375 212.128906 186.992188 C 212.414062 186.886719 212.695312 186.769531 212.96875 186.632812 C 213.246094 186.496094 213.507812 186.34375 213.765625 186.175781 C 214.023438 186.011719 214.269531 185.828125 214.503906 185.636719 C 214.742188 185.441406 214.964844 185.230469 215.175781 185.011719 C 215.386719 184.789062 215.585938 184.558594 215.769531 184.316406 L 270.851562 129.28125 C 271.230469 128.914062 271.574219 128.511719 271.878906 128.078125 C 272.179688 127.640625 272.4375 127.179688 272.644531 126.695312 C 272.855469 126.207031 273.015625 125.707031 273.128906 125.1875 C 273.238281 124.667969 273.292969 124.144531 273.300781 123.617188 C 273.304688 123.085938 273.257812 122.5625 273.160156 122.039062 C 273.058594 121.519531 272.910156 121.015625 272.710938 120.523438 C 272.507812 120.035156 272.261719 119.566406 271.96875 119.125 C 271.675781 118.683594 271.339844 118.277344 270.964844 117.902344 C 270.589844 117.527344 270.183594 117.195312 269.742188 116.902344 C 269.300781 116.609375 268.832031 116.359375 268.34375 116.160156 C 267.851562 115.960938 267.34375 115.808594 266.824219 115.710938 C 266.304688 115.613281 265.777344 115.566406 265.246094 115.570312 C 264.71875 115.574219 264.191406 115.632812 263.675781 115.742188 C 263.15625 115.851562 262.652344 116.011719 262.167969 116.222656 C 261.679688 116.433594 261.21875 116.691406 260.78125 116.992188 C 260.347656 117.292969 259.945312 117.636719 259.578125 118.019531 L 217.390625 160.171875 L 217.390625 67.898438 C 217.390625 50.214844 231.574219 36.042969 249.273438 36.042969 L 336.949219 36.042969 C 337.480469 36.050781 338.003906 36.003906 338.523438 35.910156 C 339.039062 35.8125 339.546875 35.664062 340.035156 35.46875 C 340.527344 35.273438 340.992188 35.027344 341.433594 34.738281 C 341.875 34.449219 342.285156 34.121094 342.660156 33.75 C 343.035156 33.378906 343.371094 32.976562 343.667969 32.539062 C 343.964844 32.101562 344.214844 31.640625 344.417969 31.152344 C 344.621094 30.664062 344.773438 30.164062 344.878906 29.644531 C 344.984375 29.128906 345.035156 28.605469 345.035156 28.078125 C 345.035156 27.550781 344.984375 27.027344 344.878906 26.511719 C 344.773438 25.992188 344.621094 25.492188 344.417969 25.003906 C 344.214844 24.515625 343.964844 24.054688 343.667969 23.617188 C 343.371094 23.179688 343.035156 22.777344 342.660156 22.40625 C 342.285156 22.035156 341.875 21.707031 341.433594 21.417969 C 340.992188 21.128906 340.527344 20.882812 340.035156 20.6875 C 339.546875 20.492188 339.039062 20.34375 338.523438 20.246094 C 338.003906 20.152344 337.480469 20.105469 336.949219 20.113281 Z M 339.675781 195.34375 C 333.894531 195.152344 328.015625 196.625 322.785156 199.917969 L 248.261719 245.820312 C 253.914062 251.578125 257.210938 259.386719 257.210938 267.613281 C 257.210938 284.894531 243.15625 298.957031 225.859375 298.957031 C 223.421875 298.957031 220.988281 298.667969 218.652344 298.117188 C 212.523438 296.667969 134.234375 273.246094 125.324219 270.585938 C 121.105469 269.316406 118.707031 264.871094 119.96875 260.660156 C 121.234375 256.445312 125.691406 254.066406 129.898438 255.324219 C 164.699219 265.742188 218.042969 281.621094 222.339844 282.640625 C 223.480469 282.910156 224.664062 283.042969 225.859375 283.042969 C 234.363281 283.042969 241.269531 276.125 241.269531 267.628906 C 241.269531 262.140625 238.417969 257.210938 233.644531 254.4375 C 231.324219 253.09375 152.648438 218.722656 136.828125 211.785156 C 112.039062 200.90625 83.472656 200.636719 58.457031 211.039062 L 7.054688 232.425781 C 2.988281 234.101562 2.148438 237.792969 2.148438 242.832031 L 2.148438 338.761719 C 2.148438 343.160156 5.722656 346.726562 10.121094 346.726562 C 12.550781 346.726562 14.496094 345.417969 14.804688 345.1875 L 42.578125 324.824219 C 56.734375 314.449219 75.605469 312.167969 92.210938 318.992188 L 185.429688 352.015625 C 190.667969 353.871094 196.089844 354.785156 201.480469 354.785156 C 211.769531 354.785156 221.910156 351.472656 230.375 345.0625 L 355.820312 250.082031 C 369.136719 240.90625 372.796875 223.019531 364.164062 209.34375 C 358.644531 200.59375 349.308594 195.660156 339.675781 195.34375 Z M 339.675781 195.34375"/></g></svg>