<svg xmlns="http://www.w3.org/2000/svg" width="375" viewBox="0 0 375 375" height="375" version="1.0"><defs><clipPath id="a"><path d="M 68 315 L 291 315 L 291 369.546875 L 68 369.546875 Z M 68 315"/></clipPath></defs><path fill="#FD7B33" d="M 187.5 147.207031 C 161.285156 147.207031 139.765625 168.476562 139.765625 194.988281 C 139.765625 221.226562 161.285156 242.773438 187.5 242.773438 C 213.714844 242.773438 235.234375 221.503906 235.234375 194.988281 C 235.234375 168.75 213.714844 147.207031 187.5 147.207031 Z M 187.5 231.722656 C 167.355469 231.722656 150.800781 215.152344 150.800781 194.988281 C 150.800781 174.828125 167.355469 158.253906 187.5 158.253906 C 207.644531 158.253906 224.199219 174.828125 224.199219 194.988281 C 224.199219 215.152344 207.644531 231.722656 187.5 231.722656 Z M 187.5 231.722656"/><path fill="#FD7B33" d="M 311.945312 235.039062 C 310.5625 228.960938 306.976562 223.988281 302.011719 221.226562 L 289.59375 214.046875 C 290.699219 207.695312 291.25 201.34375 291.25 195.265625 C 291.25 186.152344 290.421875 178.140625 288.214844 170.132812 L 300.628906 162.675781 C 311.667969 156.320312 315.253906 144.445312 309.460938 134.226562 L 299.25 116.550781 C 295.113281 109.644531 287.386719 104.949219 279.382812 104.949219 C 275.796875 104.949219 272.210938 105.777344 268.898438 107.710938 L 254.828125 115.996094 C 244.066406 106.605469 231.648438 99.703125 217.851562 95.558594 L 217.851562 79.816406 C 217.851562 67.109375 209.296875 57.996094 197.710938 57.996094 L 177.289062 57.996094 C 164.875 57.71875 154.386719 67.941406 154.386719 79.816406 L 154.386719 96.386719 C 141.144531 100.808594 128.726562 107.988281 117.964844 117.929688 L 104.722656 110.199219 C 100.859375 107.988281 96.71875 106.882812 92.582031 106.882812 C 85.40625 106.882812 79.335938 110.472656 75.75 116.828125 L 65.539062 134.503906 C 62.78125 139.472656 61.675781 145.550781 63.054688 151.351562 C 64.4375 157.425781 68.023438 162.398438 73.265625 165.4375 L 86.234375 172.617188 C 84.578125 180.074219 83.75 187.53125 83.75 195.265625 C 83.75 202.445312 84.578125 209.902344 85.957031 216.808594 L 74.367188 223.4375 C 63.332031 229.789062 59.746094 241.667969 65.539062 251.886719 L 75.75 269.5625 C 79.886719 276.46875 87.613281 281.164062 95.617188 281.164062 C 99.203125 281.164062 102.789062 280.335938 106.101562 278.402344 L 117.414062 271.773438 C 128.726562 282.265625 142.523438 290 157.148438 294.421875 L 157.148438 306.296875 C 157.148438 319 165.703125 328.117188 177.289062 328.117188 L 197.710938 328.117188 C 210.125 328.117188 220.613281 318.171875 220.613281 306.019531 L 220.335938 293.316406 C 234.960938 288.34375 248.480469 280.335938 259.515625 269.5625 L 270.277344 275.914062 C 274.140625 278.125 278.28125 279.230469 282.417969 279.230469 C 289.59375 279.230469 295.664062 275.640625 299.25 269.285156 L 309.460938 251.609375 C 312.496094 246.914062 313.324219 240.5625 311.945312 235.039062 Z M 300.078125 246.363281 L 289.871094 264.039062 C 287.9375 267.628906 284.628906 268.457031 282.417969 268.457031 C 280.210938 268.457031 278.003906 267.90625 275.796875 266.523438 L 257.585938 256.027344 L 254.550781 259.066406 C 243.238281 270.945312 228.890625 279.78125 213.160156 284.199219 L 209.023438 285.304688 L 209.574219 306.296875 C 209.574219 312.097656 204.054688 317.066406 197.710938 317.066406 L 177.289062 317.066406 C 170.667969 317.066406 168.183594 311.269531 168.183594 306.296875 L 168.183594 286.132812 L 164.046875 285.03125 C 148.316406 280.886719 133.695312 272.601562 122.105469 261 L 119.070312 257.960938 L 100.582031 268.734375 C 99.203125 269.5625 97.546875 270.113281 95.617188 270.113281 C 91.476562 270.113281 87.335938 267.628906 85.128906 264.039062 L 74.921875 246.363281 C 71.609375 240.5625 75.472656 235.589844 79.886719 233.105469 L 98.652344 222.332031 L 97.546875 218.191406 C 95.617188 210.734375 94.789062 203 94.789062 195.265625 C 94.789062 187.257812 95.890625 179.246094 97.824219 171.238281 L 98.925781 167.09375 L 78.507812 155.769531 C 76.023438 154.390625 74.367188 151.902344 73.816406 148.863281 C 72.988281 145.828125 73.542969 142.511719 75.195312 140.027344 L 85.40625 122.351562 C 87.335938 118.757812 90.648438 117.929688 92.855469 117.929688 C 95.0625 117.929688 97.269531 118.484375 99.480469 119.863281 L 119.898438 131.742188 L 122.933594 128.703125 C 134.523438 117.378906 147.214844 109.921875 161.839844 105.777344 L 165.425781 104.671875 L 165.425781 79.816406 C 165.425781 74.015625 170.945312 69.042969 177.289062 69.042969 L 197.710938 69.042969 C 204.332031 69.042969 206.816406 74.84375 206.816406 80.09375 L 207.089844 104.398438 L 211.230469 105.503906 C 226.128906 109.367188 239.652344 116.828125 250.6875 127.046875 L 253.722656 129.808594 L 274.695312 117.378906 C 276.074219 116.550781 277.730469 115.996094 279.660156 115.996094 C 283.800781 115.996094 287.9375 118.484375 290.144531 122.074219 L 300.355469 139.75 C 303.667969 145.550781 299.804688 150.523438 295.386719 153.007812 L 275.519531 164.609375 L 276.902344 168.75 C 279.382812 177.035156 280.488281 185.324219 280.488281 194.988281 C 280.488281 201.894531 279.660156 208.800781 278.28125 215.429688 L 277.453125 219.292969 L 296.769531 230.34375 C 299.25 231.722656 300.90625 234.210938 301.457031 237.246094 C 302.011719 240.5625 301.457031 243.601562 300.078125 246.363281 Z M 300.078125 246.363281"/><path fill="#FD7B33" d="M 90.097656 57.996094 C 91.199219 57.996094 92.304688 57.71875 93.410156 56.890625 C 143.628906 20.984375 212.886719 17.394531 267.242188 46.949219 L 249.585938 54.40625 L 306.703125 69.871094 L 276.625 18.777344 L 274.140625 38.386719 C 215.644531 5.796875 141.144531 9.386719 86.785156 48.054688 C 84.300781 49.710938 83.75 53.300781 85.40625 55.785156 C 86.511719 57.167969 88.441406 57.996094 90.097656 57.996094 Z M 90.097656 57.996094"/><path fill="#FD7B33" d="M 41.808594 113.234375 L 49.257812 130.914062 L 64.710938 73.738281 L 13.390625 103.84375 L 32.980469 106.332031 C 0.421875 164.882812 4.007812 239.457031 42.636719 293.867188 C 43.742188 295.25 45.398438 296.078125 47.050781 296.078125 C 48.15625 296.078125 49.257812 295.800781 50.363281 294.972656 C 52.847656 293.316406 53.398438 289.726562 51.742188 287.238281 C 15.871094 236.972656 12.007812 167.921875 41.808594 113.234375 Z M 41.808594 113.234375"/><g clip-path="url(#a)"><path fill="#FD7B33" d="M 281.867188 328.945312 C 231.648438 364.851562 162.390625 368.441406 107.757812 338.886719 L 125.414062 331.429688 L 68.296875 315.964844 L 98.375 367.058594 L 100.859375 347.449219 C 127.347656 362.363281 157.148438 369.546875 186.949219 369.546875 C 222.820312 369.546875 258.414062 358.773438 288.214844 337.78125 C 290.699219 336.125 291.25 332.535156 289.59375 330.050781 C 287.664062 327.839844 284.351562 327.289062 281.867188 328.945312 Z M 281.867188 328.945312"/></g><path fill="#FD7B33" d="M 332.363281 92.246094 C 330.707031 89.757812 327.121094 89.207031 324.636719 90.863281 C 322.152344 92.519531 321.601562 96.113281 323.257812 98.597656 C 359.128906 148.863281 362.714844 218.191406 333.191406 272.601562 L 325.742188 254.925781 L 310.289062 312.097656 L 361.335938 281.992188 L 341.746094 279.503906 C 374.578125 221.226562 370.992188 146.65625 332.363281 92.246094 Z M 332.363281 92.246094"/></svg>