<svg xmlns="http://www.w3.org/2000/svg" width="375" viewBox="0 0 375 375" height="375" version="1.0"><defs><clipPath id="a"><path d="M 0 20.796875 L 375 20.796875 L 375 354.546875 L 0 354.546875 Z M 0 20.796875"/></clipPath></defs><g clip-path="url(#a)"><path fill="#FD7B33" d="M 331.667969 41.890625 C 327.394531 29.585938 315.730469 20.828125 302.082031 20.828125 L 72.917969 20.828125 C 59.269531 20.828125 47.605469 29.585938 43.332031 41.890625 L 0 166.816406 L 0 333.65625 C 0 345.128906 9.375 354.511719 20.832031 354.511719 L 41.667969 354.511719 C 53.230469 354.511719 62.5 345.128906 62.5 333.65625 L 62.5 312.800781 L 312.5 312.800781 L 312.5 333.65625 C 312.5 345.128906 321.875 354.511719 333.332031 354.511719 L 354.167969 354.511719 C 365.730469 354.511719 375 345.128906 375 333.65625 L 375 166.816406 Z M 72.917969 250.238281 C 55.625 250.238281 41.667969 236.261719 41.667969 218.953125 C 41.667969 201.644531 55.625 187.671875 72.917969 187.671875 C 90.207031 187.671875 104.167969 201.644531 104.167969 218.953125 C 104.167969 236.261719 90.207031 250.238281 72.917969 250.238281 Z M 302.082031 250.238281 C 284.792969 250.238281 270.832031 236.261719 270.832031 218.953125 C 270.832031 201.644531 284.792969 187.671875 302.082031 187.671875 C 319.375 187.671875 333.332031 201.644531 333.332031 218.953125 C 333.332031 236.261719 319.375 250.238281 302.082031 250.238281 Z M 41.667969 145.960938 L 72.917969 52.109375 L 302.082031 52.109375 L 333.332031 145.960938 Z M 41.667969 145.960938"/></g></svg>