<svg xmlns="http://www.w3.org/2000/svg" width="375" viewBox="0 0 375 375" height="375" version="1.0"><defs><clipPath id="a"><path d="M 17 17.046875 L 358 17.046875 L 358 358.296875 L 17 358.296875 Z M 17 17.046875"/></clipPath></defs><g clip-path="url(#a)"><path fill="#FD7B33" d="M 308.011719 67.03125 C 275.820312 34.808594 233.023438 17.0625 187.5 17.0625 C 141.976562 17.0625 99.175781 34.808594 66.984375 67.03125 C 0.53125 133.550781 0.53125 241.785156 66.984375 308.304688 C 99.175781 340.535156 141.976562 358.277344 187.5 358.277344 C 233.023438 358.277344 275.820312 340.535156 308.011719 308.3125 C 374.460938 241.789062 374.460938 133.550781 308.011719 67.03125 Z M 298.550781 205.335938 C 298.550781 215.976562 289.90625 224.632812 279.277344 224.632812 L 189.566406 224.632812 L 202.90625 237.988281 C 206.550781 241.636719 208.558594 246.488281 208.554688 251.648438 C 208.550781 256.800781 206.539062 261.644531 202.894531 265.28125 L 184.8125 283.382812 C 181.171875 287.027344 176.332031 289.039062 171.179688 289.039062 C 166.039062 289.039062 161.203125 287.035156 157.558594 283.398438 L 76.730469 202.480469 C 73.375 199.132812 71.390625 194.664062 71.132812 189.875 C 71.097656 189.53125 71.078125 189.183594 71.078125 188.835938 C 71.078125 188.550781 71.101562 188.175781 71.132812 187.839844 C 71.390625 183.046875 73.367188 178.570312 76.714844 175.203125 L 94.820312 157.082031 C 94.824219 157.078125 94.832031 157.074219 94.835938 157.070312 L 157.542969 94.292969 C 161.195312 90.644531 166.039062 88.636719 171.179688 88.636719 C 176.328125 88.636719 181.167969 90.648438 184.808594 94.296875 L 202.898438 112.40625 C 206.539062 116.050781 208.546875 120.898438 208.546875 126.050781 C 208.546875 131.203125 206.539062 136.050781 202.894531 139.691406 L 189.558594 153.046875 L 279.269531 153.046875 C 289.898438 153.046875 298.542969 161.703125 298.542969 172.34375 L 298.542969 205.335938 Z M 298.550781 205.335938"/></g></svg>