<svg xmlns="http://www.w3.org/2000/svg" width="375" viewBox="0 0 375 375" height="375" version="1.0"><path fill="#FD7B33" d="M 285.324219 114.128906 L 244.566406 114.128906 C 244.03125 114.128906 243.5 114.183594 242.976562 114.285156 C 242.449219 114.390625 241.941406 114.546875 241.445312 114.75 C 240.949219 114.957031 240.480469 115.207031 240.035156 115.503906 C 239.589844 115.800781 239.179688 116.140625 238.800781 116.519531 C 238.421875 116.898438 238.085938 117.308594 237.785156 117.753906 C 237.488281 118.199219 237.238281 118.667969 237.035156 119.164062 C 236.828125 119.65625 236.675781 120.167969 236.570312 120.691406 C 236.464844 121.21875 236.414062 121.746094 236.414062 122.28125 C 236.414062 122.816406 236.464844 123.347656 236.570312 123.871094 C 236.675781 124.398438 236.828125 124.90625 237.035156 125.402344 C 237.238281 125.898438 237.488281 126.367188 237.785156 126.8125 C 238.085938 127.257812 238.421875 127.667969 238.800781 128.046875 C 239.179688 128.425781 239.589844 128.761719 240.035156 129.0625 C 240.480469 129.359375 240.949219 129.609375 241.445312 129.8125 C 241.941406 130.019531 242.449219 130.171875 242.976562 130.277344 C 243.5 130.382812 244.03125 130.433594 244.566406 130.433594 L 277.175781 130.433594 L 277.175781 244.566406 L 179.347656 244.566406 C 178.8125 244.566406 178.28125 244.617188 177.757812 244.722656 C 177.234375 244.828125 176.722656 244.980469 176.226562 245.1875 C 175.734375 245.390625 175.265625 245.640625 174.820312 245.9375 C 174.375 246.238281 173.960938 246.574219 173.582031 246.953125 C 173.203125 247.332031 172.867188 247.742188 172.570312 248.1875 C 172.273438 248.632812 172.019531 249.101562 171.816406 249.597656 C 171.613281 250.09375 171.457031 250.601562 171.351562 251.128906 C 171.246094 251.652344 171.195312 252.183594 171.195312 252.71875 L 171.195312 290.101562 L 68.59375 187.5 L 171.195312 84.898438 L 171.195312 122.28125 C 171.195312 122.816406 171.246094 123.347656 171.351562 123.871094 C 171.457031 124.398438 171.609375 124.90625 171.816406 125.402344 C 172.019531 125.898438 172.273438 126.367188 172.570312 126.8125 C 172.867188 127.257812 173.203125 127.667969 173.582031 128.046875 C 173.960938 128.425781 174.375 128.761719 174.820312 129.0625 C 175.265625 129.359375 175.734375 129.609375 176.226562 129.8125 C 176.722656 130.019531 177.230469 130.171875 177.757812 130.277344 C 178.28125 130.382812 178.8125 130.433594 179.347656 130.433594 L 211.957031 130.433594 C 212.492188 130.433594 213.023438 130.382812 213.546875 130.277344 C 214.070312 130.171875 214.582031 130.019531 215.078125 129.8125 C 215.570312 129.609375 216.039062 129.359375 216.484375 129.0625 C 216.929688 128.761719 217.34375 128.425781 217.722656 128.046875 C 218.097656 127.667969 218.4375 127.257812 218.734375 126.8125 C 219.03125 126.367188 219.285156 125.898438 219.488281 125.402344 C 219.691406 124.90625 219.847656 124.398438 219.953125 123.871094 C 220.054688 123.347656 220.109375 122.816406 220.109375 122.28125 C 220.109375 121.746094 220.054688 121.21875 219.953125 120.691406 C 219.847656 120.167969 219.691406 119.65625 219.488281 119.164062 C 219.285156 118.667969 219.03125 118.199219 218.734375 117.753906 C 218.4375 117.308594 218.097656 116.898438 217.722656 116.519531 C 217.34375 116.140625 216.929688 115.800781 216.484375 115.503906 C 216.039062 115.207031 215.570312 114.957031 215.078125 114.75 C 214.582031 114.546875 214.070312 114.390625 213.546875 114.285156 C 213.023438 114.183594 212.492188 114.128906 211.957031 114.128906 L 187.5 114.128906 L 187.5 65.21875 C 187.5 64.410156 187.382812 63.621094 187.148438 62.851562 C 186.914062 62.082031 186.574219 61.359375 186.125 60.6875 C 185.675781 60.019531 185.140625 59.429688 184.519531 58.917969 C 183.894531 58.40625 183.210938 57.996094 182.46875 57.6875 C 181.722656 57.378906 180.949219 57.183594 180.148438 57.105469 C 179.34375 57.027344 178.546875 57.066406 177.757812 57.222656 C 176.96875 57.378906 176.214844 57.648438 175.503906 58.027344 C 174.792969 58.410156 174.152344 58.882812 173.585938 59.453125 L 51.300781 181.738281 C 50.921875 182.113281 50.585938 182.527344 50.289062 182.972656 C 49.992188 183.417969 49.738281 183.886719 49.535156 184.382812 C 49.332031 184.875 49.175781 185.386719 49.070312 185.910156 C 48.96875 186.433594 48.914062 186.964844 48.914062 187.5 C 48.914062 188.035156 48.96875 188.566406 49.070312 189.089844 C 49.175781 189.613281 49.332031 190.125 49.535156 190.617188 C 49.738281 191.113281 49.992188 191.582031 50.289062 192.027344 C 50.585938 192.472656 50.921875 192.886719 51.300781 193.261719 L 173.585938 315.546875 C 174.347656 316.3125 175.230469 316.898438 176.230469 317.3125 C 177.226562 317.726562 178.265625 317.933594 179.347656 317.933594 C 180.429688 317.9375 181.472656 317.730469 182.46875 317.316406 C 183.214844 317.007812 183.898438 316.597656 184.523438 316.085938 C 185.144531 315.574219 185.679688 314.980469 186.128906 314.3125 C 186.574219 313.640625 186.914062 312.921875 187.148438 312.148438 C 187.382812 311.378906 187.5 310.589844 187.5 309.78125 L 187.5 260.871094 L 285.324219 260.871094 C 285.863281 260.871094 286.390625 260.816406 286.917969 260.710938 C 287.441406 260.609375 287.953125 260.453125 288.445312 260.25 C 288.941406 260.042969 289.410156 259.792969 289.855469 259.496094 C 290.300781 259.199219 290.710938 258.859375 291.089844 258.480469 C 291.46875 258.101562 291.808594 257.691406 292.105469 257.246094 C 292.402344 256.800781 292.652344 256.332031 292.859375 255.835938 C 293.0625 255.34375 293.21875 254.832031 293.320312 254.308594 C 293.425781 253.78125 293.476562 253.253906 293.476562 252.71875 L 293.476562 122.28125 C 293.476562 121.746094 293.425781 121.21875 293.320312 120.691406 C 293.21875 120.167969 293.0625 119.65625 292.859375 119.164062 C 292.652344 118.667969 292.402344 118.199219 292.105469 117.753906 C 291.808594 117.308594 291.46875 116.898438 291.089844 116.519531 C 290.710938 116.140625 290.300781 115.800781 289.855469 115.503906 C 289.410156 115.207031 288.941406 114.957031 288.445312 114.75 C 287.953125 114.546875 287.441406 114.390625 286.917969 114.285156 C 286.390625 114.183594 285.863281 114.128906 285.324219 114.128906 Z M 285.324219 114.128906"/><path fill="#FD7B33" d="M 366.847656 0 L 8.152344 0 C 7.617188 0 7.085938 0.0507812 6.5625 0.15625 C 6.035156 0.261719 5.527344 0.414062 5.03125 0.621094 C 4.539062 0.824219 4.066406 1.078125 3.625 1.375 C 3.179688 1.671875 2.765625 2.007812 2.386719 2.386719 C 2.007812 2.765625 1.671875 3.179688 1.375 3.625 C 1.078125 4.066406 0.824219 4.539062 0.621094 5.03125 C 0.414062 5.527344 0.261719 6.035156 0.15625 6.5625 C 0.0507812 7.085938 0 7.617188 0 8.152344 L 0 366.847656 C 0 367.382812 0.0507812 367.914062 0.15625 368.4375 C 0.261719 368.964844 0.414062 369.472656 0.621094 369.96875 C 0.824219 370.460938 1.078125 370.933594 1.375 371.375 C 1.671875 371.820312 2.007812 372.234375 2.386719 372.613281 C 2.765625 372.992188 3.179688 373.328125 3.625 373.625 C 4.066406 373.921875 4.539062 374.175781 5.03125 374.378906 C 5.527344 374.585938 6.035156 374.738281 6.5625 374.84375 C 7.085938 374.949219 7.617188 375 8.152344 375 L 269.023438 375 C 269.558594 375 270.085938 374.949219 270.613281 374.84375 C 271.136719 374.738281 271.648438 374.585938 272.140625 374.378906 C 272.636719 374.175781 273.105469 373.921875 273.550781 373.625 C 273.996094 373.328125 274.40625 372.992188 274.785156 372.613281 C 275.164062 372.234375 275.503906 371.820312 275.800781 371.375 C 276.097656 370.933594 276.347656 370.460938 276.554688 369.96875 C 276.757812 369.472656 276.914062 368.964844 277.015625 368.4375 C 277.121094 367.914062 277.175781 367.382812 277.175781 366.847656 C 277.175781 366.3125 277.121094 365.78125 277.015625 365.257812 C 276.914062 364.730469 276.757812 364.222656 276.554688 363.726562 C 276.347656 363.234375 276.097656 362.765625 275.800781 362.320312 C 275.503906 361.875 275.164062 361.460938 274.785156 361.082031 C 274.40625 360.703125 273.996094 360.367188 273.550781 360.070312 C 273.105469 359.773438 272.636719 359.519531 272.140625 359.316406 C 271.648438 359.109375 271.136719 358.957031 270.613281 358.851562 C 270.085938 358.746094 269.558594 358.695312 269.023438 358.695312 L 16.304688 358.695312 L 16.304688 16.304688 L 358.695312 16.304688 L 358.695312 358.695312 L 317.933594 358.695312 C 317.398438 358.695312 316.871094 358.746094 316.34375 358.851562 C 315.820312 358.957031 315.308594 359.109375 314.816406 359.316406 C 314.320312 359.519531 313.851562 359.773438 313.40625 360.070312 C 312.960938 360.367188 312.546875 360.703125 312.171875 361.082031 C 311.792969 361.460938 311.453125 361.875 311.15625 362.320312 C 310.859375 362.765625 310.609375 363.234375 310.402344 363.726562 C 310.199219 364.222656 310.042969 364.730469 309.9375 365.257812 C 309.835938 365.78125 309.78125 366.3125 309.78125 366.847656 C 309.78125 367.382812 309.835938 367.914062 309.9375 368.4375 C 310.042969 368.964844 310.199219 369.472656 310.402344 369.96875 C 310.609375 370.460938 310.859375 370.933594 311.15625 371.375 C 311.453125 371.820312 311.792969 372.234375 312.171875 372.613281 C 312.546875 372.992188 312.960938 373.328125 313.40625 373.625 C 313.851562 373.921875 314.320312 374.175781 314.816406 374.378906 C 315.308594 374.585938 315.820312 374.738281 316.34375 374.84375 C 316.871094 374.949219 317.398438 375 317.933594 375 L 366.847656 375 C 367.382812 375 367.914062 374.949219 368.4375 374.84375 C 368.964844 374.738281 369.472656 374.585938 369.96875 374.378906 C 370.460938 374.175781 370.933594 373.921875 371.375 373.625 C 371.820312 373.328125 372.234375 372.992188 372.613281 372.613281 C 372.992188 372.234375 373.328125 371.820312 373.625 371.375 C 373.921875 370.933594 374.175781 370.460938 374.378906 369.96875 C 374.585938 369.472656 374.738281 368.964844 374.84375 368.4375 C 374.949219 367.914062 375 367.382812 375 366.847656 L 375 8.152344 C 375 7.617188 374.949219 7.085938 374.84375 6.5625 C 374.738281 6.035156 374.585938 5.527344 374.378906 5.03125 C 374.175781 4.539062 373.921875 4.066406 373.625 3.625 C 373.328125 3.179688 372.992188 2.765625 372.613281 2.386719 C 372.234375 2.007812 371.820312 1.671875 371.375 1.375 C 370.933594 1.078125 370.460938 0.824219 369.96875 0.621094 C 369.472656 0.414062 368.964844 0.261719 368.4375 0.15625 C 367.914062 0.0507812 367.382812 0 366.847656 0 Z M 366.847656 0"/></svg>