<svg xmlns="http://www.w3.org/2000/svg" width="375" viewBox="0 0 375 375" height="375" version="1.0"><defs><clipPath id="a"><path d="M 0 58.359375 L 375 58.359375 L 375 316.359375 L 0 316.359375 Z M 0 58.359375"/></clipPath></defs><g clip-path="url(#a)"><path fill="#FD7B33" d="M 365.351562 73.53125 C 365.160156 73.277344 364.953125 73.03125 364.722656 72.800781 C 364.71875 72.796875 364.710938 72.792969 364.707031 72.789062 C 357.035156 63.988281 345.746094 58.410156 333.175781 58.410156 L 41.824219 58.410156 C 29.242188 58.410156 17.949219 63.996094 10.273438 72.808594 C 10.054688 73.027344 9.855469 73.265625 9.671875 73.503906 C 3.636719 80.75 0 90.050781 0 100.1875 L 0 274.625 C 0 297.660156 18.761719 316.402344 41.828125 316.402344 L 333.175781 316.402344 C 356.238281 316.402344 375 297.660156 375 274.625 L 375 100.1875 C 375 90.0625 371.371094 80.769531 365.351562 73.53125 Z M 360.539062 100.1875 L 360.539062 274.625 C 360.539062 277.894531 359.960938 281.027344 358.902344 283.9375 L 260.402344 187.21875 L 358.320312 89.410156 C 359.746094 92.71875 360.539062 96.363281 360.539062 100.1875 Z M 41.824219 301.960938 C 35.300781 301.960938 29.304688 299.664062 24.597656 295.84375 L 124.820312 197.433594 L 163.324219 235.894531 C 169.78125 242.34375 178.367188 245.898438 187.5 245.898438 C 196.632812 245.898438 205.21875 242.347656 211.675781 235.894531 L 250.179688 197.433594 L 350.402344 295.84375 C 345.695312 299.664062 339.699219 301.960938 333.175781 301.960938 Z M 14.460938 274.625 L 14.460938 100.1875 C 14.460938 96.363281 15.253906 92.71875 16.679688 89.410156 L 114.597656 187.21875 L 16.097656 283.9375 C 15.039062 281.027344 14.460938 277.894531 14.460938 274.625 Z M 333.175781 72.855469 C 339.167969 72.855469 344.710938 74.792969 349.222656 78.070312 L 201.449219 225.679688 C 197.722656 229.402344 192.769531 231.453125 187.5 231.453125 C 182.230469 231.453125 177.277344 229.402344 173.550781 225.679688 L 25.777344 78.070312 C 30.289062 74.792969 35.832031 72.855469 41.824219 72.855469 Z M 333.175781 72.855469"/></g></svg>