<svg xmlns="http://www.w3.org/2000/svg" width="375" viewBox="0 0 375 375" height="375" version="1.0"><defs><clipPath id="a"><path d="M 0 56.351562 L 374 56.351562 L 374 361.601562 L 0 361.601562 Z M 0 56.351562"/></clipPath></defs><path fill="#FFF" d="M-37.5 -37.5H412.5V412.5H-37.5z"/><path fill="#FFF" d="M-37.5 -37.5H412.5V412.5H-37.5z"/><path fill="#FFF" d="M-37.5 -37.5H412.5V412.5H-37.5z"/><g clip-path="url(#a)"><path fill="#FD7B33" d="M 1.589844 118.359375 C 1.609375 104.496094 1.65625 90.609375 2.15625 76.75 C 2.242188 74.335938 5.183594 73.796875 6.4375 75.140625 C 6.433594 74.886719 6.421875 74.632812 6.417969 74.378906 C 6.371094 72.042969 5.59375 67.359375 8.625 66.515625 C 9.738281 66.207031 11.078125 66.335938 12.210938 66.335938 C 14.472656 66.34375 16.734375 66.386719 18.996094 66.410156 C 25.789062 66.480469 32.574219 66.589844 39.34375 65.976562 C 46.734375 65.3125 54.011719 64.769531 61.433594 65.257812 C 69.113281 65.769531 76.769531 65.964844 84.453125 66.320312 C 92.296875 66.6875 100.070312 67.058594 107.917969 66.683594 C 115.984375 66.300781 123.996094 66.144531 132.070312 66.253906 C 140.183594 66.359375 148.222656 66.445312 156.320312 65.820312 C 160.375 65.503906 164.4375 65.195312 168.507812 65.257812 C 172.535156 65.316406 176.550781 65.730469 180.5625 66.078125 C 188.746094 66.792969 196.636719 66.386719 204.804688 65.761719 C 212.875 65.140625 220.960938 65.535156 229.042969 65.703125 C 237.128906 65.871094 245.191406 66.167969 253.277344 66.453125 C 269.417969 67.015625 285.574219 66.253906 301.714844 66.132812 C 309.578125 66.070312 317.320312 67.496094 325.167969 67.660156 C 333.101562 67.828125 340.988281 66.6875 348.914062 66.683594 C 354.929688 66.683594 360.921875 67.265625 366.921875 67.519531 C 366.914062 66.59375 366.902344 65.667969 366.898438 64.742188 C 366.894531 63.96875 367.1875 63.386719 367.636719 63 C 360.941406 62.664062 354.253906 62.179688 347.554688 61.980469 C 340.179688 61.761719 332.800781 61.898438 325.425781 61.789062 C 310.683594 61.574219 295.925781 61.238281 281.179688 61.398438 C 278.058594 61.429688 278.058594 56.589844 281.179688 56.554688 C 295.925781 56.398438 310.683594 56.730469 325.425781 56.949219 C 332.800781 57.058594 340.179688 56.917969 347.554688 57.136719 C 354.925781 57.355469 362.285156 57.929688 369.652344 58.257812 C 372.308594 58.378906 372.699219 61.925781 370.804688 62.867188 C 371.351562 63.253906 371.738281 63.871094 371.742188 64.742188 C 371.746094 65.71875 371.761719 66.695312 371.769531 67.671875 C 374.570312 67.902344 374.589844 72.207031 371.816406 72.46875 C 371.871094 77.511719 371.933594 82.558594 371.96875 87.601562 C 372.019531 95.234375 371.542969 102.851562 371.53125 110.480469 C 371.523438 118.023438 372.800781 125.457031 373.144531 132.976562 C 373.5 140.8125 373.355469 148.707031 373.429688 156.550781 C 373.503906 164.316406 373.253906 172.070312 373.226562 179.832031 C 373.195312 187.757812 372.410156 195.601562 372.179688 203.511719 C 371.953125 211.226562 373.148438 218.839844 373.5625 226.527344 C 373.980469 234.21875 373.878906 241.984375 373.976562 249.691406 C 374.085938 258.316406 372.949219 266.789062 372.695312 275.390625 C 372.449219 283.820312 372.820312 292.285156 372.828125 300.71875 C 372.828125 301.929688 371.710938 303.269531 370.402344 303.136719 C 356.824219 301.765625 343.078125 302.082031 329.464844 302.570312 C 322.308594 302.832031 315.171875 302.734375 308.015625 302.734375 C 300.949219 302.730469 293.886719 303.222656 286.832031 303.625 C 281.109375 303.953125 275.257812 304.800781 269.539062 304.0625 C 266.675781 303.695312 263.019531 302.222656 260.511719 302.585938 C 257.535156 303.019531 254.601562 307.449219 253.183594 310.113281 C 251.667969 312.96875 252.109375 315.570312 252.894531 318.5625 C 254.378906 324.230469 254.800781 329.640625 254.617188 335.5 C 254.378906 343.203125 253.941406 350.953125 254.90625 358.621094 C 255.128906 360.402344 252.664062 361.707031 251.257812 360.714844 C 239.414062 352.328125 229.71875 341.808594 220.027344 331.09375 C 217.371094 328.160156 214.878906 325.082031 212.34375 322.039062 C 210.191406 319.453125 207.863281 316.996094 205.808594 314.328125 C 204.378906 312.472656 203.203125 310.5 202.023438 308.480469 C 201.277344 307.203125 200.515625 306.082031 199.320312 305.183594 C 196.324219 302.925781 191.277344 300.648438 187.679688 301.398438 C 186.015625 301.742188 184.414062 302.359375 182.761719 302.757812 C 180.042969 303.414062 177.230469 303.707031 174.4375 303.769531 C 167.148438 303.929688 159.839844 303.535156 152.550781 303.464844 C 144.703125 303.390625 136.855469 303.246094 129.007812 303.140625 C 120.886719 303.03125 112.777344 302.566406 104.65625 302.386719 C 96.535156 302.210938 88.417969 302.039062 80.300781 301.757812 C 65.171875 301.230469 49.949219 300.753906 34.894531 299.070312 C 29.234375 298.433594 23.109375 297.949219 17.746094 295.878906 C 16.261719 295.308594 14.605469 294.578125 13.765625 293.136719 C 13.359375 292.445312 13.222656 291.671875 13.320312 290.886719 C 13.34375 290.6875 13.371094 290.53125 13.417969 290.34375 C 13.449219 290.226562 13.460938 290.15625 13.476562 290.078125 C 13.289062 288.847656 13.429688 287.410156 13.363281 286.175781 C 13.210938 283.453125 13.046875 280.730469 12.90625 278.007812 C 12.539062 270.964844 12.511719 264.035156 12.800781 256.988281 C 13.117188 249.40625 12.660156 241.902344 12.144531 234.339844 C 11.605469 226.46875 11.453125 218.65625 11.480469 210.773438 C 11.511719 202.757812 10.707031 194.9375 9.882812 186.976562 C 9.050781 178.972656 9.59375 171.152344 9.804688 163.140625 C 10.011719 155.183594 8.863281 147.304688 8.304688 139.382812 C 7.761719 131.679688 8.078125 123.960938 7.960938 116.246094 C 7.851562 108.753906 7.230469 101.285156 6.957031 93.796875 C 6.859375 91.109375 6.808594 88.414062 6.730469 85.71875 C 6.503906 95.027344 6.433594 104.347656 6.433594 113.648438 C 6.4375 119.804688 6.429688 125.949219 6.136719 132.097656 C 5.84375 138.246094 5.464844 144.390625 5.652344 150.546875 C 5.835938 156.570312 6.421875 162.574219 6.636719 168.597656 C 6.855469 174.757812 6.484375 180.902344 6.324219 187.0625 C 6.011719 199.179688 6.789062 211.460938 7.554688 223.554688 C 7.980469 230.34375 8.460938 237.136719 8.957031 243.925781 C 9.476562 250.976562 10.398438 257.988281 10.929688 265.039062 C 11.160156 268.148438 6.3125 268.132812 6.082031 265.039062 C 5.613281 258.769531 4.832031 252.535156 4.300781 246.273438 C 3.789062 240.277344 3.457031 234.257812 3.027344 228.253906 C 2.152344 216.019531 1.4375 203.648438 1.417969 191.382812 C 1.410156 185.355469 1.851562 179.335938 1.871094 173.308594 C 1.886719 167.148438 1.335938 161.011719 1 154.863281 C 0.332031 142.691406 1.570312 130.535156 1.589844 118.359375 Z M 11.3125 69.769531 C 11.3125 69.769531 11.3125 69.769531 11.3125 69.773438 C 11.320312 69.835938 11.3125 69.910156 11.308594 69.984375 C 11.328125 69.976562 11.335938 69.921875 11.3125 69.769531 Z M 11.3125 69.746094 C 11.3125 69.746094 11.3125 69.746094 11.3125 69.742188 C 11.3125 69.738281 11.3125 69.742188 11.3125 69.738281 C 11.3125 69.738281 11.3125 69.742188 11.3125 69.746094 Z M 18.015625 290.738281 C 17.964844 290.730469 17.972656 290.742188 18.027344 290.769531 C 18.023438 290.757812 18.019531 290.746094 18.015625 290.738281 Z M 18.011719 290.730469 C 17.890625 290.492188 17.664062 290.625 18.011719 290.730469 Z M 9.75 71.242188 C 9.667969 71.25 9.582031 71.261719 9.53125 71.238281 C 9.601562 71.265625 9.675781 71.261719 9.75 71.242188 Z M 9.75 71.242188"/></g><g fill="#FFF"><g><g><path d="M 9.976562 -6.136719 L 9.976562 -9.191406 L 4.71875 -9.191406 L 4.71875 -12.226562 L 10.203125 -12.226562 L 10.203125 -15.28125 L 1.347656 -15.28125 L 1.347656 0 L 4.71875 0 L 4.71875 -6.136719 Z M 9.976562 -6.136719" transform="translate(15.782 100.502)"/></g></g></g><g fill="#FFF"><g><g><path d="M 1.167969 -13.304688 C 1.167969 -12.226562 2.046875 -11.324219 3.144531 -11.324219 C 4.226562 -11.324219 5.125 -12.226562 5.125 -13.304688 C 5.125 -14.40625 4.226562 -15.28125 3.144531 -15.28125 C 2.046875 -15.28125 1.167969 -14.40625 1.167969 -13.304688 Z M 4.832031 0 L 4.832031 -9.910156 L 1.460938 -9.910156 L 1.460938 0 Z M 4.832031 0" transform="translate(27.103 100.502)"/></g></g></g><g fill="#FFF"><g><g><path d="M 11.484375 -5.617188 C 11.484375 -8.316406 10.40625 -10.136719 7.753906 -10.136719 C 6.449219 -10.136719 5.394531 -9.550781 4.71875 -8.695312 L 4.71875 -9.910156 L 1.347656 -9.910156 L 1.347656 0 L 4.71875 0 L 4.71875 -4.945312 C 4.71875 -6.292969 5.550781 -7.414062 6.605469 -7.414062 C 7.664062 -7.414062 8.113281 -6.785156 8.113281 -5.617188 L 8.113281 0 L 11.484375 0 Z M 11.484375 -5.617188" transform="translate(33.392 100.502)"/></g></g></g><g fill="#FFF"><g><g><path d="M 9.101562 -4.945312 C 9.101562 -3.640625 8.089844 -2.472656 6.742188 -2.472656 C 5.394531 -2.472656 4.382812 -3.640625 4.382812 -4.945312 C 4.382812 -6.246094 5.394531 -7.414062 6.742188 -7.414062 C 8.089844 -7.414062 9.101562 -6.246094 9.101562 -4.945312 Z M 12.472656 -16.855469 L 9.101562 -16.855469 L 9.101562 -8.695312 C 8.226562 -9.773438 6.964844 -10.136719 5.707031 -10.136719 C 2.898438 -10.136719 0.785156 -7.683594 0.785156 -4.945312 C 0.785156 -2.203125 2.898438 0.226562 5.707031 0.226562 C 6.964844 0.226562 8.425781 -0.179688 9.101562 -1.191406 L 9.101562 0 L 12.472656 0 Z M 12.472656 -16.855469" transform="translate(45.88 100.502)"/></g></g></g><g fill="#FFF"><g><g><path d="M 1.167969 -13.304688 C 1.167969 -12.226562 2.046875 -11.324219 3.144531 -11.324219 C 4.226562 -11.324219 5.125 -12.226562 5.125 -13.304688 C 5.125 -14.40625 4.226562 -15.28125 3.144531 -15.28125 C 2.046875 -15.28125 1.167969 -14.40625 1.167969 -13.304688 Z M 4.832031 0 L 4.832031 -9.910156 L 1.460938 -9.910156 L 1.460938 0 Z M 4.832031 0" transform="translate(59.694 100.502)"/></g></g></g><g fill="#FFF"><g><g><path d="M 11.484375 -5.617188 C 11.484375 -8.316406 10.40625 -10.136719 7.753906 -10.136719 C 6.449219 -10.136719 5.394531 -9.550781 4.71875 -8.695312 L 4.71875 -9.910156 L 1.347656 -9.910156 L 1.347656 0 L 4.71875 0 L 4.71875 -4.945312 C 4.71875 -6.292969 5.550781 -7.414062 6.605469 -7.414062 C 7.664062 -7.414062 8.113281 -6.785156 8.113281 -5.617188 L 8.113281 0 L 11.484375 0 Z M 11.484375 -5.617188" transform="translate(65.984 100.502)"/></g></g></g><g fill="#FFF"><g><g><path d="M 6.742188 -2.472656 C 5.394531 -2.472656 4.382812 -3.640625 4.382812 -4.964844 C 4.382812 -6.269531 5.394531 -7.4375 6.742188 -7.4375 C 8.089844 -7.4375 9.101562 -6.269531 9.101562 -4.964844 C 9.101562 -3.640625 8.089844 -2.472656 6.742188 -2.472656 Z M 9.101562 -8.695312 C 8.136719 -9.820312 6.964844 -10.136719 5.707031 -10.136719 C 2.898438 -10.136719 0.785156 -7.707031 0.785156 -4.964844 C 0.785156 -2.226562 2.898438 0.226562 5.707031 0.226562 C 6.964844 0.226562 8.425781 -0.179688 9.101562 -1.214844 L 9.101562 0.359375 C 9.101562 1.773438 8.046875 3.125 6.5625 3.125 C 5.484375 3.125 4.5625 2.425781 4.316406 1.257812 L 0.945312 1.257812 C 1.101562 4.269531 4.046875 5.617188 6.742188 5.617188 C 9.886719 5.617188 12.472656 3.234375 12.472656 -0.0234375 L 12.472656 -9.910156 L 9.101562 -9.910156 Z M 9.101562 -8.695312" transform="translate(78.472 100.502)"/></g></g></g><g fill="#FFF"><g><g><path d="M 10.515625 -6.898438 C 10.226562 -9.167969 8.316406 -10.136719 5.707031 -10.136719 C 2.425781 -10.136719 0.875 -9.011719 0.875 -6.988281 C 0.875 -3.394531 7.28125 -5.035156 7.28125 -2.945312 C 7.28125 -2.40625 6.628906 -2.113281 5.863281 -2.113281 C 5.125 -2.113281 3.796875 -2.203125 3.796875 -3.683594 L 0.449219 -3.683594 C 0.628906 -0.875 2.855469 0.226562 5.796875 0.226562 C 8.675781 0.226562 10.675781 -0.628906 10.675781 -2.964844 C 10.675781 -7.144531 4.269531 -5.730469 4.269531 -7.125 C 4.269531 -7.707031 4.964844 -8.046875 5.617188 -8.046875 C 6.269531 -8.046875 7.101562 -7.796875 7.214844 -6.898438 Z M 10.515625 -6.898438" transform="translate(92.286 100.502)"/></g></g></g><g fill="#FFF"><g><g><path d="M 6.945312 -7.414062 C 7.460938 -7.414062 7.953125 -7.257812 8.292969 -6.855469 L 8.335938 -6.855469 L 8.335938 -9.910156 C 8.066406 -10.046875 7.617188 -10.136719 7.324219 -10.136719 C 6.089844 -10.136719 5.234375 -9.4375 4.71875 -8.695312 L 4.71875 -9.910156 L 1.347656 -9.910156 L 1.347656 0 L 4.71875 0 L 4.71875 -4.945312 C 4.71875 -6.136719 5.683594 -7.414062 6.945312 -7.414062 Z M 6.945312 -7.414062" transform="translate(109.245 100.502)"/></g></g></g><g fill="#FFF"><g><g><path d="M 4.40625 -6.136719 C 4.40625 -6.136719 4.515625 -7.976562 6.628906 -7.976562 C 8.675781 -7.976562 8.832031 -6.136719 8.832031 -6.136719 Z M 12.066406 -5.167969 C 12.066406 -8.335938 9.574219 -10.136719 6.5625 -10.136719 C 3.234375 -10.136719 0.785156 -8.046875 0.785156 -4.945312 C 0.785156 -1.796875 3.144531 0.226562 6.5625 0.226562 C 9.191406 0.226562 11.304688 -1.078125 11.886719 -3.683594 L 8.449219 -3.683594 C 8.425781 -2.964844 7.683594 -2.179688 6.496094 -2.179688 C 5.167969 -2.179688 4.359375 -3.394531 4.359375 -4.539062 L 12.042969 -4.539062 C 12.042969 -4.742188 12.066406 -4.964844 12.066406 -5.167969 Z M 12.066406 -5.167969" transform="translate(117.803 100.502)"/></g></g></g><g fill="#FFF"><g><g><path d="M 4.71875 -4.945312 C 4.71875 -6.246094 5.730469 -7.414062 7.078125 -7.414062 C 8.425781 -7.414062 9.4375 -6.246094 9.4375 -4.945312 C 9.4375 -3.640625 8.425781 -2.472656 7.078125 -2.472656 C 5.730469 -2.472656 4.71875 -3.640625 4.71875 -4.945312 Z M 4.71875 5.617188 L 4.71875 -1.191406 C 5.394531 -0.179688 6.832031 0.226562 8.113281 0.226562 C 10.921875 0.226562 13.035156 -2.203125 13.035156 -4.945312 C 13.035156 -7.683594 10.921875 -10.136719 8.113281 -10.136719 C 6.832031 -10.136719 5.59375 -9.773438 4.71875 -8.695312 L 4.71875 -9.910156 L 1.347656 -9.910156 L 1.347656 5.617188 Z M 4.71875 5.617188" transform="translate(130.65 100.502)"/></g></g></g><g fill="#FFF"><g><g><path d="M 6.449219 -2.335938 C 4.628906 -2.335938 4.136719 -3.664062 4.136719 -4.921875 C 4.136719 -6.15625 4.675781 -7.484375 6.449219 -7.484375 C 8.203125 -7.484375 8.742188 -6.15625 8.742188 -4.921875 C 8.742188 -3.664062 8.246094 -2.335938 6.449219 -2.335938 Z M 6.449219 -10.113281 C 3.347656 -10.113281 0.785156 -8.046875 0.785156 -4.945312 C 0.785156 -1.773438 3.28125 0.203125 6.449219 0.203125 C 9.59375 0.203125 12.089844 -1.773438 12.089844 -4.945312 C 12.089844 -8.046875 9.527344 -10.113281 6.449219 -10.113281 Z M 6.449219 -10.113281" transform="translate(144.464 100.502)"/></g></g></g><g fill="#FFF"><g><g><path d="M 6.945312 -7.414062 C 7.460938 -7.414062 7.953125 -7.257812 8.292969 -6.855469 L 8.335938 -6.855469 L 8.335938 -9.910156 C 8.066406 -10.046875 7.617188 -10.136719 7.324219 -10.136719 C 6.089844 -10.136719 5.234375 -9.4375 4.71875 -8.695312 L 4.71875 -9.910156 L 1.347656 -9.910156 L 1.347656 0 L 4.71875 0 L 4.71875 -4.945312 C 4.71875 -6.136719 5.683594 -7.414062 6.945312 -7.414062 Z M 6.945312 -7.414062" transform="translate(157.335 100.502)"/></g></g></g><g fill="#FFF"><g><g><path d="M 5.59375 -7.304688 L 7.394531 -7.304688 L 7.394531 -9.910156 L 5.59375 -9.910156 L 5.59375 -13.683594 L 2.246094 -13.683594 L 2.246094 -9.910156 L 0.449219 -9.910156 L 0.449219 -7.304688 L 2.246094 -7.304688 L 2.246094 0 L 5.59375 0 Z M 5.59375 -7.304688" transform="translate(165.893 100.502)"/></g></g></g><g fill="#FFF"><g><g><path d="M 4.40625 -6.136719 C 4.40625 -6.136719 4.515625 -7.976562 6.628906 -7.976562 C 8.675781 -7.976562 8.832031 -6.136719 8.832031 -6.136719 Z M 12.066406 -5.167969 C 12.066406 -8.335938 9.574219 -10.136719 6.5625 -10.136719 C 3.234375 -10.136719 0.785156 -8.046875 0.785156 -4.945312 C 0.785156 -1.796875 3.144531 0.226562 6.5625 0.226562 C 9.191406 0.226562 11.304688 -1.078125 11.886719 -3.683594 L 8.449219 -3.683594 C 8.425781 -2.964844 7.683594 -2.179688 6.496094 -2.179688 C 5.167969 -2.179688 4.359375 -3.394531 4.359375 -4.539062 L 12.042969 -4.539062 C 12.042969 -4.742188 12.066406 -4.964844 12.066406 -5.167969 Z M 12.066406 -5.167969" transform="translate(173.732 100.502)"/></g></g></g><g fill="#FFF"><g><g><path d="M 9.101562 -4.945312 C 9.101562 -3.640625 8.089844 -2.472656 6.742188 -2.472656 C 5.394531 -2.472656 4.382812 -3.640625 4.382812 -4.945312 C 4.382812 -6.246094 5.394531 -7.414062 6.742188 -7.414062 C 8.089844 -7.414062 9.101562 -6.246094 9.101562 -4.945312 Z M 12.472656 -16.855469 L 9.101562 -16.855469 L 9.101562 -8.695312 C 8.226562 -9.773438 6.964844 -10.136719 5.707031 -10.136719 C 2.898438 -10.136719 0.785156 -7.683594 0.785156 -4.945312 C 0.785156 -2.203125 2.898438 0.226562 5.707031 0.226562 C 6.964844 0.226562 8.425781 -0.179688 9.101562 -1.191406 L 9.101562 0 L 12.472656 0 Z M 12.472656 -16.855469" transform="translate(186.58 100.502)"/></g></g></g><g fill="#FFF"><g><g><path d="M 6.449219 -2.335938 C 4.628906 -2.335938 4.136719 -3.664062 4.136719 -4.921875 C 4.136719 -6.15625 4.675781 -7.484375 6.449219 -7.484375 C 8.203125 -7.484375 8.742188 -6.15625 8.742188 -4.921875 C 8.742188 -3.664062 8.246094 -2.335938 6.449219 -2.335938 Z M 6.449219 -10.113281 C 3.347656 -10.113281 0.785156 -8.046875 0.785156 -4.945312 C 0.785156 -1.773438 3.28125 0.203125 6.449219 0.203125 C 9.59375 0.203125 12.089844 -1.773438 12.089844 -4.945312 C 12.089844 -8.046875 9.527344 -10.113281 6.449219 -10.113281 Z M 6.449219 -10.113281" transform="translate(206.01 100.502)"/></g></g></g><g fill="#FFF"><g><g><path d="M 11.484375 -5.617188 C 11.484375 -8.316406 10.40625 -10.136719 7.753906 -10.136719 C 6.449219 -10.136719 5.394531 -9.550781 4.71875 -8.695312 L 4.71875 -9.910156 L 1.347656 -9.910156 L 1.347656 0 L 4.71875 0 L 4.71875 -4.945312 C 4.71875 -6.292969 5.550781 -7.414062 6.605469 -7.414062 C 7.664062 -7.414062 8.113281 -6.785156 8.113281 -5.617188 L 8.113281 0 L 11.484375 0 Z M 11.484375 -5.617188" transform="translate(218.88 100.502)"/></g></g></g><g fill="#FFF"><g><g><path d="M 5.59375 -7.304688 L 7.394531 -7.304688 L 7.394531 -9.910156 L 5.59375 -9.910156 L 5.59375 -13.683594 L 2.246094 -13.683594 L 2.246094 -9.910156 L 0.449219 -9.910156 L 0.449219 -7.304688 L 2.246094 -7.304688 L 2.246094 0 L 5.59375 0 Z M 5.59375 -7.304688" transform="translate(236.984 100.502)"/></g></g></g><g fill="#FFF"><g><g><path d="M 11.484375 -5.617188 C 11.484375 -8.316406 10.40625 -10.136719 7.753906 -10.136719 C 6.449219 -10.136719 5.394531 -9.550781 4.71875 -8.695312 L 4.71875 -16.855469 L 1.347656 -16.855469 L 1.347656 0 L 4.71875 0 L 4.71875 -4.945312 C 4.71875 -6.292969 5.550781 -7.414062 6.605469 -7.414062 C 7.664062 -7.414062 8.113281 -6.785156 8.113281 -5.617188 L 8.113281 0 L 11.484375 0 Z M 11.484375 -5.617188" transform="translate(244.823 100.502)"/></g></g></g><g fill="#FFF"><g><g><path d="M 4.40625 -6.136719 C 4.40625 -6.136719 4.515625 -7.976562 6.628906 -7.976562 C 8.675781 -7.976562 8.832031 -6.136719 8.832031 -6.136719 Z M 12.066406 -5.167969 C 12.066406 -8.335938 9.574219 -10.136719 6.5625 -10.136719 C 3.234375 -10.136719 0.785156 -8.046875 0.785156 -4.945312 C 0.785156 -1.796875 3.144531 0.226562 6.5625 0.226562 C 9.191406 0.226562 11.304688 -1.078125 11.886719 -3.683594 L 8.449219 -3.683594 C 8.425781 -2.964844 7.683594 -2.179688 6.496094 -2.179688 C 5.167969 -2.179688 4.359375 -3.394531 4.359375 -4.539062 L 12.042969 -4.539062 C 12.042969 -4.742188 12.066406 -4.964844 12.066406 -5.167969 Z M 12.066406 -5.167969" transform="translate(257.312 100.502)"/></g></g></g><g fill="#FFF"><g><g><path d="M 4.71875 -4.945312 C 4.71875 -6.246094 5.730469 -7.414062 7.078125 -7.414062 C 8.425781 -7.414062 9.4375 -6.246094 9.4375 -4.945312 C 9.4375 -3.640625 8.425781 -2.472656 7.078125 -2.472656 C 5.730469 -2.472656 4.71875 -3.640625 4.71875 -4.945312 Z M 4.71875 5.617188 L 4.71875 -1.191406 C 5.394531 -0.179688 6.832031 0.226562 8.113281 0.226562 C 10.921875 0.226562 13.035156 -2.203125 13.035156 -4.945312 C 13.035156 -7.683594 10.921875 -10.136719 8.113281 -10.136719 C 6.832031 -10.136719 5.59375 -9.773438 4.71875 -8.695312 L 4.71875 -9.910156 L 1.347656 -9.910156 L 1.347656 5.617188 Z M 4.71875 5.617188" transform="translate(275.775 100.502)"/></g></g></g><g fill="#FFF"><g><g><path d="M 4.71875 0 L 4.71875 -16.855469 L 1.347656 -16.855469 L 1.347656 0 Z M 4.71875 0" transform="translate(289.589 100.502)"/></g></g></g><g fill="#FFF"><g><g><path d="M 9.101562 -4.945312 C 9.101562 -3.640625 8.089844 -2.472656 6.742188 -2.472656 C 5.394531 -2.472656 4.382812 -3.640625 4.382812 -4.945312 C 4.382812 -6.246094 5.394531 -7.414062 6.742188 -7.414062 C 8.089844 -7.414062 9.101562 -6.246094 9.101562 -4.945312 Z M 12.472656 -9.886719 L 9.101562 -9.886719 L 9.101562 -8.695312 C 8.226562 -9.773438 6.964844 -10.136719 5.707031 -10.136719 C 2.898438 -10.136719 0.785156 -7.683594 0.785156 -4.945312 C 0.785156 -2.203125 2.898438 0.226562 5.707031 0.226562 C 6.964844 0.226562 8.425781 -0.179688 9.101562 -1.191406 L 9.101562 0 L 12.472656 0 Z M 12.472656 -9.886719" transform="translate(295.654 100.502)"/></g></g></g><g fill="#FFF"><g><g><path d="M 5.59375 -7.304688 L 7.394531 -7.304688 L 7.394531 -9.910156 L 5.59375 -9.910156 L 5.59375 -13.683594 L 2.246094 -13.683594 L 2.246094 -9.910156 L 0.449219 -9.910156 L 0.449219 -7.304688 L 2.246094 -7.304688 L 2.246094 0 L 5.59375 0 Z M 5.59375 -7.304688" transform="translate(309.468 100.502)"/></g></g></g><g fill="#FFF"><g><g><path d="M 5.28125 -16.855469 C 3.484375 -16.855469 2.089844 -15.730469 2.089844 -13.28125 L 2.089844 -9.910156 L 0.675781 -9.910156 L 0.675781 -7.304688 L 2.089844 -7.304688 L 2.089844 0 L 5.460938 0 L 5.460938 -7.304688 L 7.773438 -7.304688 L 7.773438 -9.910156 L 5.460938 -9.910156 L 5.460938 -12.875 C 5.460938 -13.84375 5.640625 -14.226562 6.335938 -14.226562 L 7.773438 -14.226562 L 7.773438 -16.855469 Z M 5.28125 -16.855469" transform="translate(317.307 100.502)"/></g></g></g><g fill="#FFF"><g><g><path d="M 6.449219 -2.335938 C 4.628906 -2.335938 4.136719 -3.664062 4.136719 -4.921875 C 4.136719 -6.15625 4.675781 -7.484375 6.449219 -7.484375 C 8.203125 -7.484375 8.742188 -6.15625 8.742188 -4.921875 C 8.742188 -3.664062 8.246094 -2.335938 6.449219 -2.335938 Z M 6.449219 -10.113281 C 3.347656 -10.113281 0.785156 -8.046875 0.785156 -4.945312 C 0.785156 -1.773438 3.28125 0.203125 6.449219 0.203125 C 9.59375 0.203125 12.089844 -1.773438 12.089844 -4.945312 C 12.089844 -8.046875 9.527344 -10.113281 6.449219 -10.113281 Z M 6.449219 -10.113281" transform="translate(325.46 100.502)"/></g></g></g><g fill="#FFF"><g><g><path d="M 6.945312 -7.414062 C 7.460938 -7.414062 7.953125 -7.257812 8.292969 -6.855469 L 8.335938 -6.855469 L 8.335938 -9.910156 C 8.066406 -10.046875 7.617188 -10.136719 7.324219 -10.136719 C 6.089844 -10.136719 5.234375 -9.4375 4.71875 -8.695312 L 4.71875 -9.910156 L 1.347656 -9.910156 L 1.347656 0 L 4.71875 0 L 4.71875 -4.945312 C 4.71875 -6.136719 5.683594 -7.414062 6.945312 -7.414062 Z M 6.945312 -7.414062" transform="translate(338.33 100.502)"/></g></g></g><g fill="#FFF"><g><g><path d="M 11.347656 -5.035156 C 11.347656 -6.15625 11.863281 -7.414062 13.167969 -7.414062 C 14.292969 -7.414062 14.605469 -6.449219 14.605469 -5.484375 L 14.605469 0 L 17.976562 0 L 17.976562 -5.484375 C 17.976562 -8.046875 16.742188 -10.136719 14.15625 -10.136719 C 12.605469 -10.136719 11.503906 -9.683594 10.539062 -8.449219 C 9.84375 -9.574219 8.71875 -10.136719 7.460938 -10.136719 C 6.359375 -10.136719 5.394531 -9.550781 4.71875 -8.695312 L 4.71875 -9.910156 L 1.347656 -9.910156 L 1.347656 0 L 4.71875 0 L 4.71875 -4.945312 C 4.71875 -5.933594 5.394531 -7.414062 6.539062 -7.414062 C 7.664062 -7.414062 7.976562 -6.449219 7.976562 -5.484375 L 7.976562 0 L 11.347656 0 Z M 11.347656 -5.035156" transform="translate(346.889 100.502)"/></g></g></g><g fill="#FFF"><g><g><path d="M 6.40625 -7.503906 C 7.574219 -7.503906 8.316406 -6.898438 8.359375 -5.933594 L 11.707031 -5.933594 C 11.550781 -8.226562 9.503906 -10.136719 6.292969 -10.136719 C 2.988281 -10.136719 0.785156 -7.773438 0.785156 -4.945312 C 0.785156 -2.113281 2.855469 0.226562 6.292969 0.226562 C 9.304688 0.226562 11.304688 -1.484375 11.640625 -3.683594 L 8.359375 -3.683594 C 8.246094 -2.785156 7.4375 -2.335938 6.40625 -2.335938 C 4.832031 -2.335938 4.382812 -3.773438 4.382812 -4.921875 C 4.382812 -6.046875 4.875 -7.503906 6.40625 -7.503906 Z M 6.40625 -7.503906" transform="translate(78.418 131.394)"/></g></g></g><g fill="#FFF"><g><g><path d="M 6.449219 -2.335938 C 4.628906 -2.335938 4.136719 -3.664062 4.136719 -4.921875 C 4.136719 -6.15625 4.675781 -7.484375 6.449219 -7.484375 C 8.203125 -7.484375 8.742188 -6.15625 8.742188 -4.921875 C 8.742188 -3.664062 8.246094 -2.335938 6.449219 -2.335938 Z M 6.449219 -10.113281 C 3.347656 -10.113281 0.785156 -8.046875 0.785156 -4.945312 C 0.785156 -1.773438 3.28125 0.203125 6.449219 0.203125 C 9.59375 0.203125 12.089844 -1.773438 12.089844 -4.945312 C 12.089844 -8.046875 9.527344 -10.113281 6.449219 -10.113281 Z M 6.449219 -10.113281" transform="translate(90.817 131.394)"/></g></g></g><g fill="#FFF"><g><g><path d="M 11.347656 -5.035156 C 11.347656 -6.15625 11.863281 -7.414062 13.167969 -7.414062 C 14.292969 -7.414062 14.605469 -6.449219 14.605469 -5.484375 L 14.605469 0 L 17.976562 0 L 17.976562 -5.484375 C 17.976562 -8.046875 16.742188 -10.136719 14.15625 -10.136719 C 12.605469 -10.136719 11.503906 -9.683594 10.539062 -8.449219 C 9.84375 -9.574219 8.71875 -10.136719 7.460938 -10.136719 C 6.359375 -10.136719 5.394531 -9.550781 4.71875 -8.695312 L 4.71875 -9.910156 L 1.347656 -9.910156 L 1.347656 0 L 4.71875 0 L 4.71875 -4.945312 C 4.71875 -5.933594 5.394531 -7.414062 6.539062 -7.414062 C 7.664062 -7.414062 7.976562 -6.449219 7.976562 -5.484375 L 7.976562 0 L 11.347656 0 Z M 11.347656 -5.035156" transform="translate(103.688 131.394)"/></g></g></g><g fill="#FFF"><g><g><path d="M 4.40625 -6.136719 C 4.40625 -6.136719 4.515625 -7.976562 6.628906 -7.976562 C 8.675781 -7.976562 8.832031 -6.136719 8.832031 -6.136719 Z M 12.066406 -5.167969 C 12.066406 -8.335938 9.574219 -10.136719 6.5625 -10.136719 C 3.234375 -10.136719 0.785156 -8.046875 0.785156 -4.945312 C 0.785156 -1.796875 3.144531 0.226562 6.5625 0.226562 C 9.191406 0.226562 11.304688 -1.078125 11.886719 -3.683594 L 8.449219 -3.683594 C 8.425781 -2.964844 7.683594 -2.179688 6.496094 -2.179688 C 5.167969 -2.179688 4.359375 -3.394531 4.359375 -4.539062 L 12.042969 -4.539062 C 12.042969 -4.742188 12.066406 -4.964844 12.066406 -5.167969 Z M 12.066406 -5.167969" transform="translate(122.668 131.394)"/></g></g></g><g fill="#FFF"><g><g><path d="M 18.042969 -9.910156 L 14.335938 -9.910156 L 12.292969 -3.4375 L 10.089844 -9.910156 L 7.484375 -9.910156 L 5.304688 -3.4375 L 3.28125 -9.910156 L -0.40625 -9.910156 L 3.011719 0 L 6.875 0 L 8.785156 -6.179688 L 10.71875 0 L 14.5625 0 Z M 18.042969 -9.910156" transform="translate(141.131 131.394)"/></g></g></g><g fill="#FFF"><g><g><path d="M 1.167969 -13.304688 C 1.167969 -12.226562 2.046875 -11.324219 3.144531 -11.324219 C 4.226562 -11.324219 5.125 -12.226562 5.125 -13.304688 C 5.125 -14.40625 4.226562 -15.28125 3.144531 -15.28125 C 2.046875 -15.28125 1.167969 -14.40625 1.167969 -13.304688 Z M 4.832031 0 L 4.832031 -9.910156 L 1.460938 -9.910156 L 1.460938 0 Z M 4.832031 0" transform="translate(158.763 131.394)"/></g></g></g><g fill="#FFF"><g><g><path d="M 5.59375 -7.304688 L 7.394531 -7.304688 L 7.394531 -9.910156 L 5.59375 -9.910156 L 5.59375 -13.683594 L 2.246094 -13.683594 L 2.246094 -9.910156 L 0.449219 -9.910156 L 0.449219 -7.304688 L 2.246094 -7.304688 L 2.246094 0 L 5.59375 0 Z M 5.59375 -7.304688" transform="translate(165.053 131.394)"/></g></g></g><g fill="#FFF"><g><g><path d="M 11.484375 -5.617188 C 11.484375 -8.316406 10.40625 -10.136719 7.753906 -10.136719 C 6.449219 -10.136719 5.394531 -9.550781 4.71875 -8.695312 L 4.71875 -16.855469 L 1.347656 -16.855469 L 1.347656 0 L 4.71875 0 L 4.71875 -4.945312 C 4.71875 -6.292969 5.550781 -7.414062 6.605469 -7.414062 C 7.664062 -7.414062 8.113281 -6.785156 8.113281 -5.617188 L 8.113281 0 L 11.484375 0 Z M 11.484375 -5.617188" transform="translate(172.892 131.394)"/></g></g></g><g fill="#FFF"><g><g><path d="M 9.101562 -4.945312 C 9.101562 -3.640625 8.089844 -2.472656 6.742188 -2.472656 C 5.394531 -2.472656 4.382812 -3.640625 4.382812 -4.945312 C 4.382812 -6.246094 5.394531 -7.414062 6.742188 -7.414062 C 8.089844 -7.414062 9.101562 -6.246094 9.101562 -4.945312 Z M 12.472656 -9.886719 L 9.101562 -9.886719 L 9.101562 -8.695312 C 8.226562 -9.773438 6.964844 -10.136719 5.707031 -10.136719 C 2.898438 -10.136719 0.785156 -7.683594 0.785156 -4.945312 C 0.785156 -2.203125 2.898438 0.226562 5.707031 0.226562 C 6.964844 0.226562 8.425781 -0.179688 9.101562 -1.191406 L 9.101562 0 L 12.472656 0 Z M 12.472656 -9.886719" transform="translate(190.996 131.394)"/></g></g></g><g fill="#FFF"><g><g><path d="M 6.40625 -7.503906 C 7.574219 -7.503906 8.316406 -6.898438 8.359375 -5.933594 L 11.707031 -5.933594 C 11.550781 -8.226562 9.503906 -10.136719 6.292969 -10.136719 C 2.988281 -10.136719 0.785156 -7.773438 0.785156 -4.945312 C 0.785156 -2.113281 2.855469 0.226562 6.292969 0.226562 C 9.304688 0.226562 11.304688 -1.484375 11.640625 -3.683594 L 8.359375 -3.683594 C 8.246094 -2.785156 7.4375 -2.335938 6.40625 -2.335938 C 4.832031 -2.335938 4.382812 -3.773438 4.382812 -4.921875 C 4.382812 -6.046875 4.875 -7.503906 6.40625 -7.503906 Z M 6.40625 -7.503906" transform="translate(204.81 131.394)"/></g></g></g><g fill="#FFF"><g><g><path d="M 5.59375 -7.304688 L 7.394531 -7.304688 L 7.394531 -9.910156 L 5.59375 -9.910156 L 5.59375 -13.683594 L 2.246094 -13.683594 L 2.246094 -9.910156 L 0.449219 -9.910156 L 0.449219 -7.304688 L 2.246094 -7.304688 L 2.246094 0 L 5.59375 0 Z M 5.59375 -7.304688" transform="translate(217.209 131.394)"/></g></g></g><g fill="#FFF"><g><g><path d="M 1.167969 -13.304688 C 1.167969 -12.226562 2.046875 -11.324219 3.144531 -11.324219 C 4.226562 -11.324219 5.125 -12.226562 5.125 -13.304688 C 5.125 -14.40625 4.226562 -15.28125 3.144531 -15.28125 C 2.046875 -15.28125 1.167969 -14.40625 1.167969 -13.304688 Z M 4.832031 0 L 4.832031 -9.910156 L 1.460938 -9.910156 L 1.460938 0 Z M 4.832031 0" transform="translate(225.048 131.394)"/></g></g></g><g fill="#FFF"><g><g><path d="M 6.449219 -2.335938 C 4.628906 -2.335938 4.136719 -3.664062 4.136719 -4.921875 C 4.136719 -6.15625 4.675781 -7.484375 6.449219 -7.484375 C 8.203125 -7.484375 8.742188 -6.15625 8.742188 -4.921875 C 8.742188 -3.664062 8.246094 -2.335938 6.449219 -2.335938 Z M 6.449219 -10.113281 C 3.347656 -10.113281 0.785156 -8.046875 0.785156 -4.945312 C 0.785156 -1.773438 3.28125 0.203125 6.449219 0.203125 C 9.59375 0.203125 12.089844 -1.773438 12.089844 -4.945312 C 12.089844 -8.046875 9.527344 -10.113281 6.449219 -10.113281 Z M 6.449219 -10.113281" transform="translate(231.337 131.394)"/></g></g></g><g fill="#FFF"><g><g><path d="M 11.484375 -5.617188 C 11.484375 -8.316406 10.40625 -10.136719 7.753906 -10.136719 C 6.449219 -10.136719 5.394531 -9.550781 4.71875 -8.695312 L 4.71875 -9.910156 L 1.347656 -9.910156 L 1.347656 0 L 4.71875 0 L 4.71875 -4.945312 C 4.71875 -6.292969 5.550781 -7.414062 6.605469 -7.414062 C 7.664062 -7.414062 8.113281 -6.785156 8.113281 -5.617188 L 8.113281 0 L 11.484375 0 Z M 11.484375 -5.617188" transform="translate(244.207 131.394)"/></g></g></g><g fill="#FFF"><g><g><path d="M 9.101562 -4.945312 C 9.101562 -3.640625 8.089844 -2.472656 6.742188 -2.472656 C 5.394531 -2.472656 4.382812 -3.640625 4.382812 -4.945312 C 4.382812 -6.246094 5.394531 -7.414062 6.742188 -7.414062 C 8.089844 -7.414062 9.101562 -6.246094 9.101562 -4.945312 Z M 12.472656 -9.886719 L 9.101562 -9.886719 L 9.101562 -8.695312 C 8.226562 -9.773438 6.964844 -10.136719 5.707031 -10.136719 C 2.898438 -10.136719 0.785156 -7.683594 0.785156 -4.945312 C 0.785156 -2.203125 2.898438 0.226562 5.707031 0.226562 C 6.964844 0.226562 8.425781 -0.179688 9.101562 -1.191406 L 9.101562 0 L 12.472656 0 Z M 12.472656 -9.886719" transform="translate(256.696 131.394)"/></g></g></g><g fill="#FFF"><g><g><path d="M 4.71875 -4.945312 C 4.71875 -6.246094 5.730469 -7.414062 7.078125 -7.414062 C 8.425781 -7.414062 9.4375 -6.246094 9.4375 -4.945312 C 9.4375 -3.640625 8.425781 -2.472656 7.078125 -2.472656 C 5.730469 -2.472656 4.71875 -3.640625 4.71875 -4.945312 Z M 4.71875 0 L 4.71875 -1.191406 C 5.394531 -0.179688 6.832031 0.226562 8.113281 0.226562 C 10.921875 0.226562 13.035156 -2.203125 13.035156 -4.945312 C 13.035156 -7.683594 10.921875 -10.136719 8.113281 -10.136719 C 6.832031 -10.136719 5.59375 -9.773438 4.71875 -8.695312 L 4.71875 -16.855469 L 1.347656 -16.855469 L 1.347656 0 Z M 4.71875 0" transform="translate(270.51 131.394)"/></g></g></g><g fill="#FFF"><g><g><path d="M 4.71875 0 L 4.71875 -16.855469 L 1.347656 -16.855469 L 1.347656 0 Z M 4.71875 0" transform="translate(284.324 131.394)"/></g></g></g><g fill="#FFF"><g><g><path d="M 4.40625 -6.136719 C 4.40625 -6.136719 4.515625 -7.976562 6.628906 -7.976562 C 8.675781 -7.976562 8.832031 -6.136719 8.832031 -6.136719 Z M 12.066406 -5.167969 C 12.066406 -8.335938 9.574219 -10.136719 6.5625 -10.136719 C 3.234375 -10.136719 0.785156 -8.046875 0.785156 -4.945312 C 0.785156 -1.796875 3.144531 0.226562 6.5625 0.226562 C 9.191406 0.226562 11.304688 -1.078125 11.886719 -3.683594 L 8.449219 -3.683594 C 8.425781 -2.964844 7.683594 -2.179688 6.496094 -2.179688 C 5.167969 -2.179688 4.359375 -3.394531 4.359375 -4.539062 L 12.042969 -4.539062 C 12.042969 -4.742188 12.066406 -4.964844 12.066406 -5.167969 Z M 12.066406 -5.167969" transform="translate(290.389 131.394)"/></g></g></g><g fill="#FFF"><g><g><path d="M 6.945312 -7.414062 C 7.460938 -7.414062 7.953125 -7.257812 8.292969 -6.855469 L 8.335938 -6.855469 L 8.335938 -9.910156 C 8.066406 -10.046875 7.617188 -10.136719 7.324219 -10.136719 C 6.089844 -10.136719 5.234375 -9.4375 4.71875 -8.695312 L 4.71875 -9.910156 L 1.347656 -9.910156 L 1.347656 0 L 4.71875 0 L 4.71875 -4.945312 C 4.71875 -6.136719 5.683594 -7.414062 6.945312 -7.414062 Z M 6.945312 -7.414062" transform="translate(47.998 162.286)"/></g></g></g><g fill="#FFF"><g><g><path d="M 4.40625 -6.136719 C 4.40625 -6.136719 4.515625 -7.976562 6.628906 -7.976562 C 8.675781 -7.976562 8.832031 -6.136719 8.832031 -6.136719 Z M 12.066406 -5.167969 C 12.066406 -8.335938 9.574219 -10.136719 6.5625 -10.136719 C 3.234375 -10.136719 0.785156 -8.046875 0.785156 -4.945312 C 0.785156 -1.796875 3.144531 0.226562 6.5625 0.226562 C 9.191406 0.226562 11.304688 -1.078125 11.886719 -3.683594 L 8.449219 -3.683594 C 8.425781 -2.964844 7.683594 -2.179688 6.496094 -2.179688 C 5.167969 -2.179688 4.359375 -3.394531 4.359375 -4.539062 L 12.042969 -4.539062 C 12.042969 -4.742188 12.066406 -4.964844 12.066406 -5.167969 Z M 12.066406 -5.167969" transform="translate(56.556 162.286)"/></g></g></g><g fill="#FFF"><g><g><path d="M 6.40625 -7.503906 C 7.574219 -7.503906 8.316406 -6.898438 8.359375 -5.933594 L 11.707031 -5.933594 C 11.550781 -8.226562 9.503906 -10.136719 6.292969 -10.136719 C 2.988281 -10.136719 0.785156 -7.773438 0.785156 -4.945312 C 0.785156 -2.113281 2.855469 0.226562 6.292969 0.226562 C 9.304688 0.226562 11.304688 -1.484375 11.640625 -3.683594 L 8.359375 -3.683594 C 8.246094 -2.785156 7.4375 -2.335938 6.40625 -2.335938 C 4.832031 -2.335938 4.382812 -3.773438 4.382812 -4.921875 C 4.382812 -6.046875 4.875 -7.503906 6.40625 -7.503906 Z M 6.40625 -7.503906" transform="translate(69.404 162.286)"/></g></g></g><g fill="#FFF"><g><g><path d="M 6.449219 -2.335938 C 4.628906 -2.335938 4.136719 -3.664062 4.136719 -4.921875 C 4.136719 -6.15625 4.675781 -7.484375 6.449219 -7.484375 C 8.203125 -7.484375 8.742188 -6.15625 8.742188 -4.921875 C 8.742188 -3.664062 8.246094 -2.335938 6.449219 -2.335938 Z M 6.449219 -10.113281 C 3.347656 -10.113281 0.785156 -8.046875 0.785156 -4.945312 C 0.785156 -1.773438 3.28125 0.203125 6.449219 0.203125 C 9.59375 0.203125 12.089844 -1.773438 12.089844 -4.945312 C 12.089844 -8.046875 9.527344 -10.113281 6.449219 -10.113281 Z M 6.449219 -10.113281" transform="translate(81.803 162.286)"/></g></g></g><g fill="#FFF"><g><g><path d="M 11.347656 -5.035156 C 11.347656 -6.15625 11.863281 -7.414062 13.167969 -7.414062 C 14.292969 -7.414062 14.605469 -6.449219 14.605469 -5.484375 L 14.605469 0 L 17.976562 0 L 17.976562 -5.484375 C 17.976562 -8.046875 16.742188 -10.136719 14.15625 -10.136719 C 12.605469 -10.136719 11.503906 -9.683594 10.539062 -8.449219 C 9.84375 -9.574219 8.71875 -10.136719 7.460938 -10.136719 C 6.359375 -10.136719 5.394531 -9.550781 4.71875 -8.695312 L 4.71875 -9.910156 L 1.347656 -9.910156 L 1.347656 0 L 4.71875 0 L 4.71875 -4.945312 C 4.71875 -5.933594 5.394531 -7.414062 6.539062 -7.414062 C 7.664062 -7.414062 7.976562 -6.449219 7.976562 -5.484375 L 7.976562 0 L 11.347656 0 Z M 11.347656 -5.035156" transform="translate(94.673 162.286)"/></g></g></g><g fill="#FFF"><g><g><path d="M 11.347656 -5.035156 C 11.347656 -6.15625 11.863281 -7.414062 13.167969 -7.414062 C 14.292969 -7.414062 14.605469 -6.449219 14.605469 -5.484375 L 14.605469 0 L 17.976562 0 L 17.976562 -5.484375 C 17.976562 -8.046875 16.742188 -10.136719 14.15625 -10.136719 C 12.605469 -10.136719 11.503906 -9.683594 10.539062 -8.449219 C 9.84375 -9.574219 8.71875 -10.136719 7.460938 -10.136719 C 6.359375 -10.136719 5.394531 -9.550781 4.71875 -8.695312 L 4.71875 -9.910156 L 1.347656 -9.910156 L 1.347656 0 L 4.71875 0 L 4.71875 -4.945312 C 4.71875 -5.933594 5.394531 -7.414062 6.539062 -7.414062 C 7.664062 -7.414062 7.976562 -6.449219 7.976562 -5.484375 L 7.976562 0 L 11.347656 0 Z M 11.347656 -5.035156" transform="translate(113.653 162.286)"/></g></g></g><g fill="#FFF"><g><g><path d="M 4.40625 -6.136719 C 4.40625 -6.136719 4.515625 -7.976562 6.628906 -7.976562 C 8.675781 -7.976562 8.832031 -6.136719 8.832031 -6.136719 Z M 12.066406 -5.167969 C 12.066406 -8.335938 9.574219 -10.136719 6.5625 -10.136719 C 3.234375 -10.136719 0.785156 -8.046875 0.785156 -4.945312 C 0.785156 -1.796875 3.144531 0.226562 6.5625 0.226562 C 9.191406 0.226562 11.304688 -1.078125 11.886719 -3.683594 L 8.449219 -3.683594 C 8.425781 -2.964844 7.683594 -2.179688 6.496094 -2.179688 C 5.167969 -2.179688 4.359375 -3.394531 4.359375 -4.539062 L 12.042969 -4.539062 C 12.042969 -4.742188 12.066406 -4.964844 12.066406 -5.167969 Z M 12.066406 -5.167969" transform="translate(132.633 162.286)"/></g></g></g><g fill="#FFF"><g><g><path d="M 11.484375 -5.617188 C 11.484375 -8.316406 10.40625 -10.136719 7.753906 -10.136719 C 6.449219 -10.136719 5.394531 -9.550781 4.71875 -8.695312 L 4.71875 -9.910156 L 1.347656 -9.910156 L 1.347656 0 L 4.71875 0 L 4.71875 -4.945312 C 4.71875 -6.292969 5.550781 -7.414062 6.605469 -7.414062 C 7.664062 -7.414062 8.113281 -6.785156 8.113281 -5.617188 L 8.113281 0 L 11.484375 0 Z M 11.484375 -5.617188" transform="translate(145.481 162.286)"/></g></g></g><g fill="#FFF"><g><g><path d="M 9.101562 -4.945312 C 9.101562 -3.640625 8.089844 -2.472656 6.742188 -2.472656 C 5.394531 -2.472656 4.382812 -3.640625 4.382812 -4.945312 C 4.382812 -6.246094 5.394531 -7.414062 6.742188 -7.414062 C 8.089844 -7.414062 9.101562 -6.246094 9.101562 -4.945312 Z M 12.472656 -16.855469 L 9.101562 -16.855469 L 9.101562 -8.695312 C 8.226562 -9.773438 6.964844 -10.136719 5.707031 -10.136719 C 2.898438 -10.136719 0.785156 -7.683594 0.785156 -4.945312 C 0.785156 -2.203125 2.898438 0.226562 5.707031 0.226562 C 6.964844 0.226562 8.425781 -0.179688 9.101562 -1.191406 L 9.101562 0 L 12.472656 0 Z M 12.472656 -16.855469" transform="translate(157.97 162.286)"/></g></g></g><g fill="#FFF"><g><g><path d="M 9.101562 -4.945312 C 9.101562 -3.640625 8.089844 -2.472656 6.742188 -2.472656 C 5.394531 -2.472656 4.382812 -3.640625 4.382812 -4.945312 C 4.382812 -6.246094 5.394531 -7.414062 6.742188 -7.414062 C 8.089844 -7.414062 9.101562 -6.246094 9.101562 -4.945312 Z M 12.472656 -9.886719 L 9.101562 -9.886719 L 9.101562 -8.695312 C 8.226562 -9.773438 6.964844 -10.136719 5.707031 -10.136719 C 2.898438 -10.136719 0.785156 -7.683594 0.785156 -4.945312 C 0.785156 -2.203125 2.898438 0.226562 5.707031 0.226562 C 6.964844 0.226562 8.425781 -0.179688 9.101562 -1.191406 L 9.101562 0 L 12.472656 0 Z M 12.472656 -9.886719" transform="translate(171.784 162.286)"/></g></g></g><g fill="#FFF"><g><g><path d="M 5.59375 -7.304688 L 7.394531 -7.304688 L 7.394531 -9.910156 L 5.59375 -9.910156 L 5.59375 -13.683594 L 2.246094 -13.683594 L 2.246094 -9.910156 L 0.449219 -9.910156 L 0.449219 -7.304688 L 2.246094 -7.304688 L 2.246094 0 L 5.59375 0 Z M 5.59375 -7.304688" transform="translate(185.598 162.286)"/></g></g></g><g fill="#FFF"><g><g><path d="M 1.167969 -13.304688 C 1.167969 -12.226562 2.046875 -11.324219 3.144531 -11.324219 C 4.226562 -11.324219 5.125 -12.226562 5.125 -13.304688 C 5.125 -14.40625 4.226562 -15.28125 3.144531 -15.28125 C 2.046875 -15.28125 1.167969 -14.40625 1.167969 -13.304688 Z M 4.832031 0 L 4.832031 -9.910156 L 1.460938 -9.910156 L 1.460938 0 Z M 4.832031 0" transform="translate(193.437 162.286)"/></g></g></g><g fill="#FFF"><g><g><path d="M 6.449219 -2.335938 C 4.628906 -2.335938 4.136719 -3.664062 4.136719 -4.921875 C 4.136719 -6.15625 4.675781 -7.484375 6.449219 -7.484375 C 8.203125 -7.484375 8.742188 -6.15625 8.742188 -4.921875 C 8.742188 -3.664062 8.246094 -2.335938 6.449219 -2.335938 Z M 6.449219 -10.113281 C 3.347656 -10.113281 0.785156 -8.046875 0.785156 -4.945312 C 0.785156 -1.773438 3.28125 0.203125 6.449219 0.203125 C 9.59375 0.203125 12.089844 -1.773438 12.089844 -4.945312 C 12.089844 -8.046875 9.527344 -10.113281 6.449219 -10.113281 Z M 6.449219 -10.113281" transform="translate(199.726 162.286)"/></g></g></g><g fill="#FFF"><g><g><path d="M 11.484375 -5.617188 C 11.484375 -8.316406 10.40625 -10.136719 7.753906 -10.136719 C 6.449219 -10.136719 5.394531 -9.550781 4.71875 -8.695312 L 4.71875 -9.910156 L 1.347656 -9.910156 L 1.347656 0 L 4.71875 0 L 4.71875 -4.945312 C 4.71875 -6.292969 5.550781 -7.414062 6.605469 -7.414062 C 7.664062 -7.414062 8.113281 -6.785156 8.113281 -5.617188 L 8.113281 0 L 11.484375 0 Z M 11.484375 -5.617188" transform="translate(212.597 162.286)"/></g></g></g><g fill="#FFF"><g><g><path d="M 10.515625 -6.898438 C 10.226562 -9.167969 8.316406 -10.136719 5.707031 -10.136719 C 2.425781 -10.136719 0.875 -9.011719 0.875 -6.988281 C 0.875 -3.394531 7.28125 -5.035156 7.28125 -2.945312 C 7.28125 -2.40625 6.628906 -2.113281 5.863281 -2.113281 C 5.125 -2.113281 3.796875 -2.203125 3.796875 -3.683594 L 0.449219 -3.683594 C 0.628906 -0.875 2.855469 0.226562 5.796875 0.226562 C 8.675781 0.226562 10.675781 -0.628906 10.675781 -2.964844 C 10.675781 -7.144531 4.269531 -5.730469 4.269531 -7.125 C 4.269531 -7.707031 4.964844 -8.046875 5.617188 -8.046875 C 6.269531 -8.046875 7.101562 -7.796875 7.214844 -6.898438 Z M 10.515625 -6.898438" transform="translate(225.085 162.286)"/></g></g></g><g fill="#FFF"><g><g><path d="M 5.59375 -7.304688 L 7.394531 -7.304688 L 7.394531 -9.910156 L 5.59375 -9.910156 L 5.59375 -13.683594 L 2.246094 -13.683594 L 2.246094 -9.910156 L 0.449219 -9.910156 L 0.449219 -7.304688 L 2.246094 -7.304688 L 2.246094 0 L 5.59375 0 Z M 5.59375 -7.304688" transform="translate(242.044 162.286)"/></g></g></g><g fill="#FFF"><g><g><path d="M 11.484375 -5.617188 C 11.484375 -8.316406 10.40625 -10.136719 7.753906 -10.136719 C 6.449219 -10.136719 5.394531 -9.550781 4.71875 -8.695312 L 4.71875 -16.855469 L 1.347656 -16.855469 L 1.347656 0 L 4.71875 0 L 4.71875 -4.945312 C 4.71875 -6.292969 5.550781 -7.414062 6.605469 -7.414062 C 7.664062 -7.414062 8.113281 -6.785156 8.113281 -5.617188 L 8.113281 0 L 11.484375 0 Z M 11.484375 -5.617188" transform="translate(249.883 162.286)"/></g></g></g><g fill="#FFF"><g><g><path d="M 9.101562 -4.945312 C 9.101562 -3.640625 8.089844 -2.472656 6.742188 -2.472656 C 5.394531 -2.472656 4.382812 -3.640625 4.382812 -4.945312 C 4.382812 -6.246094 5.394531 -7.414062 6.742188 -7.414062 C 8.089844 -7.414062 9.101562 -6.246094 9.101562 -4.945312 Z M 12.472656 -9.886719 L 9.101562 -9.886719 L 9.101562 -8.695312 C 8.226562 -9.773438 6.964844 -10.136719 5.707031 -10.136719 C 2.898438 -10.136719 0.785156 -7.683594 0.785156 -4.945312 C 0.785156 -2.203125 2.898438 0.226562 5.707031 0.226562 C 6.964844 0.226562 8.425781 -0.179688 9.101562 -1.191406 L 9.101562 0 L 12.472656 0 Z M 12.472656 -9.886719" transform="translate(262.372 162.286)"/></g></g></g><g fill="#FFF"><g><g><path d="M 5.59375 -7.304688 L 7.394531 -7.304688 L 7.394531 -9.910156 L 5.59375 -9.910156 L 5.59375 -13.683594 L 2.246094 -13.683594 L 2.246094 -9.910156 L 0.449219 -9.910156 L 0.449219 -7.304688 L 2.246094 -7.304688 L 2.246094 0 L 5.59375 0 Z M 5.59375 -7.304688" transform="translate(276.186 162.286)"/></g></g></g><g fill="#FFF"><g><g><path d="M 6.742188 -2.472656 C 5.394531 -2.472656 4.382812 -3.640625 4.382812 -4.964844 C 4.382812 -6.269531 5.394531 -7.4375 6.742188 -7.4375 C 8.089844 -7.4375 9.101562 -6.269531 9.101562 -4.964844 C 9.101562 -3.640625 8.089844 -2.472656 6.742188 -2.472656 Z M 9.101562 -8.695312 C 8.136719 -9.820312 6.964844 -10.136719 5.707031 -10.136719 C 2.898438 -10.136719 0.785156 -7.707031 0.785156 -4.964844 C 0.785156 -2.226562 2.898438 0.226562 5.707031 0.226562 C 6.964844 0.226562 8.425781 -0.179688 9.101562 -1.214844 L 9.101562 0.359375 C 9.101562 1.773438 8.046875 3.125 6.5625 3.125 C 5.484375 3.125 4.5625 2.425781 4.316406 1.257812 L 0.945312 1.257812 C 1.101562 4.269531 4.046875 5.617188 6.742188 5.617188 C 9.886719 5.617188 12.472656 3.234375 12.472656 -0.0234375 L 12.472656 -9.910156 L 9.101562 -9.910156 Z M 9.101562 -8.695312" transform="translate(289.64 162.286)"/></g></g></g><g fill="#FFF"><g><g><path d="M 1.167969 -13.304688 C 1.167969 -12.226562 2.046875 -11.324219 3.144531 -11.324219 C 4.226562 -11.324219 5.125 -12.226562 5.125 -13.304688 C 5.125 -14.40625 4.226562 -15.28125 3.144531 -15.28125 C 2.046875 -15.28125 1.167969 -14.40625 1.167969 -13.304688 Z M 4.832031 0 L 4.832031 -9.910156 L 1.460938 -9.910156 L 1.460938 0 Z M 4.832031 0" transform="translate(303.454 162.286)"/></g></g></g><g fill="#FFF"><g><g><path d="M 11.304688 -9.910156 L 7.886719 -9.910156 L 5.527344 -2.832031 L 3.167969 -9.910156 L -0.226562 -9.910156 L 3.550781 0 L 7.527344 0 Z M 11.304688 -9.910156" transform="translate(309.743 162.286)"/></g></g></g><g fill="#FFF"><g><g><path d="M 4.40625 -6.136719 C 4.40625 -6.136719 4.515625 -7.976562 6.628906 -7.976562 C 8.675781 -7.976562 8.832031 -6.136719 8.832031 -6.136719 Z M 12.066406 -5.167969 C 12.066406 -8.335938 9.574219 -10.136719 6.5625 -10.136719 C 3.234375 -10.136719 0.785156 -8.046875 0.785156 -4.945312 C 0.785156 -1.796875 3.144531 0.226562 6.5625 0.226562 C 9.191406 0.226562 11.304688 -1.078125 11.886719 -3.683594 L 8.449219 -3.683594 C 8.425781 -2.964844 7.683594 -2.179688 6.496094 -2.179688 C 5.167969 -2.179688 4.359375 -3.394531 4.359375 -4.539062 L 12.042969 -4.539062 C 12.042969 -4.742188 12.066406 -4.964844 12.066406 -5.167969 Z M 12.066406 -5.167969" transform="translate(320.817 162.286)"/></g></g></g><g fill="#FFF"><g><g><path d="M 9.101562 -4.945312 C 9.101562 -3.640625 8.089844 -2.472656 6.742188 -2.472656 C 5.394531 -2.472656 4.382812 -3.640625 4.382812 -4.945312 C 4.382812 -6.246094 5.394531 -7.414062 6.742188 -7.414062 C 8.089844 -7.414062 9.101562 -6.246094 9.101562 -4.945312 Z M 12.472656 -16.855469 L 9.101562 -16.855469 L 9.101562 -8.695312 C 8.226562 -9.773438 6.964844 -10.136719 5.707031 -10.136719 C 2.898438 -10.136719 0.785156 -7.683594 0.785156 -4.945312 C 0.785156 -2.203125 2.898438 0.226562 5.707031 0.226562 C 6.964844 0.226562 8.425781 -0.179688 9.101562 -1.191406 L 9.101562 0 L 12.472656 0 Z M 12.472656 -16.855469" transform="translate(62.22 193.177)"/></g></g></g><g fill="#FFF"><g><g><path d="M 4.40625 -6.136719 C 4.40625 -6.136719 4.515625 -7.976562 6.628906 -7.976562 C 8.675781 -7.976562 8.832031 -6.136719 8.832031 -6.136719 Z M 12.066406 -5.167969 C 12.066406 -8.335938 9.574219 -10.136719 6.5625 -10.136719 C 3.234375 -10.136719 0.785156 -8.046875 0.785156 -4.945312 C 0.785156 -1.796875 3.144531 0.226562 6.5625 0.226562 C 9.191406 0.226562 11.304688 -1.078125 11.886719 -3.683594 L 8.449219 -3.683594 C 8.425781 -2.964844 7.683594 -2.179688 6.496094 -2.179688 C 5.167969 -2.179688 4.359375 -3.394531 4.359375 -4.539062 L 12.042969 -4.539062 C 12.042969 -4.742188 12.066406 -4.964844 12.066406 -5.167969 Z M 12.066406 -5.167969" transform="translate(76.034 193.177)"/></g></g></g><g fill="#FFF"><g><g><path d="M 11.304688 -9.910156 L 7.886719 -9.910156 L 5.527344 -2.832031 L 3.167969 -9.910156 L -0.226562 -9.910156 L 3.550781 0 L 7.527344 0 Z M 11.304688 -9.910156" transform="translate(88.882 193.177)"/></g></g></g><g fill="#FFF"><g><g><path d="M 4.40625 -6.136719 C 4.40625 -6.136719 4.515625 -7.976562 6.628906 -7.976562 C 8.675781 -7.976562 8.832031 -6.136719 8.832031 -6.136719 Z M 12.066406 -5.167969 C 12.066406 -8.335938 9.574219 -10.136719 6.5625 -10.136719 C 3.234375 -10.136719 0.785156 -8.046875 0.785156 -4.945312 C 0.785156 -1.796875 3.144531 0.226562 6.5625 0.226562 C 9.191406 0.226562 11.304688 -1.078125 11.886719 -3.683594 L 8.449219 -3.683594 C 8.425781 -2.964844 7.683594 -2.179688 6.496094 -2.179688 C 5.167969 -2.179688 4.359375 -3.394531 4.359375 -4.539062 L 12.042969 -4.539062 C 12.042969 -4.742188 12.066406 -4.964844 12.066406 -5.167969 Z M 12.066406 -5.167969" transform="translate(99.956 193.177)"/></g></g></g><g fill="#FFF"><g><g><path d="M 4.71875 0 L 4.71875 -16.855469 L 1.347656 -16.855469 L 1.347656 0 Z M 4.71875 0" transform="translate(112.804 193.177)"/></g></g></g><g fill="#FFF"><g><g><path d="M 6.449219 -2.335938 C 4.628906 -2.335938 4.136719 -3.664062 4.136719 -4.921875 C 4.136719 -6.15625 4.675781 -7.484375 6.449219 -7.484375 C 8.203125 -7.484375 8.742188 -6.15625 8.742188 -4.921875 C 8.742188 -3.664062 8.246094 -2.335938 6.449219 -2.335938 Z M 6.449219 -10.113281 C 3.347656 -10.113281 0.785156 -8.046875 0.785156 -4.945312 C 0.785156 -1.773438 3.28125 0.203125 6.449219 0.203125 C 9.59375 0.203125 12.089844 -1.773438 12.089844 -4.945312 C 12.089844 -8.046875 9.527344 -10.113281 6.449219 -10.113281 Z M 6.449219 -10.113281" transform="translate(118.869 193.177)"/></g></g></g><g fill="#FFF"><g><g><path d="M 4.71875 -4.945312 C 4.71875 -6.246094 5.730469 -7.414062 7.078125 -7.414062 C 8.425781 -7.414062 9.4375 -6.246094 9.4375 -4.945312 C 9.4375 -3.640625 8.425781 -2.472656 7.078125 -2.472656 C 5.730469 -2.472656 4.71875 -3.640625 4.71875 -4.945312 Z M 4.71875 5.617188 L 4.71875 -1.191406 C 5.394531 -0.179688 6.832031 0.226562 8.113281 0.226562 C 10.921875 0.226562 13.035156 -2.203125 13.035156 -4.945312 C 13.035156 -7.683594 10.921875 -10.136719 8.113281 -10.136719 C 6.832031 -10.136719 5.59375 -9.773438 4.71875 -8.695312 L 4.71875 -9.910156 L 1.347656 -9.910156 L 1.347656 5.617188 Z M 4.71875 5.617188" transform="translate(131.739 193.177)"/></g></g></g><g fill="#FFF"><g><g><path d="M 4.40625 -6.136719 C 4.40625 -6.136719 4.515625 -7.976562 6.628906 -7.976562 C 8.675781 -7.976562 8.832031 -6.136719 8.832031 -6.136719 Z M 12.066406 -5.167969 C 12.066406 -8.335938 9.574219 -10.136719 6.5625 -10.136719 C 3.234375 -10.136719 0.785156 -8.046875 0.785156 -4.945312 C 0.785156 -1.796875 3.144531 0.226562 6.5625 0.226562 C 9.191406 0.226562 11.304688 -1.078125 11.886719 -3.683594 L 8.449219 -3.683594 C 8.425781 -2.964844 7.683594 -2.179688 6.496094 -2.179688 C 5.167969 -2.179688 4.359375 -3.394531 4.359375 -4.539062 L 12.042969 -4.539062 C 12.042969 -4.742188 12.066406 -4.964844 12.066406 -5.167969 Z M 12.066406 -5.167969" transform="translate(145.553 193.177)"/></g></g></g><g fill="#FFF"><g><g><path d="M 6.945312 -7.414062 C 7.460938 -7.414062 7.953125 -7.257812 8.292969 -6.855469 L 8.335938 -6.855469 L 8.335938 -9.910156 C 8.066406 -10.046875 7.617188 -10.136719 7.324219 -10.136719 C 6.089844 -10.136719 5.234375 -9.4375 4.71875 -8.695312 L 4.71875 -9.910156 L 1.347656 -9.910156 L 1.347656 0 L 4.71875 0 L 4.71875 -4.945312 C 4.71875 -6.136719 5.683594 -7.414062 6.945312 -7.414062 Z M 6.945312 -7.414062" transform="translate(158.401 193.177)"/></g></g></g><g fill="#FFF"><g><g><path d="M 10.515625 -6.898438 C 10.226562 -9.167969 8.316406 -10.136719 5.707031 -10.136719 C 2.425781 -10.136719 0.875 -9.011719 0.875 -6.988281 C 0.875 -3.394531 7.28125 -5.035156 7.28125 -2.945312 C 7.28125 -2.40625 6.628906 -2.113281 5.863281 -2.113281 C 5.125 -2.113281 3.796875 -2.203125 3.796875 -3.683594 L 0.449219 -3.683594 C 0.628906 -0.875 2.855469 0.226562 5.796875 0.226562 C 8.675781 0.226562 10.675781 -0.628906 10.675781 -2.964844 C 10.675781 -7.144531 4.269531 -5.730469 4.269531 -7.125 C 4.269531 -7.707031 4.964844 -8.046875 5.617188 -8.046875 C 6.269531 -8.046875 7.101562 -7.796875 7.214844 -6.898438 Z M 10.515625 -6.898438" transform="translate(166.959 193.177)"/></g></g></g><g fill="#FFF"><g><g><path d="M 5.59375 -7.304688 L 7.394531 -7.304688 L 7.394531 -9.910156 L 5.59375 -9.910156 L 5.59375 -13.683594 L 2.246094 -13.683594 L 2.246094 -9.910156 L 0.449219 -9.910156 L 0.449219 -7.304688 L 2.246094 -7.304688 L 2.246094 0 L 5.59375 0 Z M 5.59375 -7.304688" transform="translate(183.917 193.177)"/></g></g></g><g fill="#FFF"><g><g><path d="M 11.484375 -5.617188 C 11.484375 -8.316406 10.40625 -10.136719 7.753906 -10.136719 C 6.449219 -10.136719 5.394531 -9.550781 4.71875 -8.695312 L 4.71875 -16.855469 L 1.347656 -16.855469 L 1.347656 0 L 4.71875 0 L 4.71875 -4.945312 C 4.71875 -6.292969 5.550781 -7.414062 6.605469 -7.414062 C 7.664062 -7.414062 8.113281 -6.785156 8.113281 -5.617188 L 8.113281 0 L 11.484375 0 Z M 11.484375 -5.617188" transform="translate(191.756 193.177)"/></g></g></g><g fill="#FFF"><g><g><path d="M 4.40625 -6.136719 C 4.40625 -6.136719 4.515625 -7.976562 6.628906 -7.976562 C 8.675781 -7.976562 8.832031 -6.136719 8.832031 -6.136719 Z M 12.066406 -5.167969 C 12.066406 -8.335938 9.574219 -10.136719 6.5625 -10.136719 C 3.234375 -10.136719 0.785156 -8.046875 0.785156 -4.945312 C 0.785156 -1.796875 3.144531 0.226562 6.5625 0.226562 C 9.191406 0.226562 11.304688 -1.078125 11.886719 -3.683594 L 8.449219 -3.683594 C 8.425781 -2.964844 7.683594 -2.179688 6.496094 -2.179688 C 5.167969 -2.179688 4.359375 -3.394531 4.359375 -4.539062 L 12.042969 -4.539062 C 12.042969 -4.742188 12.066406 -4.964844 12.066406 -5.167969 Z M 12.066406 -5.167969" transform="translate(204.245 193.177)"/></g></g></g><g fill="#FFF"><g><g><path d="M 5.59375 -7.304688 L 7.394531 -7.304688 L 7.394531 -9.910156 L 5.59375 -9.910156 L 5.59375 -13.683594 L 2.246094 -13.683594 L 2.246094 -9.910156 L 0.449219 -9.910156 L 0.449219 -7.304688 L 2.246094 -7.304688 L 2.246094 0 L 5.59375 0 Z M 5.59375 -7.304688" transform="translate(222.709 193.177)"/></g></g></g><g fill="#FFF"><g><g><path d="M 6.449219 -2.335938 C 4.628906 -2.335938 4.136719 -3.664062 4.136719 -4.921875 C 4.136719 -6.15625 4.675781 -7.484375 6.449219 -7.484375 C 8.203125 -7.484375 8.742188 -6.15625 8.742188 -4.921875 C 8.742188 -3.664062 8.246094 -2.335938 6.449219 -2.335938 Z M 6.449219 -10.113281 C 3.347656 -10.113281 0.785156 -8.046875 0.785156 -4.945312 C 0.785156 -1.773438 3.28125 0.203125 6.449219 0.203125 C 9.59375 0.203125 12.089844 -1.773438 12.089844 -4.945312 C 12.089844 -8.046875 9.527344 -10.113281 6.449219 -10.113281 Z M 6.449219 -10.113281" transform="translate(230.548 193.177)"/></g></g></g><g fill="#FFF"><g><g><path d="M 6.449219 -2.335938 C 4.628906 -2.335938 4.136719 -3.664062 4.136719 -4.921875 C 4.136719 -6.15625 4.675781 -7.484375 6.449219 -7.484375 C 8.203125 -7.484375 8.742188 -6.15625 8.742188 -4.921875 C 8.742188 -3.664062 8.246094 -2.335938 6.449219 -2.335938 Z M 6.449219 -10.113281 C 3.347656 -10.113281 0.785156 -8.046875 0.785156 -4.945312 C 0.785156 -1.773438 3.28125 0.203125 6.449219 0.203125 C 9.59375 0.203125 12.089844 -1.773438 12.089844 -4.945312 C 12.089844 -8.046875 9.527344 -10.113281 6.449219 -10.113281 Z M 6.449219 -10.113281" transform="translate(243.418 193.177)"/></g></g></g><g fill="#FFF"><g><g><path d="M 4.71875 0 L 4.71875 -16.855469 L 1.347656 -16.855469 L 1.347656 0 Z M 4.71875 0" transform="translate(256.289 193.177)"/></g></g></g><g fill="#FFF"><g><g><path d="M 10.515625 -6.898438 C 10.226562 -9.167969 8.316406 -10.136719 5.707031 -10.136719 C 2.425781 -10.136719 0.875 -9.011719 0.875 -6.988281 C 0.875 -3.394531 7.28125 -5.035156 7.28125 -2.945312 C 7.28125 -2.40625 6.628906 -2.113281 5.863281 -2.113281 C 5.125 -2.113281 3.796875 -2.203125 3.796875 -3.683594 L 0.449219 -3.683594 C 0.628906 -0.875 2.855469 0.226562 5.796875 0.226562 C 8.675781 0.226562 10.675781 -0.628906 10.675781 -2.964844 C 10.675781 -7.144531 4.269531 -5.730469 4.269531 -7.125 C 4.269531 -7.707031 4.964844 -8.046875 5.617188 -8.046875 C 6.269531 -8.046875 7.101562 -7.796875 7.214844 -6.898438 Z M 10.515625 -6.898438" transform="translate(262.353 193.177)"/></g></g></g><g fill="#FFF"><g><g><path d="M 9.101562 -4.945312 C 9.101562 -3.640625 8.089844 -2.472656 6.742188 -2.472656 C 5.394531 -2.472656 4.382812 -3.640625 4.382812 -4.945312 C 4.382812 -6.246094 5.394531 -7.414062 6.742188 -7.414062 C 8.089844 -7.414062 9.101562 -6.246094 9.101562 -4.945312 Z M 12.472656 -9.886719 L 9.101562 -9.886719 L 9.101562 -8.695312 C 8.226562 -9.773438 6.964844 -10.136719 5.707031 -10.136719 C 2.898438 -10.136719 0.785156 -7.683594 0.785156 -4.945312 C 0.785156 -2.203125 2.898438 0.226562 5.707031 0.226562 C 6.964844 0.226562 8.425781 -0.179688 9.101562 -1.191406 L 9.101562 0 L 12.472656 0 Z M 12.472656 -9.886719" transform="translate(279.312 193.177)"/></g></g></g><g fill="#FFF"><g><g><path d="M 11.484375 -5.617188 C 11.484375 -8.316406 10.40625 -10.136719 7.753906 -10.136719 C 6.449219 -10.136719 5.394531 -9.550781 4.71875 -8.695312 L 4.71875 -9.910156 L 1.347656 -9.910156 L 1.347656 0 L 4.71875 0 L 4.71875 -4.945312 C 4.71875 -6.292969 5.550781 -7.414062 6.605469 -7.414062 C 7.664062 -7.414062 8.113281 -6.785156 8.113281 -5.617188 L 8.113281 0 L 11.484375 0 Z M 11.484375 -5.617188" transform="translate(293.126 193.177)"/></g></g></g><g fill="#FFF"><g><g><path d="M 9.101562 -4.945312 C 9.101562 -3.640625 8.089844 -2.472656 6.742188 -2.472656 C 5.394531 -2.472656 4.382812 -3.640625 4.382812 -4.945312 C 4.382812 -6.246094 5.394531 -7.414062 6.742188 -7.414062 C 8.089844 -7.414062 9.101562 -6.246094 9.101562 -4.945312 Z M 12.472656 -16.855469 L 9.101562 -16.855469 L 9.101562 -8.695312 C 8.226562 -9.773438 6.964844 -10.136719 5.707031 -10.136719 C 2.898438 -10.136719 0.785156 -7.683594 0.785156 -4.945312 C 0.785156 -2.203125 2.898438 0.226562 5.707031 0.226562 C 6.964844 0.226562 8.425781 -0.179688 9.101562 -1.191406 L 9.101562 0 L 12.472656 0 Z M 12.472656 -16.855469" transform="translate(305.614 193.177)"/></g></g></g><g fill="#FFF"><g><g><path d="M 6.742188 -2.472656 C 5.394531 -2.472656 4.382812 -3.640625 4.382812 -4.964844 C 4.382812 -6.269531 5.394531 -7.4375 6.742188 -7.4375 C 8.089844 -7.4375 9.101562 -6.269531 9.101562 -4.964844 C 9.101562 -3.640625 8.089844 -2.472656 6.742188 -2.472656 Z M 9.101562 -8.695312 C 8.136719 -9.820312 6.964844 -10.136719 5.707031 -10.136719 C 2.898438 -10.136719 0.785156 -7.707031 0.785156 -4.964844 C 0.785156 -2.226562 2.898438 0.226562 5.707031 0.226562 C 6.964844 0.226562 8.425781 -0.179688 9.101562 -1.214844 L 9.101562 0.359375 C 9.101562 1.773438 8.046875 3.125 6.5625 3.125 C 5.484375 3.125 4.5625 2.425781 4.316406 1.257812 L 0.945312 1.257812 C 1.101562 4.269531 4.046875 5.617188 6.742188 5.617188 C 9.886719 5.617188 12.472656 3.234375 12.472656 -0.0234375 L 12.472656 -9.910156 L 9.101562 -9.910156 Z M 9.101562 -8.695312" transform="translate(32.058 224.069)"/></g></g></g><g fill="#FFF"><g><g><path d="M 1.125 -4.269531 C 1.125 -1.59375 2.203125 0.226562 4.855469 0.226562 C 6.15625 0.226562 7.214844 -0.359375 7.886719 -1.214844 L 7.886719 0 L 11.257812 0 L 11.257812 -9.910156 L 7.886719 -9.910156 L 7.886719 -4.945312 C 7.886719 -3.617188 7.054688 -2.472656 6 -2.472656 C 4.945312 -2.472656 4.496094 -3.125 4.496094 -4.269531 L 4.496094 -9.910156 L 1.125 -9.910156 Z M 1.125 -4.269531" transform="translate(45.872 224.069)"/></g></g></g><g fill="#FFF"><g><g><path d="M 1.167969 -13.304688 C 1.167969 -12.226562 2.046875 -11.324219 3.144531 -11.324219 C 4.226562 -11.324219 5.125 -12.226562 5.125 -13.304688 C 5.125 -14.40625 4.226562 -15.28125 3.144531 -15.28125 C 2.046875 -15.28125 1.167969 -14.40625 1.167969 -13.304688 Z M 4.832031 0 L 4.832031 -9.910156 L 1.460938 -9.910156 L 1.460938 0 Z M 4.832031 0" transform="translate(58.473 224.069)"/></g></g></g><g fill="#FFF"><g><g><path d="M 9.101562 -4.945312 C 9.101562 -3.640625 8.089844 -2.472656 6.742188 -2.472656 C 5.394531 -2.472656 4.382812 -3.640625 4.382812 -4.945312 C 4.382812 -6.246094 5.394531 -7.414062 6.742188 -7.414062 C 8.089844 -7.414062 9.101562 -6.246094 9.101562 -4.945312 Z M 12.472656 -16.855469 L 9.101562 -16.855469 L 9.101562 -8.695312 C 8.226562 -9.773438 6.964844 -10.136719 5.707031 -10.136719 C 2.898438 -10.136719 0.785156 -7.683594 0.785156 -4.945312 C 0.785156 -2.203125 2.898438 0.226562 5.707031 0.226562 C 6.964844 0.226562 8.425781 -0.179688 9.101562 -1.191406 L 9.101562 0 L 12.472656 0 Z M 12.472656 -16.855469" transform="translate(64.762 224.069)"/></g></g></g><g fill="#FFF"><g><g><path d="M 9.101562 -4.945312 C 9.101562 -3.640625 8.089844 -2.472656 6.742188 -2.472656 C 5.394531 -2.472656 4.382812 -3.640625 4.382812 -4.945312 C 4.382812 -6.246094 5.394531 -7.414062 6.742188 -7.414062 C 8.089844 -7.414062 9.101562 -6.246094 9.101562 -4.945312 Z M 12.472656 -9.886719 L 9.101562 -9.886719 L 9.101562 -8.695312 C 8.226562 -9.773438 6.964844 -10.136719 5.707031 -10.136719 C 2.898438 -10.136719 0.785156 -7.683594 0.785156 -4.945312 C 0.785156 -2.203125 2.898438 0.226562 5.707031 0.226562 C 6.964844 0.226562 8.425781 -0.179688 9.101562 -1.191406 L 9.101562 0 L 12.472656 0 Z M 12.472656 -9.886719" transform="translate(78.576 224.069)"/></g></g></g><g fill="#FFF"><g><g><path d="M 11.484375 -5.617188 C 11.484375 -8.316406 10.40625 -10.136719 7.753906 -10.136719 C 6.449219 -10.136719 5.394531 -9.550781 4.71875 -8.695312 L 4.71875 -9.910156 L 1.347656 -9.910156 L 1.347656 0 L 4.71875 0 L 4.71875 -4.945312 C 4.71875 -6.292969 5.550781 -7.414062 6.605469 -7.414062 C 7.664062 -7.414062 8.113281 -6.785156 8.113281 -5.617188 L 8.113281 0 L 11.484375 0 Z M 11.484375 -5.617188" transform="translate(92.39 224.069)"/></g></g></g><g fill="#FFF"><g><g><path d="M 6.40625 -7.503906 C 7.574219 -7.503906 8.316406 -6.898438 8.359375 -5.933594 L 11.707031 -5.933594 C 11.550781 -8.226562 9.503906 -10.136719 6.292969 -10.136719 C 2.988281 -10.136719 0.785156 -7.773438 0.785156 -4.945312 C 0.785156 -2.113281 2.855469 0.226562 6.292969 0.226562 C 9.304688 0.226562 11.304688 -1.484375 11.640625 -3.683594 L 8.359375 -3.683594 C 8.246094 -2.785156 7.4375 -2.335938 6.40625 -2.335938 C 4.832031 -2.335938 4.382812 -3.773438 4.382812 -4.921875 C 4.382812 -6.046875 4.875 -7.503906 6.40625 -7.503906 Z M 6.40625 -7.503906" transform="translate(104.879 224.069)"/></g></g></g><g fill="#FFF"><g><g><path d="M 4.40625 -6.136719 C 4.40625 -6.136719 4.515625 -7.976562 6.628906 -7.976562 C 8.675781 -7.976562 8.832031 -6.136719 8.832031 -6.136719 Z M 12.066406 -5.167969 C 12.066406 -8.335938 9.574219 -10.136719 6.5625 -10.136719 C 3.234375 -10.136719 0.785156 -8.046875 0.785156 -4.945312 C 0.785156 -1.796875 3.144531 0.226562 6.5625 0.226562 C 9.191406 0.226562 11.304688 -1.078125 11.886719 -3.683594 L 8.449219 -3.683594 C 8.425781 -2.964844 7.683594 -2.179688 6.496094 -2.179688 C 5.167969 -2.179688 4.359375 -3.394531 4.359375 -4.539062 L 12.042969 -4.539062 C 12.042969 -4.742188 12.066406 -4.964844 12.066406 -5.167969 Z M 12.066406 -5.167969" transform="translate(117.278 224.069)"/></g></g></g><g fill="#FFF"><g><g><path d="M 5.59375 -7.304688 L 7.394531 -7.304688 L 7.394531 -9.910156 L 5.59375 -9.910156 L 5.59375 -13.683594 L 2.246094 -13.683594 L 2.246094 -9.910156 L 0.449219 -9.910156 L 0.449219 -7.304688 L 2.246094 -7.304688 L 2.246094 0 L 5.59375 0 Z M 5.59375 -7.304688" transform="translate(135.741 224.069)"/></g></g></g><g fill="#FFF"><g><g><path d="M 6.449219 -2.335938 C 4.628906 -2.335938 4.136719 -3.664062 4.136719 -4.921875 C 4.136719 -6.15625 4.675781 -7.484375 6.449219 -7.484375 C 8.203125 -7.484375 8.742188 -6.15625 8.742188 -4.921875 C 8.742188 -3.664062 8.246094 -2.335938 6.449219 -2.335938 Z M 6.449219 -10.113281 C 3.347656 -10.113281 0.785156 -8.046875 0.785156 -4.945312 C 0.785156 -1.773438 3.28125 0.203125 6.449219 0.203125 C 9.59375 0.203125 12.089844 -1.773438 12.089844 -4.945312 C 12.089844 -8.046875 9.527344 -10.113281 6.449219 -10.113281 Z M 6.449219 -10.113281" transform="translate(143.58 224.069)"/></g></g></g><g fill="#FFF"><g><g><path d="M 9.101562 -4.945312 C 9.101562 -3.640625 8.089844 -2.472656 6.742188 -2.472656 C 5.394531 -2.472656 4.382812 -3.640625 4.382812 -4.945312 C 4.382812 -6.246094 5.394531 -7.414062 6.742188 -7.414062 C 8.089844 -7.414062 9.101562 -6.246094 9.101562 -4.945312 Z M 12.472656 -9.910156 L 9.101562 -9.910156 L 9.101562 -8.695312 C 8.226562 -9.773438 6.964844 -10.136719 5.707031 -10.136719 C 2.898438 -10.136719 0.785156 -7.683594 0.785156 -4.945312 C 0.785156 -2.203125 2.898438 0.226562 5.707031 0.226562 C 6.964844 0.226562 8.425781 -0.179688 9.101562 -1.191406 L 9.101562 5.617188 L 12.472656 5.617188 Z M 12.472656 -9.910156" transform="translate(162.066 224.069)"/></g></g></g><g fill="#FFF"><g><g><path d="M 1.125 -4.269531 C 1.125 -1.59375 2.203125 0.226562 4.855469 0.226562 C 6.15625 0.226562 7.214844 -0.359375 7.886719 -1.214844 L 7.886719 0 L 11.257812 0 L 11.257812 -9.910156 L 7.886719 -9.910156 L 7.886719 -4.945312 C 7.886719 -3.617188 7.054688 -2.472656 6 -2.472656 C 4.945312 -2.472656 4.496094 -3.125 4.496094 -4.269531 L 4.496094 -9.910156 L 1.125 -9.910156 Z M 1.125 -4.269531" transform="translate(175.88 224.069)"/></g></g></g><g fill="#FFF"><g><g><path d="M 1.167969 -13.304688 C 1.167969 -12.226562 2.046875 -11.324219 3.144531 -11.324219 C 4.226562 -11.324219 5.125 -12.226562 5.125 -13.304688 C 5.125 -14.40625 4.226562 -15.28125 3.144531 -15.28125 C 2.046875 -15.28125 1.167969 -14.40625 1.167969 -13.304688 Z M 4.832031 0 L 4.832031 -9.910156 L 1.460938 -9.910156 L 1.460938 0 Z M 4.832031 0" transform="translate(188.481 224.069)"/></g></g></g><g fill="#FFF"><g><g><path d="M 6.40625 -7.503906 C 7.574219 -7.503906 8.316406 -6.898438 8.359375 -5.933594 L 11.707031 -5.933594 C 11.550781 -8.226562 9.503906 -10.136719 6.292969 -10.136719 C 2.988281 -10.136719 0.785156 -7.773438 0.785156 -4.945312 C 0.785156 -2.113281 2.855469 0.226562 6.292969 0.226562 C 9.304688 0.226562 11.304688 -1.484375 11.640625 -3.683594 L 8.359375 -3.683594 C 8.246094 -2.785156 7.4375 -2.335938 6.40625 -2.335938 C 4.832031 -2.335938 4.382812 -3.773438 4.382812 -4.921875 C 4.382812 -6.046875 4.875 -7.503906 6.40625 -7.503906 Z M 6.40625 -7.503906" transform="translate(194.77 224.069)"/></g></g></g><g fill="#FFF"><g><g><path d="M 4.71875 -4.382812 L 8.203125 0 L 12.515625 0 L 7.796875 -5.191406 L 12.066406 -9.910156 L 7.886719 -9.910156 L 4.71875 -5.976562 L 4.71875 -16.855469 L 1.347656 -16.855469 L 1.347656 0 L 4.71875 0 Z M 4.71875 -4.382812" transform="translate(207.17 224.069)"/></g></g></g><g fill="#FFF"><g><g><path d="M 4.71875 0 L 4.71875 -16.855469 L 1.347656 -16.855469 L 1.347656 0 Z M 4.71875 0" transform="translate(219.006 224.069)"/></g></g></g><g fill="#FFF"><g><g><path d="M 5.371094 5.617188 L 7.527344 0 L 11.304688 -9.910156 L 7.886719 -9.910156 L 5.527344 -2.832031 L 3.167969 -9.910156 L -0.226562 -9.910156 L 3.550781 0 L 4.113281 0 L 1.863281 5.617188 Z M 5.371094 5.617188" transform="translate(225.071 224.069)"/></g></g></g><g fill="#FFF"><g><g><path d="M 6.945312 -7.414062 C 7.460938 -7.414062 7.953125 -7.257812 8.292969 -6.855469 L 8.335938 -6.855469 L 8.335938 -9.910156 C 8.066406 -10.046875 7.617188 -10.136719 7.324219 -10.136719 C 6.089844 -10.136719 5.234375 -9.4375 4.71875 -8.695312 L 4.71875 -9.910156 L 1.347656 -9.910156 L 1.347656 0 L 4.71875 0 L 4.71875 -4.945312 C 4.71875 -6.136719 5.683594 -7.414062 6.945312 -7.414062 Z M 6.945312 -7.414062" transform="translate(241.76 224.069)"/></g></g></g><g fill="#FFF"><g><g><path d="M 4.40625 -6.136719 C 4.40625 -6.136719 4.515625 -7.976562 6.628906 -7.976562 C 8.675781 -7.976562 8.832031 -6.136719 8.832031 -6.136719 Z M 12.066406 -5.167969 C 12.066406 -8.335938 9.574219 -10.136719 6.5625 -10.136719 C 3.234375 -10.136719 0.785156 -8.046875 0.785156 -4.945312 C 0.785156 -1.796875 3.144531 0.226562 6.5625 0.226562 C 9.191406 0.226562 11.304688 -1.078125 11.886719 -3.683594 L 8.449219 -3.683594 C 8.425781 -2.964844 7.683594 -2.179688 6.496094 -2.179688 C 5.167969 -2.179688 4.359375 -3.394531 4.359375 -4.539062 L 12.042969 -4.539062 C 12.042969 -4.742188 12.066406 -4.964844 12.066406 -5.167969 Z M 12.066406 -5.167969" transform="translate(250.318 224.069)"/></g></g></g><g fill="#FFF"><g><g><path d="M 11.347656 -5.035156 C 11.347656 -6.15625 11.863281 -7.414062 13.167969 -7.414062 C 14.292969 -7.414062 14.605469 -6.449219 14.605469 -5.484375 L 14.605469 0 L 17.976562 0 L 17.976562 -5.484375 C 17.976562 -8.046875 16.742188 -10.136719 14.15625 -10.136719 C 12.605469 -10.136719 11.503906 -9.683594 10.539062 -8.449219 C 9.84375 -9.574219 8.71875 -10.136719 7.460938 -10.136719 C 6.359375 -10.136719 5.394531 -9.550781 4.71875 -8.695312 L 4.71875 -9.910156 L 1.347656 -9.910156 L 1.347656 0 L 4.71875 0 L 4.71875 -4.945312 C 4.71875 -5.933594 5.394531 -7.414062 6.539062 -7.414062 C 7.664062 -7.414062 7.976562 -6.449219 7.976562 -5.484375 L 7.976562 0 L 11.347656 0 Z M 11.347656 -5.035156" transform="translate(263.166 224.069)"/></g></g></g><g fill="#FFF"><g><g><path d="M 4.40625 -6.136719 C 4.40625 -6.136719 4.515625 -7.976562 6.628906 -7.976562 C 8.675781 -7.976562 8.832031 -6.136719 8.832031 -6.136719 Z M 12.066406 -5.167969 C 12.066406 -8.335938 9.574219 -10.136719 6.5625 -10.136719 C 3.234375 -10.136719 0.785156 -8.046875 0.785156 -4.945312 C 0.785156 -1.796875 3.144531 0.226562 6.5625 0.226562 C 9.191406 0.226562 11.304688 -1.078125 11.886719 -3.683594 L 8.449219 -3.683594 C 8.425781 -2.964844 7.683594 -2.179688 6.496094 -2.179688 C 5.167969 -2.179688 4.359375 -3.394531 4.359375 -4.539062 L 12.042969 -4.539062 C 12.042969 -4.742188 12.066406 -4.964844 12.066406 -5.167969 Z M 12.066406 -5.167969" transform="translate(282.146 224.069)"/></g></g></g><g fill="#FFF"><g><g><path d="M 9.101562 -4.945312 C 9.101562 -3.640625 8.089844 -2.472656 6.742188 -2.472656 C 5.394531 -2.472656 4.382812 -3.640625 4.382812 -4.945312 C 4.382812 -6.246094 5.394531 -7.414062 6.742188 -7.414062 C 8.089844 -7.414062 9.101562 -6.246094 9.101562 -4.945312 Z M 12.472656 -16.855469 L 9.101562 -16.855469 L 9.101562 -8.695312 C 8.226562 -9.773438 6.964844 -10.136719 5.707031 -10.136719 C 2.898438 -10.136719 0.785156 -7.683594 0.785156 -4.945312 C 0.785156 -2.203125 2.898438 0.226562 5.707031 0.226562 C 6.964844 0.226562 8.425781 -0.179688 9.101562 -1.191406 L 9.101562 0 L 12.472656 0 Z M 12.472656 -16.855469" transform="translate(294.994 224.069)"/></g></g></g><g fill="#FFF"><g><g><path d="M 1.167969 -13.304688 C 1.167969 -12.226562 2.046875 -11.324219 3.144531 -11.324219 C 4.226562 -11.324219 5.125 -12.226562 5.125 -13.304688 C 5.125 -14.40625 4.226562 -15.28125 3.144531 -15.28125 C 2.046875 -15.28125 1.167969 -14.40625 1.167969 -13.304688 Z M 4.832031 0 L 4.832031 -9.910156 L 1.460938 -9.910156 L 1.460938 0 Z M 4.832031 0" transform="translate(308.808 224.069)"/></g></g></g><g fill="#FFF"><g><g><path d="M 9.101562 -4.945312 C 9.101562 -3.640625 8.089844 -2.472656 6.742188 -2.472656 C 5.394531 -2.472656 4.382812 -3.640625 4.382812 -4.945312 C 4.382812 -6.246094 5.394531 -7.414062 6.742188 -7.414062 C 8.089844 -7.414062 9.101562 -6.246094 9.101562 -4.945312 Z M 12.472656 -9.886719 L 9.101562 -9.886719 L 9.101562 -8.695312 C 8.226562 -9.773438 6.964844 -10.136719 5.707031 -10.136719 C 2.898438 -10.136719 0.785156 -7.683594 0.785156 -4.945312 C 0.785156 -2.203125 2.898438 0.226562 5.707031 0.226562 C 6.964844 0.226562 8.425781 -0.179688 9.101562 -1.191406 L 9.101562 0 L 12.472656 0 Z M 12.472656 -9.886719" transform="translate(315.097 224.069)"/></g></g></g><g fill="#FFF"><g><g><path d="M 5.59375 -7.304688 L 7.394531 -7.304688 L 7.394531 -9.910156 L 5.59375 -9.910156 L 5.59375 -13.683594 L 2.246094 -13.683594 L 2.246094 -9.910156 L 0.449219 -9.910156 L 0.449219 -7.304688 L 2.246094 -7.304688 L 2.246094 0 L 5.59375 0 Z M 5.59375 -7.304688" transform="translate(328.911 224.069)"/></g></g></g><g fill="#FFF"><g><g><path d="M 4.40625 -6.136719 C 4.40625 -6.136719 4.515625 -7.976562 6.628906 -7.976562 C 8.675781 -7.976562 8.832031 -6.136719 8.832031 -6.136719 Z M 12.066406 -5.167969 C 12.066406 -8.335938 9.574219 -10.136719 6.5625 -10.136719 C 3.234375 -10.136719 0.785156 -8.046875 0.785156 -4.945312 C 0.785156 -1.796875 3.144531 0.226562 6.5625 0.226562 C 9.191406 0.226562 11.304688 -1.078125 11.886719 -3.683594 L 8.449219 -3.683594 C 8.425781 -2.964844 7.683594 -2.179688 6.496094 -2.179688 C 5.167969 -2.179688 4.359375 -3.394531 4.359375 -4.539062 L 12.042969 -4.539062 C 12.042969 -4.742188 12.066406 -4.964844 12.066406 -5.167969 Z M 12.066406 -5.167969" transform="translate(336.75 224.069)"/></g></g></g><g fill="#FFF"><g><g><path d="M 4.71875 -4.945312 C 4.71875 -6.246094 5.730469 -7.414062 7.078125 -7.414062 C 8.425781 -7.414062 9.4375 -6.246094 9.4375 -4.945312 C 9.4375 -3.640625 8.425781 -2.472656 7.078125 -2.472656 C 5.730469 -2.472656 4.71875 -3.640625 4.71875 -4.945312 Z M 4.71875 0 L 4.71875 -1.191406 C 5.394531 -0.179688 6.832031 0.226562 8.113281 0.226562 C 10.921875 0.226562 13.035156 -2.203125 13.035156 -4.945312 C 13.035156 -7.683594 10.921875 -10.136719 8.113281 -10.136719 C 6.832031 -10.136719 5.59375 -9.773438 4.71875 -8.695312 L 4.71875 -16.855469 L 1.347656 -16.855469 L 1.347656 0 Z M 4.71875 0" transform="translate(34.348 254.96)"/></g></g></g><g fill="#FFF"><g><g><path d="M 1.125 -4.269531 C 1.125 -1.59375 2.203125 0.226562 4.855469 0.226562 C 6.15625 0.226562 7.214844 -0.359375 7.886719 -1.214844 L 7.886719 0 L 11.257812 0 L 11.257812 -9.910156 L 7.886719 -9.910156 L 7.886719 -4.945312 C 7.886719 -3.617188 7.054688 -2.472656 6 -2.472656 C 4.945312 -2.472656 4.496094 -3.125 4.496094 -4.269531 L 4.496094 -9.910156 L 1.125 -9.910156 Z M 1.125 -4.269531" transform="translate(48.162 254.96)"/></g></g></g><g fill="#FFF"><g><g><path d="M 6.742188 -2.472656 C 5.394531 -2.472656 4.382812 -3.640625 4.382812 -4.964844 C 4.382812 -6.269531 5.394531 -7.4375 6.742188 -7.4375 C 8.089844 -7.4375 9.101562 -6.269531 9.101562 -4.964844 C 9.101562 -3.640625 8.089844 -2.472656 6.742188 -2.472656 Z M 9.101562 -8.695312 C 8.136719 -9.820312 6.964844 -10.136719 5.707031 -10.136719 C 2.898438 -10.136719 0.785156 -7.707031 0.785156 -4.964844 C 0.785156 -2.226562 2.898438 0.226562 5.707031 0.226562 C 6.964844 0.226562 8.425781 -0.179688 9.101562 -1.214844 L 9.101562 0.359375 C 9.101562 1.773438 8.046875 3.125 6.5625 3.125 C 5.484375 3.125 4.5625 2.425781 4.316406 1.257812 L 0.945312 1.257812 C 1.101562 4.269531 4.046875 5.617188 6.742188 5.617188 C 9.886719 5.617188 12.472656 3.234375 12.472656 -0.0234375 L 12.472656 -9.910156 L 9.101562 -9.910156 Z M 9.101562 -8.695312" transform="translate(60.763 254.96)"/></g></g></g><g fill="#FFF"><g><g><path d="M 10.515625 -6.898438 C 10.226562 -9.167969 8.316406 -10.136719 5.707031 -10.136719 C 2.425781 -10.136719 0.875 -9.011719 0.875 -6.988281 C 0.875 -3.394531 7.28125 -5.035156 7.28125 -2.945312 C 7.28125 -2.40625 6.628906 -2.113281 5.863281 -2.113281 C 5.125 -2.113281 3.796875 -2.203125 3.796875 -3.683594 L 0.449219 -3.683594 C 0.628906 -0.875 2.855469 0.226562 5.796875 0.226562 C 8.675781 0.226562 10.675781 -0.628906 10.675781 -2.964844 C 10.675781 -7.144531 4.269531 -5.730469 4.269531 -7.125 C 4.269531 -7.707031 4.964844 -8.046875 5.617188 -8.046875 C 6.269531 -8.046875 7.101562 -7.796875 7.214844 -6.898438 Z M 10.515625 -6.898438" transform="translate(74.577 254.96)"/></g></g></g><g fill="#FFF"><g><g><path d="M 5.59375 -7.304688 L 7.394531 -7.304688 L 7.394531 -9.910156 L 5.59375 -9.910156 L 5.59375 -13.683594 L 2.246094 -13.683594 L 2.246094 -9.910156 L 0.449219 -9.910156 L 0.449219 -7.304688 L 2.246094 -7.304688 L 2.246094 0 L 5.59375 0 Z M 5.59375 -7.304688" transform="translate(91.536 254.96)"/></g></g></g><g fill="#FFF"><g><g><path d="M 6.449219 -2.335938 C 4.628906 -2.335938 4.136719 -3.664062 4.136719 -4.921875 C 4.136719 -6.15625 4.675781 -7.484375 6.449219 -7.484375 C 8.203125 -7.484375 8.742188 -6.15625 8.742188 -4.921875 C 8.742188 -3.664062 8.246094 -2.335938 6.449219 -2.335938 Z M 6.449219 -10.113281 C 3.347656 -10.113281 0.785156 -8.046875 0.785156 -4.945312 C 0.785156 -1.773438 3.28125 0.203125 6.449219 0.203125 C 9.59375 0.203125 12.089844 -1.773438 12.089844 -4.945312 C 12.089844 -8.046875 9.527344 -10.113281 6.449219 -10.113281 Z M 6.449219 -10.113281" transform="translate(99.375 254.96)"/></g></g></g><g fill="#FFF"><g><g><path d="M 5.28125 -16.855469 C 3.484375 -16.855469 2.089844 -15.730469 2.089844 -13.28125 L 2.089844 -9.910156 L 0.675781 -9.910156 L 0.675781 -7.304688 L 2.089844 -7.304688 L 2.089844 0 L 5.460938 0 L 5.460938 -7.304688 L 7.773438 -7.304688 L 7.773438 -9.910156 L 5.460938 -9.910156 L 5.460938 -12.875 C 5.460938 -13.84375 5.640625 -14.226562 6.335938 -14.226562 L 7.773438 -14.226562 L 7.773438 -16.855469 Z M 5.28125 -16.855469" transform="translate(117.86 254.96)"/></g></g></g><g fill="#FFF"><g><g><path d="M 6.449219 -2.335938 C 4.628906 -2.335938 4.136719 -3.664062 4.136719 -4.921875 C 4.136719 -6.15625 4.675781 -7.484375 6.449219 -7.484375 C 8.203125 -7.484375 8.742188 -6.15625 8.742188 -4.921875 C 8.742188 -3.664062 8.246094 -2.335938 6.449219 -2.335938 Z M 6.449219 -10.113281 C 3.347656 -10.113281 0.785156 -8.046875 0.785156 -4.945312 C 0.785156 -1.773438 3.28125 0.203125 6.449219 0.203125 C 9.59375 0.203125 12.089844 -1.773438 12.089844 -4.945312 C 12.089844 -8.046875 9.527344 -10.113281 6.449219 -10.113281 Z M 6.449219 -10.113281" transform="translate(126.014 254.96)"/></g></g></g><g fill="#FFF"><g><g><path d="M 6.40625 -7.503906 C 7.574219 -7.503906 8.316406 -6.898438 8.359375 -5.933594 L 11.707031 -5.933594 C 11.550781 -8.226562 9.503906 -10.136719 6.292969 -10.136719 C 2.988281 -10.136719 0.785156 -7.773438 0.785156 -4.945312 C 0.785156 -2.113281 2.855469 0.226562 6.292969 0.226562 C 9.304688 0.226562 11.304688 -1.484375 11.640625 -3.683594 L 8.359375 -3.683594 C 8.246094 -2.785156 7.4375 -2.335938 6.40625 -2.335938 C 4.832031 -2.335938 4.382812 -3.773438 4.382812 -4.921875 C 4.382812 -6.046875 4.875 -7.503906 6.40625 -7.503906 Z M 6.40625 -7.503906" transform="translate(138.885 254.96)"/></g></g></g><g fill="#FFF"><g><g><path d="M 1.125 -4.269531 C 1.125 -1.59375 2.203125 0.226562 4.855469 0.226562 C 6.15625 0.226562 7.214844 -0.359375 7.886719 -1.214844 L 7.886719 0 L 11.257812 0 L 11.257812 -9.910156 L 7.886719 -9.910156 L 7.886719 -4.945312 C 7.886719 -3.617188 7.054688 -2.472656 6 -2.472656 C 4.945312 -2.472656 4.496094 -3.125 4.496094 -4.269531 L 4.496094 -9.910156 L 1.125 -9.910156 Z M 1.125 -4.269531" transform="translate(151.283 254.96)"/></g></g></g><g fill="#FFF"><g><g><path d="M 10.515625 -6.898438 C 10.226562 -9.167969 8.316406 -10.136719 5.707031 -10.136719 C 2.425781 -10.136719 0.875 -9.011719 0.875 -6.988281 C 0.875 -3.394531 7.28125 -5.035156 7.28125 -2.945312 C 7.28125 -2.40625 6.628906 -2.113281 5.863281 -2.113281 C 5.125 -2.113281 3.796875 -2.203125 3.796875 -3.683594 L 0.449219 -3.683594 C 0.628906 -0.875 2.855469 0.226562 5.796875 0.226562 C 8.675781 0.226562 10.675781 -0.628906 10.675781 -2.964844 C 10.675781 -7.144531 4.269531 -5.730469 4.269531 -7.125 C 4.269531 -7.707031 4.964844 -8.046875 5.617188 -8.046875 C 6.269531 -8.046875 7.101562 -7.796875 7.214844 -6.898438 Z M 10.515625 -6.898438" transform="translate(163.884 254.96)"/></g></g></g><g fill="#FFF"><g><g><path d="M 6.449219 -2.335938 C 4.628906 -2.335938 4.136719 -3.664062 4.136719 -4.921875 C 4.136719 -6.15625 4.675781 -7.484375 6.449219 -7.484375 C 8.203125 -7.484375 8.742188 -6.15625 8.742188 -4.921875 C 8.742188 -3.664062 8.246094 -2.335938 6.449219 -2.335938 Z M 6.449219 -10.113281 C 3.347656 -10.113281 0.785156 -8.046875 0.785156 -4.945312 C 0.785156 -1.773438 3.28125 0.203125 6.449219 0.203125 C 9.59375 0.203125 12.089844 -1.773438 12.089844 -4.945312 C 12.089844 -8.046875 9.527344 -10.113281 6.449219 -10.113281 Z M 6.449219 -10.113281" transform="translate(180.843 254.96)"/></g></g></g><g fill="#FFF"><g><g><path d="M 11.484375 -5.617188 C 11.484375 -8.316406 10.40625 -10.136719 7.753906 -10.136719 C 6.449219 -10.136719 5.394531 -9.550781 4.71875 -8.695312 L 4.71875 -9.910156 L 1.347656 -9.910156 L 1.347656 0 L 4.71875 0 L 4.71875 -4.945312 C 4.71875 -6.292969 5.550781 -7.414062 6.605469 -7.414062 C 7.664062 -7.414062 8.113281 -6.785156 8.113281 -5.617188 L 8.113281 0 L 11.484375 0 Z M 11.484375 -5.617188" transform="translate(193.713 254.96)"/></g></g></g><g fill="#FFF"><g><g><path d="M 9.101562 -4.945312 C 9.101562 -3.640625 8.089844 -2.472656 6.742188 -2.472656 C 5.394531 -2.472656 4.382812 -3.640625 4.382812 -4.945312 C 4.382812 -6.246094 5.394531 -7.414062 6.742188 -7.414062 C 8.089844 -7.414062 9.101562 -6.246094 9.101562 -4.945312 Z M 12.472656 -16.855469 L 9.101562 -16.855469 L 9.101562 -8.695312 C 8.226562 -9.773438 6.964844 -10.136719 5.707031 -10.136719 C 2.898438 -10.136719 0.785156 -7.683594 0.785156 -4.945312 C 0.785156 -2.203125 2.898438 0.226562 5.707031 0.226562 C 6.964844 0.226562 8.425781 -0.179688 9.101562 -1.191406 L 9.101562 0 L 12.472656 0 Z M 12.472656 -16.855469" transform="translate(211.818 254.96)"/></g></g></g><g fill="#FFF"><g><g><path d="M 4.40625 -6.136719 C 4.40625 -6.136719 4.515625 -7.976562 6.628906 -7.976562 C 8.675781 -7.976562 8.832031 -6.136719 8.832031 -6.136719 Z M 12.066406 -5.167969 C 12.066406 -8.335938 9.574219 -10.136719 6.5625 -10.136719 C 3.234375 -10.136719 0.785156 -8.046875 0.785156 -4.945312 C 0.785156 -1.796875 3.144531 0.226562 6.5625 0.226562 C 9.191406 0.226562 11.304688 -1.078125 11.886719 -3.683594 L 8.449219 -3.683594 C 8.425781 -2.964844 7.683594 -2.179688 6.496094 -2.179688 C 5.167969 -2.179688 4.359375 -3.394531 4.359375 -4.539062 L 12.042969 -4.539062 C 12.042969 -4.742188 12.066406 -4.964844 12.066406 -5.167969 Z M 12.066406 -5.167969" transform="translate(225.631 254.96)"/></g></g></g><g fill="#FFF"><g><g><path d="M 11.304688 -9.910156 L 7.886719 -9.910156 L 5.527344 -2.832031 L 3.167969 -9.910156 L -0.226562 -9.910156 L 3.550781 0 L 7.527344 0 Z M 11.304688 -9.910156" transform="translate(238.48 254.96)"/></g></g></g><g fill="#FFF"><g><g><path d="M 4.40625 -6.136719 C 4.40625 -6.136719 4.515625 -7.976562 6.628906 -7.976562 C 8.675781 -7.976562 8.832031 -6.136719 8.832031 -6.136719 Z M 12.066406 -5.167969 C 12.066406 -8.335938 9.574219 -10.136719 6.5625 -10.136719 C 3.234375 -10.136719 0.785156 -8.046875 0.785156 -4.945312 C 0.785156 -1.796875 3.144531 0.226562 6.5625 0.226562 C 9.191406 0.226562 11.304688 -1.078125 11.886719 -3.683594 L 8.449219 -3.683594 C 8.425781 -2.964844 7.683594 -2.179688 6.496094 -2.179688 C 5.167969 -2.179688 4.359375 -3.394531 4.359375 -4.539062 L 12.042969 -4.539062 C 12.042969 -4.742188 12.066406 -4.964844 12.066406 -5.167969 Z M 12.066406 -5.167969" transform="translate(249.553 254.96)"/></g></g></g><g fill="#FFF"><g><g><path d="M 4.71875 0 L 4.71875 -16.855469 L 1.347656 -16.855469 L 1.347656 0 Z M 4.71875 0" transform="translate(262.401 254.96)"/></g></g></g><g fill="#FFF"><g><g><path d="M 6.449219 -2.335938 C 4.628906 -2.335938 4.136719 -3.664062 4.136719 -4.921875 C 4.136719 -6.15625 4.675781 -7.484375 6.449219 -7.484375 C 8.203125 -7.484375 8.742188 -6.15625 8.742188 -4.921875 C 8.742188 -3.664062 8.246094 -2.335938 6.449219 -2.335938 Z M 6.449219 -10.113281 C 3.347656 -10.113281 0.785156 -8.046875 0.785156 -4.945312 C 0.785156 -1.773438 3.28125 0.203125 6.449219 0.203125 C 9.59375 0.203125 12.089844 -1.773438 12.089844 -4.945312 C 12.089844 -8.046875 9.527344 -10.113281 6.449219 -10.113281 Z M 6.449219 -10.113281" transform="translate(268.466 254.96)"/></g></g></g><g fill="#FFF"><g><g><path d="M 4.71875 -4.945312 C 4.71875 -6.246094 5.730469 -7.414062 7.078125 -7.414062 C 8.425781 -7.414062 9.4375 -6.246094 9.4375 -4.945312 C 9.4375 -3.640625 8.425781 -2.472656 7.078125 -2.472656 C 5.730469 -2.472656 4.71875 -3.640625 4.71875 -4.945312 Z M 4.71875 5.617188 L 4.71875 -1.191406 C 5.394531 -0.179688 6.832031 0.226562 8.113281 0.226562 C 10.921875 0.226562 13.035156 -2.203125 13.035156 -4.945312 C 13.035156 -7.683594 10.921875 -10.136719 8.113281 -10.136719 C 6.832031 -10.136719 5.59375 -9.773438 4.71875 -8.695312 L 4.71875 -9.910156 L 1.347656 -9.910156 L 1.347656 5.617188 Z M 4.71875 5.617188" transform="translate(281.336 254.96)"/></g></g></g><g fill="#FFF"><g><g><path d="M 11.347656 -5.035156 C 11.347656 -6.15625 11.863281 -7.414062 13.167969 -7.414062 C 14.292969 -7.414062 14.605469 -6.449219 14.605469 -5.484375 L 14.605469 0 L 17.976562 0 L 17.976562 -5.484375 C 17.976562 -8.046875 16.742188 -10.136719 14.15625 -10.136719 C 12.605469 -10.136719 11.503906 -9.683594 10.539062 -8.449219 C 9.84375 -9.574219 8.71875 -10.136719 7.460938 -10.136719 C 6.359375 -10.136719 5.394531 -9.550781 4.71875 -8.695312 L 4.71875 -9.910156 L 1.347656 -9.910156 L 1.347656 0 L 4.71875 0 L 4.71875 -4.945312 C 4.71875 -5.933594 5.394531 -7.414062 6.539062 -7.414062 C 7.664062 -7.414062 7.976562 -6.449219 7.976562 -5.484375 L 7.976562 0 L 11.347656 0 Z M 11.347656 -5.035156" transform="translate(295.15 254.96)"/></g></g></g><g fill="#FFF"><g><g><path d="M 4.40625 -6.136719 C 4.40625 -6.136719 4.515625 -7.976562 6.628906 -7.976562 C 8.675781 -7.976562 8.832031 -6.136719 8.832031 -6.136719 Z M 12.066406 -5.167969 C 12.066406 -8.335938 9.574219 -10.136719 6.5625 -10.136719 C 3.234375 -10.136719 0.785156 -8.046875 0.785156 -4.945312 C 0.785156 -1.796875 3.144531 0.226562 6.5625 0.226562 C 9.191406 0.226562 11.304688 -1.078125 11.886719 -3.683594 L 8.449219 -3.683594 C 8.425781 -2.964844 7.683594 -2.179688 6.496094 -2.179688 C 5.167969 -2.179688 4.359375 -3.394531 4.359375 -4.539062 L 12.042969 -4.539062 C 12.042969 -4.742188 12.066406 -4.964844 12.066406 -5.167969 Z M 12.066406 -5.167969" transform="translate(314.13 254.96)"/></g></g></g><g fill="#FFF"><g><g><path d="M 11.484375 -5.617188 C 11.484375 -8.316406 10.40625 -10.136719 7.753906 -10.136719 C 6.449219 -10.136719 5.394531 -9.550781 4.71875 -8.695312 L 4.71875 -9.910156 L 1.347656 -9.910156 L 1.347656 0 L 4.71875 0 L 4.71875 -4.945312 C 4.71875 -6.292969 5.550781 -7.414062 6.605469 -7.414062 C 7.664062 -7.414062 8.113281 -6.785156 8.113281 -5.617188 L 8.113281 0 L 11.484375 0 Z M 11.484375 -5.617188" transform="translate(326.978 254.96)"/></g></g></g><g fill="#FFF"><g><g><path d="M 5.59375 -7.304688 L 7.394531 -7.304688 L 7.394531 -9.910156 L 5.59375 -9.910156 L 5.59375 -13.683594 L 2.246094 -13.683594 L 2.246094 -9.910156 L 0.449219 -9.910156 L 0.449219 -7.304688 L 2.246094 -7.304688 L 2.246094 0 L 5.59375 0 Z M 5.59375 -7.304688" transform="translate(339.467 254.96)"/></g></g></g></svg>