
		<svg xmlns="http://www.w3.org/2000/svg" xmlns:xlink="http://www.w3.org/1999/xlink" version="1.1" width="3300" height="1654.9481072257158">
			
			<g transform="scale(15) translate(10, 10)">
				<defs id="SvgjsDefs9145"><linearGradient id="SvgjsLinearGradient9152"><stop id="SvgjsStop9153" stop-color="#ef4136" offset="0"/><stop id="SvgjsStop9154" stop-color="#fbb040" offset="1"/></linearGradient><linearGradient id="SvgjsLinearGradient9155"><stop id="SvgjsStop9156" stop-color="#ef4136" offset="0"/><stop id="SvgjsStop9157" stop-color="#fbb040" offset="1"/></linearGradient><linearGradient id="SvgjsLinearGradient9158"><stop id="SvgjsStop9159" stop-color="#ef4136" offset="0"/><stop id="SvgjsStop9160" stop-color="#fbb040" offset="1"/></linearGradient></defs><g id="SvgjsG9146" featureKey="nameFeature-0" transform="matrix(0.853332222223669,0,0,0.853332222223669,0.4166982692730869,-10.433693282951454)" fill="#fff"><path d="M5.4297 29.023 q-2.48046875 0 -4.19921875 -1.71875 t-1.7188 -4.1016 l0 -5.1367 q0 -2.1484375 1.4453125 -3.76953125 q1.4453125 -1.66015625 3.65234375 -1.9921875 l16.914 0 l0 5.3711 l-16.387 0 l0 5.5273 q0 0.1953125 0.1171875 0.3125 q0.078125 0.078125 0.17578125 0.078125 l11.563 0 q2.24609375 0 3.90625 1.484375 q1.640625 1.38671875 1.9921875 3.9453125 l-6.3672 0 l0.46875 0 l-11.563 0 z M22.91 33.0078 l0 1.582 q0 2.36328125 -1.73828125 4.1015625 q-1.69921875 1.69921875 -4.1796875 1.69921875 l-16.367 0 l0 -5.4297 l16.367 0 q0.09765625 0 0.17578125 -0.078125 q0.1171875 -0.1171875 0.1171875 -0.29296875 l0 -1.582 l5.625 0 z M42.7539075 23.613 l13.633 0 l0 5.4297 l-13.633 0 l0 -5.4297 z M42.7539075 34.9609 l22.637 0 l0 5.4297 l-22.637 0 l0 -5.4297 z M42.7539075 12.227 l22.637 0 l0 5.4297 l-22.637 0 l0 -5.4297 z M91.0742625 40.39063 q-2.4609375 0 -4.19921875 -1.73828125 q-1.69921875 -1.69921875 -1.69921875 -4.08203125 l0 -16.484 q0 -2.3828125 1.71875 -4.1015625 t4.1797 -1.7188 l11.582 0 q2.48046875 0 4.19921875 1.7578125 q1.69921875 1.6796875 1.69921875 4.0625 l0 2.4609 l-5.6055 0 l0 -2.4609 q0 -0.1953125 -0.1171875 -0.29296875 q-0.09765625 -0.09765625 -0.17578125 -0.09765625 l-11.582 0 q-0.078125 0 -0.1953125 0.1171875 q-0.078125 0.078125 -0.078125 0.2734375 l0 16.484 q0 0.21484375 0.09765625 0.33203125 q0.078125 0.05859375 0.17578125 0.05859375 l11.582 0 q0.09765625 0 0.17578125 -0.078125 q0.1171875 -0.1171875 0.1171875 -0.3125 l0 -2.4219 l5.6055 0 l0 2.4219 q0 2.3828125 -1.69921875 4.08203125 q-1.71875 1.73828125 -4.19921875 1.73828125 l-11.582 0 z M139.00365625 34.9609 l0 5.4297 l-4.7266 0 q-2.48046875 0 -4.21875 -1.73828125 q-1.69921875 -1.69921875 -1.69921875 -4.0625 l0 -22.344 l5.625 0 l0 22.344 q0 0.1953125 0.09765625 0.3125 q0.078125 0.05859375 0.1953125 0.05859375 l4.7266 0 z M146.13265625 12.245999999999999 l5.6055 0 l0 28.145 l-5.6055 0 l0 -28.145 z M171.48437625 12.245999999999999 l5.6445 0 l0 28.145 l-5.6445 0 l0 -28.145 z M195.93765625 36.8359 l-7.1484 0 l-10.723 -13.281 l6.7969 0 q2.87109375 -0.078125 3.828125 -1.015625 q0.56640625 -0.546875 0.56640625 -1.71875 q0 -1.71875 -0.78125 -2.44140625 q-0.72265625 -0.703125 -1.9921875 -0.703125 l-0.11719 0 l-5.8398 0 l0 -5.4297 l5.7617 0 q3.6328125 -0.1171875 6.1328125 2.24609375 q2.4609375 2.32421875 2.4609375 6.328125 q0 3.37890625 -2.1875 5.5078125 q-1.5625 1.58203125 -3.53515625 2.0703125 z M211.25000125 23.613 l13.633 0 l0 5.4297 l-13.633 0 l0 -5.4297 z M211.25000125 34.9609 l22.637 0 l0 5.4297 l-22.637 0 l0 -5.4297 z M211.25000125 12.227 l22.637 0 l0 5.4297 l-22.637 0 l0 -5.4297 z"/></g><g id="SvgjsG9147" featureKey="nameFeature-1" transform="matrix(0.6837153863608504,0,0,0.6837153863608504,0.3338711591477553,26.05452373562574)" fill="#fff"><path d="M5.4297 29.023 q-2.48046875 0 -4.19921875 -1.71875 t-1.7188 -4.1016 l0 -5.1367 q0 -2.1484375 1.4453125 -3.76953125 q1.4453125 -1.66015625 3.65234375 -1.9921875 l16.914 0 l0 5.3711 l-16.387 0 l0 5.5273 q0 0.1953125 0.1171875 0.3125 q0.078125 0.078125 0.17578125 0.078125 l11.563 0 q2.24609375 0 3.90625 1.484375 q1.640625 1.38671875 1.9921875 3.9453125 l-6.3672 0 l0.46875 0 l-11.563 0 z M22.91 33.0078 l0 1.582 q0 2.36328125 -1.73828125 4.1015625 q-1.69921875 1.69921875 -4.1796875 1.69921875 l-16.367 0 l0 -5.4297 l16.367 0 q0.09765625 0 0.17578125 -0.078125 q0.1171875 -0.1171875 0.1171875 -0.29296875 l0 -1.582 l5.625 0 z M42.7539075 12.245999999999999 l21.992 0 l0 5.4297 l-21.992 0 l0 -5.4297 z M50.9374875 22.754 l5.625 0 l0 17.637 l-5.625 0 l0 -17.637 z M113.80846875 40.39063 l-6.2305 0 l-1.875 -3.8672 l-5.4688 0 l0 -5.4297 l2.8125 0 l-4.0039 -8.2227 l-8.5547 17.52 l-6.2305 0 l14.785 -28.77 z M133.26172 12.245999999999999 l21.992 0 l0 5.4297 l-21.992 0 l0 -5.4297 z M141.4453 22.754 l5.625 0 l0 17.637 l-5.625 0 l0 -17.637 z M175.00000125 23.613 l13.633 0 l0 5.4297 l-13.633 0 l0 -5.4297 z M175.00000125 34.9609 l22.637 0 l0 5.4297 l-22.637 0 l0 -5.4297 z M175.00000125 12.227 l22.637 0 l0 5.4297 l-22.637 0 l0 -5.4297 z M217.42187625 34.9414 l5.7227 0 l0 5.4492 l-5.7227 0 l0 -5.4492 z M243.0664075 12.245999999999999 l5.625 0 l0 28.145 l-5.625 0 l0 -28.145 z M286.132625 12.265999999999998 q2.48046875 0 4.19921875 1.7578125 q1.69921875 1.6796875 1.69921875 4.0625 l0 10.84 l-5.6055 0 l0 -10.84 q0 -0.1953125 -0.1171875 -0.29296875 q-0.09765625 -0.09765625 -0.17578125 -0.09765625 l-11.563 0 q-0.09765625 0 -0.21484375 0.1171875 q-0.078125 0.078125 -0.078125 0.2734375 l0 16.504 q0 0.1953125 0.09765625 0.3125 q0.078125 0.05859375 0.1953125 0.05859375 l17.461 0 q-0.3515625 2.55859375 -1.9921875 3.9453125 q-1.66015625 1.484375 -3.90625 1.484375 l-11.563 0 q-2.48046875 0 -4.21875 -1.73828125 q-1.69921875 -1.69921875 -1.69921875 -4.0625 l0 -16.504 q0 -2.3828125 1.71875 -4.1015625 t4.1992 -1.7188 l11.563 0 z"/></g><g id="SvgjsG9148" featureKey="sloganFeature-0" transform="matrix(1.0105096176581991,0,0,1.0105096176581991,0.08077979870835296,69.08896215299485)" fill="#fff"><path d="M6.82 16.22 c-0.01334 0.66666 -0.076582 1.25 -0.18992 1.75 s-0.30668 0.91334 -0.58002 1.24 s-0.63334 0.57 -1.08 0.73 s-1.01 0.24 -1.69 0.24 c-1.1733 0 -2.0266 -0.32666 -2.56 -0.98 s-0.8 -1.6467 -0.8 -2.98 l0 -7.4 c0 -1.3333 0.27 -2.3266 0.81 -2.98 s1.4633 -0.98 2.77 -0.98 c1.1733 0 2.0134 0.32666 2.52 0.98 s0.77332 1.6467 0.79998 2.98 l0.02 0.92 l-0.92 0 l-0.02 -1.16 c0 -0.33334 -0.03334 -0.67 -0.1 -1.01 s-0.18666 -0.65 -0.36 -0.93 s-0.41668 -0.50666 -0.73002 -0.68 s-0.73 -0.26 -1.25 -0.26 c-0.50666 0 -0.93 0.08 -1.27 0.24 s-0.61 0.38 -0.81 0.66 s-0.33666 0.61 -0.41 0.99 s-0.11 0.79 -0.11 1.23 l0.04 7.5 c0 0.92 0.17 1.64 0.51 2.16 s0.96334 0.78 1.87 0.78 c0.52 0 0.95 -0.07 1.29 -0.21 s0.60666 -0.33666 0.8 -0.59 s0.33 -0.56 0.41 -0.92 s0.12 -0.75334 0.12 -1.18 l0.02 -1.3 l0.92 0 z M13.66 13.14 l0 6.86 l-1.08 0 l0 -6.86 l-3.62 -8.14 l1.24 0 l2.9 6.94 l2.94 -6.94 l1.24 0 z M25.32 18.92 c-0.78666 0.72 -1.8534 1.0801 -3.2 1.0801 l-3.42 0 l0 -15 l2.92 0 c0.8 0 1.4667 0.10334 2 0.31 s0.96 0.48666 1.28 0.84 s0.54334 0.76334 0.67 1.23 s0.19 0.95332 0.19 1.46 c0 0.54666 -0.16334 1.0633 -0.49 1.55 s-0.76332 0.94332 -1.31 1.37 c0.21334 0.13334 0.38 0.23668 0.5 0.31002 s0.23334 0.14334 0.34 0.21 c0.17334 0.14666 0.36668 0.32332 0.58002 0.52998 s0.41 0.44666 0.59 0.72 s0.33 0.58334 0.45 0.93 s0.18 0.73332 0.18 1.16 c0 0.74666 -0.11 1.3867 -0.33 1.92 s-0.53666 0.99334 -0.95 1.38 z M22.099999999999998 6 l-2.36 0.000039062 l0 5.4 l2.56 0 c0.36 0 0.69 -0.06666 0.99 -0.2 s0.56 -0.31668 0.78 -0.55002 s0.39334 -0.50334 0.52 -0.81 s0.19 -0.64 0.19 -1 c0 -0.25334 -0.03666 -0.54668 -0.11 -0.88002 s-0.21 -0.64334 -0.41 -0.93 s-0.47334 -0.53 -0.82 -0.73 s-0.79332 -0.3 -1.34 -0.3 z M22.22 12.4002 l-2.48 0.000039062 l0 6.54 l2.14 0 c0.44 0 0.88 -0.05334 1.32 -0.16 s0.84 -0.28666 1.2 -0.54 s0.65 -0.58668 0.87 -1 s0.33 -0.92668 0.33 -1.54 c0 -0.56 -0.08666 -1.05 -0.26 -1.47 s-0.41334 -0.76334 -0.72 -1.03 s-0.66666 -0.46666 -1.08 -0.6 s-0.85334 -0.2 -1.32 -0.2 z M28 20 l0 -15 l7.36 0 l0 1.16 l-6.32 0 l0 5.7 l6.26 0 l0 0.92 l-6.26 0 l0 6.06 l6.46 0 l0 1.16 l-7.5 0 z M44.239999999999995 20 l-3.3 -6.22 l-3.06 0 l0 6.22 l-0.98 0 l0 -15 l3.4 0 c0.78666 0 1.46 0.11666 2.02 0.35 s1.02 0.55 1.38 0.95 s0.62666 0.86334 0.8 1.39 s0.26 1.0767 0.26 1.65 c0 0.97334 -0.25 1.85 -0.75 2.63 s-1.1567 1.35 -1.97 1.71 l3.52 6.32 l-1.32 0 z M40.16 5.92 l-2.28 -0.000019531 l0 6.84 l2.42 0 c0.68 0 1.24 -0.10334 1.68 -0.31 s0.78334 -0.47332 1.03 -0.79998 s0.42 -0.7 0.52 -1.12 s0.15 -0.85 0.15 -1.29 c0 -0.46666 -0.08 -0.9 -0.24 -1.3 s-0.39 -0.75 -0.69 -1.05 s-0.66666 -0.53666 -1.1 -0.71 s-0.93 -0.26 -1.49 -0.26 z M50.88 20.18 c-0.65334 0 -1.2335 -0.086738 -1.7401 -0.26008 s-0.93332 -0.45 -1.28 -0.83 s-0.60332 -0.87666 -0.76998 -1.49 s-0.23666 -1.3533 -0.21 -2.22 l1.2 0 c0 0.42666 0.02 0.87 0.06 1.33 s0.14666 0.88 0.32 1.26 s0.43668 0.69 0.79002 0.93 s0.84334 0.36 1.47 0.36 c0.53334 0 0.98668 -0.08 1.36 -0.24 s0.67668 -0.37334 0.91002 -0.64 s0.39668 -0.58 0.49002 -0.94 s0.14 -0.73334 0.14 -1.12 c0 -0.45334 -0.08334 -0.85 -0.25 -1.19 s-0.38666 -0.64334 -0.66 -0.91 s-0.59334 -0.50332 -0.96 -0.70998 s-0.75 -0.39 -1.15 -0.55 c-0.64 -0.25334 -1.2 -0.50334 -1.68 -0.75 s-0.87334 -0.52332 -1.18 -0.82998 s-0.53666 -0.66332 -0.69 -1.07 s-0.23 -0.90332 -0.23 -1.49 c0 -1.3333 0.35 -2.3266 1.05 -2.98 s1.7033 -0.98 3.01 -0.98 c1.1333 0 2.03 0.33 2.69 0.99 s0.99 1.65 0.99 2.97 l0 1.1 l-1.12 0 l0 -1.2 c0 -0.41334 -0.05 -0.79668 -0.15 -1.15 s-0.25666 -0.66334 -0.47 -0.93 s-0.48334 -0.47666 -0.81 -0.63 s-0.71666 -0.23 -1.17 -0.23 c-1.0667 0 -1.83 0.28 -2.29 0.84 s-0.67 1.3133 -0.63 2.26 c0.01334 0.41334 0.09 0.76668 0.23 1.06 s0.32666 0.55 0.56 0.77 s0.51334 0.41666 0.84 0.59 s0.69 0.34668 1.09 0.52002 c0.46666 0.2 0.93 0.41334 1.39 0.64 s0.89 0.50666 1.29 0.84 c0.4 0.34666 0.73 0.75 0.99 1.21 s0.39 1.03 0.39 1.71 c0 1.32 -0.33666 2.31 -1.01 2.97 s-1.61 0.99 -2.81 0.99 z M56.24 20 l0 -15 l7.36 0 l0 1.16 l-6.32 0 l0 5.7 l6.26 0 l0 0.92 l-6.26 0 l0 6.06 l6.46 0 l0 1.16 l-7.5 0 z M71.96000000000001 16.22 c-0.01334 0.66666 -0.076582 1.25 -0.18992 1.75 s-0.30668 0.91334 -0.58002 1.24 s-0.63334 0.57 -1.08 0.73 s-1.01 0.24 -1.69 0.24 c-1.1733 0 -2.0266 -0.32666 -2.56 -0.98 s-0.8 -1.6467 -0.8 -2.98 l0 -7.4 c0 -1.3333 0.27 -2.3266 0.81 -2.98 s1.4633 -0.98 2.77 -0.98 c1.1733 0 2.0134 0.32666 2.52 0.98 s0.77332 1.6467 0.79998 2.98 l0.02 0.92 l-0.92 0 l-0.02 -1.16 c0 -0.33334 -0.03334 -0.67 -0.1 -1.01 s-0.18666 -0.65 -0.36 -0.93 s-0.41668 -0.50666 -0.73002 -0.68 s-0.73 -0.26 -1.25 -0.26 c-0.50666 0 -0.93 0.08 -1.27 0.24 s-0.61 0.38 -0.81 0.66 s-0.33666 0.61 -0.41 0.99 s-0.11 0.79 -0.11 1.23 l0.04 7.5 c0 0.92 0.17 1.64 0.51 2.16 s0.96334 0.78 1.87 0.78 c0.52 0 0.95 -0.07 1.29 -0.21 s0.60666 -0.33666 0.8 -0.59 s0.33 -0.56 0.41 -0.92 s0.12 -0.75334 0.12 -1.18 l0.02 -1.3 l0.92 0 z M77.86 20.18 c-1.2267 0 -2.1768 -0.33336 -2.85 -1 s-1.01 -1.6533 -1.01 -2.96 l0 -11.22 l1.08 0 l0 11.16 c0 0.32 0.04334 0.65666 0.13 1.01 s0.23666 0.67334 0.45 0.96 s0.49668 0.52332 0.85002 0.70998 s0.79 0.28 1.31 0.28 c0.57334 0 1.0467 -0.08334 1.42 -0.25 s0.67334 -0.39666 0.9 -0.69 s0.38666 -0.64 0.48 -1.04 s0.14 -0.82666 0.14 -1.28 l0 -10.86 l1.06 0 l0 11.22 c0 1.3333 -0.32334 2.3266 -0.97 2.98 s-1.6433 0.98 -2.99 0.98 z M91.02000000000001 20 l-3.3 -6.22 l-3.06 0 l0 6.22 l-0.98 0 l0 -15 l3.4 0 c0.78666 0 1.46 0.11666 2.02 0.35 s1.02 0.55 1.38 0.95 s0.62666 0.86334 0.8 1.39 s0.26 1.0767 0.26 1.65 c0 0.97334 -0.25 1.85 -0.75 2.63 s-1.1567 1.35 -1.97 1.71 l3.52 6.32 l-1.32 0 z M86.94000000000001 5.92 l-2.28 -0.000019531 l0 6.84 l2.42 0 c0.68 0 1.24 -0.10334 1.68 -0.31 s0.78334 -0.47332 1.03 -0.79998 s0.42 -0.7 0.52 -1.12 s0.15 -0.85 0.15 -1.29 c0 -0.46666 -0.08 -0.9 -0.24 -1.3 s-0.39 -0.75 -0.69 -1.05 s-0.66666 -0.53666 -1.1 -0.71 s-0.93 -0.26 -1.49 -0.26 z M93.56 20 l0 -15 l1.28 0 l0 15 l-1.28 0 z M101.2 6.1 l0 13.9 l-1.16 0 l0 -13.9 l-3.26 0 l0 -1.1 l7.68 0 l0 1.1 l-3.26 0 z M110.56 13.14 l0 6.86 l-1.08 0 l0 -6.86 l-3.62 -8.14 l1.24 0 l2.9 6.94 l2.94 -6.94 l1.24 0 z M115.60000000000001 21.02 l0 -1.88 l0 -0.68 l1.58 0 l0 1.46 z M125.84 20.18 c-0.65334 0 -1.2335 -0.086738 -1.7401 -0.26008 s-0.93332 -0.45 -1.28 -0.83 s-0.60332 -0.87666 -0.76998 -1.49 s-0.23666 -1.3533 -0.21 -2.22 l1.2 0 c0 0.42666 0.02 0.87 0.06 1.33 s0.14666 0.88 0.32 1.26 s0.43668 0.69 0.79002 0.93 s0.84334 0.36 1.47 0.36 c0.53334 0 0.98668 -0.08 1.36 -0.24 s0.67668 -0.37334 0.91002 -0.64 s0.39668 -0.58 0.49002 -0.94 s0.14 -0.73334 0.14 -1.12 c0 -0.45334 -0.08334 -0.85 -0.25 -1.19 s-0.38666 -0.64334 -0.66 -0.91 s-0.59334 -0.50332 -0.96 -0.70998 s-0.75 -0.39 -1.15 -0.55 c-0.64 -0.25334 -1.2 -0.50334 -1.68 -0.75 s-0.87334 -0.52332 -1.18 -0.82998 s-0.53666 -0.66332 -0.69 -1.07 s-0.23 -0.90332 -0.23 -1.49 c0 -1.3333 0.35 -2.3266 1.05 -2.98 s1.7033 -0.98 3.01 -0.98 c1.1333 0 2.03 0.33 2.69 0.99 s0.99 1.65 0.99 2.97 l0 1.1 l-1.12 0 l0 -1.2 c0 -0.41334 -0.05 -0.79668 -0.15 -1.15 s-0.25666 -0.66334 -0.47 -0.93 s-0.48334 -0.47666 -0.81 -0.63 s-0.71666 -0.23 -1.17 -0.23 c-1.0667 0 -1.83 0.28 -2.29 0.84 s-0.67 1.3133 -0.63 2.26 c0.01334 0.41334 0.09 0.76668 0.23 1.06 s0.32666 0.55 0.56 0.77 s0.51334 0.41666 0.84 0.59 s0.69 0.34668 1.09 0.52002 c0.46666 0.2 0.93 0.41334 1.39 0.64 s0.89 0.50666 1.29 0.84 c0.4 0.34666 0.73 0.75 0.99 1.21 s0.39 1.03 0.39 1.71 c0 1.32 -0.33666 2.31 -1.01 2.97 s-1.61 0.99 -2.81 0.99 z M131.20000000000002 20 l0 -15 l1.28 0 l0 15 l-1.28 0 z M143.68 20 l0 -12.72 l-3.62 8.66 l-1.12 -0.02 l-3.54 -8.66 l0 12.74 l-0.98 0 l0 -15 l1.04 0 l4.06 9.76 l4.08 -9.76 l1.06 0 l0 15 l-0.98 0 z M149.96 14.36 l-2.16 0 l0 5.64 l-1.16 0 l0 -15 l3.62 0 c1.32 0 2.3566 0.40334 3.11 1.21 s1.13 1.9767 1.13 3.51 c0 0.68 -0.11 1.3033 -0.33 1.87 s-0.53 1.0567 -0.93 1.47 s-0.87666 0.73334 -1.43 0.96 s-1.17 0.34 -1.85 0.34 z M149.86 6.02 l-2.06 0.000019531 l0 7.24 l1.86 0 c0.68 0 1.2533 -0.09666 1.72 -0.29 s0.84332 -0.45334 1.13 -0.78 s0.49332 -0.70666 0.61998 -1.14 s0.19 -0.89 0.19 -1.37 c0 -0.49334 -0.04666 -0.96334 -0.14 -1.41 s-0.26668 -0.83666 -0.52002 -1.17 s-0.60668 -0.59668 -1.06 -0.79002 s-1.0333 -0.29 -1.74 -0.29 z M155.84 20 l0 -15 l1.08 0 l0 13.92 l5.1 0 l0 1.08 l-6.18 0 z M163.14000000000001 20 l0 -15 l1.28 0 l0 15 l-1.28 0 z M167.52 6.140000000000001 l0 6.06 l6.02 0 l0 1.06 l-6.02 0 l0 6.74 l-1.16 0 l0 -15 l7.28 0 l0 1.14 l-6.12 0 z M175 20 l0 -15 l1.28 0 l0 15 l-1.28 0 z M178.22 20 l0 -15 l7.36 0 l0 1.16 l-6.32 0 l0 5.7 l6.26 0 l0 0.92 l-6.26 0 l0 6.06 l6.46 0 l0 1.16 l-7.5 0 z M194.34 16.96 c-0.09334 0.41334 -0.23 0.80334 -0.41 1.17 s-0.41666 0.69 -0.71 0.97 s-0.65 0.5 -1.07 0.66 s-0.91 0.24 -1.47 0.24 l-3.64 0 l0 -15 l3.5 0 c1.0133 0 1.8633 0.23666 2.55 0.71 s1.13 1.27 1.33 2.39 c0.04 0.21334 0.07334 0.54334 0.1 0.99 s0.04666 0.96 0.06 1.54 s0.02 1.19 0.02 1.83 s-0.01 1.2533 -0.03 1.84 s-0.05 1.1167 -0.09 1.59 s-0.08666 0.83 -0.14 1.07 z M190.36 6.02 l-2.32 0.000019531 l0 12.9 l2.6 0 c0.36 0 0.68 -0.06334 0.96 -0.19 s0.53 -0.29332 0.75 -0.49998 s0.40334 -0.43666 0.55 -0.69 s0.26666 -0.5 0.36 -0.74 c0.06666 -0.17334 0.12332 -0.48668 0.16998 -0.94002 s0.08 -0.97 0.1 -1.55 s0.03 -1.1967 0.03 -1.85 s-0.01 -1.2667 -0.03 -1.84 s-0.05 -1.08 -0.09 -1.52 s-0.08666 -0.74666 -0.14 -0.92 c-0.08 -0.24 -0.18666 -0.49 -0.32 -0.75 s-0.31 -0.49334 -0.53 -0.7 s-0.5 -0.37666 -0.84 -0.51 s-0.75666 -0.2 -1.25 -0.2 z M196.26 20 l0 -1.54 l1.58 0 l0 1.54 l-1.58 0 z"/></g>
			</g>
		</svg>
	