<svg width="1919" height="867" viewBox="0 0 1919 867" fill="none" xmlns="http://www.w3.org/2000/svg">
<rect width="1920" height="867" fill="#F8F8FF"/>
<mask id="mask0_5_2539" style="mask-type:alpha" maskUnits="userSpaceOnUse" x="0" y="0" width="1920" height="867">
<rect width="1920" height="867" fill="#DEDEFD"/>
</mask>
<g mask="url(#mask0_5_2539)">
<g opacity="0.12" filter="url(#filter0_f_5_2539)">
<circle cx="1098.03" cy="242.032" r="220.48" transform="rotate(-15 1098.03 242.032)" fill="#22B4D5"/>
</g>
<g opacity="0.12" filter="url(#filter1_f_5_2539)">
<circle cx="1675.03" cy="258.032" r="220.48" transform="rotate(-15 1675.03 258.032)" fill="#22B4D5"/>
</g>
<g opacity="0.12" filter="url(#filter2_f_5_2539)">
<circle cx="1238.03" cy="618.032" r="220.48" transform="rotate(-15 1238.03 618.032)" fill="#D190FF"/>
</g>
<g filter="url(#filter3_f_5_2539)">
<circle cx="997.5" cy="757.5" r="317.5" stroke="url(#paint0_linear_5_2539)" stroke-opacity="0.2" stroke-width="4"/>
</g>
<circle cx="1378.57" cy="625.642" r="7.5" transform="rotate(-19.5164 1378.57 625.642)" fill="#FFE6A6"/>
<circle cx="1406.85" cy="615.619" r="7.5" transform="rotate(-19.5164 1406.85 615.619)" fill="#FFE6A6"/>
<circle cx="1416.87" cy="643.896" r="7.5" transform="rotate(-19.5164 1416.87 643.896)" fill="#FFE6A6"/>
<circle cx="1441.03" cy="667.161" r="7.5" transform="rotate(-19.5164 1441.03 667.161)" fill="#FFE6A6"/>
<circle cx="1435.13" cy="605.597" r="7.5" transform="rotate(-19.5164 1435.13 605.597)" fill="#FFE6A6"/>
<circle cx="1445.15" cy="633.873" r="7.5" transform="rotate(-19.5164 1445.15 633.873)" fill="#FFE6A6"/>
<circle cx="1463.4" cy="595.575" r="7.5" transform="rotate(-19.5164 1463.4 595.575)" fill="#FFE6A6"/>
<g filter="url(#filter4_f_5_2539)">
<circle cx="988" cy="92" r="5" fill="#FBB040" fill-opacity="0.2"/>
<ellipse cx="988" cy="110.5" rx="5" ry="5.5" fill="#FBB040" fill-opacity="0.2"/>
<circle cx="988" cy="129" r="5" fill="#FBB040" fill-opacity="0.2"/>
<ellipse cx="988" cy="147.5" rx="5" ry="5.5" fill="#FBB040" fill-opacity="0.2"/>
<circle cx="988" cy="166" r="5" fill="#FBB040" fill-opacity="0.2"/>
<ellipse cx="988" cy="184.5" rx="5" ry="5.5" fill="#FBB040" fill-opacity="0.2"/>
<circle cx="988" cy="203" r="5" fill="#FBB040" fill-opacity="0.2"/>
<ellipse cx="1006.5" cy="92" rx="5.5" ry="5" fill="#FBB040" fill-opacity="0.2"/>
<circle cx="1006.5" cy="110.5" r="5.5" fill="#FBB040" fill-opacity="0.2"/>
<ellipse cx="1006.5" cy="129" rx="5.5" ry="5" fill="#FBB040" fill-opacity="0.2"/>
<circle cx="1006.5" cy="147.5" r="5.5" fill="#FBB040" fill-opacity="0.2"/>
<ellipse cx="1006.5" cy="166" rx="5.5" ry="5" fill="#FBB040" fill-opacity="0.2"/>
<circle cx="1006.5" cy="184.5" r="5.5" fill="#FBB040" fill-opacity="0.2"/>
<ellipse cx="1006.5" cy="203" rx="5.5" ry="5" fill="#FBB040" fill-opacity="0.2"/>
<circle cx="1025" cy="92" r="5" fill="#FBB040" fill-opacity="0.2"/>
<ellipse cx="1025" cy="110.5" rx="5" ry="5.5" fill="#FBB040" fill-opacity="0.2"/>
<circle cx="1025" cy="129" r="5" fill="#FBB040" fill-opacity="0.2"/>
<ellipse cx="1025" cy="147.5" rx="5" ry="5.5" fill="#FBB040" fill-opacity="0.2"/>
<circle cx="1025" cy="166" r="5" fill="#FBB040" fill-opacity="0.2"/>
<ellipse cx="1025" cy="184.5" rx="5" ry="5.5" fill="#FBB040" fill-opacity="0.2"/>
<circle cx="1025" cy="203" r="5" fill="#FBB040" fill-opacity="0.2"/>
<ellipse cx="1043.5" cy="92" rx="5.5" ry="5" fill="#FBB040" fill-opacity="0.2"/>
<circle cx="1043.5" cy="110.5" r="5.5" fill="#FBB040" fill-opacity="0.2"/>
<ellipse cx="1043.5" cy="129" rx="5.5" ry="5" fill="#FBB040" fill-opacity="0.2"/>
<circle cx="1043.5" cy="147.5" r="5.5" fill="#FBB040" fill-opacity="0.2"/>
<ellipse cx="1043.5" cy="166" rx="5.5" ry="5" fill="#FBB040" fill-opacity="0.2"/>
<circle cx="1043.5" cy="184.5" r="5.5" fill="#FBB040" fill-opacity="0.2"/>
<ellipse cx="1043.5" cy="203" rx="5.5" ry="5" fill="#FBB040" fill-opacity="0.2"/>
<circle cx="1062" cy="92" r="5" fill="#FBB040" fill-opacity="0.2"/>
<ellipse cx="1062" cy="110.5" rx="5" ry="5.5" fill="#FBB040" fill-opacity="0.2"/>
<circle cx="1062" cy="129" r="5" fill="#FBB040" fill-opacity="0.2"/>
<ellipse cx="1062" cy="147.5" rx="5" ry="5.5" fill="#FBB040" fill-opacity="0.2"/>
<circle cx="1062" cy="166" r="5" fill="#FBB040" fill-opacity="0.2"/>
<ellipse cx="1062" cy="184.5" rx="5" ry="5.5" fill="#FBB040" fill-opacity="0.2"/>
<circle cx="1062" cy="203" r="5" fill="#FBB040" fill-opacity="0.2"/>
<ellipse cx="1080.5" cy="92" rx="5.5" ry="5" fill="#FBB040" fill-opacity="0.2"/>
<circle cx="1080.5" cy="110.5" r="5.5" fill="#FBB040" fill-opacity="0.2"/>
<ellipse cx="1080.5" cy="129" rx="5.5" ry="5" fill="#FBB040" fill-opacity="0.2"/>
<circle cx="1080.5" cy="147.5" r="5.5" fill="#FBB040" fill-opacity="0.2"/>
<ellipse cx="1080.5" cy="166" rx="5.5" ry="5" fill="#FBB040" fill-opacity="0.2"/>
<circle cx="1080.5" cy="184.5" r="5.5" fill="#FBB040" fill-opacity="0.2"/>
<ellipse cx="1080.5" cy="203" rx="5.5" ry="5" fill="#FBB040" fill-opacity="0.2"/>
<circle cx="1099" cy="92" r="5" fill="#FBB040" fill-opacity="0.2"/>
<ellipse cx="1099" cy="110.5" rx="5" ry="5.5" fill="#FBB040" fill-opacity="0.2"/>
<circle cx="1099" cy="129" r="5" fill="#FBB040" fill-opacity="0.2"/>
<ellipse cx="1099" cy="147.5" rx="5" ry="5.5" fill="#FBB040" fill-opacity="0.2"/>
<circle cx="1099" cy="166" r="5" fill="#FBB040" fill-opacity="0.2"/>
<ellipse cx="1099" cy="184.5" rx="5" ry="5.5" fill="#FBB040" fill-opacity="0.2"/>
<circle cx="1099" cy="203" r="5" fill="#FBB040" fill-opacity="0.2"/>
</g>
<g filter="url(#filter5_f_5_2539)">
<circle cx="1795.5" cy="730.5" r="48.5" stroke="#FD7B33" stroke-opacity="0.2" stroke-width="4"/>
</g>
</g>
<defs>
<filter id="filter0_f_5_2539" x="692.497" y="-163.503" width="811.07" height="811.07" filterUnits="userSpaceOnUse" color-interpolation-filters="sRGB">
<feFlood flood-opacity="0" result="BackgroundImageFix"/>
<feBlend mode="normal" in="SourceGraphic" in2="BackgroundImageFix" result="shape"/>
<feGaussianBlur stdDeviation="92.5" result="effect1_foregroundBlur_5_2539"/>
</filter>
<filter id="filter1_f_5_2539" x="1269.5" y="-147.503" width="811.069" height="811.07" filterUnits="userSpaceOnUse" color-interpolation-filters="sRGB">
<feFlood flood-opacity="0" result="BackgroundImageFix"/>
<feBlend mode="normal" in="SourceGraphic" in2="BackgroundImageFix" result="shape"/>
<feGaussianBlur stdDeviation="92.5" result="effect1_foregroundBlur_5_2539"/>
</filter>
<filter id="filter2_f_5_2539" x="832.497" y="212.497" width="811.07" height="811.07" filterUnits="userSpaceOnUse" color-interpolation-filters="sRGB">
<feFlood flood-opacity="0" result="BackgroundImageFix"/>
<feBlend mode="normal" in="SourceGraphic" in2="BackgroundImageFix" result="shape"/>
<feGaussianBlur stdDeviation="92.5" result="effect1_foregroundBlur_5_2539"/>
</filter>
<filter id="filter3_f_5_2539" x="664" y="424" width="667" height="667" filterUnits="userSpaceOnUse" color-interpolation-filters="sRGB">
<feFlood flood-opacity="0" result="BackgroundImageFix"/>
<feBlend mode="normal" in="SourceGraphic" in2="BackgroundImageFix" result="shape"/>
<feGaussianBlur stdDeviation="7" result="effect1_foregroundBlur_5_2539"/>
</filter>
<filter id="filter4_f_5_2539" x="969" y="73" width="161" height="161" filterUnits="userSpaceOnUse" color-interpolation-filters="sRGB">
<feFlood flood-opacity="0" result="BackgroundImageFix"/>
<feBlend mode="normal" in="SourceGraphic" in2="BackgroundImageFix" result="shape"/>
<feGaussianBlur stdDeviation="7" result="effect1_foregroundBlur_5_2539"/>
</filter>
<filter id="filter5_f_5_2539" x="1731" y="666" width="129" height="129" filterUnits="userSpaceOnUse" color-interpolation-filters="sRGB">
<feFlood flood-opacity="0" result="BackgroundImageFix"/>
<feBlend mode="normal" in="SourceGraphic" in2="BackgroundImageFix" result="shape"/>
<feGaussianBlur stdDeviation="7" result="effect1_foregroundBlur_5_2539"/>
</filter>
<linearGradient id="paint0_linear_5_2539" x1="997.5" y1="438" x2="997.5" y2="1256.5" gradientUnits="userSpaceOnUse">
<stop stop-color="#FD7B33"/>
<stop offset="1" stop-color="white" stop-opacity="0"/>
</linearGradient>
</defs>
</svg>
