<svg width="984" height="644" viewBox="0 0 984 644" fill="none" xmlns="http://www.w3.org/2000/svg">
<g filter="url(#filter0_d_5_2616)">
<rect x="113.229" y="40.1775" width="747.73" height="522.823" rx="10" fill="white"/>
</g>
<rect x="137" y="75" width="703" height="465" rx="10" fill="#F9F9F9"/>
<g filter="url(#filter1_d_5_2616)">
<rect x="740.092" y="190.219" width="196.908" height="377.723" rx="10" fill="white"/>
</g>
<rect x="782.694" y="217.673" width="111.708" height="10.4134" rx="5.20671" fill="#D8DAFF"/>
<rect x="886.827" y="241.605" width="17.0401" height="17.0401" rx="6" fill="#BCFFDE"/>
<rect x="886.827" y="266.9" width="17.0401" height="17.0401" rx="6" fill="#FFF1CE"/>
<rect x="886.827" y="292.46" width="17.0401" height="17.0401" rx="6" fill="#FFDADA"/>
<rect x="886.827" y="318.02" width="17.0401" height="17.0401" rx="6" fill="#EDEDED"/>
<rect x="769.439" y="246.866" width="92.7741" height="6.57633" rx="3.28817" fill="#EAEBFF"/>
<rect x="769.439" y="272.948" width="92.7741" height="6.57633" rx="3.28817" fill="#EAEBFF"/>
<rect x="769.439" y="298.509" width="92.7741" height="6.57633" rx="3.28817" fill="#EAEBFF"/>
<rect x="769.439" y="324.069" width="92.7741" height="6.57633" rx="3.28817" fill="#EAEBFF"/>
<rect x="782.694" y="488.421" width="111.708" height="10.4134" rx="5.20671" fill="#D8DAFF"/>
<rect x="780.799" y="515.875" width="26.5069" height="28.4002" rx="6" fill="#FFDADA"/>
<rect x="812.041" y="539.542" width="24.6135" height="4.73337" rx="2.36669" fill="#EAEBFF"/>
<rect x="841.387" y="539.542" width="24.6135" height="4.73337" rx="2.36669" fill="#EAEBFF"/>
<rect x="871.68" y="539.542" width="24.6135" height="4.73337" rx="2.36669" fill="#EAEBFF"/>
<rect x="782.695" y="353.994" width="111.708" height="10.4134" rx="5.20671" fill="#D8DAFF"/>
<rect x="886.828" y="377.661" width="17.0401" height="17.0401" rx="6" fill="#EDEDED"/>
<rect x="886.828" y="403.221" width="17.0401" height="17.0401" rx="6" fill="#FFDADA"/>
<rect x="886.828" y="428.781" width="17.0401" height="17.0401" rx="6" fill="#FFF1CE"/>
<rect x="886.828" y="454.341" width="17.0401" height="17.0401" rx="6" fill="#BCFFDE"/>
<rect x="769.44" y="383.052" width="92.7741" height="6.57633" rx="3.28817" fill="#EAEBFF"/>
<rect x="769.44" y="408.612" width="92.7741" height="6.57633" rx="3.28817" fill="#EAEBFF"/>
<rect x="769.44" y="434.172" width="92.7741" height="6.57633" rx="3.28817" fill="#EAEBFF"/>
<rect x="769.44" y="459.732" width="92.7741" height="6.57633" rx="3.28817" fill="#EAEBFF"/>
<rect x="148.24" y="355.271" width="572.76" height="172.718" rx="10" fill="white"/>
<rect x="162.167" y="365.478" width="188.889" height="10.9912" rx="5.49558" fill="#D8DAFF"/>
<rect x="478.17" y="367.048" width="66.1546" height="8.63591" rx="4.31795" fill="#BCFFDE"/>
<rect x="170.002" y="498.156" width="95.7801" height="9.57501" rx="4.78751" transform="rotate(-90 170.002 498.156)" fill="#EAEBFF"/>
<rect x="190.022" y="497.371" width="109.912" height="0.870461" rx="0.43523" transform="rotate(-90 190.022 497.371)" fill="#F1F2FF"/>
<rect x="189.734" y="390.8" width="508.541" height="0.545379" rx="0.27269" fill="#F1F2FF"/>
<rect x="189.734" y="412.07" width="508.541" height="0.545379" rx="0.27269" fill="#F1F2FF"/>
<rect x="189.734" y="432.794" width="508.541" height="1.09076" rx="0.545379" fill="#F1F2FF"/>
<rect x="189.734" y="454.064" width="508.541" height="1.09076" rx="0.545379" fill="#F1F2FF"/>
<rect x="189.734" y="475.334" width="508.541" height="1.09076" rx="0.545379" fill="#F1F2FF"/>
<rect x="189.734" y="496.604" width="508.541" height="0.545379" rx="0.27269" fill="#F1F2FF"/>
<rect x="557.381" y="367.048" width="66.1546" height="8.63591" rx="4.31795" fill="#FFF1CE"/>
<rect x="632.239" y="367.048" width="66.1546" height="8.63591" rx="4.31795" fill="#FFDADA"/>
<path d="M190.022 411.012L308.458 431.846C311.318 432.349 314.216 432.602 317.12 432.602H556.472C559.376 432.602 562.274 432.349 565.134 431.846L683.57 411.012" stroke="#6BC89B" stroke-width="2"/>
<path d="M190.892 453.799L300.344 480.348C303.965 481.226 307.672 481.697 311.398 481.752L433.398 483.538C437.676 483.601 441.945 483.114 446.1 482.089L549.033 456.709C556.788 454.797 564.889 454.771 572.657 456.632L685.311 483.632" stroke="#FFC700" stroke-width="2"/>
<path d="M190.457 491.483L298.819 496.277C303.445 496.482 308.077 496.043 312.583 494.973L424.503 468.391C432.294 466.541 440.415 466.589 448.184 468.531L541.999 491.986C553.854 494.949 566.384 493.469 577.223 487.824L684.005 432.209" stroke="#FF7878" stroke-width="2"/>
<rect x="148.24" y="180.219" width="572.76" height="156.38" rx="10" fill="white"/>
<rect x="162.167" y="193.734" width="188.889" height="129.351" rx="7" fill="url(#paint0_linear_5_2616)"/>
<rect x="366.724" y="203.386" width="66.1546" height="10.6184" rx="5.3092" fill="#D8DAFF"/>
<rect x="554.742" y="203.386" width="46.1341" height="10.6184" rx="5.3092" fill="#D8DAFF"/>
<rect x="625.25" y="203.386" width="46.1341" height="10.6184" rx="5.3092" fill="#D8DAFF"/>
<rect x="366.724" y="228.067" width="16.6362" height="16.3382" rx="4" fill="#FFDADA"/>
<rect x="366.724" y="253.741" width="16.6362" height="16.3382" rx="4" fill="#FFF1CE"/>
<rect x="366.724" y="279.416" width="16.6362" height="16.3382" rx="4" fill="#BCFFDE"/>
<rect x="391.968" y="231.568" width="141.884" height="7.72247" rx="3.86123" fill="#EAEBFF"/>
<rect x="554.742" y="231.568" width="40.0409" height="7.72247" rx="3.86123" fill="#EAEBFF"/>
<rect x="625.25" y="231.568" width="60.9319" height="7.72247" rx="3.86123" fill="#EAEBFF"/>
<rect x="391.968" y="258.409" width="141.884" height="7.72247" rx="3.86123" fill="#EAEBFF"/>
<rect x="554.742" y="258.409" width="40.0409" height="7.72247" rx="3.86123" fill="#EAEBFF"/>
<rect x="625.25" y="258.409" width="60.9319" height="7.72247" rx="3.86123" fill="#EAEBFF"/>
<rect x="391.968" y="284.083" width="141.884" height="7.72247" rx="3.86123" fill="#EAEBFF"/>
<rect x="554.742" y="284.083" width="40.0409" height="7.72247" rx="3.86123" fill="#EAEBFF"/>
<rect x="625.25" y="284.083" width="60.9319" height="7.72247" rx="3.86123" fill="#EAEBFF"/>
<path d="M137 82C137 78.134 140.134 75 144 75H833C836.866 75 840 78.134 840 82V127H137V82Z" fill="#FD7B33"/>
<circle opacity="0.5" cx="787.764" cy="100.862" r="12.8372" fill="white"/>
<rect opacity="0.5" x="808.771" y="95.0271" width="56.1136" height="10.9837" rx="5.49183" fill="white"/>
<path d="M150.727 86.2552C150.166 86.2552 149.69 86.0329 149.301 85.5882C148.912 85.1434 148.718 84.6128 148.718 83.9962V82.0026C148.718 81.4467 148.881 80.959 149.208 80.5395C149.536 80.11 149.949 79.8522 150.448 79.7663H156.191V81.851H150.627V83.9962C150.627 84.0468 150.641 84.0872 150.667 84.1175C150.685 84.1377 150.705 84.1478 150.727 84.1478H154.652C155.161 84.1478 155.603 84.3399 155.979 84.724C156.35 85.0828 156.575 85.5932 156.655 86.2552H154.493H154.652H150.727L150.727 86.2552ZM156.661 87.8018V88.4159C156.661 89.0274 156.465 89.558 156.071 90.0078C155.687 90.4474 155.214 90.6673 154.652 90.6673H149.096V88.5599H154.652C154.674 88.5599 154.694 88.5498 154.712 88.5296C154.738 88.4992 154.752 88.4613 154.752 88.4158V87.8018H156.661V87.8018ZM163.398 84.1555H168.027V86.2629H163.398V84.1555ZM163.398 88.5599H171.083V90.6673H163.398V88.5599ZM163.398 79.7363H171.083V81.8437H163.398V79.7363ZM179.803 90.6673C179.246 90.6673 178.771 90.4424 178.377 89.9926C177.993 89.553 177.8 89.0248 177.8 88.4083V82.0105C177.8 81.3939 177.995 80.8633 178.384 80.4186C178.773 79.9738 179.246 79.7515 179.803 79.7514H183.735C184.296 79.7514 184.771 79.9789 185.16 80.4337C185.545 80.8683 185.737 81.3939 185.737 82.0104V82.9656H183.834V82.0104C183.834 81.9599 183.821 81.922 183.794 81.8967C183.772 81.8715 183.752 81.8588 183.735 81.8588H179.803C179.785 81.8588 179.763 81.874 179.736 81.9043C179.719 81.9245 179.71 81.9599 179.71 82.0104V88.4083C179.71 88.4639 179.721 88.5068 179.743 88.5371C179.761 88.5523 179.781 88.5599 179.803 88.5599H183.735C183.757 88.5599 183.777 88.5498 183.794 88.5296C183.821 88.4992 183.834 88.4588 183.834 88.4083V87.4683H185.737V88.4083C185.737 89.0248 185.545 89.5529 185.16 89.9926C184.771 90.4424 184.296 90.6673 183.735 90.6673H179.803L179.803 90.6673ZM196.075 88.5599V90.6673H194.47C193.908 90.6673 193.431 90.4424 193.038 89.9926C192.653 89.5529 192.461 89.0274 192.461 88.4159V79.7436H194.37V88.4159C194.37 88.4664 194.381 88.5068 194.404 88.5371C194.421 88.5523 194.443 88.5599 194.47 88.5599H196.075V88.5599ZM198.495 79.7437H200.398V90.6674H198.495V79.7437ZM207.102 79.7437H209.018V90.6674H207.102V79.7437ZM215.403 89.2876H212.977L209.336 84.133H211.644C212.293 84.1127 212.727 83.9813 212.943 83.7388C213.071 83.5973 213.136 83.3749 213.136 83.0717C213.136 82.627 213.047 82.3111 212.87 82.1241C212.707 81.9422 212.481 81.8512 212.194 81.8512H212.154H210.172V79.7438H212.128C212.95 79.7135 213.644 80.0041 214.21 80.6156C214.767 81.217 215.045 82.0357 215.045 83.0717C215.045 83.946 214.798 84.6585 214.303 85.2094C213.949 85.6187 213.549 85.8866 213.102 86.0129L215.403 89.2876ZM220.602 84.1555H225.23V86.2629H220.602V84.1555ZM220.602 88.5599H228.287V90.6673H220.602V88.5599ZM220.602 79.7363H228.287V81.8437H220.602V79.7363Z" fill="white"/>
<path d="M150.328 100.612C149.878 100.612 149.497 100.434 149.185 100.078C148.874 99.7215 148.718 99.2963 148.718 98.8023V97.2049C148.718 96.7595 148.849 96.3687 149.111 96.0327C149.373 95.6885 149.704 95.482 150.104 95.4131H154.705V97.0834H150.248V98.8023C150.248 98.8428 150.258 98.8752 150.28 98.8995C150.294 98.9157 150.31 98.9238 150.327 98.9238H153.473C153.88 98.9238 154.234 99.0776 154.535 99.3854C154.833 99.6729 155.013 100.082 155.077 100.612H153.345H153.473H150.327L150.328 100.612ZM155.082 101.851V102.343C155.082 102.833 154.925 103.259 154.61 103.619C154.301 103.971 153.922 104.147 153.473 104.147H149.021V102.459H153.473C153.49 102.459 153.506 102.451 153.52 102.435C153.542 102.41 153.552 102.38 153.552 102.343V101.851H155.082V101.851ZM160.48 95.395H166.462V97.0835H160.48V95.395ZM162.706 98.6628H164.236V104.147H162.706V98.6628ZM179.808 104.147H178.113L177.603 102.945H176.116V101.256H176.881L175.792 98.6992L173.465 104.147H171.77L175.792 95.2007L179.808 104.147ZM185.1 95.395H191.082V97.0835H185.1V95.395ZM187.326 98.6628H188.856V104.147H187.326V98.6628ZM196.453 98.9299H200.161V100.618H196.453V98.9299ZM196.453 102.459H202.611V104.147H196.453V102.459ZM196.453 95.3891H202.611V97.0776H196.453V95.3891ZM207.992 102.453H209.549V104.147H207.992V102.453ZM214.968 95.395H216.498V104.147H214.968V95.395ZM226.682 95.4013C227.132 95.4013 227.513 95.5835 227.825 95.9479C228.133 96.2961 228.287 96.7172 228.287 97.2112V100.582H226.762V97.2112C226.762 97.1707 226.752 97.1404 226.73 97.1201C226.713 97.0999 226.697 97.0898 226.682 97.0898H223.537C223.519 97.0898 223.5 97.1019 223.479 97.1262C223.465 97.1424 223.457 97.1707 223.457 97.2112V102.344C223.457 102.384 223.466 102.416 223.484 102.441C223.498 102.453 223.516 102.459 223.537 102.459H228.287C228.223 102.989 228.042 103.398 227.745 103.686C227.444 103.994 227.09 104.147 226.682 104.147H223.537C223.087 104.147 222.705 103.967 222.39 103.607C222.081 103.255 221.927 102.834 221.927 102.344V97.2112C221.927 96.7172 222.083 96.2921 222.395 95.9357C222.707 95.5794 223.087 95.4012 223.537 95.4012H226.682L226.682 95.4013Z" fill="white"/>
<path d="M151.492 118.615C151.486 118.922 151.461 119.19 151.415 119.42C151.37 119.649 151.292 119.839 151.182 119.99C151.072 120.14 150.928 120.251 150.748 120.325C150.568 120.399 150.342 120.435 150.069 120.435C149.597 120.435 149.254 120.285 149.039 119.985C148.825 119.685 148.718 119.228 148.718 118.615V115.214C148.718 114.601 148.826 114.145 149.043 113.844C149.261 113.544 149.632 113.394 150.157 113.394C150.629 113.394 150.966 113.544 151.17 113.844C151.374 114.145 151.481 114.601 151.492 115.214L151.5 115.637H151.13L151.122 115.104C151.122 114.951 151.108 114.796 151.082 114.64C151.055 114.483 151.007 114.341 150.937 114.212C150.867 114.083 150.769 113.979 150.643 113.9C150.517 113.82 150.35 113.78 150.141 113.78C149.937 113.78 149.767 113.817 149.63 113.89C149.494 113.964 149.385 114.065 149.305 114.194C149.224 114.322 149.169 114.474 149.14 114.649C149.11 114.823 149.096 115.012 149.096 115.214L149.112 118.661C149.112 119.084 149.18 119.415 149.317 119.654C149.453 119.893 149.704 120.012 150.069 120.012C150.278 120.012 150.45 119.98 150.587 119.916C150.724 119.852 150.831 119.761 150.909 119.645C150.987 119.528 151.041 119.387 151.074 119.222C151.106 119.056 151.122 118.876 151.122 118.68L151.13 118.082H151.5L151.492 118.615ZM154.242 117.2V120.353H153.807V117.2L152.352 113.458H152.851L154.016 116.648L155.198 113.458H155.697L154.242 117.2ZM158.929 119.856C158.613 120.187 158.184 120.353 157.643 120.353H156.268V113.458H157.442C157.763 113.458 158.031 113.506 158.246 113.601C158.46 113.696 158.632 113.825 158.76 113.987C158.889 114.149 158.979 114.338 159.03 114.552C159.081 114.767 159.106 114.99 159.106 115.223C159.106 115.475 159.04 115.712 158.909 115.936C158.778 116.159 158.602 116.369 158.382 116.565C158.468 116.627 158.535 116.674 158.583 116.708C158.632 116.742 158.677 116.774 158.72 116.804C158.79 116.872 158.868 116.953 158.953 117.048C159.039 117.143 159.118 117.253 159.191 117.379C159.263 117.505 159.323 117.647 159.371 117.806C159.42 117.966 159.444 118.143 159.444 118.34C159.444 118.683 159.4 118.977 159.311 119.222C159.223 119.467 159.095 119.679 158.929 119.856L158.929 119.856ZM157.635 113.918L156.686 113.918V116.4H157.715C157.86 116.4 157.993 116.369 158.113 116.308C158.234 116.247 158.338 116.162 158.427 116.055C158.515 115.948 158.585 115.824 158.636 115.683C158.687 115.542 158.712 115.389 158.712 115.223C158.712 115.107 158.697 114.972 158.668 114.819C158.638 114.666 158.583 114.523 158.503 114.391C158.423 114.26 158.313 114.148 158.173 114.056C158.034 113.964 157.854 113.918 157.635 113.918V113.918ZM157.683 116.86L156.686 116.86V119.866H157.546C157.723 119.866 157.9 119.841 158.077 119.792C158.254 119.743 158.415 119.66 158.559 119.544C158.704 119.427 158.821 119.274 158.909 119.084C158.998 118.894 159.042 118.658 159.042 118.376C159.042 118.119 159.007 117.894 158.937 117.701C158.868 117.508 158.771 117.35 158.648 117.227C158.525 117.105 158.38 117.013 158.214 116.952C158.047 116.89 157.871 116.86 157.683 116.86V116.86ZM160.007 120.353V113.458H162.966V113.992H160.425V116.611H162.941V117.034H160.425V119.819H163.022V120.353H160.007ZM166.536 120.353L165.209 117.494H163.979V120.353H163.585V113.458H164.952C165.268 113.458 165.539 113.512 165.764 113.619C165.989 113.727 166.174 113.872 166.318 114.056C166.463 114.24 166.57 114.453 166.64 114.695C166.71 114.937 166.745 115.19 166.745 115.453C166.745 115.9 166.644 116.303 166.443 116.662C166.242 117.02 165.978 117.282 165.651 117.448L167.066 120.353H166.536ZM164.895 113.881L163.979 113.881V117.025H164.952C165.225 117.025 165.45 116.977 165.627 116.883C165.804 116.788 165.942 116.665 166.041 116.515C166.14 116.365 166.21 116.193 166.25 116C166.29 115.807 166.31 115.609 166.31 115.407C166.31 115.193 166.278 114.994 166.214 114.81C166.15 114.626 166.057 114.465 165.937 114.327C165.816 114.189 165.669 114.08 165.494 114.001C165.32 113.921 165.12 113.881 164.895 113.881V113.881ZM169.205 120.435C168.942 120.435 168.709 120.395 168.505 120.316C168.302 120.236 168.13 120.109 167.991 119.934C167.852 119.76 167.748 119.531 167.681 119.249C167.614 118.968 167.586 118.627 167.597 118.229H168.079C168.079 118.425 168.087 118.629 168.103 118.84C168.12 119.052 168.162 119.245 168.232 119.42C168.302 119.594 168.408 119.737 168.55 119.847C168.692 119.957 168.889 120.012 169.141 120.012C169.355 120.012 169.537 119.976 169.687 119.902C169.838 119.829 169.96 119.731 170.053 119.608C170.147 119.485 170.213 119.341 170.25 119.176C170.288 119.01 170.307 118.839 170.307 118.661C170.307 118.453 170.273 118.271 170.206 118.114C170.139 117.958 170.051 117.819 169.941 117.696C169.831 117.573 169.702 117.465 169.555 117.37C169.407 117.275 169.253 117.19 169.092 117.117C168.835 117 168.61 116.886 168.417 116.772C168.224 116.659 168.066 116.532 167.943 116.391C167.819 116.25 167.727 116.086 167.665 115.899C167.604 115.712 167.573 115.484 167.573 115.214C167.573 114.601 167.714 114.145 167.995 113.844C168.276 113.544 168.68 113.394 169.205 113.394C169.661 113.394 170.021 113.546 170.286 113.849C170.552 114.152 170.685 114.607 170.685 115.214V115.72H170.234V115.168C170.234 114.978 170.214 114.802 170.174 114.64C170.134 114.477 170.071 114.335 169.985 114.212C169.899 114.09 169.791 113.993 169.659 113.923C169.528 113.852 169.371 113.817 169.189 113.817C168.76 113.817 168.453 113.946 168.268 114.203C168.083 114.46 167.999 114.807 168.015 115.242C168.02 115.432 168.051 115.594 168.108 115.729C168.164 115.864 168.239 115.982 168.333 116.083C168.426 116.184 168.539 116.274 168.67 116.354C168.802 116.434 168.948 116.513 169.109 116.593C169.296 116.685 169.482 116.783 169.667 116.887C169.852 116.991 170.025 117.12 170.186 117.273C170.347 117.433 170.479 117.618 170.584 117.829C170.689 118.041 170.741 118.303 170.741 118.615C170.741 119.222 170.605 119.677 170.335 119.98C170.064 120.284 169.687 120.435 169.205 120.435L169.205 120.435ZM171.36 120.353V113.458H174.319V113.992H171.778V116.611H174.295V117.034H171.778V119.819H174.375V120.353H171.36ZM177.68 118.615C177.674 118.922 177.649 119.19 177.603 119.42C177.558 119.649 177.48 119.839 177.37 119.99C177.26 120.14 177.116 120.251 176.936 120.325C176.756 120.399 176.53 120.435 176.257 120.435C175.785 120.435 175.442 120.285 175.227 119.985C175.013 119.685 174.906 119.228 174.906 118.615V115.214C174.906 114.601 175.014 114.145 175.231 113.844C175.449 113.544 175.82 113.394 176.345 113.394C176.817 113.394 177.155 113.544 177.358 113.844C177.562 114.145 177.669 114.601 177.68 115.214L177.688 115.637H177.318L177.31 115.104C177.31 114.951 177.297 114.796 177.27 114.64C177.243 114.483 177.195 114.341 177.125 114.212C177.055 114.083 176.957 113.979 176.832 113.9C176.706 113.82 176.538 113.78 176.329 113.78C176.125 113.78 175.955 113.817 175.818 113.89C175.682 113.964 175.573 114.065 175.493 114.194C175.412 114.322 175.357 114.474 175.328 114.649C175.298 114.823 175.284 115.012 175.284 115.214L175.3 118.661C175.3 119.084 175.368 119.415 175.505 119.654C175.642 119.893 175.892 120.012 176.257 120.012C176.466 120.012 176.639 119.98 176.775 119.916C176.912 119.852 177.019 119.761 177.097 119.645C177.175 119.528 177.23 119.387 177.262 119.222C177.294 119.056 177.31 118.876 177.31 118.68L177.318 118.082H177.688L177.68 118.615ZM180.052 120.435C179.559 120.435 179.177 120.282 178.906 119.976C178.635 119.669 178.5 119.216 178.5 118.615V113.458H178.934V118.588C178.934 118.735 178.952 118.889 178.986 119.052C179.021 119.214 179.082 119.361 179.167 119.493C179.253 119.625 179.367 119.734 179.509 119.819C179.651 119.905 179.827 119.948 180.036 119.948C180.266 119.948 180.456 119.91 180.607 119.833C180.757 119.757 180.877 119.651 180.968 119.516C181.059 119.381 181.124 119.222 181.161 119.038C181.199 118.854 181.218 118.658 181.218 118.45V113.458H181.644V118.615C181.644 119.228 181.514 119.685 181.254 119.985C180.994 120.285 180.593 120.435 180.052 120.435L180.052 120.435ZM185.342 120.353L184.016 117.494H182.786V120.353H182.392V113.458H183.758C184.075 113.458 184.345 113.512 184.571 113.619C184.796 113.727 184.981 113.872 185.125 114.056C185.27 114.24 185.377 114.453 185.447 114.695C185.517 114.937 185.551 115.19 185.551 115.453C185.551 115.9 185.451 116.303 185.25 116.662C185.049 117.02 184.785 117.282 184.458 117.448L185.873 120.353H185.342ZM183.702 113.881L182.786 113.881V117.025H183.758C184.032 117.025 184.257 116.977 184.434 116.883C184.611 116.788 184.749 116.665 184.848 116.515C184.947 116.365 185.017 116.193 185.057 116C185.097 115.807 185.117 115.609 185.117 115.407C185.117 115.193 185.085 114.994 185.021 114.81C184.956 114.626 184.864 114.465 184.743 114.327C184.623 114.189 184.475 114.08 184.301 114.001C184.127 113.921 183.927 113.881 183.702 113.881V113.881ZM186.364 120.353V113.458H186.878V120.353H186.364ZM189.435 113.964V120.353H188.969V113.964H187.658V113.458H190.746V113.964H189.435ZM193.198 117.2V120.353H192.764V117.2L191.309 113.458H191.807L192.973 116.648L194.155 113.458H194.653L193.198 117.2ZM195.224 120.821V119.957V119.645H195.859V120.316L195.224 120.821ZM199.341 120.435C199.078 120.435 198.845 120.395 198.641 120.316C198.438 120.236 198.266 120.109 198.127 119.934C197.987 119.76 197.884 119.531 197.817 119.249C197.75 118.968 197.722 118.627 197.733 118.229H198.215C198.215 118.425 198.223 118.629 198.239 118.84C198.255 119.052 198.298 119.245 198.368 119.42C198.438 119.594 198.544 119.737 198.686 119.847C198.828 119.957 199.025 120.012 199.277 120.012C199.491 120.012 199.673 119.976 199.823 119.902C199.973 119.829 200.095 119.731 200.189 119.608C200.283 119.485 200.349 119.341 200.386 119.176C200.424 119.01 200.443 118.839 200.443 118.661C200.443 118.453 200.409 118.271 200.342 118.114C200.275 117.958 200.187 117.819 200.077 117.696C199.967 117.573 199.838 117.465 199.691 117.37C199.543 117.275 199.389 117.19 199.228 117.117C198.971 117 198.746 116.886 198.553 116.772C198.36 116.659 198.202 116.532 198.079 116.391C197.955 116.25 197.863 116.086 197.801 115.899C197.74 115.712 197.709 115.484 197.709 115.214C197.709 114.601 197.849 114.145 198.131 113.844C198.412 113.544 198.816 113.394 199.341 113.394C199.797 113.394 200.157 113.546 200.422 113.849C200.688 114.152 200.82 114.607 200.82 115.214V115.72H200.37V115.168C200.37 114.978 200.35 114.802 200.31 114.64C200.27 114.477 200.207 114.335 200.121 114.212C200.035 114.09 199.927 113.993 199.795 113.923C199.664 113.852 199.507 113.817 199.325 113.817C198.896 113.817 198.589 113.946 198.404 114.203C198.219 114.46 198.135 114.807 198.151 115.242C198.156 115.432 198.187 115.594 198.243 115.729C198.3 115.864 198.375 115.982 198.469 116.083C198.562 116.184 198.675 116.274 198.806 116.354C198.938 116.434 199.084 116.513 199.245 116.593C199.432 116.685 199.618 116.783 199.803 116.887C199.988 116.991 200.161 117.12 200.322 117.273C200.483 117.433 200.615 117.618 200.72 117.829C200.824 118.041 200.877 118.303 200.877 118.615C200.877 119.222 200.741 119.677 200.471 119.98C200.2 120.284 199.823 120.435 199.341 120.435L199.341 120.435ZM201.496 120.353V113.458H202.01V120.353H201.496ZM206.513 120.353V114.506L205.058 118.487L204.608 118.477L203.184 114.497V120.353H202.79V113.458H203.209L204.841 117.944L206.481 113.458H206.907V120.353H206.513ZM209.038 117.76H208.17V120.353H207.703V113.458H209.159C209.689 113.458 210.106 113.644 210.409 114.015C210.712 114.385 210.863 114.923 210.863 115.628C210.863 115.94 210.819 116.227 210.73 116.487C210.642 116.748 210.517 116.973 210.357 117.163C210.196 117.353 210.004 117.5 209.782 117.604C209.559 117.708 209.311 117.76 209.038 117.76ZM208.998 113.927L208.17 113.927V117.255H208.917C209.191 117.255 209.421 117.21 209.609 117.122C209.796 117.033 209.948 116.913 210.063 116.763C210.178 116.613 210.261 116.438 210.312 116.239C210.363 116.04 210.389 115.83 210.389 115.609C210.389 115.383 210.37 115.167 210.332 114.961C210.295 114.756 210.225 114.577 210.123 114.424C210.022 114.27 209.879 114.149 209.697 114.06C209.515 113.972 209.282 113.927 208.998 113.927L208.998 113.927ZM211.402 120.353V113.458H211.836V119.856H213.886V120.353H211.402ZM214.337 120.353V113.458H214.851V120.353H214.337ZM216.097 113.982V116.768H218.518V117.255H216.097V120.353H215.631V113.458H218.558V113.982H216.097ZM219.105 120.353V113.458H219.619V120.353H219.105ZM220.399 120.353V113.458H223.358V113.992H220.817V116.611H223.334V117.034H220.817V119.819H223.414V120.353H220.399ZM226.88 118.955C226.842 119.145 226.787 119.325 226.715 119.493C226.643 119.662 226.548 119.81 226.43 119.939C226.312 120.068 226.168 120.169 225.999 120.242C225.831 120.316 225.634 120.353 225.408 120.353H223.945V113.458H225.352C225.76 113.458 226.101 113.567 226.377 113.785C226.653 114.002 226.832 114.368 226.912 114.883C226.928 114.981 226.942 115.133 226.952 115.338C226.963 115.544 226.971 115.779 226.976 116.046C226.982 116.313 226.984 116.593 226.984 116.887C226.984 117.181 226.98 117.463 226.972 117.733C226.964 118.002 226.952 118.246 226.936 118.464C226.92 118.681 226.901 118.845 226.88 118.955ZM225.28 113.927L224.347 113.927V119.856H225.392C225.537 119.856 225.666 119.827 225.778 119.769C225.891 119.711 225.991 119.634 226.08 119.539C226.168 119.444 226.242 119.338 226.301 119.222C226.36 119.106 226.408 118.992 226.446 118.882C226.472 118.802 226.495 118.658 226.514 118.45C226.533 118.241 226.546 118.004 226.554 117.737C226.562 117.471 226.566 117.187 226.566 116.887C226.566 116.587 226.562 116.305 226.554 116.041C226.546 115.778 226.534 115.545 226.518 115.343C226.502 115.141 226.483 115 226.462 114.92C226.43 114.81 226.387 114.695 226.333 114.575C226.279 114.456 226.208 114.349 226.12 114.254C226.032 114.159 225.919 114.08 225.782 114.019C225.646 113.958 225.478 113.927 225.28 113.927L225.28 113.927ZM227.652 120.353V119.645H228.287V120.353H227.652Z" fill="white"/>
<path d="M138 151H840V169H138V151Z" fill="#FFF0E8"/>
<path d="M138 126H840V151H138V126Z" fill="white"/>
<rect x="147.204" y="133.539" width="37.8029" height="10.2972" rx="5.14859" fill="#DFE1FF"/>
<path d="M200.955 125.987H202.727V151.387H200.955V125.987Z" fill="#FAE0FF"/>
<rect x="214.599" y="132.337" width="77.0217" height="13.8348" rx="6.91739" fill="#FFD9D9"/>
<rect x="219.856" y="136.971" width="36.6215" height="4.80535" rx="2.40268" fill="white"/>
<rect x="280.695" y="134.225" width="8.86005" height="10.2972" rx="4.43002" fill="white"/>
<circle cx="142.405" cy="57.6827" r="5.83507" fill="#FE5450"/>
<circle cx="165.746" cy="57.6827" r="5.83507" fill="#FFB339"/>
<circle cx="189.086" cy="57.6827" r="5.83507" fill="#27C447"/>
<g filter="url(#filter2_d_5_2616)">
<rect x="35" y="513" width="250.257" height="80.3116" rx="10" fill="white"/>
</g>
<rect x="112.443" y="545.268" width="160.623" height="15.0584" rx="7.52922" fill="#FFEAD2"/>
<ellipse cx="80.1755" cy="553.514" rx="25.0974" ry="24.7388" fill="#FFEAD2"/>
<g filter="url(#filter3_d_5_2616)">
<rect x="698" y="20" width="250.903" height="80.5191" rx="10" fill="white"/>
</g>
<rect x="775.644" y="52.3516" width="161.038" height="15.0973" rx="7.54867" fill="#FFD9D9"/>
<ellipse cx="743.292" cy="60.6189" rx="25.1622" ry="24.8028" fill="#FFD9D9"/>
<defs>
<filter id="filter0_d_5_2616" x="89.2295" y="28.1775" width="795.73" height="570.823" filterUnits="userSpaceOnUse" color-interpolation-filters="sRGB">
<feFlood flood-opacity="0" result="BackgroundImageFix"/>
<feColorMatrix in="SourceAlpha" type="matrix" values="0 0 0 0 0 0 0 0 0 0 0 0 0 0 0 0 0 0 127 0" result="hardAlpha"/>
<feOffset dy="12"/>
<feGaussianBlur stdDeviation="12"/>
<feComposite in2="hardAlpha" operator="out"/>
<feColorMatrix type="matrix" values="0 0 0 0 0 0 0 0 0 0 0 0 0 0 0 0 0 0 0.06 0"/>
<feBlend mode="normal" in2="BackgroundImageFix" result="effect1_dropShadow_5_2616"/>
<feBlend mode="normal" in="SourceGraphic" in2="effect1_dropShadow_5_2616" result="shape"/>
</filter>
<filter id="filter1_d_5_2616" x="705.092" y="170.219" width="266.908" height="447.723" filterUnits="userSpaceOnUse" color-interpolation-filters="sRGB">
<feFlood flood-opacity="0" result="BackgroundImageFix"/>
<feColorMatrix in="SourceAlpha" type="matrix" values="0 0 0 0 0 0 0 0 0 0 0 0 0 0 0 0 0 0 127 0" result="hardAlpha"/>
<feOffset dy="15"/>
<feGaussianBlur stdDeviation="17.5"/>
<feComposite in2="hardAlpha" operator="out"/>
<feColorMatrix type="matrix" values="0 0 0 0 0 0 0 0 0 0 0 0 0 0 0 0 0 0 0.08 0"/>
<feBlend mode="normal" in2="BackgroundImageFix" result="effect1_dropShadow_5_2616"/>
<feBlend mode="normal" in="SourceGraphic" in2="effect1_dropShadow_5_2616" result="shape"/>
</filter>
<filter id="filter2_d_5_2616" x="0" y="493" width="320.257" height="150.312" filterUnits="userSpaceOnUse" color-interpolation-filters="sRGB">
<feFlood flood-opacity="0" result="BackgroundImageFix"/>
<feColorMatrix in="SourceAlpha" type="matrix" values="0 0 0 0 0 0 0 0 0 0 0 0 0 0 0 0 0 0 127 0" result="hardAlpha"/>
<feOffset dy="15"/>
<feGaussianBlur stdDeviation="17.5"/>
<feComposite in2="hardAlpha" operator="out"/>
<feColorMatrix type="matrix" values="0 0 0 0 0 0 0 0 0 0 0 0 0 0 0 0 0 0 0.08 0"/>
<feBlend mode="normal" in2="BackgroundImageFix" result="effect1_dropShadow_5_2616"/>
<feBlend mode="normal" in="SourceGraphic" in2="effect1_dropShadow_5_2616" result="shape"/>
</filter>
<filter id="filter3_d_5_2616" x="663" y="0" width="320.903" height="150.519" filterUnits="userSpaceOnUse" color-interpolation-filters="sRGB">
<feFlood flood-opacity="0" result="BackgroundImageFix"/>
<feColorMatrix in="SourceAlpha" type="matrix" values="0 0 0 0 0 0 0 0 0 0 0 0 0 0 0 0 0 0 127 0" result="hardAlpha"/>
<feOffset dy="15"/>
<feGaussianBlur stdDeviation="17.5"/>
<feComposite in2="hardAlpha" operator="out"/>
<feColorMatrix type="matrix" values="0 0 0 0 0 0 0 0 0 0 0 0 0 0 0 0 0 0 0.08 0"/>
<feBlend mode="normal" in2="BackgroundImageFix" result="effect1_dropShadow_5_2616"/>
<feBlend mode="normal" in="SourceGraphic" in2="effect1_dropShadow_5_2616" result="shape"/>
</filter>
<linearGradient id="paint0_linear_5_2616" x1="256.611" y1="193.734" x2="256.611" y2="323.085" gradientUnits="userSpaceOnUse">
<stop stop-color="#FFEDE2"/>
<stop offset="1" stop-color="#FFEDE2" stop-opacity="0.12"/>
</linearGradient>
</defs>
</svg>
