<svg width="45" height="43" viewBox="0 0 45 43" fill="none" xmlns="http://www.w3.org/2000/svg">
<path d="M1 8.53137C1.31939 7.7073 1.80474 7.04074 2.75035 6.8298C2.95333 6.78545 3.16081 6.76344 3.36886 6.76418C14.3991 6.76418 25.429 6.76418 36.4586 6.76418C37.8423 6.76418 38.8139 7.7223 38.8139 9.07324C38.8139 17.7432 38.8139 26.4132 38.8139 35.0832C38.8139 36.5907 37.8799 37.4907 36.3177 37.4907H24.9298C24.7851 37.4907 24.6182 37.5311 24.5024 37.4748C24.3682 37.4092 24.1791 37.2423 24.1936 37.1448C24.2148 37.007 24.3798 36.8636 24.5207 36.7773C24.6172 36.7211 24.7706 36.7632 24.8999 36.7632H36.0929C37.4959 36.7632 38.0632 36.2195 38.0642 34.8732V13.5217H1.76035V14.0082C1.76035 20.9757 1.75842 27.9445 1.75456 34.9145C1.75456 35.8126 2.06623 36.4501 2.9964 36.7445C3.13149 36.7867 3.19518 37.0379 3.29263 37.1926C3.11123 37.2714 2.91149 37.442 2.75325 37.4111C2.01026 37.2667 1.49886 36.8111 1.19298 36.1426C1.12865 36.0026 1.06433 35.8629 1 35.7236V8.53137ZM38.043 12.737C38.043 11.4067 38.07 10.0989 38.0227 8.79293C38.0121 8.50137 37.7882 8.17793 37.5779 7.9398C37.2025 7.51605 36.6612 7.48512 36.1151 7.48605C25.3119 7.4898 14.5081 7.4898 3.70368 7.48605C3.52663 7.48165 3.34947 7.48666 3.17298 7.50105C2.47053 7.57699 1.83658 8.07293 1.8057 8.74887C1.74491 10.0679 1.78737 11.3917 1.78737 12.7332L38.043 12.737Z" fill="#FFC046" stroke="#FFC046" stroke-width="0.8"/>
<path d="M22.8073 41.9998C22.7407 41.7514 22.6143 41.5039 22.6143 41.2554C22.5988 39.0842 22.5873 36.9129 22.6143 34.7417C22.6336 32.9829 21.8684 31.7642 20.175 31.0854C18.9573 30.597 17.7627 30.0542 16.5614 29.5292C16.3443 29.4354 16.1841 29.3857 15.9641 29.5798C14.5795 30.7986 12.8185 30.7704 11.458 29.5404C11.4001 29.4879 11.3373 29.4401 11.2563 29.3726C9.7327 30.0373 8.18401 30.6504 6.69612 31.3817C5.39831 32.0192 4.86278 33.1629 4.86278 34.5551C4.86278 36.7892 4.86954 39.0223 4.85507 41.2564C4.85507 41.5048 4.73059 41.7523 4.66208 42.0007H4.28094C4.22015 41.8132 4.10822 41.6257 4.10726 41.4429C4.09568 39.0054 4.05612 36.5679 4.11498 34.1304C4.15454 32.4523 5.05963 31.2457 6.62375 30.5379C7.96015 29.9323 9.32068 29.3736 10.659 28.7717C10.8356 28.6741 10.9696 28.5175 11.0363 28.3311C11.1328 28.0601 10.9707 27.8942 10.7044 27.7573C7.88489 26.307 6.55524 23.2376 7.45936 20.2882C7.89373 18.8766 8.81795 17.6547 10.0748 16.8304C11.3317 16.0061 12.8437 15.6302 14.3537 15.7667C17.1828 16.0076 19.5555 18.0654 20.1644 20.8067C20.7684 23.5254 19.4166 26.3745 16.8837 27.7095C16.6183 27.8501 16.4147 27.957 16.4253 28.3236C16.4359 28.6901 16.7013 28.7379 16.9387 28.8411C18.2133 29.3951 19.4976 29.9304 20.7665 30.4976C22.4792 31.2636 23.3717 32.5648 23.3717 34.4107C23.3762 36.7232 23.374 39.0357 23.365 41.3482C23.365 41.5657 23.2521 41.7823 23.1913 41.9998H22.8073ZM7.98331 22.5054C8.0798 24.8576 9.89673 26.9736 12.31 27.5679C13.5168 27.8676 14.7909 27.7802 15.9425 27.3188C17.094 26.8574 18.0611 26.0467 18.6996 25.0076C19.9067 23.0557 19.7765 20.3201 18.388 18.8529C15.3716 21.2811 11.8941 22.4886 7.98331 22.5054ZM8.04796 21.7245C11.7638 21.6917 15.0137 20.5432 17.8553 18.2632C16.517 16.6873 13.8741 16.0986 11.7262 16.8748C9.62463 17.6417 7.99489 19.752 8.0441 21.7245H8.04796ZM11.7146 28.2936C11.8507 28.5804 11.9076 28.8607 12.0784 29.0314C12.9777 29.9276 14.4965 29.9126 15.4131 29.037C15.6534 28.8073 15.7595 28.5682 15.637 28.2954C14.9915 28.362 14.373 28.4736 13.7535 28.4745C13.134 28.4754 12.4923 28.3676 11.7166 28.2936H11.7146Z" fill="#FFC046" stroke="#FFC046" stroke-width="0.8"/>
<path d="M37.8599 0C37.9486 0.477188 38.0374 0.954375 38.1407 1.51125C38.4147 1.51125 38.7669 1.47469 39.1056 1.52719C39.2783 1.55344 39.5301 1.71938 39.561 1.86C39.6247 2.15344 39.3786 2.24531 39.0998 2.235C38.7659 2.22938 38.433 2.235 38.0384 2.235C38.0384 2.61 38.0779 2.95781 38.021 3.28688C37.993 3.45 37.7885 3.585 37.664 3.73219C37.5395 3.585 37.3359 3.45094 37.307 3.28688C37.2491 2.97 37.2896 2.63625 37.2896 2.235C36.9229 2.235 36.5775 2.23031 36.2282 2.235C35.9493 2.24062 35.7033 2.14875 35.767 1.86C35.7979 1.71938 36.0497 1.55531 36.2224 1.52719C36.5486 1.47375 36.8892 1.51125 37.1873 1.51125L37.4739 0H37.8599Z" fill="#FFC046"/>
<path d="M44.9999 6.93734L43.4445 7.21015C43.4445 7.4764 43.4821 7.81859 43.4281 8.14765C43.4011 8.31546 43.2351 8.56015 43.0856 8.59015C42.7835 8.65202 42.689 8.41296 42.6948 8.14202C42.7006 7.81765 42.6948 7.49421 42.6948 7.11077C42.3088 7.11077 41.9508 7.14921 41.6121 7.0939C41.4442 7.06671 41.3053 6.86796 41.1538 6.74702C41.3053 6.62609 41.4433 6.42827 41.6121 6.40015C41.9383 6.3439 42.2818 6.38327 42.6948 6.38327C42.6948 6.02702 42.6996 5.6914 42.6948 5.35202C42.689 5.08109 42.7835 4.84202 43.0856 4.9039C43.2303 4.9339 43.3992 5.17859 43.4281 5.3464C43.4831 5.66327 43.4445 5.99421 43.4445 6.2839L44.9999 6.56234V6.93734Z" fill="#FFC046"/>
<path d="M8.14025 42.0002C8.07367 41.7837 7.94727 41.5671 7.94727 41.3496C7.93087 39.7559 7.93955 38.1621 7.93762 36.5684C7.93762 36.2871 7.93762 36.0059 8.33034 36.0059C8.72306 36.0059 8.72402 36.2927 8.72306 36.5684C8.72306 38.1621 8.72981 39.7559 8.71341 41.3496C8.71341 41.5671 8.5899 41.7837 8.52043 42.0002H8.14025Z" fill="#FFC046" stroke="#FFC046" stroke-width="0.5"/>
<path d="M18.9474 42.0002C18.8808 41.7837 18.7592 41.5671 18.7544 41.3496C18.738 39.7559 18.7467 38.1621 18.7447 36.5684C18.7447 36.2871 18.7448 36.0059 19.1375 36.0059C19.5302 36.0059 19.5312 36.2927 19.5302 36.5684C19.5302 38.1621 19.5369 39.7559 19.5205 41.3496C19.5205 41.5671 19.397 41.7837 19.3276 42.0002H18.9474Z" fill="#FFC046" stroke="#FFC046" stroke-width="0.5"/>
<path d="M43.0005 41.3126C42.6145 41.3717 42.2353 41.4457 41.8503 41.4832C41.5792 41.5142 41.3051 41.5104 41.0349 41.472C40.9636 41.4528 40.898 41.4173 40.8438 41.3683C40.7895 41.3194 40.7482 41.2585 40.7233 41.1907C40.7011 41.0745 40.8275 40.8157 40.897 40.8157C41.6004 40.7857 42.3192 40.5898 43.0005 40.9357V41.3126Z" fill="#FFC046" stroke="#FFC046" stroke-width="0.8"/>
<path d="M30.9923 25.5116C30.9923 26.8181 30.9791 28.1245 30.9998 29.4301C31.0064 29.8689 30.8324 30.0158 30.3893 29.9987C29.7638 29.9743 29.1354 29.9834 28.508 29.9987C28.1496 30.005 28 29.8671 28 29.5193C28.0063 26.8463 28.0063 24.1733 28 21.5002C28 21.1272 28.159 20.992 28.5371 21.001C29.1636 21.0173 29.791 21.0218 30.4185 21.001C30.8437 20.9857 31.0055 21.1371 30.9998 21.5498C30.981 22.8689 30.9923 24.1898 30.9923 25.5116Z" stroke="#FFC046" stroke-miterlimit="10"/>
<path d="M35.7252 26.6252C35.7252 27.5627 35.7136 28.5002 35.731 29.4377C35.7377 29.8371 35.592 30.0077 35.1694 29.9955C34.5113 29.9749 33.8513 29.9815 33.1923 29.9955C32.8353 30.0021 32.6558 29.883 32.6577 29.5108C32.6648 27.589 32.6648 25.6674 32.6577 23.7462C32.6577 23.4124 32.7928 23.2577 33.1402 23.2624C33.8311 23.2708 34.5229 23.2737 35.2138 23.2624C35.5882 23.2558 35.729 23.4161 35.7252 23.7705C35.7175 24.7193 35.7252 25.6718 35.7252 26.6252ZM34.9388 29.2408V24.0255H33.447V29.2408H34.9388Z" fill="#FFC046" stroke="#FFC046" stroke-width="0.1"/>
<path d="M17.5723 3.48874H10.2873C10.1908 3.48874 10.0943 3.48874 9.99778 3.48874C9.72278 3.49999 9.46998 3.41468 9.52787 3.11374C9.55585 2.97218 9.81156 2.86437 9.97752 2.76312C10.0354 2.72843 10.1348 2.75749 10.2149 2.75749H24.978C25.0581 2.75749 25.1575 2.72843 25.2154 2.76312C25.3814 2.86437 25.6371 2.97218 25.6651 3.11374C25.723 3.41093 25.4721 3.49624 25.1952 3.48874C25.0987 3.48874 25.0022 3.48874 24.9057 3.48874H17.5723Z" fill="#FFC046" stroke="#FFC046" stroke-width="0.8"/>
<path d="M32.2499 40.7612H38.1126C38.1903 40.7612 38.2679 40.7612 38.3456 40.7612C38.5669 40.75 38.7703 40.8353 38.7238 41.1362C38.7012 41.2768 38.4955 41.3856 38.3619 41.4868C38.3153 41.5215 38.2353 41.4925 38.1709 41.4925H26.2901C26.2257 41.4925 26.1457 41.5215 26.0991 41.4868C25.9655 41.3856 25.7597 41.2778 25.7372 41.1362C25.6906 40.839 25.8925 40.7537 26.1154 40.7612C26.193 40.7612 26.2707 40.7612 26.3483 40.7612H32.2499Z" fill="#FFC046" stroke="#FFC046" stroke-width="0.8"/>
<path d="M33.0689 18.7603C32.8305 18.704 32.6433 18.6665 32.4581 18.614C31.3889 18.3328 30.3247 18.0318 29.2488 17.7778C29.011 17.7336 28.7648 17.7814 28.5627 17.9109C27.1346 18.9496 25.7268 20.0146 24.3171 21.0712C24.2148 21.1471 24.1164 21.2662 24.0045 21.2821C23.8375 21.3046 23.659 21.2531 23.4854 21.2324C23.5095 21.0524 23.4776 20.8359 23.5722 20.7018C23.6918 20.5293 23.9128 20.4206 24.0913 20.2903C25.4914 19.2421 26.8973 18.2006 28.2887 17.1412C28.4129 17.0339 28.5645 16.9611 28.7276 16.9302C28.8908 16.8994 29.0594 16.9117 29.216 16.9659C30.325 17.2828 31.4407 17.5746 32.5632 17.8415C32.7998 17.884 33.0441 17.8345 33.2435 17.7037C33.8475 17.2649 34.4014 16.7587 35.0035 16.319C35.1482 16.214 35.4966 16.1774 35.6143 16.2712C35.8758 16.4803 35.7002 16.7099 35.4802 16.8871C34.7864 17.4496 34.0975 18.0121 33.4027 18.5624C33.2968 18.6366 33.1852 18.7028 33.0689 18.7603Z" fill="#FFC046" stroke="#FFC046" stroke-width="0.8"/>
<path d="M26.462 27.762C26.462 28.3404 26.4523 28.9179 26.462 29.4963C26.4707 29.8601 26.3037 29.9988 25.939 29.9923C25.2635 29.9792 24.5881 29.9792 23.9127 29.9923C23.546 29.9988 23.3868 29.8582 23.3897 29.4945C23.4003 28.3235 23.3984 27.1507 23.3897 25.9798C23.3897 25.6395 23.545 25.5035 23.8876 25.511C24.5785 25.5204 25.2703 25.5223 25.9612 25.511C26.3471 25.5045 26.4678 25.6845 26.46 26.0313C26.4523 26.606 26.462 27.1873 26.462 27.762ZM24.1751 26.262V29.2348H25.6842V26.2601L24.1751 26.262Z" fill="#FFC046" stroke="#FFC046" stroke-width="0.1"/>
<path d="M5.51599 3.48779C5.2902 3.48779 5.05187 3.53186 4.84055 3.47373C4.67845 3.42873 4.55108 3.25529 4.41406 3.13904C4.54529 3.01342 4.66687 2.79217 4.80871 2.77998C5.30523 2.73545 5.80491 2.73545 6.30143 2.77998C6.44424 2.79311 6.56775 3.01154 6.7009 3.13529C6.56196 3.25342 6.43941 3.43623 6.2802 3.47373C6.0438 3.53092 5.77266 3.48779 5.51599 3.48779Z" fill="#FFC046" stroke="#FFC046" stroke-width="0.8"/>
<path d="M6.39215 10.1326C6.38979 10.4279 6.29712 10.7158 6.12591 10.9598C5.9547 11.2037 5.7127 11.3927 5.43067 11.5027C5.14863 11.6127 4.83931 11.6387 4.54201 11.5774C4.24472 11.5162 3.9729 11.3704 3.76109 11.1587C3.54928 10.9469 3.40707 10.6788 3.35252 10.3883C3.29797 10.0978 3.33356 9.79814 3.45476 9.52736C3.57595 9.25659 3.77729 9.02695 4.03316 8.86763C4.28902 8.70831 4.58788 8.62652 4.89171 8.63264C5.09223 8.63333 5.29059 8.67291 5.47516 8.74907C5.65973 8.82522 5.82679 8.93642 5.96654 9.07613C6.10629 9.21584 6.21593 9.38126 6.28901 9.56268C6.3621 9.74411 6.39716 9.93788 6.39215 10.1326ZM4.86856 9.37514C4.71553 9.37347 4.56544 9.41603 4.43735 9.49742C4.30927 9.57881 4.20898 9.69535 4.14922 9.83224C4.08947 9.96913 4.07293 10.1202 4.10173 10.2662C4.13053 10.4123 4.20335 10.5467 4.31096 10.6524C4.41856 10.7582 4.55608 10.8304 4.70605 10.8601C4.85603 10.8897 5.01168 10.8753 5.15324 10.8188C5.29479 10.7623 5.41587 10.6662 5.50108 10.5427C5.58629 10.4192 5.63179 10.2738 5.6318 10.1251C5.62984 9.92828 5.54907 9.73988 5.40659 9.59988C5.26412 9.45988 5.07115 9.37928 4.86856 9.37514Z" fill="#FFC046"/>
<path d="M8.74326 8.63601C9.61168 8.64445 10.2688 9.31101 10.2514 10.1716C10.2483 10.3661 10.2054 10.558 10.1252 10.7362C10.045 10.9144 9.92906 11.0752 9.78419 11.2094C9.63933 11.3437 9.46841 11.4485 9.28142 11.5179C9.09442 11.5872 8.89508 11.6198 8.69502 11.6135C7.8266 11.6051 7.16949 10.9385 7.18686 10.0779C7.18996 9.88343 7.23287 9.69152 7.31308 9.51334C7.3933 9.33516 7.50922 9.17428 7.65409 9.04007C7.79895 8.90587 7.96987 8.80102 8.15686 8.73165C8.34386 8.66228 8.5432 8.62976 8.74326 8.63601ZM9.48818 10.136C9.49086 9.98714 9.44787 9.84087 9.3647 9.71582C9.28153 9.59076 9.16193 9.4926 9.02113 9.43381C8.88034 9.37503 8.72472 9.35829 8.5741 9.38573C8.42348 9.41317 8.28468 9.48355 8.17537 9.58789C8.06605 9.69224 7.99118 9.82584 7.96029 9.97167C7.92939 10.1175 7.94387 10.269 8.00187 10.4068C8.05988 10.5446 8.15879 10.6625 8.28601 10.7455C8.41323 10.8285 8.563 10.8729 8.71625 10.8729C8.91872 10.8717 9.1128 10.7941 9.2574 10.6564C9.40201 10.5187 9.48581 10.3317 9.49107 10.1351L9.48818 10.136Z" fill="#FFC046"/>
</svg>
