<svg width="44" height="43" viewBox="0 0 44 43" fill="none" xmlns="http://www.w3.org/2000/svg">
<g clip-path="url(#clip0_5_1801)">
<path d="M9.21446 26.9196L7.18806 31.6573C7.14076 31.7687 7.06237 31.8641 6.96225 31.9321C6.86213 32.0001 6.74451 32.0379 6.62345 32.041L1.52563 32.4985L5.41173 35.887C5.5922 36.0449 5.66095 36.2835 5.6111 36.5023L4.46298 41.525L8.88962 38.8815C9.09587 38.7579 9.34509 38.7665 9.53759 38.8815L13.9659 41.525L13.4615 39.3227C13.8809 39.3699 14.3131 39.339 14.7334 39.224L15.3074 41.7396C15.3238 41.8486 15.3238 41.961 15.3057 42.0735C15.2837 42.2089 15.2365 42.339 15.1665 42.4571C15.0196 42.7023 14.7813 42.8792 14.5039 42.9489C14.2384 43.0159 13.9453 42.9807 13.6884 42.8279L9.2136 40.1561L4.77751 42.8064C4.68126 42.8691 4.57298 42.9172 4.45696 42.9463L4.37618 42.9661C4.25243 42.9884 4.11923 42.9884 3.98516 42.9627L3.9422 42.9549C3.65516 42.888 3.42055 42.7112 3.2736 42.4777C3.12501 42.2418 3.07358 41.9576 3.13009 41.6847L4.29626 36.5873L0.370633 33.1636C0.267508 33.0735 0.179852 32.9619 0.117977 32.8392C0.0601702 32.7264 0.0226467 32.6044 0.00711728 32.4787L0.0028204 32.4229C-0.0160858 32.1388 0.0810235 31.8693 0.255477 31.6616C0.428211 31.4556 0.67657 31.314 0.960164 31.2823L6.17399 30.8179L8.21759 26.0364C8.27185 25.9075 8.35065 25.7903 8.44962 25.6914C8.5304 25.609 8.62665 25.5395 8.73407 25.4854C8.77274 25.4648 8.81227 25.4477 8.85438 25.4348C9.10876 25.3438 9.38032 25.3567 9.61579 25.4511C9.85212 25.5464 10.0558 25.7249 10.1778 25.9669L11.7952 29.7442L11.3251 31.7981C11.2907 31.7552 11.2632 31.708 11.2417 31.6573L9.21446 26.9196ZM3.51852 13.0446C3.02868 12.8386 2.79837 12.2756 3.00462 11.7864C3.21087 11.2971 3.77548 11.0671 4.26532 11.2731L8.28118 12.9725C8.77102 13.1785 9.00134 13.7424 8.79509 14.2308C8.58884 14.72 8.02423 14.95 7.53438 14.744L3.51852 13.0446ZM7.60227 6.79287C7.22759 6.41608 7.22931 5.8067 7.60657 5.43249C7.98384 5.05828 8.59399 5.05999 8.96868 5.43678L12.0366 8.53347C12.4113 8.91025 12.4096 9.51963 12.0324 9.89385C11.6551 10.2681 11.0449 10.2663 10.6702 9.88955L7.60227 6.79287ZM13.7597 2.5581C13.5577 2.06716 13.7924 1.50498 14.2839 1.30329C14.7763 1.10159 15.3384 1.3359 15.5412 1.82684L17.1998 5.85648C17.4017 6.34742 17.1663 6.90959 16.6747 7.11129C16.1831 7.31299 15.6202 7.07868 15.4183 6.58774L13.7597 2.5581ZM39.7352 11.2731C40.225 11.0671 40.7896 11.2971 40.9959 11.7864C41.2021 12.2756 40.9718 12.8386 40.482 13.0446L36.4661 14.744C35.9763 14.95 35.4116 14.72 35.2054 14.2308C34.9991 13.7424 35.2295 13.1785 35.7193 12.9725L39.7352 11.2731ZM35.0318 5.43678C35.4065 5.05999 36.0166 5.05828 36.3939 5.43249C36.7712 5.8067 36.7729 6.41608 36.3982 6.79287L33.3302 9.88955C32.9556 10.2663 32.3454 10.2681 31.9681 9.89385C31.5909 9.51963 31.5891 8.91025 31.9638 8.53347L35.0318 5.43678ZM28.4593 1.82684C28.6621 1.3359 29.2241 1.10159 29.7166 1.30329C30.2081 1.50498 30.4427 2.06716 30.2408 2.5581L28.5822 6.58774C28.3802 7.07868 27.8174 7.31299 27.3258 7.11129C26.8342 6.90959 26.5988 6.34742 26.8007 5.85648L28.4593 1.82684ZM21.0042 0.982289C21.0042 0.450153 21.4365 0.0175781 21.9702 0.0175781C22.503 0.0175781 22.9361 0.450153 22.9361 0.982289V5.33894C22.9361 5.87107 22.503 6.30365 21.9702 6.30365C21.4365 6.30365 21.0042 5.87107 21.0042 5.33894V0.982289ZM23.0908 11.6585L26.1811 18.8844L34.0495 19.5882C34.3666 19.6199 34.6416 19.7753 34.8324 20.0019L34.8642 20.0439C35.0335 20.2645 35.1263 20.5443 35.1049 20.8387L35.1014 20.8825C35.0859 21.0284 35.043 21.1648 34.9802 21.2884L34.9622 21.321C34.9055 21.4232 34.8333 21.5176 34.7499 21.5983L28.7635 26.8218L30.527 34.5309C30.5897 34.8373 30.5261 35.142 30.3697 35.39C30.0208 35.9479 29.2757 36.105 28.73 35.7488L22.0002 31.7294L15.2146 35.7805C14.9506 35.934 14.637 35.9783 14.3406 35.9041C13.7159 35.7471 13.3403 35.1222 13.4804 34.5026L15.237 26.8218L9.29524 21.6395C9.17882 21.5378 9.0836 21.4142 9.01503 21.2758C8.94646 21.1374 8.90589 20.9868 8.89563 20.8327C8.87587 20.5357 8.9704 20.2276 9.18438 19.9838C9.29181 19.862 9.41813 19.7667 9.55391 19.7006C9.69399 19.6319 9.84868 19.5924 10.0051 19.5839L17.8194 18.8844L20.9174 11.6387C21.0446 11.3409 21.2827 11.1203 21.562 11.0088C22.1652 10.7659 22.8399 11.0594 23.0865 11.6473L23.0908 11.6585ZM35.7881 26.0493L37.8265 30.8179L43.0403 31.2823C43.3239 31.314 43.5723 31.4565 43.745 31.6616C43.9195 31.8693 44.0166 32.1388 43.9977 32.4229L43.9934 32.4787C43.9778 32.6044 43.9403 32.7264 43.8825 32.8392C43.8206 32.9619 43.7338 33.0727 43.6299 33.1636L39.7042 36.5873L40.8704 41.6847C40.9288 41.967 40.8704 42.2494 40.7269 42.4777C40.5808 42.7103 40.3453 42.888 40.0583 42.9549L40.0153 42.9627C39.8813 42.9884 39.7489 42.9884 39.6243 42.9661L39.5435 42.9463C39.4275 42.9172 39.3192 42.87 39.223 42.8064L34.786 40.1561L30.3121 42.8279C30.1908 42.9007 30.0564 42.9488 29.9164 42.9696C29.7765 42.9903 29.6338 42.9833 29.4966 42.9489C29.2302 42.882 28.987 42.712 28.834 42.4571C28.7618 42.3361 28.7154 42.2056 28.6939 42.0752L28.6931 42.0683C28.675 41.961 28.6759 41.8503 28.6931 41.7413L29.268 39.2214C29.3616 39.2471 29.4579 39.2686 29.5541 39.2858C29.8764 39.3441 30.209 39.3579 30.539 39.321L30.0345 41.525L34.462 38.8815C34.6554 38.7665 34.9038 38.7579 35.11 38.8815L39.5375 41.525L38.3885 36.5023C38.3395 36.2835 38.4083 36.0449 38.5888 35.887L42.4748 32.4985L37.377 32.041C37.256 32.0379 37.1384 32.0001 37.0382 31.9321C36.9381 31.8641 36.8597 31.7687 36.8124 31.6573L34.786 26.9196L32.7605 31.6573C32.7381 31.7097 32.7081 31.7586 32.6728 31.8024L32.2036 29.7502L33.8227 25.9669C33.9447 25.7249 34.1484 25.5464 34.3847 25.4511C34.621 25.3567 34.8926 25.3438 35.147 25.4348C35.1891 25.4485 35.2295 25.4657 35.2673 25.4863C35.3756 25.5404 35.4701 25.6099 35.5509 25.6914C35.6506 25.7918 35.7296 25.9103 35.7829 26.0364L35.7881 26.0493Z" fill="#EA61D4"/>
</g>
<defs>
<clipPath id="clip0_5_1801">
<rect width="44" height="43" fill="white"/>
</clipPath>
</defs>
</svg>
