<svg width="46" height="44" viewBox="0 0 46 44" fill="none" xmlns="http://www.w3.org/2000/svg">
<g clip-path="url(#clip0_5_1793)">
<path fill-rule="evenodd" clip-rule="evenodd" d="M20.6967 0C22.8534 1.36586 25.1037 2.58187 27.4313 3.63923C26.7866 4.43776 26.2476 5.31424 25.8273 6.24747C24.0656 5.39556 22.3539 4.44627 20.7004 3.40409C15.6869 7.25315 9.91911 9.16682 3.62394 8.83039C3.14787 26.7444 9.91911 36.6854 20.7663 40.5851C28.5263 37.691 34.1183 31.8596 36.5536 22.9387H36.832C37.7579 22.9395 38.6809 22.8338 39.5822 22.624C36.8283 33.4947 30.2402 40.4621 20.7663 43.9891C7.69255 39.2827 -0.0454912 27.7284 0.52946 6.1498C7.4069 6.51155 14.1562 5.0356 20.6967 0.0180876V0Z" fill="#FFC046"/>
<path fill-rule="evenodd" clip-rule="evenodd" d="M15.2585 19.2055H15.8079V18.0081C15.8049 16.6777 16.3218 15.3974 17.2507 14.434C17.7005 13.9589 18.2444 13.5801 18.8485 13.3211C19.4526 13.0621 20.1041 12.9285 20.7627 12.9285C21.4212 12.9285 22.0728 13.0621 22.6769 13.3211C23.281 13.5801 23.8248 13.9589 24.2747 14.434C25.2126 15.3933 25.7377 16.6744 25.7395 18.0081V19.2055H26.2852C26.4998 19.2055 26.7057 19.2898 26.8574 19.4397C27.0092 19.5896 27.0945 19.793 27.0945 20.005V28.4519C27.0935 28.6637 27.0079 28.8665 26.8564 29.0162C26.7048 29.1659 26.4995 29.2505 26.2852 29.2514H15.2585C15.0442 29.2505 14.8389 29.1659 14.6873 29.0162C14.5358 28.8665 14.4502 28.6637 14.4492 28.4519V20.005C14.4492 19.793 14.5345 19.5896 14.6863 19.4397C14.838 19.2898 15.0439 19.2055 15.2585 19.2055ZM17.3386 19.2055H24.1904V18.0081C24.1964 17.0662 23.8329 16.1587 23.176 15.4759C22.8676 15.1488 22.4943 14.8881 22.0795 14.7098C21.6646 14.5314 21.217 14.4394 20.7645 14.4394C20.3121 14.4394 19.8645 14.5314 19.4496 14.7098C19.0347 14.8881 18.6614 15.1488 18.353 15.4759C17.6962 16.1587 17.3326 17.0662 17.3386 18.0081V19.2055ZM20.0999 24.5993L19.2283 26.8602H22.3008L21.4915 24.5667C21.8108 24.4037 22.0648 24.1386 22.2119 23.8146C22.359 23.4907 22.3907 23.127 22.3016 22.783C22.2126 22.439 22.0082 22.135 21.7217 21.9205C21.4352 21.7061 21.0835 21.5939 20.7242 21.6023C20.3648 21.6108 20.019 21.7392 19.7431 21.9668C19.4672 22.1944 19.2775 22.5077 19.2051 22.8555C19.1326 23.2032 19.1817 23.565 19.3442 23.8817C19.5067 24.1984 19.7731 24.4514 20.0999 24.5993Z" fill="#FFC046"/>
<path fill-rule="evenodd" clip-rule="evenodd" d="M36.8391 2.50342C38.5521 2.50342 40.2266 3.00519 41.6508 3.94527C43.0751 4.88536 44.1852 6.22154 44.8407 7.78484C45.4963 9.34815 45.6678 11.0684 45.3336 12.728C44.9994 14.3876 44.1745 15.912 42.9633 17.1085C41.752 18.305 40.2088 19.1198 38.5288 19.4499C36.8487 19.7801 35.1073 19.6106 33.5247 18.9631C31.9422 18.3155 30.5895 17.219 29.6378 15.812C28.6862 14.4051 28.1782 12.751 28.1782 11.0589C28.1782 8.78983 29.0907 6.61371 30.7149 5.00925C32.3392 3.40479 34.5421 2.50342 36.8391 2.50342ZM34.8469 10.8527C35.096 11.0589 35.3298 11.2825 35.5464 11.5219C36.2092 10.472 36.9433 9.46763 37.7437 8.51575C39.9409 5.91837 38.9338 6.4212 41.9551 6.4212L41.5156 6.89148C40.4927 8.03741 39.5633 9.26155 38.7361 10.5524C37.6882 12.0479 36.7378 13.6078 35.8906 15.2227L35.6306 15.7219L35.3889 15.2154C34.9624 14.2948 34.4224 13.4297 33.7812 12.6397C33.2029 11.919 32.5133 11.2928 31.7378 10.7839C32.1296 9.50695 34.0046 10.1617 34.8433 10.8635L34.8469 10.8527Z" fill="#FFC046"/>
</g>
<defs>
<clipPath id="clip0_5_1793">
<rect width="45" height="44" fill="white" transform="translate(0.5)"/>
</clipPath>
</defs>
</svg>
