<svg width="42" height="40" viewBox="0 0 42 40" fill="none" xmlns="http://www.w3.org/2000/svg">
<g clip-path="url(#clip0_5_1756)">
<path d="M21.3235 2.7418C21.1361 2.75092 20.9489 2.72223 20.7731 2.65745C20.5973 2.59267 20.4366 2.49316 20.3007 2.36496C20.1649 2.23676 20.0567 2.08254 19.9828 1.91166C19.9089 1.74078 19.8708 1.55679 19.8708 1.37087C19.8708 1.18495 19.9089 1.00097 19.9828 0.830085C20.0567 0.659202 20.1649 0.504982 20.3007 0.376782C20.4366 0.248582 20.5973 0.149074 20.7731 0.0842964C20.9489 0.0195186 21.1361 -0.00917897 21.3235 -5.51951e-05C25.7892 -0.00257076 30.1299 1.46241 33.6662 4.16568C37.2026 6.86896 39.7352 10.658 40.8678 14.94C42.0004 19.222 41.669 23.7554 39.9256 27.8308C38.1822 31.9063 35.1251 35.2939 31.2326 37.4637C27.34 39.6334 22.8317 40.4629 18.4129 39.8223C13.9942 39.1818 9.91428 37.1073 6.81158 33.9235C3.70888 30.7396 1.75842 26.6261 1.26537 22.2264C0.77232 17.8268 1.7645 13.3892 4.08666 9.60802L2.37499 10.253C2.20542 10.317 2.02478 10.3474 1.84339 10.3422C1.66199 10.3371 1.48339 10.2966 1.31779 10.223C1.15218 10.1495 1.00282 10.0443 0.878213 9.91352C0.753611 9.78275 0.656215 9.62892 0.591585 9.46083C0.46106 9.12136 0.471924 8.7444 0.621786 8.41287C0.771649 8.08134 1.04823 7.8224 1.3907 7.69302L5.83837 6.01284C5.97849 5.96071 6.12597 5.93058 6.27546 5.92354C6.60837 5.86375 6.95183 5.92745 7.24041 6.1025C7.529 6.27755 7.74253 6.55172 7.84032 6.87277L9.22167 11.3775C9.32786 11.7244 9.29067 12.0989 9.11828 12.4187C8.94589 12.7384 8.65243 12.9772 8.30244 13.0825C7.95246 13.1877 7.57462 13.1509 7.25206 12.98C6.92949 12.8091 6.68862 12.5182 6.58243 12.1713L6.30216 11.2452C4.35482 14.5278 3.55655 18.3564 4.03152 22.1353C4.50648 25.9142 6.22806 29.4315 8.92843 32.1402C11.6288 34.8488 15.1566 36.5968 18.9629 37.1123C22.7692 37.6278 26.6407 36.8819 29.9751 34.9906C33.3095 33.0992 35.9198 30.1686 37.4 26.6544C38.8801 23.1403 39.1472 19.2398 38.1595 15.5597C37.1719 11.8796 34.9849 8.62619 31.9389 6.30565C28.8928 3.98512 25.1585 2.72754 21.3168 2.72857L21.3235 2.7418ZM21.3235 12.2275C24.6334 12.2275 27.3293 13.4744 27.3293 15.009C27.3293 16.5437 24.6601 17.7906 21.3235 17.7906C17.9869 17.7906 15.3176 16.547 15.3176 15.009C15.3176 13.4711 17.9869 12.2275 21.3235 12.2275ZM15.3176 22.7286V24.8652C16.382 28.6224 26.9223 27.8948 27.3093 24.6733V22.54C26.7921 26.0757 16.1818 26.3304 15.3276 22.7286H15.3176ZM15.2876 16.375V18.4587C16.3553 22.1266 26.949 21.6305 27.3393 18.4851V16.4015C26.8222 19.8445 16.1384 19.8908 15.2976 16.375H15.2876ZM15.2876 19.4674V21.604C16.3553 25.358 26.949 24.8486 27.3393 21.6272V19.4939C26.8122 23.0329 16.1284 23.0692 15.2876 19.4674ZM15.2876 8.17259C15.1677 7.87961 15.1701 7.55142 15.2943 7.2602C15.4185 6.96899 15.6543 6.73861 15.9499 6.61976C16.2455 6.5009 16.5766 6.50329 16.8703 6.62642C17.1641 6.74954 17.3965 6.9833 17.5164 7.27628L18.414 9.43934C18.4736 9.58462 18.5037 9.74012 18.5027 9.89695C18.5016 10.0538 18.4694 10.2089 18.4079 10.3534C18.3464 10.4979 18.2568 10.629 18.1442 10.7391C18.0316 10.8493 17.8982 10.9364 17.7517 10.9955C17.6051 11.0545 17.4482 11.0844 17.29 11.0834C17.1318 11.0824 16.9753 11.0505 16.8296 10.9895C16.6838 10.9285 16.5515 10.8397 16.4404 10.7281C16.3293 10.6165 16.2414 10.4842 16.1818 10.339L15.2843 8.17259H15.2876ZM8.13728 19.183C7.98085 19.1613 7.83028 19.1092 7.69414 19.0298C7.55801 18.9504 7.43898 18.8452 7.34386 18.7202C7.15177 18.4678 7.0687 18.15 7.11295 17.8369C7.15719 17.5237 7.32513 17.2408 7.5798 17.0504C7.83447 16.86 8.15502 16.7777 8.47094 16.8215L10.8066 17.1324C10.963 17.1541 11.1136 17.2062 11.2497 17.2856C11.3858 17.365 11.5049 17.4702 11.6 17.5952C11.6951 17.7202 11.7644 17.8625 11.8041 18.0141C11.8437 18.1657 11.8528 18.3235 11.8309 18.4785C11.809 18.6336 11.7565 18.7829 11.6764 18.9178C11.5963 19.0527 11.4901 19.1707 11.364 19.265C11.2379 19.3593 11.0943 19.428 10.9414 19.4673C10.7885 19.5066 10.6293 19.5156 10.4729 19.4939L8.13728 19.183ZM14.1798 30.8119C13.9852 31.0619 13.6983 31.225 13.3823 31.2653C13.0663 31.3056 12.7471 31.2199 12.4949 31.0269C12.2427 30.8339 12.0781 30.5495 12.0375 30.2363C11.9968 29.9231 12.0833 29.6066 12.278 29.3566L13.7194 27.5045C13.8158 27.3807 13.9358 27.277 14.0727 27.1992C14.2095 27.1214 14.3605 27.071 14.517 27.0511C14.6734 27.0311 14.8323 27.0419 14.9846 27.0828C15.1369 27.1237 15.2795 27.194 15.4044 27.2895C15.5292 27.3851 15.6339 27.5041 15.7124 27.6397C15.7909 27.7754 15.8416 27.925 15.8618 28.0801C15.8819 28.2352 15.871 28.3927 15.8298 28.5436C15.7885 28.6946 15.7176 28.836 15.6213 28.9598L14.1798 30.8119ZM27.3527 31.4536C27.4125 31.598 27.443 31.7527 27.4425 31.9088C27.442 32.0649 27.4105 32.2194 27.3498 32.3634C27.2891 32.5074 27.2003 32.6382 27.0886 32.7483C26.9769 32.8583 26.8444 32.9455 26.6987 33.0047C26.553 33.064 26.397 33.0943 26.2395 33.0938C26.082 33.0933 25.9262 33.0621 25.7809 33.0019C25.6355 32.9417 25.5036 32.8537 25.3926 32.743C25.2816 32.6322 25.1937 32.5009 25.1339 32.3565L24.2363 30.1934C24.1246 29.9031 24.1318 29.581 24.2564 29.2959C24.381 29.0108 24.613 28.7853 24.9031 28.6674C25.1931 28.5496 25.5181 28.5488 25.8087 28.6652C26.0993 28.7816 26.3325 29.006 26.4585 29.2905L27.3527 31.4536ZM34.5063 20.4531C34.8231 20.4934 35.1108 20.6569 35.306 20.9074C35.5013 21.158 35.5881 21.4752 35.5474 21.7893C35.5066 22.1033 35.3418 22.3884 35.089 22.582C34.8362 22.7755 34.5162 22.8615 34.1994 22.8212L31.8638 22.4904C31.5478 22.4466 31.2624 22.2801 31.0703 22.0277C30.8782 21.7752 30.7952 21.4575 30.8394 21.1443C30.8837 20.8312 31.0516 20.5483 31.3063 20.3578C31.561 20.1674 31.8815 20.0851 32.1974 20.1289L34.533 20.4398L34.5063 20.4531ZM28.4771 8.81423C28.5705 8.68271 28.6899 8.57132 28.8279 8.48677C28.966 8.40223 29.1199 8.34628 29.2803 8.32232C29.4408 8.29835 29.6045 8.30686 29.7615 8.34733C29.9186 8.3878 30.0657 8.4594 30.1941 8.55779C30.3224 8.65619 30.4294 8.77934 30.5084 8.91983C30.5874 9.06031 30.6369 9.21521 30.6539 9.37518C30.6708 9.53515 30.6549 9.69687 30.6071 9.85057C30.5593 10.0043 30.4806 10.1468 30.3756 10.2695L28.9342 12.1217C28.8408 12.2532 28.7215 12.3646 28.5834 12.4491C28.4454 12.5337 28.2915 12.5896 28.1311 12.6136C27.9706 12.6375 27.8069 12.629 27.6499 12.5886C27.4928 12.5481 27.3457 12.4765 27.2173 12.3781C27.0889 12.2797 26.982 12.1565 26.903 12.0161C26.824 11.8756 26.7745 11.7207 26.7575 11.5607C26.7405 11.4007 26.7564 11.239 26.8043 11.0853C26.8521 10.9316 26.9308 10.7891 27.0357 10.6664L28.4771 8.81423Z" fill="#117FEE"/>
</g>
<defs>
<clipPath id="clip0_5_1756">
<rect width="41" height="40" fill="white" transform="translate(0.5)"/>
</clipPath>
</defs>
</svg>
