<svg width="40" height="40" viewBox="0 0 40 40" fill="none" xmlns="http://www.w3.org/2000/svg">
<g clip-path="url(#clip0_5_1738)">
<path d="M24.3545 40C24.307 39.969 24.2562 39.9436 24.203 39.9241C23.1339 39.6562 22.5146 38.8766 22.5146 37.772C22.5146 32.5926 22.5146 27.4111 22.5146 22.2276C22.5146 20.9711 23.3334 20.054 24.5924 20.0379C27.3909 20.0022 30.1912 20.0281 32.9907 20.0281C33.5751 20.0281 34.0438 20.2835 34.4456 20.6863C36.0903 22.3338 37.7422 23.9734 39.3709 25.6388C39.6382 25.9139 39.7941 26.3005 40.0008 26.6345V38.2185C39.7237 39.1757 39.1098 39.7749 38.1342 40H24.3545ZM38.1993 38.1952C38.2108 38.0613 38.2233 37.989 38.2233 37.9166C38.2233 34.3232 38.2233 30.7307 38.2144 27.1382C38.1964 26.9403 38.1097 26.7551 37.9694 26.6149C36.485 25.1021 34.9829 23.6055 33.4967 22.0927C33.4083 21.9969 33.2998 21.9218 33.1791 21.8728C33.0583 21.8239 32.9283 21.8023 32.7982 21.8096C30.1324 21.8186 27.4667 21.815 24.8 21.815H24.3091C24.301 22.0061 24.2904 22.1374 24.2904 22.2677C24.2904 27.4191 24.2877 32.5705 24.2823 37.7219C24.2823 38.0791 24.3643 38.2042 24.7456 38.2033C29.0855 38.1899 33.4246 38.1952 37.7645 38.1952H38.1993Z" fill="#1CC77D"/>
<path d="M17.5326 0.00263284C21.9625 0.00263284 26.3915 -0.00897666 30.8214 0.0160272C31.4113 0.0259817 31.9956 0.133392 32.5507 0.333934C34.0565 0.869732 34.9866 2.31014 34.9929 4.06577C35.0053 8.03008 35.0021 11.9944 34.9831 15.9587C34.9651 16.2943 34.8557 16.6186 34.6668 16.8963C34.4396 17.2419 34.0431 17.3473 33.6386 17.2375C33.21 17.1214 33.031 16.7856 32.9864 16.3748C32.9613 16.094 32.9509 15.812 32.9552 15.5301C32.9552 11.8331 32.9552 8.13605 32.9552 4.43904C32.9552 2.94863 32.0705 2.06724 30.5763 2.06724C21.8662 2.06724 13.1553 2.07885 4.44426 2.05385C4.13247 2.04674 3.82248 2.10313 3.53307 2.2196C3.24366 2.33607 2.98083 2.51019 2.76051 2.73143C2.54019 2.95267 2.36697 3.21642 2.25131 3.50671C2.13565 3.797 2.07998 4.1078 2.08765 4.42029C2.12626 11.7101 2.12626 19.0002 2.08765 26.2907C2.07874 27.7695 2.94565 28.8652 4.67146 28.8491C8.25671 28.8161 11.842 28.8384 15.4272 28.8393C16.5231 28.8393 17.6199 28.8277 18.7149 28.8527C19.3011 28.8661 19.6255 29.1786 19.695 29.693C19.7198 29.9318 19.6627 30.1719 19.5331 30.3738C19.4036 30.5758 19.2093 30.7274 18.9822 30.8039C18.8003 30.8648 18.61 30.8967 18.4182 30.8985C17.8703 30.911 17.3223 30.8985 16.7735 30.8985C12.5521 30.8985 8.32977 30.9093 4.10747 30.8923C2.82537 30.8869 1.69651 30.4619 0.870586 29.417C0.26651 28.6535 0.0152573 27.7552 0.0134754 26.8033C0.00397174 19.2306 0.00397174 11.6583 0.0134754 4.08631C0.0134754 1.64843 1.71701 -4.50613e-05 4.15915 -0.00183105C8.61637 -0.000640392 13.0742 0.000846845 17.5326 0.00263284Z" fill="#1CC77D"/>
<path d="M17.888 23.3768L20.0896 22.0069C20.1172 22.6097 20.1439 23.1883 20.1787 23.8635C19.3545 24.3448 18.4449 24.8922 17.5192 25.411C17.0897 25.6512 16.6487 25.5351 16.2567 25.2914C13.4774 23.5649 10.7021 21.8346 7.93056 20.1004C7.7248 19.9808 7.55576 19.8069 7.44186 19.5976C7.32795 19.3883 7.27356 19.1517 7.28461 18.9136C7.2953 15.975 7.2953 13.0359 7.28461 10.0961C7.28461 9.53264 7.5225 9.17634 8.01698 8.94773C10.6739 7.72075 13.3283 6.48991 15.9805 5.25519C16.1909 5.14878 16.4216 5.08848 16.6571 5.07832C16.8925 5.06816 17.1275 5.10836 17.3463 5.19625C20.4576 6.36429 23.5751 7.51804 26.689 8.67894C27.1345 8.84503 27.3884 9.18973 27.3964 9.66123C27.4134 10.715 27.4044 11.7687 27.3964 12.8233C27.3964 12.918 27.3733 13.068 27.3136 13.0984C26.836 13.3422 26.3478 13.5636 25.7989 13.819V11.4151C24.9391 11.866 24.1578 12.2741 23.379 12.6858C21.6818 13.5851 19.9889 14.4923 18.2845 15.3782C18.0003 15.5255 17.8773 15.6818 17.88 16.0176C17.896 18.3028 17.888 20.5888 17.888 22.8749V23.3768ZM25.2136 9.96128C25.1619 9.91663 25.1449 9.89341 25.1245 9.88448C22.415 8.82628 19.7065 7.7654 16.9908 6.72328C16.8278 6.66077 16.5819 6.7072 16.4117 6.78489C14.6787 7.57877 12.9529 8.38782 11.2263 9.19598C10.5928 9.49157 9.96197 9.79072 9.27681 10.1122C9.43986 10.2086 9.53698 10.272 9.63944 10.3256C11.9943 11.5651 14.3473 12.8082 16.711 14.0298C16.8661 14.1093 17.1396 14.0789 17.3062 13.9958C18.9215 13.1921 20.5262 12.3706 22.1317 11.5499C23.1545 11.0248 24.1765 10.4962 25.2136 9.96128ZM8.81975 11.8518C8.81975 14.1735 8.8144 16.3828 8.83222 18.5948C8.83222 18.7403 8.98814 18.935 9.12535 19.0198C10.9474 20.1539 12.7783 21.272 14.6101 22.3936L16.1765 23.3518V22.8937C16.1765 20.5924 16.1702 18.2903 16.1827 15.989C16.1827 15.6809 16.0936 15.5148 15.8138 15.3755C14.2359 14.5941 12.6696 13.7905 11.0988 12.9966C10.3665 12.6251 9.63053 12.2581 8.82064 11.8518H8.81975Z" fill="#1CC77D"/>
<path d="M31.0431 31.2664C29.6372 31.2664 28.2321 31.2718 26.8262 31.2664C26.1196 31.2664 25.757 30.9307 25.7793 30.3475C25.776 30.175 25.8319 30.0065 25.9376 29.8703C26.0434 29.7341 26.1925 29.6384 26.3602 29.5992C26.5595 29.5436 26.7655 29.5163 26.9723 29.5179C29.6654 29.5126 32.3585 29.5126 35.0516 29.5179C35.3163 29.5234 35.5787 29.5682 35.8303 29.651C36.1867 29.7635 36.3337 30.0537 36.3328 30.4091C36.3319 30.7646 36.1689 31.0476 35.8214 31.1619C35.611 31.2287 35.3916 31.2625 35.171 31.262C33.7989 31.2709 32.4188 31.2664 31.0431 31.2664Z" fill="#1CC77D"/>
<path d="M31.0564 35.0081C29.6362 35.0081 28.2169 35.0162 26.7976 35.0081C26.0848 35.0019 25.6331 34.5277 25.8291 33.9615C25.9129 33.7195 26.1659 33.4865 26.4011 33.3641C26.6203 33.2498 26.9188 33.2623 27.1816 33.2614C29.7696 33.2555 32.3575 33.2555 34.9455 33.2614C35.1815 33.2602 35.417 33.283 35.6485 33.3293C36.094 33.4186 36.3336 33.7043 36.3461 34.1205C36.3604 34.567 36.1323 34.8599 35.6654 34.9715C35.5065 35.0033 35.3445 35.0168 35.1825 35.0117C33.8069 35.0117 32.4315 35.0105 31.0564 35.0081Z" fill="#1CC77D"/>
<path d="M28.8415 27.5239C28.1902 27.5239 27.538 27.531 26.8867 27.5239C26.6957 27.5219 26.506 27.4918 26.3236 27.4346C25.9557 27.3131 25.7891 27.0274 25.7891 26.6496C25.7891 26.2719 25.986 25.9906 26.3486 25.8817C26.5904 25.8137 26.8405 25.7797 27.0917 25.7808C28.2499 25.7709 29.401 25.7727 30.5557 25.7808C30.7772 25.7803 30.9979 25.8061 31.2133 25.8576C31.5955 25.9531 31.8254 26.1951 31.8423 26.6121C31.8592 27.0292 31.6864 27.331 31.2721 27.4507C31.1022 27.4996 30.9267 27.5257 30.75 27.5284C30.1147 27.5293 29.4777 27.5239 28.8415 27.5239Z" fill="#1CC77D"/>
</g>
<defs>
<clipPath id="clip0_5_1738">
<rect width="40" height="40" fill="white"/>
</clipPath>
</defs>
</svg>
