<svg width="36" height="43" viewBox="0 0 36 43" fill="none" xmlns="http://www.w3.org/2000/svg">
<g clip-path="url(#clip0_5_1783)">
<path d="M21.492 0C22.1553 0.189114 22.4618 0.626942 22.4466 1.29973C22.4396 1.55532 22.4782 1.81091 22.4747 2.0665C22.467 2.12998 22.4843 2.19394 22.5229 2.24543C22.5616 2.29692 22.6188 2.33211 22.6829 2.34387C24.6132 3.03156 26.4184 3.94848 28.0223 5.21497C30.4522 7.13935 32 9.58408 32.5369 12.6156C32.6539 13.2403 32.6902 13.8764 32.7709 14.5056C32.847 15.0718 33.2389 15.3985 33.7197 15.6426C33.783 15.6632 33.85 15.6698 33.9162 15.6621C34.2298 15.6621 34.5433 15.6621 34.8521 15.6621C35.0016 15.6616 35.1497 15.6902 35.2879 15.746C35.426 15.8018 35.5516 15.8838 35.6573 15.9874C35.7629 16.0909 35.8467 16.2139 35.9037 16.3493C35.9607 16.4847 35.9898 16.6297 35.9893 16.7762C35.9893 18.2386 35.9893 19.7011 35.9893 21.1636C35.9893 21.8845 35.5213 22.3556 34.7796 22.3705C34.3854 22.3774 33.9911 22.3705 33.5746 22.3705C33.6004 22.4267 33.6319 22.5035 33.6706 22.5757C34.104 23.3869 34.344 24.2839 34.3725 25.1992C34.4006 26.6995 33.8273 27.9774 32.7966 29.0617C32.4585 29.4182 32.0608 29.7219 31.6969 30.0566C31.6276 30.1179 31.5777 30.1975 31.553 30.2858C31.1013 32.3853 30.3337 34.4074 29.2753 36.2859C28.1124 38.318 26.6184 40.0578 24.5781 41.3014C23.107 42.1998 21.4421 42.7492 19.716 42.906C17.9167 43.0779 16.1303 43.0275 14.372 42.5622C12.6834 42.1139 11.125 41.2854 9.82108 40.1427C7.87321 38.4555 6.56878 36.3397 5.59894 34.0073C5.10691 32.8261 4.72398 31.604 4.45478 30.3557C4.41908 30.2201 4.33945 30.0994 4.22783 30.0119C3.21236 29.2199 2.37237 28.2926 1.92898 27.0789C1.3686 25.5373 1.57801 24.0496 2.30334 22.6089C2.3361 22.5436 2.37119 22.4794 2.40278 22.4129C2.40278 22.4014 2.40278 22.3854 2.40278 22.3556C2.18635 22.3556 1.96758 22.3556 1.74998 22.3556C1.47676 22.3646 1.20323 22.3566 0.931056 22.3315C0.669712 22.2937 0.431101 22.1647 0.259138 21.9682C0.0871748 21.7717 -0.00657028 21.521 -0.00485981 21.2622C-0.00485981 19.763 -0.00485981 18.2642 -0.00485981 16.7658C-0.00278267 16.4776 0.11405 16.2016 0.32076 15.9965C0.52747 15.7914 0.807721 15.6735 1.10186 15.6678C1.3487 15.6678 1.59439 15.6678 1.84124 15.6678C2.17394 15.6719 2.49675 15.5571 2.74932 15.3449C3.00189 15.1326 3.16691 14.8376 3.21352 14.5148C3.3036 13.9154 3.34455 13.3102 3.4475 12.7119C3.78873 10.5282 4.76332 8.48645 6.25525 6.82989C7.65093 5.2654 9.3543 4.10779 11.2472 3.1989C11.301 3.17368 11.3548 3.14847 11.4098 3.12669C11.4203 3.12669 11.4379 3.12669 11.473 3.13471C11.4472 3.5542 11.4215 3.97484 11.3934 4.39547C11.3712 4.73932 11.3349 5.08316 11.3232 5.42701C11.3268 5.49109 11.3109 5.55477 11.2776 5.61003C11.2443 5.6653 11.195 5.70968 11.136 5.73761C10.1364 6.29462 9.22124 6.98596 8.41721 7.79151C6.9245 9.27379 5.96201 11.1899 5.67381 13.2529C5.58841 13.8455 5.54746 14.4449 5.43983 15.0317C5.23978 16.0816 4.62792 16.8656 3.70604 17.4191C3.27552 17.677 2.85554 17.9716 2.29516 17.9074V20.0954C2.63443 20.1103 2.96667 20.1286 3.30009 20.1378C4.57645 20.1768 5.80017 20.4633 7.0075 20.8599C8.54802 21.3837 10.1449 21.7325 11.7666 21.8994C13.2875 22.0416 14.8083 22.1103 16.3386 22.2112C16.8732 22.2467 17.409 22.2857 17.9437 22.3143C18.1069 22.3166 18.2701 22.3109 18.4327 22.2971C19.8553 22.2364 21.2802 22.2032 22.7016 22.1103C24.8498 21.9681 26.9692 21.5465 29.0038 20.8564C30.461 20.3567 31.9945 20.104 33.5384 20.1091C33.5887 20.1091 33.639 20.1091 33.6998 20.1011V17.9234C32.916 17.9234 32.3392 17.4787 31.7695 17.0375C30.9833 16.4289 30.5996 15.5945 30.4826 14.6397C30.3551 13.5222 30.2299 12.4082 29.831 11.3423C29.115 9.43279 27.8784 7.913 26.2417 6.69006C25.1201 5.86576 23.89 5.19377 22.5846 4.69233L23.0994 16.6879L20.8204 16.7819C20.611 11.9337 20.4028 7.10382 20.1934 2.25905H15.7794C15.5711 7.08777 15.3629 11.9131 15.1535 16.7796L12.9435 16.6925C12.9435 16.0988 12.9272 15.5303 12.9435 14.9629C12.988 13.7217 13.0512 12.4804 13.1061 11.2391C13.1756 9.6475 13.245 8.0555 13.3144 6.46312C13.3651 5.2803 13.415 4.09595 13.4641 2.91007C13.491 2.2751 13.5098 1.63899 13.5554 1.00402C13.5882 0.566194 13.8432 0.264758 14.2515 0.0871048L14.4492 0.00114377L21.492 0ZM4.96602 22.5665C4.71098 23.01 4.43021 23.4181 4.2325 23.8616C3.66627 25.1316 3.79496 26.3385 4.74608 27.3895C5.138 27.8227 5.61648 28.1838 6.07625 28.5517C6.33886 28.7348 6.51976 29.0097 6.58165 29.3196C6.94631 31.542 7.73363 33.6776 8.90272 35.6154C10.0024 37.4125 11.432 38.8785 13.3764 39.8126C14.6219 40.399 15.9807 40.7182 17.3622 40.749C18.264 40.7951 19.1681 40.7486 20.06 40.6103C22.5378 40.1816 24.5126 38.9335 26.0557 37.016C27.8679 34.7661 28.8705 32.1678 29.4098 29.378C29.4712 29.0387 29.6656 28.7364 29.9515 28.5356C30.3667 28.2386 30.7578 27.9106 31.1214 27.5545C31.9333 26.7121 32.2819 25.7207 32.0081 24.5562C31.835 23.825 31.4536 23.1957 30.995 22.594C30.8558 22.6307 30.7119 22.6616 30.5715 22.7086C29.122 23.1671 27.6655 23.6083 26.1668 23.8937C24.954 24.1306 23.7258 24.2838 22.491 24.3522C21.5972 24.3996 20.7034 24.4378 19.8096 24.4668C19.0574 24.492 18.304 24.5218 17.5506 24.5092C16.7972 24.4966 16.0765 24.4427 15.3407 24.3946C13.9508 24.2972 12.5575 24.2284 11.1747 24.0725C9.66089 23.8876 8.16793 23.5653 6.71502 23.1098C6.1406 22.9321 5.56852 22.7522 4.96602 22.5665Z" fill="#777DFF"/>
<path d="M17.9973 37.1798C17.0573 37.1806 16.1265 36.9991 15.2585 36.6457C14.977 36.5384 14.7504 36.3261 14.6283 36.0555C14.5061 35.7848 14.4984 35.4777 14.6069 35.2015C14.6601 35.0649 14.7404 34.94 14.8432 34.834C14.946 34.728 15.0692 34.643 15.2058 34.5839C15.3423 34.5249 15.4895 34.493 15.6387 34.49C15.7879 34.487 15.9362 34.513 16.0751 34.5666C16.8391 34.852 17.6229 35.025 18.4348 34.9104C18.9394 34.8313 19.4366 34.7125 19.9217 34.5551C20.5804 34.3568 21.2191 34.6537 21.4145 35.2875C21.4967 35.5522 21.4746 35.8374 21.3527 36.0869C21.2307 36.3364 21.0178 36.5321 20.7559 36.6354C19.883 36.9967 18.9448 37.1819 17.9973 37.1798Z" fill="#777DFF"/>
<path d="M11.0518 27.1236C11.0551 26.7436 11.2123 26.3805 11.4888 26.114C11.7654 25.8476 12.1386 25.6997 12.5265 25.7029C12.9143 25.7061 13.285 25.8601 13.5569 26.1311C13.8289 26.402 13.9798 26.7677 13.9765 27.1477C13.9749 27.3358 13.9355 27.5218 13.8605 27.695C13.7855 27.8682 13.6765 28.0253 13.5395 28.1572C13.4026 28.2891 13.2405 28.3933 13.0625 28.4638C12.8844 28.5344 12.6939 28.5699 12.5019 28.5683C12.3099 28.5667 12.12 28.5281 11.9432 28.4546C11.7664 28.3812 11.6061 28.2743 11.4714 28.1402C11.3368 28.006 11.2304 27.8472 11.1584 27.6728C11.0864 27.4983 11.0502 27.3117 11.0518 27.1236Z" fill="#777DFF"/>
<path d="M24.943 27.1303C24.9421 27.4136 24.8553 27.6902 24.6937 27.9251C24.5322 28.16 24.3031 28.3426 24.0354 28.4497C23.7678 28.5569 23.4738 28.5838 23.1905 28.5271C22.9073 28.4704 22.6476 28.3325 22.4444 28.131C22.2412 27.9295 22.1036 27.6735 22.0491 27.3953C21.9946 27.1172 22.0256 26.8294 22.1383 26.5685C22.2509 26.3077 22.44 26.0854 22.6817 25.93C22.9234 25.7745 23.2067 25.6929 23.4958 25.6954C23.6871 25.6961 23.8764 25.7339 24.0528 25.8065C24.2292 25.8791 24.3892 25.9851 24.5236 26.1184C24.6581 26.2517 24.7644 26.4097 24.8363 26.5834C24.9083 26.7571 24.9445 26.9429 24.943 27.1303Z" fill="#777DFF"/>
</g>
<defs>
<clipPath id="clip0_5_1783">
<rect width="36" height="43" fill="white"/>
</clipPath>
</defs>
</svg>
