<svg width="38" height="42" viewBox="0 0 38 42" fill="none" xmlns="http://www.w3.org/2000/svg">
<g clip-path="url(#clip0_5_1750)">
<path fill-rule="evenodd" clip-rule="evenodd" d="M18.9322 0C26.0237 4.52197 32.4101 6.66846 37.9152 6.15234C38.8813 25.7168 31.7152 37.1772 19.0101 41.9897C6.74235 37.4917 -0.511886 26.5269 0.0270967 5.86182C6.46777 6.20361 12.8068 4.79883 18.9322 0ZM11.5254 15.7568C14.8712 12.0381 18.7288 10.0181 21.6203 13.3301C22.3659 13.3496 23.0786 13.6439 23.6237 14.1572C24.8135 15.2852 24.9796 17.394 24.4542 19.0688V20.5317C24.8411 20.8306 25.0975 21.2694 25.1695 21.7554C25.2403 22.1038 25.2586 22.461 25.2237 22.8149C25.1941 23.1636 25.1022 23.5041 24.9525 23.8198C24.8693 24.0165 24.739 24.1894 24.5734 24.323C24.4078 24.4566 24.212 24.5467 24.0034 24.5854C23.5864 25.0332 23.1762 25.5151 22.8135 25.9766C22.4602 26.4122 22.1331 26.8687 21.8339 27.3438C21.7646 27.4505 21.723 27.5732 21.713 27.7004C21.7029 27.8276 21.7246 27.9553 21.7762 28.0718C21.8114 28.1841 21.8408 28.2982 21.8644 28.4136C22.5966 28.5708 23.2576 28.6973 23.8508 28.8135C27.1559 29.4629 28.4746 29.7124 28.7356 33.103C33.7457 27.5522 36.3017 19.2739 35.7423 7.88525C30.8813 8.32275 25.2339 6.4292 18.9424 2.4165C13.5186 6.66162 7.91862 7.9126 2.20676 7.6084C1.89828 19.4482 4.47455 27.6855 9.2576 33.0928C9.52879 29.7124 10.8339 29.4629 14.1424 28.8408C14.739 28.728 15.4101 28.6016 16.1423 28.4409C16.1695 28.3418 16.2 28.2495 16.2339 28.1606C16.2951 28.0334 16.3209 27.8917 16.3083 27.7508C16.2958 27.6099 16.2454 27.4751 16.1627 27.3608C15.8635 26.8858 15.5364 26.4292 15.183 25.9937C14.8203 25.5322 14.4101 25.0503 13.9932 24.6025C13.7846 24.5638 13.5888 24.4737 13.4231 24.3401C13.2575 24.2065 13.1273 24.0336 13.044 23.8369C12.8951 23.5209 12.8032 23.1806 12.7729 22.832C12.7412 22.478 12.7594 22.1213 12.8271 21.7725C12.8984 21.2906 13.1509 20.8549 13.5322 20.5557L13.044 20.2617C12.9152 18.7988 13.2949 16.2456 11.5254 15.7637V15.7568ZM27.8813 33.9951C27.7661 30.502 26.7051 30.3003 23.6949 29.7363C23.0169 29.6099 22.244 29.4663 21.3593 29.2612C21.2614 29.2366 21.1746 29.1793 21.1131 29.0986C21.0515 29.0179 21.0188 28.9187 21.0203 28.8169C21.0146 28.6542 20.9861 28.4931 20.9356 28.3384C20.8377 28.1034 20.8004 27.8474 20.8271 27.594C20.8537 27.3406 20.9435 27.0981 21.0881 26.8892C21.4055 26.3765 21.753 25.8834 22.1288 25.4126C22.5423 24.8862 23.0135 24.3394 23.4847 23.8369C23.5305 23.788 23.5865 23.7501 23.6487 23.7259C23.7108 23.7016 23.7776 23.6917 23.844 23.6968C23.9695 23.6968 24.0779 23.584 24.1627 23.4165C24.2639 23.202 24.3237 22.97 24.339 22.7329C24.3647 22.4692 24.351 22.203 24.2983 21.9434C24.2271 21.6016 24.0915 21.3145 23.9017 21.2598C23.8043 21.234 23.7182 21.1764 23.6569 21.096C23.5955 21.0156 23.5624 20.9169 23.5627 20.8154V18.6792C23.5002 18.1457 23.3453 17.6274 23.1051 17.1479C22.7405 16.7452 22.3271 16.3904 21.8746 16.0918L21.8169 16.0474C21.7051 15.9653 21.5932 15.8833 21.4779 15.8115C19.6915 16.9805 18.8237 16.707 17.383 16.9497C16.0746 17.1685 15.0101 17.6572 14.461 18.5527V20.8257C14.4625 20.9274 14.4298 21.0267 14.3682 21.1074C14.3067 21.188 14.2199 21.2454 14.122 21.27C13.9423 21.3247 13.8068 21.6118 13.7356 21.9536C13.6812 22.213 13.6674 22.4795 13.6949 22.7432C13.7101 22.9802 13.7699 23.2122 13.8712 23.4268C13.9559 23.5942 14.0644 23.707 14.1898 23.707H14.2169C14.2799 23.706 14.3424 23.7179 14.4007 23.742C14.459 23.7661 14.5118 23.8019 14.5559 23.8472C15.0373 24.353 15.5085 24.9033 15.9118 25.4263C16.2898 25.8954 16.6375 26.3886 16.9525 26.9028C17.1149 27.1273 17.2147 27.3915 17.2415 27.668C17.2684 27.9445 17.2212 28.2232 17.1051 28.4751C17.0581 28.5894 17.0295 28.7106 17.0203 28.834C17.0142 28.943 16.9694 29.0462 16.8941 29.1246C16.8188 29.2031 16.718 29.2516 16.6101 29.2612C15.739 29.4595 14.9796 29.603 14.3118 29.7261C11.2949 30.2969 10.244 30.4951 10.1254 34.0088C12.6418 36.5097 15.6759 38.4181 19.0101 39.5972C22.3261 38.3818 25.3494 36.4727 27.8813 33.9951Z" fill="#EF4136"/>
</g>
<defs>
<clipPath id="clip0_5_1750">
<rect width="38" height="42" fill="white"/>
</clipPath>
</defs>
</svg>
