<svg width="52" height="46" viewBox="0 0 52 46" fill="none" xmlns="http://www.w3.org/2000/svg">
<g clip-path="url(#clip0_5_1807)">
<path d="M26 30.7421L18.8229 35.5156C18.3447 35.9652 17.5872 35.9484 17.1344 35.4736C16.6774 34.9988 16.6986 34.2466 17.1768 33.797L24.8659 28.5318L24.7347 21.9093C24.722 21.2538 25.2467 20.7118 25.9027 20.6991C26.5628 20.6865 27.1087 21.2076 27.1214 21.8589L27.2526 28.6452L34.819 33.7928C35.2972 34.2466 35.3141 34.9946 34.8613 35.4694C34.4085 35.9442 33.651 35.961 33.1729 35.5114L26 30.7421ZM21.874 5.31959C21.7217 5.32799 21.6074 5.36581 21.527 5.42044C21.4762 5.45406 21.4382 5.49608 21.417 5.5465C21.3916 5.60533 21.3789 5.67256 21.3789 5.7524C21.3874 5.98772 21.5101 6.29027 21.7471 6.64324L21.7513 6.64744L22.5257 7.87445C22.8389 8.36609 23.1647 8.86613 23.5667 9.23591C23.9561 9.58889 24.43 9.82841 25.0521 9.82841C25.7292 9.82841 26.2243 9.58048 26.6263 9.2065C27.0452 8.81991 27.3753 8.28625 27.7012 7.75259L28.5729 6.32388C28.7549 5.91208 28.8099 5.65576 28.7464 5.52969C28.6999 5.43725 28.5306 5.41204 28.2513 5.43725C28.2005 5.44145 28.154 5.42884 28.1159 5.40783C28.0736 5.40783 28.027 5.40783 27.9847 5.40363L28.0143 5.25656C28.0143 5.24816 28.0101 5.24395 28.0101 5.23555C28.0059 5.18512 28.0186 5.1347 28.0439 5.09688L28.2428 4.10099C26.6432 4.07998 25.5514 3.80265 24.2565 2.98324C23.8333 2.71431 23.7021 2.40336 23.279 2.43697C22.9574 2.50001 22.6865 2.64288 22.4749 2.86979C22.2676 3.08829 22.1152 3.39084 22.0137 3.77323L22.2126 5.32799C22.0941 5.35321 21.984 5.35321 21.874 5.31959ZM40.0622 33.2675C39.9098 33.2759 39.7956 33.3137 39.7152 33.3684C39.6644 33.402 39.6263 33.444 39.6051 33.4944C39.5798 33.5533 39.5671 33.6205 39.5671 33.7003C39.5755 33.9356 39.6982 34.2382 39.9352 34.5912L39.9395 34.5954L40.7139 35.8224C41.027 36.314 41.3529 36.8141 41.7549 37.1838C42.1442 37.5368 42.6182 37.7763 43.2402 37.7763C43.9173 37.7763 44.4124 37.5284 44.8145 37.1544C45.2334 36.7678 45.5635 36.2342 45.8893 35.7005L46.7611 34.2718C46.943 33.86 46.9981 33.6037 46.9346 33.4776C46.888 33.3852 46.7188 33.36 46.4395 33.3852C46.3887 33.3894 46.3421 33.3768 46.304 33.3558C46.2617 33.3558 46.2152 33.3558 46.1729 33.3516L46.2025 33.2045C46.2025 33.1961 46.1982 33.1919 46.1982 33.1835C46.194 33.1331 46.2067 33.0826 46.2321 33.0448L46.431 32.0489C44.8314 32.0279 43.7396 31.7506 42.4447 30.9312C42.0215 30.6622 41.8903 30.3513 41.4671 30.3849C41.1455 30.4479 40.8747 30.5908 40.6631 30.8177C40.4557 31.0362 40.3034 31.3388 40.2018 31.7212L40.4007 33.2759C40.2822 33.3011 40.1722 33.3011 40.0622 33.2675ZM40.7308 39.0664L42.1188 43.1214L42.8171 40.7136L42.4743 40.3396C42.3177 40.1169 42.2881 39.9194 42.3727 39.7513C42.5589 39.3857 42.9398 39.453 43.2995 39.453C43.6761 39.453 44.1374 39.3815 44.2559 39.848C44.2939 40.0034 44.2474 40.1673 44.1374 40.3354L43.7946 40.7094L44.4928 43.1172L45.7497 39.0622C46.6553 39.8732 49.3424 40.037 50.3411 40.5875C50.6585 40.764 50.9421 40.9867 51.1706 41.2851C51.5176 41.7431 51.7334 42.3398 51.7926 43.0961L52 45.1047C51.9492 45.6384 51.6445 45.9494 51.0394 45.9956H43.3037H35.4411C34.8402 45.9494 34.5313 45.6426 34.4805 45.1047L34.6878 43.0961C34.7471 42.3398 34.9587 41.7431 35.3099 41.2851C35.5384 40.9825 35.8262 40.7598 36.1393 40.5875C37.1423 40.0412 39.8252 39.8774 40.7308 39.0664ZM46.9642 32.986C47.1335 33.0364 47.2562 33.1373 47.3324 33.2843C47.4593 33.5365 47.4043 33.9146 47.1631 34.4609C47.1589 34.4693 47.1546 34.4777 47.1504 34.4861L46.266 35.9316C45.9232 36.4905 45.5804 37.0494 45.1149 37.478C44.6367 37.9234 44.0443 38.2176 43.2402 38.2176C42.487 38.2176 41.9199 37.9318 41.4544 37.5074C41.0059 37.0998 40.6631 36.5745 40.3372 36.0577L39.5628 34.8349C39.2793 34.4147 39.1312 34.0281 39.1227 33.7129C39.1185 33.5659 39.1439 33.4272 39.1989 33.3095C39.2581 33.1835 39.347 33.0826 39.4655 32.9986C39.5205 32.9608 39.584 32.9272 39.6559 32.9019C39.6051 32.238 39.5882 31.4018 39.6178 30.7001C39.6348 30.532 39.6686 30.3681 39.7152 30.2C39.9141 29.4983 40.4092 28.931 41.027 28.5402C41.2428 28.4015 41.4798 28.2881 41.7337 28.1998C43.2233 27.6662 45.1995 27.9561 46.2575 29.0949C46.6891 29.5571 46.96 30.1706 47.015 30.9816L46.9642 32.986ZM5.57747 33.2675C5.42513 33.2759 5.31087 33.3137 5.23047 33.3684C5.17969 33.402 5.1416 33.444 5.12044 33.4944C5.09505 33.5533 5.08236 33.6205 5.08236 33.7003C5.09082 33.9356 5.21354 34.2382 5.45052 34.5912L5.45475 34.5954L6.22917 35.8224C6.54232 36.314 6.86816 36.8141 7.27018 37.1838C7.65951 37.5368 8.13346 37.7763 8.75553 37.7763C9.43262 37.7763 9.92773 37.5284 10.3298 37.1544C10.7487 36.7678 11.0788 36.2342 11.4004 35.7005L12.2764 34.2718C12.4583 33.86 12.5133 33.6037 12.4499 33.4776C12.4033 33.3852 12.234 33.36 11.9548 33.3852C11.904 33.3894 11.8574 33.3768 11.8193 33.3558C11.777 33.3558 11.7305 33.3558 11.6882 33.3516L11.7178 33.2045C11.7178 33.1961 11.7135 33.1919 11.7135 33.1835C11.7093 33.1331 11.722 33.0826 11.7474 33.0448L11.9463 32.0489C10.3467 32.0279 9.25488 31.7506 7.95996 30.9312C7.53678 30.6622 7.4056 30.3513 6.98242 30.3849C6.66081 30.4479 6.38997 30.5908 6.17839 30.8177C5.97103 31.0362 5.81869 31.3388 5.71712 31.7212L5.91602 33.2759C5.80176 33.3011 5.6875 33.3011 5.57747 33.2675ZM6.25033 39.0664L7.63835 43.1214L8.33659 40.7136L7.99381 40.3396C7.83724 40.1169 7.80762 39.9194 7.89225 39.7513C8.07845 39.3857 8.45931 39.453 8.81901 39.453C9.19564 39.453 9.6569 39.3815 9.77539 39.848C9.81348 40.0034 9.76693 40.1673 9.6569 40.3354L9.31413 40.7094L10.0124 43.1172L11.2692 39.0622C12.1748 39.8732 14.862 40.037 15.8607 40.5875C16.1781 40.764 16.4616 40.9867 16.6901 41.2851C17.0371 41.7431 17.2529 42.3398 17.3122 43.0961L17.5195 45.1047C17.4688 45.6384 17.1641 45.9494 16.5589 45.9956H8.82324H0.960612C0.359701 45.9494 0.0507812 45.6426 0 45.1047L0.207357 43.0961C0.266602 42.3398 0.47819 41.7431 0.829427 41.2851C1.05794 40.9825 1.3457 40.7598 1.65885 40.5875C2.65755 40.0412 5.3405 39.8774 6.25033 39.0664ZM12.4837 32.986C12.653 33.0364 12.7757 33.1373 12.8519 33.2843C12.9788 33.5365 12.9238 33.9146 12.6826 34.4609C12.6784 34.4693 12.6742 34.4777 12.6699 34.4861L11.7855 35.9316C11.4427 36.4905 11.0999 37.0494 10.6344 37.478C10.1562 37.9234 9.5638 38.2176 8.75977 38.2176C8.00651 38.2176 7.43945 37.9318 6.97396 37.5074C6.52539 37.0998 6.18262 36.5745 5.85677 36.0577L5.08236 34.8349C4.79883 34.4147 4.65072 34.0281 4.64225 33.7129C4.63802 33.5659 4.66341 33.4272 4.71842 33.3095C4.77767 33.1835 4.86654 33.0826 4.98503 32.9986C5.04004 32.9608 5.10352 32.9272 5.17546 32.9019C5.12467 32.238 5.10775 31.4018 5.13737 30.7001C5.1543 30.532 5.18815 30.3681 5.2347 30.2C5.43359 29.4983 5.92871 28.931 6.54655 28.5402C6.76237 28.4015 6.99935 28.2881 7.25325 28.1998C8.74284 27.6662 10.7191 27.9561 11.777 29.0949C12.2087 29.5571 12.4795 30.1706 12.5345 30.9816L12.4837 32.986ZM22.5426 11.1184L23.9307 15.1734L24.6289 12.7656L24.2904 12.3959C24.1338 12.1732 24.1042 11.9757 24.1888 11.8076C24.375 11.442 24.7559 11.5092 25.1156 11.5092C25.4922 11.5092 25.9535 11.4378 26.0719 11.9042C26.11 12.0597 26.0635 12.2236 25.9535 12.3917L25.6107 12.7614L26.3089 15.1692L27.5658 11.1142C28.4714 11.9252 31.1585 12.0891 32.1572 12.6396C32.4746 12.8161 32.7581 13.0388 32.9867 13.3371C33.3337 13.7952 33.5495 14.3918 33.6087 15.1482L33.8161 17.1568C33.7653 17.6947 33.4606 18.0014 32.8555 18.0476H25.1198H17.2529C16.652 18.0014 16.3431 17.6947 16.2923 17.1568L16.5039 15.1524C16.5632 14.3961 16.7747 13.7994 17.126 13.3413C17.3545 13.0388 17.6423 12.8161 17.9554 12.6438C18.9541 12.0933 21.637 11.9294 22.5426 11.1184ZM28.7803 5.03805C28.9495 5.08848 29.0723 5.18933 29.1484 5.3364C29.2754 5.58852 29.2204 5.96671 28.9792 6.51298C28.9749 6.52138 28.9707 6.52979 28.9665 6.53819L28.0778 7.9837C27.735 8.54257 27.3923 9.10145 26.9268 9.53006C26.4486 9.97548 25.8561 10.2696 25.0521 10.2696C24.2988 10.2696 23.7318 9.98388 23.2663 9.55947C22.8177 9.15187 22.4749 8.62661 22.1491 8.10976L21.3747 6.88696C21.0911 6.46675 20.943 6.08016 20.9346 5.76501C20.9303 5.61794 20.9557 5.47927 21.0107 5.36161C21.07 5.23555 21.1589 5.1347 21.2773 5.05066C21.3324 5.01284 21.3958 4.97922 21.4678 4.95401C21.417 4.29008 21.4001 3.45387 21.4297 2.75213C21.4466 2.58405 21.4805 2.42017 21.527 2.25208C21.7259 1.55034 22.221 0.98306 22.8389 0.592268C23.0547 0.4536 23.2917 0.340144 23.5456 0.251901C25.0352 -0.281762 27.0114 0.00818089 28.0693 1.14694C28.501 1.60917 28.7718 2.22267 28.8268 3.03367L28.7803 5.03805Z" fill="#FD7B33"/>
</g>
<defs>
<clipPath id="clip0_5_1807">
<rect width="52" height="46" fill="white"/>
</clipPath>
</defs>
</svg>
