<svg xmlns="http://www.w3.org/2000/svg" width="375" viewBox="0 0 375 375" height="375" version="1.0"><path fill="#FD7B33" d="M 7.003906 199.386719 C 6.613281 198.996094 6.246094 198.589844 5.894531 198.160156 C 5.542969 197.734375 5.214844 197.292969 4.90625 196.832031 C 4.601562 196.375 4.316406 195.902344 4.058594 195.414062 C 3.796875 194.929688 3.5625 194.429688 3.347656 193.921875 C 3.136719 193.410156 2.953125 192.890625 2.792969 192.363281 C 2.632812 191.835938 2.496094 191.300781 2.390625 190.757812 C 2.28125 190.21875 2.199219 189.671875 2.148438 189.121094 C 2.09375 188.574219 2.066406 188.023438 2.066406 187.472656 C 2.066406 186.917969 2.09375 186.367188 2.148438 185.820312 C 2.199219 185.269531 2.28125 184.722656 2.390625 184.183594 C 2.496094 183.640625 2.632812 183.105469 2.792969 182.578125 C 2.953125 182.050781 3.136719 181.53125 3.347656 181.019531 C 3.5625 180.511719 3.796875 180.011719 4.058594 179.527344 C 4.316406 179.039062 4.601562 178.566406 4.90625 178.109375 C 5.214844 177.648438 5.542969 177.207031 5.894531 176.78125 C 6.246094 176.351562 6.613281 175.945312 7.003906 175.554688 L 74.4375 108.136719 C 74.824219 107.734375 75.230469 107.355469 75.65625 106.992188 C 76.082031 106.632812 76.523438 106.292969 76.984375 105.976562 C 77.441406 105.660156 77.917969 105.367188 78.40625 105.09375 C 78.894531 104.824219 79.394531 104.582031 79.90625 104.359375 C 80.421875 104.140625 80.941406 103.945312 81.476562 103.777344 C 82.007812 103.609375 82.546875 103.46875 83.09375 103.351562 C 83.640625 103.238281 84.191406 103.148438 84.746094 103.089844 C 85.300781 103.03125 85.855469 102.996094 86.414062 102.992188 C 86.972656 102.988281 87.53125 103.011719 88.085938 103.0625 C 88.640625 103.109375 89.195312 103.1875 89.742188 103.292969 C 90.289062 103.398438 90.832031 103.53125 91.367188 103.691406 C 91.902344 103.851562 92.429688 104.035156 92.945312 104.246094 C 93.460938 104.457031 93.964844 104.695312 94.460938 104.957031 C 94.953125 105.21875 95.433594 105.503906 95.898438 105.8125 C 96.363281 106.121094 96.808594 106.453125 97.242188 106.804688 C 97.671875 107.160156 98.085938 107.535156 98.480469 107.929688 C 98.875 108.324219 99.25 108.734375 99.605469 109.167969 C 99.957031 109.601562 100.289062 110.046875 100.597656 110.511719 C 100.90625 110.976562 101.191406 111.457031 101.453125 111.949219 C 101.714844 112.441406 101.953125 112.949219 102.164062 113.464844 C 102.375 113.980469 102.558594 114.507812 102.71875 115.042969 C 102.878906 115.578125 103.011719 116.117188 103.117188 116.664062 C 103.222656 117.214844 103.300781 117.765625 103.351562 118.320312 C 103.402344 118.878906 103.421875 119.433594 103.417969 119.992188 C 103.414062 120.550781 103.382812 121.105469 103.320312 121.664062 C 103.261719 122.21875 103.171875 122.765625 103.058594 123.3125 C 102.945312 123.859375 102.800781 124.398438 102.632812 124.929688 C 102.464844 125.464844 102.269531 125.984375 102.050781 126.5 C 101.832031 127.011719 101.585938 127.511719 101.316406 128 C 101.042969 128.488281 100.75 128.960938 100.433594 129.421875 C 100.117188 129.882812 99.777344 130.324219 99.417969 130.75 C 99.054688 131.175781 98.675781 131.582031 98.273438 131.96875 L 42.761719 187.464844 L 98.273438 242.96875 C 98.675781 243.355469 99.054688 243.761719 99.417969 244.1875 C 99.777344 244.613281 100.117188 245.054688 100.433594 245.515625 C 100.75 245.972656 101.042969 246.449219 101.316406 246.9375 C 101.585938 247.425781 101.828125 247.925781 102.050781 248.4375 C 102.269531 248.949219 102.464844 249.472656 102.632812 250.003906 C 102.800781 250.539062 102.945312 251.078125 103.058594 251.625 C 103.171875 252.167969 103.261719 252.71875 103.320312 253.273438 C 103.382812 253.828125 103.414062 254.386719 103.417969 254.945312 C 103.421875 255.503906 103.398438 256.058594 103.351562 256.613281 C 103.300781 257.171875 103.222656 257.722656 103.117188 258.269531 C 103.011719 258.820312 102.878906 259.359375 102.71875 259.894531 C 102.558594 260.429688 102.375 260.957031 102.164062 261.472656 C 101.953125 261.988281 101.714844 262.492188 101.453125 262.988281 C 101.191406 263.480469 100.90625 263.960938 100.597656 264.421875 C 100.289062 264.886719 99.957031 265.335938 99.605469 265.769531 C 99.25 266.199219 98.875 266.613281 98.480469 267.007812 C 98.085938 267.402344 97.671875 267.777344 97.242188 268.128906 C 96.808594 268.484375 96.359375 268.816406 95.894531 269.125 C 95.433594 269.433594 94.953125 269.71875 94.460938 269.980469 C 93.964844 270.242188 93.460938 270.476562 92.945312 270.691406 C 92.429688 270.902344 91.902344 271.085938 91.367188 271.246094 C 90.832031 271.40625 90.289062 271.535156 89.742188 271.640625 C 89.195312 271.746094 88.640625 271.824219 88.085938 271.875 C 87.53125 271.925781 86.972656 271.949219 86.414062 271.945312 C 85.855469 271.9375 85.300781 271.90625 84.746094 271.847656 C 84.191406 271.785156 83.640625 271.699219 83.09375 271.585938 C 82.546875 271.46875 82.007812 271.328125 81.476562 271.160156 C 80.941406 270.992188 80.421875 270.796875 79.90625 270.578125 C 79.394531 270.355469 78.894531 270.109375 78.40625 269.839844 C 77.917969 269.570312 77.441406 269.277344 76.984375 268.960938 C 76.523438 268.644531 76.082031 268.304688 75.65625 267.941406 C 75.230469 267.582031 74.824219 267.199219 74.4375 266.800781 Z M 300.5625 108.136719 C 300.175781 107.734375 299.769531 107.355469 299.34375 106.992188 C 298.917969 106.632812 298.476562 106.292969 298.015625 105.976562 C 297.558594 105.660156 297.082031 105.367188 296.59375 105.09375 C 296.105469 104.824219 295.605469 104.582031 295.09375 104.359375 C 294.578125 104.140625 294.054688 103.945312 293.523438 103.777344 C 292.992188 103.609375 292.453125 103.46875 291.90625 103.351562 C 291.359375 103.238281 290.808594 103.148438 290.253906 103.089844 C 289.699219 103.03125 289.144531 102.996094 288.585938 102.992188 C 288.027344 102.988281 287.46875 103.011719 286.914062 103.0625 C 286.359375 103.109375 285.804688 103.1875 285.257812 103.292969 C 284.710938 103.398438 284.167969 103.53125 283.632812 103.691406 C 283.097656 103.851562 282.570312 104.035156 282.054688 104.246094 C 281.539062 104.457031 281.035156 104.695312 280.539062 104.957031 C 280.046875 105.21875 279.566406 105.503906 279.101562 105.8125 C 278.636719 106.121094 278.191406 106.453125 277.757812 106.804688 C 277.328125 107.160156 276.914062 107.535156 276.519531 107.929688 C 276.125 108.324219 275.75 108.734375 275.394531 109.167969 C 275.042969 109.601562 274.710938 110.046875 274.402344 110.511719 C 274.09375 110.976562 273.808594 111.457031 273.546875 111.949219 C 273.285156 112.441406 273.046875 112.949219 272.835938 113.464844 C 272.625 113.980469 272.4375 114.507812 272.28125 115.042969 C 272.121094 115.578125 271.988281 116.117188 271.882812 116.664062 C 271.777344 117.214844 271.699219 117.765625 271.648438 118.320312 C 271.597656 118.878906 271.578125 119.433594 271.582031 119.992188 C 271.585938 120.550781 271.617188 121.105469 271.679688 121.664062 C 271.738281 122.21875 271.828125 122.765625 271.941406 123.3125 C 272.054688 123.859375 272.199219 124.398438 272.367188 124.929688 C 272.535156 125.464844 272.730469 125.984375 272.949219 126.5 C 273.167969 127.011719 273.414062 127.511719 273.683594 128 C 273.957031 128.488281 274.25 128.960938 274.566406 129.421875 C 274.882812 129.882812 275.222656 130.324219 275.582031 130.75 C 275.945312 131.175781 276.324219 131.582031 276.726562 131.96875 L 332.238281 187.464844 L 276.726562 242.96875 C 276.324219 243.355469 275.945312 243.761719 275.582031 244.1875 C 275.222656 244.613281 274.882812 245.054688 274.566406 245.515625 C 274.25 245.972656 273.957031 246.449219 273.683594 246.9375 C 273.414062 247.425781 273.167969 247.925781 272.949219 248.4375 C 272.730469 248.949219 272.535156 249.472656 272.367188 250.003906 C 272.199219 250.539062 272.054688 251.078125 271.941406 251.625 C 271.828125 252.167969 271.738281 252.71875 271.679688 253.273438 C 271.617188 253.828125 271.585938 254.386719 271.582031 254.945312 C 271.578125 255.503906 271.597656 256.058594 271.648438 256.613281 C 271.699219 257.171875 271.777344 257.722656 271.882812 258.269531 C 271.988281 258.820312 272.121094 259.359375 272.28125 259.894531 C 272.441406 260.429688 272.625 260.957031 272.835938 261.472656 C 273.046875 261.988281 273.285156 262.496094 273.546875 262.988281 C 273.808594 263.480469 274.09375 263.960938 274.402344 264.425781 C 274.710938 264.890625 275.042969 265.335938 275.394531 265.769531 C 275.75 266.199219 276.125 266.613281 276.519531 267.007812 C 276.914062 267.402344 277.328125 267.777344 277.757812 268.128906 C 278.191406 268.484375 278.636719 268.816406 279.101562 269.125 C 279.566406 269.433594 280.046875 269.71875 280.539062 269.980469 C 281.035156 270.242188 281.539062 270.480469 282.054688 270.691406 C 282.570312 270.902344 283.097656 271.085938 283.632812 271.246094 C 284.167969 271.40625 284.710938 271.535156 285.257812 271.640625 C 285.804688 271.746094 286.359375 271.824219 286.914062 271.875 C 287.46875 271.925781 288.027344 271.949219 288.585938 271.945312 C 289.144531 271.941406 289.699219 271.90625 290.253906 271.847656 C 290.808594 271.785156 291.359375 271.699219 291.90625 271.585938 C 292.453125 271.46875 292.992188 271.328125 293.523438 271.160156 C 294.058594 270.992188 294.578125 270.796875 295.09375 270.578125 C 295.605469 270.355469 296.105469 270.109375 296.59375 269.839844 C 297.082031 269.570312 297.558594 269.277344 298.015625 268.960938 C 298.476562 268.644531 298.917969 268.304688 299.34375 267.941406 C 299.769531 267.582031 300.175781 267.199219 300.5625 266.800781 L 367.996094 199.382812 C 368.386719 198.992188 368.753906 198.582031 369.105469 198.15625 C 369.457031 197.730469 369.785156 197.289062 370.09375 196.828125 C 370.398438 196.371094 370.683594 195.898438 370.941406 195.410156 C 371.203125 194.921875 371.4375 194.425781 371.652344 193.914062 C 371.863281 193.40625 372.046875 192.886719 372.207031 192.359375 C 372.367188 191.828125 372.503906 191.296875 372.609375 190.753906 C 372.71875 190.210938 372.800781 189.667969 372.851562 189.117188 C 372.90625 188.570312 372.933594 188.019531 372.933594 187.464844 C 372.933594 186.914062 372.90625 186.363281 372.851562 185.8125 C 372.800781 185.265625 372.71875 184.71875 372.609375 184.179688 C 372.503906 183.636719 372.367188 183.101562 372.207031 182.574219 C 372.046875 182.046875 371.863281 181.527344 371.652344 181.015625 C 371.4375 180.507812 371.203125 180.007812 370.941406 179.519531 C 370.683594 179.035156 370.398438 178.5625 370.09375 178.101562 C 369.785156 177.644531 369.457031 177.203125 369.105469 176.773438 C 368.753906 176.347656 368.386719 175.941406 367.996094 175.550781 Z M 204.863281 48.546875 L 137.433594 318.214844 C 137.308594 318.75 137.207031 319.285156 137.136719 319.828125 C 137.0625 320.371094 137.015625 320.914062 136.996094 321.460938 C 136.976562 322.007812 136.984375 322.554688 137.015625 323.101562 C 137.050781 323.644531 137.109375 324.1875 137.195312 324.730469 C 137.28125 325.269531 137.394531 325.804688 137.53125 326.332031 C 137.667969 326.863281 137.832031 327.382812 138.023438 327.898438 C 138.210938 328.410156 138.425781 328.914062 138.664062 329.40625 C 138.902344 329.898438 139.160156 330.378906 139.445312 330.847656 C 139.730469 331.3125 140.039062 331.765625 140.367188 332.203125 C 140.695312 332.640625 141.042969 333.0625 141.414062 333.464844 C 141.785156 333.867188 142.171875 334.25 142.578125 334.617188 C 142.988281 334.984375 143.410156 335.328125 143.851562 335.652344 C 144.292969 335.976562 144.746094 336.277344 145.21875 336.558594 C 145.6875 336.839844 146.171875 337.09375 146.664062 337.328125 C 147.160156 337.558594 147.664062 337.769531 148.179688 337.953125 C 148.695312 338.136719 149.21875 338.292969 149.75 338.425781 C 150.28125 338.558594 150.816406 338.667969 151.359375 338.746094 C 151.898438 338.828125 152.445312 338.882812 152.988281 338.910156 C 153.535156 338.9375 154.082031 338.9375 154.628906 338.914062 C 155.175781 338.886719 155.71875 338.835938 156.261719 338.757812 C 156.804688 338.679688 157.339844 338.574219 157.871094 338.441406 C 158.402344 338.3125 158.925781 338.15625 159.441406 337.972656 C 159.957031 337.792969 160.464844 337.585938 160.960938 337.355469 C 161.457031 337.125 161.941406 336.871094 162.410156 336.589844 C 162.882812 336.3125 163.339844 336.011719 163.78125 335.691406 C 164.222656 335.367188 164.648438 335.023438 165.054688 334.660156 C 165.464844 334.296875 165.855469 333.914062 166.226562 333.511719 C 166.597656 333.109375 166.949219 332.691406 167.277344 332.253906 C 167.609375 331.820312 167.917969 331.367188 168.203125 330.902344 C 168.492188 330.4375 168.753906 329.957031 168.992188 329.464844 C 169.234375 328.972656 169.449219 328.472656 169.640625 327.957031 C 169.832031 327.445312 169.996094 326.925781 170.136719 326.398438 L 237.566406 56.726562 C 237.710938 56.1875 237.824219 55.644531 237.914062 55.09375 C 238.003906 54.542969 238.066406 53.992188 238.097656 53.4375 C 238.132812 52.878906 238.140625 52.324219 238.117188 51.765625 C 238.097656 51.210938 238.046875 50.65625 237.972656 50.105469 C 237.894531 49.554688 237.792969 49.007812 237.664062 48.464844 C 237.53125 47.921875 237.375 47.390625 237.191406 46.863281 C 237.007812 46.335938 236.800781 45.820312 236.566406 45.316406 C 236.332031 44.8125 236.074219 44.320312 235.789062 43.839844 C 235.507812 43.359375 235.199219 42.894531 234.871094 42.445312 C 234.542969 41.996094 234.191406 41.566406 233.820312 41.152344 C 233.449219 40.734375 233.054688 40.339844 232.644531 39.964844 C 232.234375 39.589844 231.804688 39.234375 231.359375 38.902344 C 230.910156 38.570312 230.449219 38.257812 229.972656 37.972656 C 229.496094 37.683594 229.007812 37.421875 228.503906 37.179688 C 228 36.941406 227.484375 36.730469 226.960938 36.542969 C 226.4375 36.351562 225.90625 36.191406 225.363281 36.054688 C 224.824219 35.921875 224.277344 35.8125 223.726562 35.730469 C 223.175781 35.652344 222.621094 35.597656 222.066406 35.570312 C 221.507812 35.542969 220.953125 35.546875 220.398438 35.574219 C 219.839844 35.605469 219.285156 35.660156 218.734375 35.746094 C 218.183594 35.828125 217.640625 35.9375 217.101562 36.078125 C 216.5625 36.214844 216.03125 36.378906 215.507812 36.570312 C 214.984375 36.757812 214.46875 36.976562 213.96875 37.21875 C 213.464844 37.457031 212.976562 37.722656 212.5 38.011719 C 212.027344 38.304688 211.566406 38.617188 211.121094 38.953125 C 210.675781 39.285156 210.25 39.644531 209.839844 40.019531 C 209.429688 40.398438 209.039062 40.796875 208.671875 41.210938 C 208.300781 41.628906 207.953125 42.0625 207.625 42.511719 C 207.296875 42.964844 206.992188 43.429688 206.714844 43.910156 C 206.433594 44.390625 206.175781 44.886719 205.945312 45.390625 C 205.710938 45.898438 205.507812 46.414062 205.324219 46.941406 C 205.144531 47.46875 204.992188 48.003906 204.863281 48.546875 Z M 204.863281 48.546875"/></svg>