<svg xmlns="http://www.w3.org/2000/svg" width="375" viewBox="0 0 375 375" height="375" version="1.0"><defs><clipPath id="a"><path d="M 9.203125 262 L 122 262 L 122 375 L 9.203125 375 Z M 9.203125 262"/></clipPath><clipPath id="b"><path d="M 9.203125 0 L 291 0 L 291 300 L 9.203125 300 Z M 9.203125 0"/></clipPath><clipPath id="c"><path d="M 215 0 L 365.453125 0 L 365.453125 150 L 215 150 Z M 215 0"/></clipPath></defs><g clip-path="url(#a)"><path fill="#FD7B33" d="M 65.570312 375 C 63.730469 375 61.894531 374.910156 60.0625 374.730469 C 58.230469 374.546875 56.414062 374.277344 54.605469 373.917969 C 52.800781 373.558594 51.019531 373.113281 49.257812 372.578125 C 47.496094 372.042969 45.765625 371.421875 44.066406 370.71875 C 42.363281 370.011719 40.703125 369.226562 39.078125 368.359375 C 37.457031 367.488281 35.878906 366.542969 34.351562 365.519531 C 32.820312 364.496094 31.34375 363.402344 29.921875 362.230469 C 28.496094 361.0625 27.136719 359.828125 25.832031 358.523438 C 24.53125 357.222656 23.296875 355.859375 22.128906 354.433594 C 20.960938 353.011719 19.867188 351.53125 18.84375 350 C 17.824219 348.46875 16.878906 346.890625 16.011719 345.265625 C 15.140625 343.640625 14.355469 341.976562 13.652344 340.277344 C 12.949219 338.574219 12.328125 336.839844 11.792969 335.078125 C 11.261719 333.316406 10.8125 331.53125 10.453125 329.722656 C 10.09375 327.917969 9.824219 326.097656 9.644531 324.261719 C 9.464844 322.429688 9.375 320.59375 9.375 318.75 C 9.375 316.90625 9.464844 315.070312 9.644531 313.238281 C 9.824219 311.402344 10.09375 309.582031 10.453125 307.777344 C 10.8125 305.96875 11.261719 304.183594 11.792969 302.421875 C 12.328125 300.660156 12.949219 298.925781 13.652344 297.222656 C 14.355469 295.523438 15.140625 293.859375 16.011719 292.234375 C 16.878906 290.609375 17.824219 289.03125 18.84375 287.5 C 19.867188 285.96875 20.960938 284.488281 22.128906 283.066406 C 23.296875 281.640625 24.53125 280.277344 25.832031 278.976562 C 27.136719 277.671875 28.496094 276.4375 29.921875 275.269531 C 31.34375 274.097656 32.820312 273.003906 34.351562 271.980469 C 35.878906 270.957031 37.457031 270.011719 39.078125 269.140625 C 40.703125 268.273438 42.363281 267.488281 44.066406 266.78125 C 45.765625 266.078125 47.496094 265.457031 49.257812 264.921875 C 51.019531 264.386719 52.800781 263.941406 54.605469 263.582031 C 56.414062 263.222656 58.230469 262.953125 60.0625 262.769531 C 61.894531 262.589844 63.730469 262.5 65.570312 262.5 C 67.410156 262.5 69.246094 262.589844 71.078125 262.769531 C 72.910156 262.953125 74.730469 263.222656 76.535156 263.582031 C 78.339844 263.941406 80.121094 264.386719 81.882812 264.921875 C 83.644531 265.457031 85.375 266.078125 87.074219 266.78125 C 88.777344 267.488281 90.4375 268.273438 92.0625 269.140625 C 93.683594 270.011719 95.261719 270.957031 96.792969 271.980469 C 98.320312 273.003906 99.796875 274.097656 101.222656 275.269531 C 102.644531 276.4375 104.007812 277.671875 105.308594 278.976562 C 106.609375 280.277344 107.84375 281.640625 109.011719 283.066406 C 110.179688 284.488281 111.273438 285.96875 112.296875 287.5 C 113.320312 289.03125 114.265625 290.609375 115.132812 292.234375 C 116 293.859375 116.785156 295.523438 117.488281 297.222656 C 118.195312 298.925781 118.8125 300.660156 119.347656 302.421875 C 119.882812 304.183594 120.328125 305.96875 120.6875 307.777344 C 121.046875 309.582031 121.316406 311.402344 121.496094 313.238281 C 121.675781 315.070312 121.765625 316.90625 121.765625 318.75 C 121.765625 320.589844 121.671875 322.429688 121.492188 324.261719 C 121.308594 326.09375 121.039062 327.914062 120.679688 329.71875 C 120.316406 331.527344 119.871094 333.308594 119.335938 335.070312 C 118.800781 336.835938 118.179688 338.566406 117.472656 340.265625 C 116.769531 341.96875 115.984375 343.632812 115.113281 345.253906 C 114.246094 346.878906 113.300781 348.457031 112.277344 349.988281 C 111.257812 351.519531 110.160156 352.996094 108.992188 354.417969 C 107.828125 355.84375 106.59375 357.207031 105.292969 358.507812 C 103.988281 359.8125 102.628906 361.046875 101.207031 362.214844 C 99.785156 363.382812 98.308594 364.480469 96.777344 365.503906 C 95.25 366.527344 93.671875 367.472656 92.050781 368.339844 C 90.429688 369.210938 88.765625 369.996094 87.066406 370.703125 C 85.367188 371.410156 83.636719 372.03125 81.878906 372.566406 C 80.117188 373.101562 78.335938 373.550781 76.53125 373.910156 C 74.726562 374.269531 72.90625 374.542969 71.078125 374.722656 C 69.246094 374.90625 67.410156 375 65.570312 375 Z M 65.570312 300 C 64.957031 300 64.34375 300.03125 63.734375 300.089844 C 63.125 300.152344 62.519531 300.242188 61.917969 300.359375 C 61.316406 300.480469 60.71875 300.628906 60.132812 300.808594 C 59.546875 300.984375 58.96875 301.191406 58.402344 301.425781 C 57.835938 301.664062 57.28125 301.925781 56.742188 302.214844 C 56.199219 302.503906 55.671875 302.820312 55.164062 303.160156 C 54.652344 303.5 54.160156 303.867188 53.6875 304.257812 C 53.214844 304.644531 52.757812 305.058594 52.324219 305.492188 C 51.890625 305.925781 51.480469 306.378906 51.089844 306.855469 C 50.703125 307.328125 50.335938 307.824219 49.996094 308.332031 C 49.65625 308.84375 49.339844 309.371094 49.050781 309.910156 C 48.761719 310.453125 48.5 311.007812 48.265625 311.574219 C 48.03125 312.140625 47.824219 312.71875 47.644531 313.308594 C 47.46875 313.894531 47.316406 314.488281 47.199219 315.09375 C 47.078125 315.695312 46.988281 316.300781 46.929688 316.914062 C 46.867188 317.523438 46.839844 318.136719 46.839844 318.75 C 46.839844 319.363281 46.867188 319.976562 46.929688 320.585938 C 46.988281 321.199219 47.078125 321.804688 47.199219 322.40625 C 47.316406 323.011719 47.46875 323.605469 47.644531 324.191406 C 47.824219 324.78125 48.03125 325.359375 48.265625 325.925781 C 48.5 326.492188 48.761719 327.046875 49.050781 327.589844 C 49.339844 328.128906 49.65625 328.65625 49.996094 329.167969 C 50.335938 329.675781 50.703125 330.171875 51.089844 330.644531 C 51.480469 331.121094 51.890625 331.574219 52.324219 332.007812 C 52.757812 332.441406 53.214844 332.855469 53.6875 333.242188 C 54.160156 333.632812 54.652344 334 55.164062 334.339844 C 55.671875 334.679688 56.199219 334.996094 56.742188 335.285156 C 57.28125 335.574219 57.835938 335.835938 58.402344 336.074219 C 58.96875 336.308594 59.546875 336.515625 60.132812 336.691406 C 60.71875 336.871094 61.316406 337.019531 61.917969 337.140625 C 62.519531 337.257812 63.125 337.347656 63.734375 337.410156 C 64.34375 337.46875 64.957031 337.5 65.570312 337.5 C 66.183594 337.5 66.796875 337.46875 67.40625 337.410156 C 68.015625 337.347656 68.625 337.257812 69.226562 337.140625 C 69.828125 337.019531 70.421875 336.871094 71.007812 336.691406 C 71.59375 336.515625 72.171875 336.308594 72.738281 336.074219 C 73.304688 335.835938 73.859375 335.574219 74.402344 335.285156 C 74.941406 334.996094 75.46875 334.679688 75.976562 334.339844 C 76.488281 334 76.980469 333.632812 77.453125 333.242188 C 77.929688 332.855469 78.382812 332.441406 78.816406 332.007812 C 79.25 331.574219 79.660156 331.121094 80.050781 330.644531 C 80.441406 330.171875 80.804688 329.675781 81.144531 329.167969 C 81.488281 328.65625 81.800781 328.128906 82.089844 327.589844 C 82.378906 327.046875 82.640625 326.492188 82.875 325.925781 C 83.113281 325.359375 83.316406 324.78125 83.496094 324.191406 C 83.675781 323.605469 83.824219 323.011719 83.941406 322.40625 C 84.0625 321.804688 84.152344 321.199219 84.210938 320.585938 C 84.273438 319.976562 84.304688 319.363281 84.304688 318.75 C 84.304688 318.136719 84.273438 317.523438 84.210938 316.914062 C 84.152344 316.300781 84.0625 315.695312 83.941406 315.09375 C 83.824219 314.488281 83.675781 313.894531 83.496094 313.308594 C 83.316406 312.71875 83.113281 312.140625 82.875 311.574219 C 82.640625 311.007812 82.378906 310.453125 82.089844 309.910156 C 81.800781 309.371094 81.488281 308.84375 81.144531 308.332031 C 80.804688 307.824219 80.441406 307.328125 80.050781 306.855469 C 79.660156 306.378906 79.25 305.925781 78.816406 305.492188 C 78.382812 305.058594 77.929688 304.644531 77.453125 304.257812 C 76.980469 303.867188 76.488281 303.5 75.976562 303.160156 C 75.46875 302.820312 74.941406 302.503906 74.402344 302.214844 C 73.859375 301.925781 73.304688 301.664062 72.738281 301.425781 C 72.171875 301.191406 71.59375 300.984375 71.007812 300.808594 C 70.421875 300.628906 69.828125 300.480469 69.226562 300.359375 C 68.625 300.242188 68.015625 300.152344 67.40625 300.089844 C 66.796875 300.03125 66.183594 300 65.570312 300 Z M 65.570312 300"/></g><path fill="#FD7B33" d="M 271.625 375 C 269.785156 375 267.949219 374.910156 266.117188 374.730469 C 264.285156 374.546875 262.464844 374.277344 260.660156 373.917969 C 258.855469 373.558594 257.074219 373.113281 255.3125 372.578125 C 253.550781 372.042969 251.820312 371.421875 250.117188 370.71875 C 248.417969 370.011719 246.757812 369.226562 245.132812 368.359375 C 243.511719 367.488281 241.933594 366.542969 240.402344 365.519531 C 238.871094 364.496094 237.394531 363.402344 235.972656 362.230469 C 234.550781 361.0625 233.1875 359.828125 231.886719 358.523438 C 230.585938 357.222656 229.351562 355.859375 228.183594 354.433594 C 227.015625 353.011719 225.921875 351.53125 224.898438 350 C 223.875 348.46875 222.929688 346.890625 222.0625 345.265625 C 221.195312 343.640625 220.410156 341.976562 219.707031 340.277344 C 219 338.574219 218.382812 336.839844 217.847656 335.078125 C 217.3125 333.316406 216.867188 331.53125 216.507812 329.722656 C 216.148438 327.917969 215.878906 326.097656 215.699219 324.261719 C 215.519531 322.429688 215.425781 320.59375 215.425781 318.75 C 215.425781 316.90625 215.519531 315.070312 215.699219 313.238281 C 215.878906 311.402344 216.148438 309.582031 216.507812 307.777344 C 216.867188 305.96875 217.3125 304.183594 217.847656 302.421875 C 218.382812 300.660156 219 298.925781 219.707031 297.222656 C 220.410156 295.523438 221.195312 293.859375 222.0625 292.234375 C 222.929688 290.609375 223.875 289.03125 224.898438 287.5 C 225.921875 285.96875 227.015625 284.488281 228.183594 283.066406 C 229.351562 281.640625 230.585938 280.277344 231.886719 278.976562 C 233.1875 277.671875 234.550781 276.4375 235.972656 275.269531 C 237.394531 274.097656 238.871094 273.003906 240.402344 271.980469 C 241.933594 270.957031 243.511719 270.011719 245.132812 269.140625 C 246.757812 268.273438 248.417969 267.488281 250.117188 266.78125 C 251.820312 266.078125 253.550781 265.457031 255.3125 264.921875 C 257.074219 264.386719 258.855469 263.941406 260.660156 263.582031 C 262.464844 263.222656 264.285156 262.953125 266.117188 262.769531 C 267.949219 262.589844 269.785156 262.5 271.625 262.5 C 273.464844 262.5 275.300781 262.589844 277.132812 262.769531 C 278.964844 262.953125 280.78125 263.222656 282.585938 263.582031 C 284.394531 263.941406 286.175781 264.386719 287.9375 264.921875 C 289.699219 265.457031 291.429688 266.078125 293.128906 266.78125 C 294.828125 267.488281 296.492188 268.273438 298.113281 269.140625 C 299.738281 270.011719 301.316406 270.957031 302.84375 271.980469 C 304.375 273.003906 305.851562 274.097656 307.273438 275.269531 C 308.699219 276.4375 310.058594 277.671875 311.359375 278.976562 C 312.664062 280.277344 313.898438 281.640625 315.066406 283.066406 C 316.230469 284.488281 317.328125 285.96875 318.351562 287.5 C 319.371094 289.03125 320.316406 290.609375 321.183594 292.234375 C 322.050781 293.859375 322.839844 295.523438 323.542969 297.222656 C 324.246094 298.925781 324.867188 300.660156 325.402344 302.421875 C 325.933594 304.183594 326.382812 305.96875 326.742188 307.777344 C 327.101562 309.582031 327.371094 311.402344 327.550781 313.238281 C 327.730469 315.070312 327.820312 316.90625 327.820312 318.75 C 327.820312 320.589844 327.726562 322.429688 327.542969 324.261719 C 327.363281 326.09375 327.089844 327.914062 326.730469 329.71875 C 326.371094 331.527344 325.921875 333.308594 325.386719 335.070312 C 324.851562 336.835938 324.234375 338.566406 323.527344 340.265625 C 322.824219 341.96875 322.035156 343.632812 321.167969 345.253906 C 320.300781 346.878906 319.355469 348.457031 318.332031 349.988281 C 317.308594 351.519531 316.214844 352.996094 315.046875 354.417969 C 313.878906 355.84375 312.644531 357.207031 311.34375 358.507812 C 310.042969 359.8125 308.683594 361.046875 307.257812 362.214844 C 305.835938 363.382812 304.363281 364.480469 302.832031 365.503906 C 301.300781 366.527344 299.726562 367.472656 298.105469 368.339844 C 296.480469 369.210938 294.820312 369.996094 293.121094 370.703125 C 291.421875 371.410156 289.691406 372.03125 287.929688 372.566406 C 286.171875 373.101562 284.386719 373.550781 282.582031 373.910156 C 280.777344 374.269531 278.960938 374.542969 277.128906 374.722656 C 275.300781 374.90625 273.464844 375 271.625 375 Z M 271.625 300 C 271.011719 300 270.398438 300.03125 269.789062 300.089844 C 269.175781 300.152344 268.570312 300.242188 267.96875 300.359375 C 267.367188 300.480469 266.773438 300.628906 266.1875 300.808594 C 265.597656 300.984375 265.023438 301.191406 264.457031 301.425781 C 263.890625 301.664062 263.335938 301.925781 262.792969 302.214844 C 262.253906 302.503906 261.726562 302.820312 261.21875 303.160156 C 260.707031 303.5 260.214844 303.867188 259.742188 304.257812 C 259.265625 304.644531 258.8125 305.058594 258.378906 305.492188 C 257.945312 305.925781 257.53125 306.378906 257.144531 306.855469 C 256.753906 307.328125 256.390625 307.824219 256.050781 308.332031 C 255.707031 308.84375 255.394531 309.371094 255.105469 309.910156 C 254.816406 310.453125 254.550781 311.007812 254.316406 311.574219 C 254.082031 312.140625 253.875 312.71875 253.699219 313.308594 C 253.519531 313.894531 253.371094 314.488281 253.25 315.09375 C 253.132812 315.695312 253.042969 316.300781 252.980469 316.914062 C 252.921875 317.523438 252.890625 318.136719 252.890625 318.75 C 252.890625 319.363281 252.921875 319.976562 252.980469 320.585938 C 253.042969 321.199219 253.132812 321.804688 253.25 322.40625 C 253.371094 323.011719 253.519531 323.605469 253.699219 324.191406 C 253.875 324.78125 254.082031 325.359375 254.316406 325.925781 C 254.550781 326.492188 254.816406 327.046875 255.105469 327.589844 C 255.394531 328.128906 255.707031 328.65625 256.050781 329.167969 C 256.390625 329.675781 256.753906 330.171875 257.144531 330.644531 C 257.53125 331.121094 257.945312 331.574219 258.378906 332.007812 C 258.8125 332.441406 259.265625 332.855469 259.742188 333.242188 C 260.214844 333.632812 260.707031 334 261.21875 334.339844 C 261.726562 334.679688 262.253906 334.996094 262.792969 335.285156 C 263.335938 335.574219 263.890625 335.835938 264.457031 336.074219 C 265.023438 336.308594 265.597656 336.515625 266.1875 336.691406 C 266.773438 336.871094 267.367188 337.019531 267.96875 337.140625 C 268.570312 337.257812 269.175781 337.347656 269.789062 337.410156 C 270.398438 337.46875 271.011719 337.5 271.625 337.5 C 272.238281 337.5 272.851562 337.46875 273.460938 337.410156 C 274.070312 337.347656 274.675781 337.257812 275.277344 337.140625 C 275.878906 337.019531 276.476562 336.871094 277.0625 336.691406 C 277.648438 336.515625 278.226562 336.308594 278.792969 336.074219 C 279.359375 335.835938 279.914062 335.574219 280.453125 335.285156 C 280.996094 334.996094 281.519531 334.679688 282.03125 334.339844 C 282.542969 334 283.035156 333.632812 283.507812 333.242188 C 283.980469 332.855469 284.4375 332.441406 284.871094 332.007812 C 285.304688 331.574219 285.714844 331.121094 286.105469 330.644531 C 286.492188 330.171875 286.859375 329.675781 287.199219 329.167969 C 287.539062 328.65625 287.855469 328.128906 288.144531 327.589844 C 288.433594 327.046875 288.695312 326.492188 288.929688 325.925781 C 289.164062 325.359375 289.371094 324.78125 289.550781 324.191406 C 289.726562 323.605469 289.875 323.011719 289.996094 322.40625 C 290.117188 321.804688 290.207031 321.199219 290.265625 320.585938 C 290.324219 319.976562 290.355469 319.363281 290.355469 318.75 C 290.355469 318.136719 290.324219 317.523438 290.265625 316.914062 C 290.207031 316.300781 290.117188 315.695312 289.996094 315.09375 C 289.875 314.488281 289.726562 313.894531 289.550781 313.308594 C 289.371094 312.71875 289.164062 312.140625 288.929688 311.574219 C 288.695312 311.007812 288.433594 310.453125 288.144531 309.910156 C 287.855469 309.371094 287.539062 308.84375 287.199219 308.332031 C 286.859375 307.824219 286.492188 307.328125 286.105469 306.855469 C 285.714844 306.378906 285.304688 305.925781 284.871094 305.492188 C 284.4375 305.058594 283.980469 304.644531 283.507812 304.257812 C 283.035156 303.867188 282.542969 303.5 282.03125 303.160156 C 281.519531 302.820312 280.996094 302.503906 280.453125 302.214844 C 279.914062 301.925781 279.359375 301.664062 278.792969 301.425781 C 278.226562 301.191406 277.648438 300.984375 277.0625 300.808594 C 276.476562 300.628906 275.878906 300.480469 275.277344 300.359375 C 274.675781 300.242188 274.070312 300.152344 273.460938 300.089844 C 272.851562 300.03125 272.238281 300 271.625 300 Z M 271.625 300"/><g clip-path="url(#b)"><path fill="#FD7B33" d="M 271.625 300 L 65.570312 300 C 64.957031 300 64.34375 299.96875 63.734375 299.910156 C 63.125 299.847656 62.519531 299.757812 61.917969 299.640625 C 61.316406 299.519531 60.71875 299.371094 60.132812 299.191406 C 59.546875 299.015625 58.96875 298.808594 58.402344 298.574219 C 57.835938 298.335938 57.28125 298.074219 56.742188 297.785156 C 56.199219 297.496094 55.671875 297.179688 55.164062 296.839844 C 54.652344 296.5 54.160156 296.132812 53.6875 295.742188 C 53.214844 295.355469 52.757812 294.941406 52.324219 294.507812 C 51.890625 294.074219 51.480469 293.621094 51.089844 293.144531 C 50.703125 292.671875 50.335938 292.175781 49.996094 291.667969 C 49.65625 291.15625 49.339844 290.628906 49.050781 290.089844 C 48.761719 289.546875 48.5 288.992188 48.265625 288.425781 C 48.03125 287.859375 47.824219 287.28125 47.644531 286.691406 C 47.46875 286.105469 47.316406 285.511719 47.199219 284.90625 C 47.078125 284.304688 46.988281 283.699219 46.929688 283.085938 C 46.867188 282.476562 46.839844 281.863281 46.839844 281.25 L 46.839844 37.5 L 28.105469 37.5 C 27.492188 37.5 26.882812 37.46875 26.269531 37.410156 C 25.660156 37.347656 25.054688 37.257812 24.453125 37.140625 C 23.851562 37.019531 23.257812 36.871094 22.667969 36.691406 C 22.082031 36.515625 21.503906 36.308594 20.9375 36.074219 C 20.371094 35.835938 19.816406 35.574219 19.277344 35.285156 C 18.734375 34.996094 18.210938 34.679688 17.699219 34.339844 C 17.1875 34 16.695312 33.632812 16.222656 33.242188 C 15.75 32.855469 15.292969 32.441406 14.859375 32.007812 C 14.425781 31.574219 14.015625 31.121094 13.625 30.644531 C 13.238281 30.171875 12.871094 29.675781 12.53125 29.167969 C 12.191406 28.65625 11.875 28.128906 11.585938 27.589844 C 11.296875 27.046875 11.035156 26.492188 10.800781 25.925781 C 10.566406 25.359375 10.359375 24.78125 10.179688 24.191406 C 10.003906 23.605469 9.855469 23.011719 9.734375 22.40625 C 9.613281 21.804688 9.523438 21.199219 9.464844 20.585938 C 9.40625 19.976562 9.375 19.363281 9.375 18.75 C 9.375 18.136719 9.40625 17.523438 9.464844 16.914062 C 9.523438 16.300781 9.613281 15.695312 9.734375 15.09375 C 9.855469 14.488281 10.003906 13.894531 10.179688 13.308594 C 10.359375 12.71875 10.566406 12.140625 10.800781 11.574219 C 11.035156 11.007812 11.296875 10.453125 11.585938 9.910156 C 11.875 9.371094 12.191406 8.84375 12.53125 8.332031 C 12.871094 7.824219 13.238281 7.328125 13.625 6.855469 C 14.015625 6.378906 14.425781 5.925781 14.859375 5.492188 C 15.292969 5.058594 15.75 4.644531 16.222656 4.257812 C 16.695312 3.867188 17.1875 3.5 17.699219 3.160156 C 18.210938 2.820312 18.734375 2.503906 19.277344 2.214844 C 19.816406 1.925781 20.371094 1.664062 20.9375 1.425781 C 21.503906 1.191406 22.082031 0.984375 22.667969 0.808594 C 23.257812 0.628906 23.851562 0.480469 24.453125 0.359375 C 25.054688 0.242188 25.660156 0.152344 26.269531 0.0898438 C 26.882812 0.03125 27.492188 0 28.105469 0 L 65.570312 0 C 66.183594 0 66.796875 0.03125 67.40625 0.0898438 C 68.015625 0.152344 68.625 0.242188 69.226562 0.359375 C 69.828125 0.480469 70.421875 0.628906 71.007812 0.808594 C 71.59375 0.984375 72.171875 1.191406 72.738281 1.425781 C 73.304688 1.664062 73.859375 1.925781 74.402344 2.214844 C 74.941406 2.503906 75.46875 2.820312 75.976562 3.160156 C 76.488281 3.5 76.980469 3.867188 77.453125 4.257812 C 77.929688 4.644531 78.382812 5.058594 78.816406 5.492188 C 79.25 5.925781 79.660156 6.378906 80.050781 6.855469 C 80.441406 7.328125 80.804688 7.824219 81.144531 8.332031 C 81.488281 8.84375 81.800781 9.371094 82.089844 9.910156 C 82.378906 10.453125 82.640625 11.007812 82.875 11.574219 C 83.113281 12.140625 83.316406 12.71875 83.496094 13.308594 C 83.675781 13.894531 83.824219 14.488281 83.941406 15.09375 C 84.0625 15.695312 84.152344 16.300781 84.210938 16.914062 C 84.273438 17.523438 84.304688 18.136719 84.304688 18.75 L 84.304688 262.5 L 271.625 262.5 C 272.238281 262.5 272.851562 262.53125 273.460938 262.589844 C 274.070312 262.652344 274.675781 262.742188 275.277344 262.859375 C 275.878906 262.980469 276.476562 263.128906 277.0625 263.308594 C 277.648438 263.484375 278.226562 263.691406 278.792969 263.925781 C 279.359375 264.164062 279.914062 264.425781 280.453125 264.714844 C 280.996094 265.003906 281.519531 265.320312 282.03125 265.660156 C 282.542969 266 283.035156 266.367188 283.507812 266.757812 C 283.980469 267.144531 284.4375 267.558594 284.871094 267.992188 C 285.304688 268.425781 285.714844 268.878906 286.105469 269.355469 C 286.492188 269.828125 286.859375 270.324219 287.199219 270.832031 C 287.539062 271.34375 287.855469 271.871094 288.144531 272.410156 C 288.433594 272.953125 288.695312 273.507812 288.929688 274.074219 C 289.164062 274.640625 289.371094 275.21875 289.550781 275.808594 C 289.726562 276.394531 289.875 276.988281 289.996094 277.59375 C 290.117188 278.195312 290.207031 278.800781 290.265625 279.414062 C 290.324219 280.023438 290.355469 280.636719 290.355469 281.25 C 290.355469 281.863281 290.324219 282.476562 290.265625 283.085938 C 290.207031 283.699219 290.117188 284.304688 289.996094 284.90625 C 289.875 285.511719 289.726562 286.105469 289.550781 286.691406 C 289.371094 287.28125 289.164062 287.859375 288.929688 288.425781 C 288.695312 288.992188 288.433594 289.546875 288.144531 290.089844 C 287.855469 290.628906 287.539062 291.15625 287.199219 291.667969 C 286.859375 292.175781 286.492188 292.671875 286.105469 293.144531 C 285.714844 293.621094 285.304688 294.074219 284.871094 294.507812 C 284.4375 294.941406 283.980469 295.355469 283.507812 295.742188 C 283.035156 296.132812 282.542969 296.5 282.03125 296.839844 C 281.519531 297.179688 280.996094 297.496094 280.453125 297.785156 C 279.914062 298.074219 279.359375 298.335938 278.792969 298.574219 C 278.226562 298.808594 277.648438 299.015625 277.0625 299.191406 C 276.476562 299.371094 275.878906 299.519531 275.277344 299.640625 C 274.675781 299.757812 274.070312 299.847656 273.460938 299.910156 C 272.851562 299.96875 272.238281 300 271.625 300 Z M 271.625 300"/></g><path fill="#FD7B33" d="M 309.089844 225 L 65.570312 225 C 64.957031 225 64.34375 224.96875 63.734375 224.910156 C 63.125 224.847656 62.519531 224.757812 61.917969 224.640625 C 61.316406 224.519531 60.71875 224.371094 60.132812 224.191406 C 59.546875 224.015625 58.96875 223.808594 58.402344 223.574219 C 57.835938 223.335938 57.28125 223.074219 56.742188 222.785156 C 56.199219 222.496094 55.671875 222.179688 55.164062 221.839844 C 54.652344 221.5 54.160156 221.132812 53.6875 220.742188 C 53.214844 220.355469 52.757812 219.941406 52.324219 219.507812 C 51.890625 219.074219 51.480469 218.621094 51.089844 218.144531 C 50.703125 217.671875 50.335938 217.175781 49.996094 216.667969 C 49.65625 216.15625 49.339844 215.628906 49.050781 215.089844 C 48.761719 214.546875 48.5 213.992188 48.265625 213.425781 C 48.03125 212.859375 47.824219 212.28125 47.644531 211.691406 C 47.46875 211.105469 47.316406 210.511719 47.199219 209.90625 C 47.078125 209.304688 46.988281 208.699219 46.929688 208.085938 C 46.867188 207.476562 46.839844 206.863281 46.839844 206.25 C 46.839844 205.636719 46.867188 205.023438 46.929688 204.414062 C 46.988281 203.800781 47.078125 203.195312 47.199219 202.59375 C 47.316406 201.988281 47.46875 201.394531 47.644531 200.808594 C 47.824219 200.21875 48.03125 199.640625 48.265625 199.074219 C 48.5 198.507812 48.761719 197.953125 49.050781 197.410156 C 49.339844 196.871094 49.65625 196.34375 49.996094 195.832031 C 50.335938 195.324219 50.703125 194.828125 51.089844 194.355469 C 51.480469 193.878906 51.890625 193.425781 52.324219 192.992188 C 52.757812 192.558594 53.214844 192.144531 53.6875 191.757812 C 54.160156 191.367188 54.652344 191 55.164062 190.660156 C 55.671875 190.320312 56.199219 190.003906 56.742188 189.714844 C 57.28125 189.425781 57.835938 189.164062 58.402344 188.925781 C 58.96875 188.691406 59.546875 188.484375 60.132812 188.308594 C 60.71875 188.128906 61.316406 187.980469 61.917969 187.859375 C 62.519531 187.742188 63.125 187.652344 63.734375 187.589844 C 64.34375 187.53125 64.957031 187.5 65.570312 187.5 L 292.847656 187.5 L 293.222656 184.875 C 293.308594 184.265625 293.425781 183.664062 293.574219 183.066406 C 293.71875 182.472656 293.894531 181.882812 294.097656 181.304688 C 294.300781 180.726562 294.535156 180.15625 294.792969 179.601562 C 295.050781 179.042969 295.339844 178.503906 295.652344 177.972656 C 295.964844 177.445312 296.304688 176.933594 296.664062 176.4375 C 297.027344 175.945312 297.414062 175.46875 297.824219 175.011719 C 298.234375 174.554688 298.667969 174.117188 299.121094 173.703125 C 299.570312 173.289062 300.042969 172.898438 300.535156 172.527344 C 301.027344 172.160156 301.535156 171.816406 302.058594 171.5 C 302.582031 171.179688 303.121094 170.890625 303.675781 170.625 C 304.230469 170.359375 304.792969 170.121094 305.371094 169.910156 C 305.949219 169.703125 306.535156 169.519531 307.128906 169.367188 C 307.722656 169.21875 308.324219 169.09375 308.929688 169 C 309.535156 168.910156 310.144531 168.84375 310.757812 168.8125 C 311.371094 168.777344 311.984375 168.777344 312.597656 168.804688 C 313.210938 168.832031 313.820312 168.886719 314.425781 168.976562 C 315.035156 169.0625 315.636719 169.179688 316.230469 169.324219 C 316.828125 169.472656 317.414062 169.648438 317.992188 169.851562 C 318.574219 170.054688 319.140625 170.289062 319.695312 170.546875 C 320.25 170.808594 320.792969 171.09375 321.320312 171.40625 C 321.847656 171.71875 322.359375 172.058594 322.855469 172.421875 C 323.347656 172.785156 323.824219 173.171875 324.28125 173.582031 C 324.738281 173.992188 325.171875 174.425781 325.589844 174.878906 C 326.003906 175.332031 326.394531 175.804688 326.761719 176.292969 C 327.128906 176.785156 327.472656 177.292969 327.789062 177.820312 C 328.109375 178.34375 328.398438 178.882812 328.664062 179.4375 C 328.929688 179.992188 329.167969 180.558594 329.375 181.136719 C 329.585938 181.710938 329.765625 182.296875 329.917969 182.894531 C 330.070312 183.488281 330.191406 184.089844 330.285156 184.695312 C 330.378906 185.304688 330.441406 185.914062 330.472656 186.527344 C 330.507812 187.140625 330.511719 187.753906 330.484375 188.367188 C 330.457031 188.980469 330.398438 189.59375 330.3125 190.199219 L 327.632812 208.949219 C 327.472656 210.054688 327.214844 211.140625 326.859375 212.199219 C 326.507812 213.257812 326.0625 214.277344 325.523438 215.257812 C 324.988281 216.238281 324.371094 217.164062 323.667969 218.03125 C 322.964844 218.902344 322.191406 219.703125 321.347656 220.433594 C 320.503906 221.164062 319.601562 221.816406 318.640625 222.382812 C 317.679688 222.953125 316.675781 223.433594 315.628906 223.824219 C 314.582031 224.210938 313.511719 224.507812 312.410156 224.703125 C 311.3125 224.902344 310.203125 225 309.089844 225 Z M 178.074219 83.042969 C 177.625 83.042969 177.140625 83.042969 176.71875 82.996094 L 64.230469 75 C 63.621094 74.957031 63.011719 74.882812 62.40625 74.777344 C 61.800781 74.675781 61.203125 74.542969 60.613281 74.378906 C 60.019531 74.214844 59.4375 74.023438 58.863281 73.804688 C 58.292969 73.585938 57.730469 73.339844 57.183594 73.0625 C 56.632812 72.789062 56.101562 72.488281 55.582031 72.160156 C 55.0625 71.832031 54.558594 71.480469 54.074219 71.101562 C 53.589844 70.726562 53.125 70.328125 52.679688 69.902344 C 52.238281 69.480469 51.8125 69.039062 51.410156 68.574219 C 51.007812 68.109375 50.632812 67.628906 50.277344 67.125 C 49.921875 66.625 49.59375 66.105469 49.289062 65.574219 C 48.988281 65.039062 48.710938 64.492188 48.460938 63.929688 C 48.210938 63.371094 47.988281 62.796875 47.796875 62.214844 C 47.601562 61.632812 47.4375 61.042969 47.300781 60.441406 C 47.164062 59.84375 47.058594 59.238281 46.984375 58.628906 C 46.90625 58.019531 46.859375 57.410156 46.84375 56.796875 C 46.828125 56.183594 46.839844 55.570312 46.886719 54.957031 C 46.929688 54.34375 47.003906 53.734375 47.105469 53.128906 C 47.210938 52.523438 47.34375 51.925781 47.503906 51.332031 C 47.667969 50.742188 47.859375 50.15625 48.078125 49.585938 C 48.296875 49.011719 48.546875 48.449219 48.820312 47.902344 C 49.09375 47.351562 49.394531 46.816406 49.722656 46.296875 C 50.050781 45.777344 50.402344 45.277344 50.777344 44.792969 C 51.15625 44.304688 51.554688 43.839844 51.976562 43.394531 C 52.398438 42.949219 52.839844 42.527344 53.304688 42.125 C 53.769531 41.722656 54.25 41.34375 54.753906 40.988281 C 55.253906 40.632812 55.769531 40.304688 56.304688 40 C 56.835938 39.695312 57.382812 39.421875 57.945312 39.171875 C 58.503906 38.921875 59.074219 38.699219 59.65625 38.503906 C 60.238281 38.3125 60.828125 38.144531 61.429688 38.011719 C 62.027344 37.875 62.628906 37.769531 63.238281 37.691406 C 63.847656 37.613281 64.457031 37.570312 65.070312 37.550781 C 65.683594 37.535156 66.296875 37.550781 66.910156 37.59375 L 179.386719 45.636719 C 180 45.660156 180.613281 45.710938 181.21875 45.792969 C 181.828125 45.875 182.429688 45.984375 183.027344 46.125 C 183.625 46.265625 184.214844 46.4375 184.796875 46.636719 C 185.378906 46.835938 185.945312 47.0625 186.503906 47.316406 C 187.0625 47.570312 187.609375 47.851562 188.140625 48.160156 C 188.671875 48.46875 189.183594 48.804688 189.683594 49.160156 C 190.183594 49.519531 190.660156 49.902344 191.121094 50.308594 C 191.582031 50.714844 192.023438 51.144531 192.441406 51.59375 C 192.859375 52.042969 193.253906 52.511719 193.628906 53 C 194 53.488281 194.347656 53.992188 194.671875 54.515625 C 194.992188 55.039062 195.289062 55.574219 195.5625 56.128906 C 195.832031 56.679688 196.074219 57.242188 196.289062 57.820312 C 196.503906 58.394531 196.691406 58.980469 196.847656 59.574219 C 197.003906 60.167969 197.132812 60.765625 197.230469 61.375 C 197.332031 61.980469 197.398438 62.589844 197.4375 63.203125 C 197.476562 63.816406 197.484375 64.429688 197.464844 65.042969 C 197.441406 65.65625 197.390625 66.269531 197.308594 66.878906 C 197.226562 67.488281 197.117188 68.089844 196.976562 68.6875 C 196.835938 69.289062 196.664062 69.875 196.464844 70.457031 C 196.269531 71.039062 196.042969 71.609375 195.785156 72.167969 C 195.53125 72.726562 195.25 73.273438 194.941406 73.804688 C 194.632812 74.335938 194.300781 74.851562 193.941406 75.351562 C 193.582031 75.847656 193.203125 76.328125 192.796875 76.789062 C 192.390625 77.25 191.960938 77.691406 191.511719 78.109375 C 191.066406 78.527344 190.597656 78.925781 190.109375 79.296875 C 189.621094 79.671875 189.117188 80.019531 188.59375 80.34375 C 188.070312 80.664062 187.535156 80.960938 186.984375 81.234375 C 186.433594 81.503906 185.871094 81.746094 185.292969 81.960938 C 184.71875 82.175781 184.136719 82.363281 183.542969 82.519531 C 182.949219 82.679688 182.347656 82.804688 181.742188 82.90625 C 181.136719 83.003906 180.527344 83.074219 179.914062 83.113281 C 179.300781 83.148438 178.6875 83.160156 178.074219 83.136719 Z M 178.074219 83.042969"/><g clip-path="url(#c)"><path fill="#FD7B33" d="M 290.355469 150 C 289.742188 150 289.128906 149.96875 288.519531 149.910156 C 287.910156 149.847656 287.304688 149.757812 286.703125 149.640625 C 286.101562 149.519531 285.503906 149.371094 284.917969 149.191406 C 284.332031 149.015625 283.753906 148.808594 283.1875 148.574219 C 282.621094 148.335938 282.066406 148.074219 281.527344 147.785156 C 280.984375 147.496094 280.460938 147.179688 279.949219 146.839844 C 279.4375 146.5 278.945312 146.132812 278.472656 145.742188 C 278 145.355469 277.542969 144.941406 277.109375 144.507812 C 276.675781 144.074219 276.265625 143.621094 275.875 143.144531 C 275.488281 142.671875 275.121094 142.175781 274.78125 141.667969 C 274.441406 141.15625 274.125 140.628906 273.835938 140.089844 C 273.546875 139.546875 273.285156 138.992188 273.050781 138.425781 C 272.816406 137.859375 272.609375 137.28125 272.429688 136.691406 C 272.253906 136.105469 272.105469 135.511719 271.984375 134.90625 C 271.863281 134.304688 271.773438 133.699219 271.714844 133.085938 C 271.652344 132.476562 271.625 131.863281 271.625 131.25 L 271.625 93.75 L 234.160156 93.75 C 233.546875 93.75 232.933594 93.71875 232.324219 93.660156 C 231.714844 93.597656 231.105469 93.507812 230.503906 93.390625 C 229.902344 93.269531 229.308594 93.121094 228.722656 92.941406 C 228.136719 92.765625 227.558594 92.558594 226.992188 92.324219 C 226.425781 92.085938 225.871094 91.824219 225.328125 91.535156 C 224.789062 91.246094 224.261719 90.929688 223.753906 90.589844 C 223.242188 90.25 222.75 89.882812 222.277344 89.492188 C 221.800781 89.105469 221.347656 88.691406 220.914062 88.257812 C 220.480469 87.824219 220.070312 87.371094 219.679688 86.894531 C 219.289062 86.421875 218.925781 85.925781 218.585938 85.417969 C 218.242188 84.90625 217.929688 84.378906 217.640625 83.839844 C 217.351562 83.296875 217.089844 82.742188 216.855469 82.175781 C 216.617188 81.609375 216.414062 81.03125 216.234375 80.441406 C 216.054688 79.855469 215.90625 79.261719 215.789062 78.65625 C 215.667969 78.054688 215.578125 77.449219 215.519531 76.835938 C 215.457031 76.226562 215.425781 75.613281 215.425781 75 C 215.425781 74.386719 215.457031 73.773438 215.519531 73.164062 C 215.578125 72.550781 215.667969 71.945312 215.789062 71.34375 C 215.90625 70.738281 216.054688 70.144531 216.234375 69.558594 C 216.414062 68.96875 216.617188 68.390625 216.855469 67.824219 C 217.089844 67.257812 217.351562 66.703125 217.640625 66.160156 C 217.929688 65.621094 218.242188 65.09375 218.585938 64.582031 C 218.925781 64.074219 219.289062 63.578125 219.679688 63.105469 C 220.070312 62.628906 220.480469 62.175781 220.914062 61.742188 C 221.347656 61.308594 221.800781 60.894531 222.277344 60.507812 C 222.75 60.117188 223.242188 59.75 223.753906 59.410156 C 224.261719 59.070312 224.789062 58.753906 225.328125 58.464844 C 225.871094 58.175781 226.425781 57.914062 226.992188 57.675781 C 227.558594 57.441406 228.136719 57.234375 228.722656 57.058594 C 229.308594 56.878906 229.902344 56.730469 230.503906 56.609375 C 231.105469 56.492188 231.714844 56.402344 232.324219 56.339844 C 232.933594 56.28125 233.546875 56.25 234.160156 56.25 L 271.625 56.25 L 271.625 18.75 C 271.625 18.136719 271.652344 17.523438 271.714844 16.914062 C 271.773438 16.300781 271.863281 15.695312 271.984375 15.09375 C 272.105469 14.488281 272.253906 13.894531 272.429688 13.308594 C 272.609375 12.71875 272.816406 12.140625 273.050781 11.574219 C 273.285156 11.007812 273.546875 10.453125 273.835938 9.910156 C 274.125 9.371094 274.441406 8.84375 274.78125 8.332031 C 275.121094 7.824219 275.488281 7.328125 275.875 6.855469 C 276.265625 6.378906 276.675781 5.925781 277.109375 5.492188 C 277.542969 5.058594 278 4.644531 278.472656 4.257812 C 278.945312 3.867188 279.4375 3.5 279.949219 3.160156 C 280.460938 2.820312 280.984375 2.503906 281.527344 2.214844 C 282.066406 1.925781 282.621094 1.664062 283.1875 1.425781 C 283.753906 1.191406 284.332031 0.984375 284.917969 0.808594 C 285.503906 0.628906 286.101562 0.480469 286.703125 0.359375 C 287.304688 0.242188 287.910156 0.152344 288.519531 0.0898438 C 289.128906 0.03125 289.742188 0 290.355469 0 C 290.96875 0 291.582031 0.03125 292.191406 0.0898438 C 292.804688 0.152344 293.410156 0.242188 294.011719 0.359375 C 294.613281 0.480469 295.207031 0.628906 295.792969 0.808594 C 296.382812 0.984375 296.957031 1.191406 297.523438 1.425781 C 298.089844 1.664062 298.644531 1.925781 299.1875 2.214844 C 299.726562 2.503906 300.253906 2.820312 300.761719 3.160156 C 301.273438 3.5 301.765625 3.867188 302.238281 4.257812 C 302.714844 4.644531 303.167969 5.058594 303.601562 5.492188 C 304.035156 5.925781 304.445312 6.378906 304.835938 6.855469 C 305.226562 7.328125 305.589844 7.824219 305.929688 8.332031 C 306.273438 8.84375 306.585938 9.371094 306.875 9.910156 C 307.164062 10.453125 307.425781 11.007812 307.664062 11.574219 C 307.898438 12.140625 308.105469 12.71875 308.28125 13.308594 C 308.460938 13.894531 308.609375 14.488281 308.726562 15.09375 C 308.847656 15.695312 308.9375 16.300781 309 16.914062 C 309.058594 17.523438 309.089844 18.136719 309.089844 18.75 L 309.089844 56.25 L 346.550781 56.25 C 347.167969 56.25 347.777344 56.28125 348.390625 56.339844 C 349 56.402344 349.605469 56.492188 350.207031 56.609375 C 350.808594 56.730469 351.402344 56.878906 351.992188 57.058594 C 352.578125 57.234375 353.152344 57.441406 353.722656 57.675781 C 354.289062 57.914062 354.84375 58.175781 355.382812 58.464844 C 355.925781 58.753906 356.449219 59.070312 356.960938 59.410156 C 357.46875 59.75 357.960938 60.117188 358.4375 60.507812 C 358.910156 60.894531 359.363281 61.308594 359.796875 61.742188 C 360.230469 62.175781 360.644531 62.628906 361.03125 63.105469 C 361.421875 63.578125 361.785156 64.074219 362.128906 64.582031 C 362.46875 65.09375 362.785156 65.621094 363.074219 66.160156 C 363.363281 66.703125 363.625 67.257812 363.859375 67.824219 C 364.09375 68.390625 364.300781 68.96875 364.476562 69.558594 C 364.65625 70.144531 364.804688 70.738281 364.925781 71.34375 C 365.042969 71.945312 365.132812 72.550781 365.195312 73.164062 C 365.253906 73.773438 365.285156 74.386719 365.285156 75 C 365.285156 75.613281 365.253906 76.226562 365.195312 76.835938 C 365.132812 77.449219 365.042969 78.054688 364.925781 78.65625 C 364.804688 79.261719 364.65625 79.855469 364.476562 80.441406 C 364.300781 81.03125 364.09375 81.609375 363.859375 82.175781 C 363.625 82.742188 363.363281 83.296875 363.074219 83.839844 C 362.785156 84.378906 362.46875 84.90625 362.128906 85.417969 C 361.785156 85.925781 361.421875 86.421875 361.03125 86.894531 C 360.644531 87.371094 360.230469 87.824219 359.796875 88.257812 C 359.363281 88.691406 358.910156 89.105469 358.4375 89.492188 C 357.960938 89.882812 357.46875 90.25 356.960938 90.589844 C 356.449219 90.929688 355.925781 91.246094 355.382812 91.535156 C 354.84375 91.824219 354.289062 92.085938 353.722656 92.324219 C 353.152344 92.558594 352.578125 92.765625 351.992188 92.941406 C 351.402344 93.121094 350.808594 93.269531 350.207031 93.390625 C 349.605469 93.507812 349 93.597656 348.390625 93.660156 C 347.777344 93.71875 347.167969 93.75 346.550781 93.75 L 309.089844 93.75 L 309.089844 131.25 C 309.089844 131.863281 309.058594 132.476562 309 133.085938 C 308.9375 133.699219 308.847656 134.304688 308.726562 134.90625 C 308.609375 135.511719 308.460938 136.105469 308.28125 136.691406 C 308.105469 137.28125 307.898438 137.859375 307.664062 138.425781 C 307.425781 138.992188 307.164062 139.546875 306.875 140.089844 C 306.585938 140.628906 306.273438 141.15625 305.929688 141.667969 C 305.589844 142.175781 305.226562 142.671875 304.835938 143.144531 C 304.445312 143.621094 304.035156 144.074219 303.601562 144.507812 C 303.167969 144.941406 302.714844 145.355469 302.238281 145.742188 C 301.765625 146.132812 301.273438 146.5 300.761719 146.839844 C 300.253906 147.179688 299.726562 147.496094 299.1875 147.785156 C 298.644531 148.074219 298.089844 148.335938 297.523438 148.574219 C 296.957031 148.808594 296.382812 149.015625 295.792969 149.191406 C 295.207031 149.371094 294.613281 149.519531 294.011719 149.640625 C 293.410156 149.757812 292.804688 149.847656 292.191406 149.910156 C 291.582031 149.96875 290.96875 150 290.355469 150 Z M 290.355469 150"/></g></svg>