<svg xmlns="http://www.w3.org/2000/svg" width="375" viewBox="0 0 375 375" height="375" version="1.0"><path fill="#FD7B33" d="M 363.066406 337.578125 C 245.300781 337.578125 127.535156 337.578125 9.769531 337.578125 C 12.050781 341.550781 14.335938 345.535156 16.625 349.507812 C 74.417969 242.882812 132.214844 136.253906 190.007812 29.625 C 185.4375 29.625 180.871094 29.625 176.300781 29.625 C 236.273438 136.253906 296.238281 242.886719 356.214844 349.507812 C 361.226562 358.425781 374.941406 350.433594 369.917969 341.507812 C 309.949219 234.878906 249.980469 128.25 190.007812 21.621094 C 187.144531 16.527344 179.132812 16.398438 176.300781 21.621094 C 118.507812 128.25 60.710938 234.878906 2.914062 341.507812 C 0.0742188 346.742188 3.605469 353.441406 9.769531 353.441406 C 127.535156 353.441406 245.300781 353.441406 363.066406 353.441406 C 373.304688 353.441406 373.304688 337.578125 363.066406 337.578125 Z M 363.066406 337.578125"/><path fill="#FD7B33" d="M 192.894531 291.835938 C 192.414062 301.269531 178.976562 301.339844 178.5 291.835938 C 178.035156 282.601562 192.425781 282.691406 192.894531 291.835938 C 193.417969 302.011719 209.300781 302.0625 208.773438 291.835938 C 208.09375 278.726562 198.675781 269.550781 185.597656 268.894531 C 172.625 268.242188 163.242188 279.847656 162.625 291.835938 C 161.953125 304.894531 173.453125 314.378906 185.597656 315 C 198.707031 315.667969 208.152344 303.953125 208.773438 291.835938 C 209.292969 281.605469 193.417969 281.65625 192.894531 291.835938 Z M 192.894531 291.835938"/><path fill="#FD7B33" d="M 200.195312 234.152344 C 190.390625 234.152344 180.585938 234.152344 170.777344 234.152344 C 173.421875 236.796875 176.070312 239.441406 178.714844 242.085938 C 177.585938 211.507812 176.453125 180.929688 175.324219 150.355469 C 172.679688 153 170.035156 155.644531 167.390625 158.285156 C 179.523438 158.285156 191.65625 158.285156 203.785156 158.285156 C 201.144531 155.644531 198.496094 153 195.851562 150.355469 C 194.652344 180.929688 193.460938 211.507812 192.257812 242.085938 C 191.859375 252.320312 207.734375 252.277344 208.136719 242.085938 C 209.332031 211.507812 210.527344 180.929688 211.726562 150.355469 C 211.898438 146.035156 207.992188 142.425781 203.789062 142.425781 C 191.65625 142.425781 179.523438 142.425781 167.390625 142.425781 C 163.183594 142.425781 159.292969 146.035156 159.453125 150.355469 C 160.582031 180.929688 161.714844 211.507812 162.84375 242.085938 C 163.003906 246.402344 166.332031 250.015625 170.777344 250.015625 C 180.585938 250.015625 190.394531 250.015625 200.199219 250.015625 C 210.433594 250.015625 210.433594 234.152344 200.195312 234.152344 Z M 200.195312 234.152344"/></svg>