<svg xmlns="http://www.w3.org/2000/svg" width="375" viewBox="0 0 375 375" height="375" version="1.0"><path fill="#7ED957" d="M 350.011719 210.554688 C 350.804688 204.550781 361.867188 195.664062 362.226562 189.613281 C 362.871094 178.617188 348.007812 157.101562 337.792969 152.96875 C 321.582031 146.410156 239.183594 149.480469 239.183594 149.480469 C 231.132812 135.402344 253.535156 100.648438 259.691406 85.640625 C 268.738281 63.652344 267.210938 34.472656 255.773438 19.484375 C 241.804688 1.167969 216.15625 -0.0507812 215.628906 8.144531 C 211.808594 67.582031 200.429688 84.070312 185.191406 95.820312 C 176.039062 102.882812 168.035156 109.058594 163.816406 119.816406 C 137.847656 185.9375 118.601562 201.246094 107.601562 201.246094 L 100.269531 201.246094 L 100.269531 351.535156 L 177.246094 365.851562 C 177.246094 365.851562 272.8125 374.894531 302.902344 365.851562 C 312.367188 363.011719 328.710938 348.796875 332.570312 339.671875 C 334.777344 334.4375 331.714844 322.046875 334.324219 316.992188 C 338.167969 309.5 354.410156 300.121094 354.394531 289.945312 C 354.382812 282.691406 345.921875 270.132812 346.539062 262.894531 C 347.152344 255.652344 362.261719 245.722656 362.246094 238.46875 C 362.214844 230.859375 349.011719 218.105469 350.011719 210.554688 Z M 350.011719 210.554688"/><path fill="#7ED957" d="M 85.609375 347.871094 C 85.609375 355.96875 79.042969 362.53125 70.941406 362.53125 L 26.945312 362.53125 C 18.847656 362.53125 12.277344 355.96875 12.277344 347.871094 L 12.277344 208.578125 C 12.277344 200.480469 18.847656 193.914062 26.945312 193.914062 L 70.941406 193.914062 C 79.042969 193.914062 85.609375 200.480469 85.609375 208.578125 Z M 85.609375 347.871094"/></svg>