<svg width="163" height="172" viewBox="0 0 163 172" fill="none" xmlns="http://www.w3.org/2000/svg">
<path d="M89.5687 66.9008C89.438 66.9008 89.3089 66.8829 89.1816 66.8452C89.0322 66.8022 88.8929 66.7359 88.7639 66.6464C88.6349 66.5568 88.5211 66.4475 88.4226 66.3203C88.3258 66.1931 88.2494 66.0533 88.1951 65.901C88.1391 65.7469 88.1085 65.5893 88.1 65.4262L85.0081 1.71636C84.986 1.26307 85.127 0.872483 85.4275 0.548191C85.6975 0.247191 86.0286 0.0913166 86.4191 0.0805664C89.6604 0.182692 92.8847 0.485483 96.0921 0.98715C99.2995 1.48882 102.468 2.18757 105.597 3.0834C108.726 3.97923 111.796 5.06498 114.803 6.34244C117.812 7.61811 120.739 9.07652 123.585 10.7177C123.962 10.9345 124.203 11.2641 124.306 11.7049C124.408 12.1456 124.34 12.5559 124.106 12.9358L90.798 66.202C90.6622 66.4206 90.4839 66.5908 90.2666 66.7144C90.0492 66.8381 89.8166 66.9008 89.5687 66.9008Z" fill="#88B4FF"/>
<path d="M76.7592 77.6473C76.5538 77.6491 76.3585 77.6061 76.1701 77.5183L12.0398 47.9791C11.9464 47.9361 11.8598 47.8841 11.7766 47.8214C11.6934 47.7587 11.617 47.6888 11.5474 47.61C11.4795 47.5294 11.4183 47.4452 11.3657 47.352C11.3131 47.2606 11.2706 47.1639 11.2383 47.0617C11.2044 46.9596 11.1823 46.8557 11.1687 46.75C11.1568 46.6425 11.1535 46.535 11.1619 46.4293C11.1704 46.3218 11.1891 46.2161 11.218 46.114C11.2468 46.01 11.2859 45.9115 11.3334 45.8165C12.1043 44.3097 12.9159 42.8298 13.7682 41.375C14.6223 39.9184 15.5137 38.4904 16.4476 37.0911C17.3797 35.69 18.3509 34.3212 19.3595 32.981C20.368 31.6409 21.414 30.333 22.4955 29.0591C23.5771 27.7834 24.6926 26.5436 25.8438 25.3378C26.995 24.132 28.1785 22.9638 29.3942 21.8315C30.6099 20.6992 31.8561 19.6062 33.133 18.551C34.4098 17.4975 35.7155 16.4834 37.0484 15.5087C38.3812 14.5358 39.7413 13.6042 41.1268 12.7155C42.5123 11.8268 43.9198 10.9812 45.3529 10.1785C46.7859 9.37762 48.2393 8.62154 49.7131 7.91024C51.1869 7.19895 52.6811 6.53425 54.1922 5.91433C55.7034 5.2962 57.2315 4.72466 58.7749 4.20149C60.3183 3.67833 61.8753 3.20174 63.4442 2.77533C65.0148 2.34891 66.5955 1.97087 68.1865 1.6412C69.7774 1.31333 71.3752 1.03383 72.9831 0.804494C73.0476 0.795536 73.1138 0.790161 73.18 0.790161C73.3685 0.790161 73.5502 0.825994 73.7268 0.899453C73.9017 0.974703 74.0579 1.08041 74.1954 1.21658C74.3329 1.35454 74.4399 1.51399 74.5197 1.69495C74.5978 1.87591 74.6419 2.06583 74.6521 2.2647L78.2296 76.0133C78.2415 76.2247 78.211 76.4325 78.1414 76.6314C78.0717 76.8321 77.9665 77.0095 77.8272 77.1653C77.688 77.3194 77.525 77.4377 77.3399 77.5219C77.1532 77.6061 76.9596 77.6491 76.7576 77.6473H76.7592Z" fill="#FF8E8E"/>
<path d="M130.03 25.1443C129.869 25.0117 129.697 24.897 129.515 24.8021C129.332 24.7071 129.144 24.6319 128.947 24.5799C128.748 24.5261 128.548 24.4939 128.346 24.4831C128.142 24.4742 127.94 24.4867 127.738 24.5208C127.537 24.5548 127.342 24.6104 127.152 24.6874C126.962 24.7644 126.782 24.8612 126.61 24.9794C126.439 25.0959 126.281 25.2303 126.137 25.3808C125.992 25.5331 125.863 25.6979 125.751 25.8771L88.4207 85.5879C88.2696 85.828 88.1542 86.086 88.071 86.3619C87.9895 86.6361 87.9436 86.9191 87.9351 87.2058C87.9266 87.4943 87.9572 87.7791 88.0234 88.0586C88.0896 88.3382 88.1915 88.6033 88.3273 88.8524L122.214 150.821C122.316 151.007 122.435 151.181 122.571 151.34C122.707 151.502 122.858 151.645 123.021 151.772C123.186 151.899 123.36 152.009 123.546 152.098C123.731 152.186 123.922 152.254 124.123 152.301C124.321 152.349 124.522 152.374 124.726 152.376C124.929 152.379 125.131 152.36 125.332 152.319C125.53 152.277 125.726 152.215 125.912 152.13C126.101 152.046 126.277 151.944 126.446 151.82C127.641 150.948 128.811 150.038 129.955 149.092C131.1 148.146 132.217 147.166 133.307 146.152C134.399 145.136 135.46 144.088 136.492 143.007C137.524 141.927 138.526 140.816 139.497 139.675C140.467 138.532 141.406 137.36 142.313 136.161C143.218 134.961 144.09 133.734 144.927 132.479C145.766 131.225 146.569 129.946 147.337 128.643C148.103 127.339 148.834 126.013 149.527 124.664C150.221 123.317 150.877 121.948 151.495 120.558C152.113 119.169 152.692 117.763 153.232 116.337C153.772 114.912 154.273 113.472 154.733 112.017C155.193 110.56 155.612 109.091 155.991 107.609C156.37 106.128 156.708 104.637 157.005 103.134C157.3 101.631 157.555 100.12 157.767 98.6026C157.979 97.0851 158.151 95.5604 158.278 94.0321C158.407 92.5038 158.492 90.9719 158.536 89.4382C158.579 87.9046 158.58 86.3709 158.54 84.8354C158.497 83.3018 158.414 81.7699 158.287 80.2416C158.161 78.7133 157.993 77.1886 157.781 75.6711C157.57 74.1517 157.317 72.6414 157.023 71.1381C156.73 69.6349 156.393 68.1425 156.016 66.6608C155.64 65.1791 155.222 63.7099 154.763 62.2533C154.305 60.7966 153.806 59.3561 153.268 57.93C152.729 56.5038 152.152 55.0956 151.536 53.707C150.919 52.3167 150.266 50.9461 149.573 49.5969C148.882 48.2478 148.152 46.9202 147.388 45.6159C146.622 44.3115 145.82 43.0305 144.983 41.7763C144.146 40.5204 143.277 39.2931 142.372 38.0909C141.467 36.8904 140.531 35.7169 139.562 34.5738C138.592 33.4307 137.591 32.3181 136.56 31.2359C135.529 30.1538 134.47 29.1056 133.38 28.088C132.292 27.0721 131.174 26.0903 130.032 25.1425L130.03 25.1443ZM125.678 144.718L94.3397 87.4083L128.863 32.1855C129.826 33.0616 130.765 33.9664 131.682 34.8999C132.597 35.8316 133.487 36.7901 134.353 37.7755C135.217 38.7591 136.056 39.7679 136.867 40.8016C137.679 41.8354 138.463 42.8925 139.221 43.9729C139.976 45.0533 140.705 46.1534 141.403 47.2767C142.1 48.3983 142.769 49.5414 143.408 50.7024C144.046 51.8652 144.652 53.0441 145.23 54.2409C145.805 55.4378 146.35 56.6525 146.861 57.8816C147.374 59.1107 147.855 60.3541 148.301 61.6119C148.748 62.8678 149.162 64.1381 149.541 65.4191C149.921 66.702 150.267 67.9938 150.58 69.2945C150.892 70.5971 151.169 71.9068 151.413 73.2254C151.656 74.5441 151.863 75.8681 152.038 77.1994C152.211 78.5288 152.349 79.8636 152.453 81.2019C152.556 82.5403 152.624 83.8823 152.656 85.2242C152.689 86.5662 152.687 87.9099 152.648 89.2519C152.61 90.5939 152.537 91.934 152.429 93.2724C152.32 94.6108 152.176 95.9456 151.998 97.275C151.819 98.6044 151.605 99.9267 151.357 101.245C151.108 102.562 150.826 103.87 150.508 105.171C150.191 106.472 149.839 107.762 149.454 109.043C149.07 110.322 148.651 111.59 148.199 112.845C147.748 114.101 147.262 115.342 146.746 116.569C146.228 117.797 145.68 119.006 145.099 120.201C144.517 121.396 143.905 122.573 143.262 123.733C142.62 124.892 141.946 126.029 141.243 127.149C140.54 128.269 139.808 129.367 139.049 130.444C138.289 131.519 137.499 132.573 136.684 133.603C135.867 134.633 135.025 135.638 134.156 136.62C133.286 137.6 132.393 138.555 131.473 139.483C130.555 140.411 129.61 141.312 128.644 142.185C127.678 143.059 126.688 143.903 125.678 144.718ZM82.3778 90.4093C82.0535 89.8181 81.5968 89.3863 81.0042 89.1139L17.3205 59.7754C17.1354 59.6894 16.9418 59.6249 16.7432 59.5801C16.5428 59.5371 16.3425 59.5156 16.1387 59.5156C15.935 59.5156 15.7329 59.5389 15.5343 59.5837C15.3356 59.6285 15.142 59.693 14.9553 59.7808C14.7702 59.8668 14.5936 59.9725 14.4289 60.0979C14.2625 60.2233 14.1114 60.3649 13.9739 60.5225C13.8363 60.682 13.7158 60.854 13.6122 61.0385C13.5086 61.2231 13.4237 61.4166 13.3575 61.6208C12.7684 63.4394 12.2454 65.2776 11.7836 67.1374C11.3234 68.9971 10.9278 70.8712 10.5967 72.7614C10.2673 74.6516 10.0024 76.5508 9.80379 78.4625C9.60344 80.3724 9.471 82.2877 9.40478 84.2084C9.33856 86.129 9.34026 88.0497 9.40648 89.9704C9.4727 91.891 9.60683 93.8063 9.80719 95.7162C10.0058 97.6262 10.2724 99.5271 10.6035 101.417C10.9346 103.306 11.3319 105.182 11.7921 107.04C12.2539 108.899 12.7785 110.738 13.3677 112.556C13.9569 114.375 14.6072 116.168 15.3203 117.936C16.0334 119.705 16.8077 121.443 17.6414 123.152C18.4751 124.861 19.3665 126.535 20.3156 128.174C21.2664 129.813 22.2716 131.415 23.3311 132.976C24.3923 134.538 25.5061 136.057 26.6709 137.534C27.8374 139.008 29.0531 140.438 30.318 141.819C31.583 143.203 32.8938 144.534 34.2521 145.815C35.6087 147.094 37.0078 148.321 38.451 149.493C39.8926 150.667 41.3732 151.781 42.8928 152.84C44.4124 153.897 45.9677 154.897 47.5553 155.834C49.1445 156.773 50.7643 157.647 52.413 158.46C54.0634 159.274 55.7375 160.021 57.4388 160.705C59.1402 161.388 60.8635 162.004 62.6073 162.556C64.3511 163.106 66.1118 163.588 67.8895 164.002C69.6672 164.416 71.4568 164.762 73.2583 165.038C75.0598 165.314 76.8681 165.52 78.6849 165.656C80.4999 165.792 82.3184 165.858 84.1386 165.855C85.9587 165.851 87.7772 165.776 89.5923 165.631C91.4074 165.486 93.2139 165.272 95.0154 164.987C96.8152 164.703 98.6031 164.35 100.379 163.927C102.155 163.504 103.914 163.015 105.655 162.456C107.397 161.897 109.117 161.273 110.816 160.582C112.514 159.89 114.187 159.134 115.832 158.313C116.017 158.222 116.19 158.111 116.351 157.982C116.514 157.851 116.662 157.706 116.795 157.543C116.929 157.382 117.046 157.206 117.144 157.018C117.245 156.832 117.324 156.635 117.384 156.43C117.445 156.224 117.486 156.015 117.504 155.802C117.525 155.587 117.523 155.373 117.501 155.16C117.477 154.947 117.435 154.737 117.372 154.533C117.307 154.329 117.226 154.134 117.124 153.947L82.3778 90.4093ZM83.9586 159.638C82.6325 159.638 81.3065 159.596 79.9804 159.516C78.656 159.435 77.335 159.313 76.0157 159.152C74.6982 158.989 73.3857 158.788 72.0783 158.545C70.7709 158.303 69.472 158.021 68.1799 157.699C66.8894 157.378 65.6075 157.018 64.3358 156.617C63.064 156.217 61.8042 155.778 60.5562 155.302C59.3082 154.825 58.0739 154.309 56.8548 153.757C55.6357 153.205 54.4318 152.616 53.245 151.989C52.0581 151.364 50.8883 150.701 49.7388 150.004C48.5876 149.307 47.4568 148.574 46.3464 147.807C45.2359 147.04 44.1459 146.239 43.0796 145.406C42.0133 144.573 40.9707 143.708 39.9503 142.81C38.9315 141.913 37.9383 140.986 36.9688 140.028C36.0009 139.069 35.0603 138.084 34.1451 137.068C33.2316 136.052 32.3453 135.009 31.4879 133.94C30.6321 132.87 29.8052 131.774 29.0072 130.654C28.2109 129.534 27.4451 128.389 26.7116 127.223C25.9764 126.056 25.2752 124.867 24.6062 123.657C23.9372 122.446 23.3022 121.217 22.7012 119.968C22.1001 118.719 21.533 117.453 21.0016 116.17C20.4701 114.885 19.9726 113.586 19.5125 112.273C19.0523 110.96 18.6279 109.632 18.239 108.292C17.8519 106.952 17.5004 105.601 17.188 104.239C16.8739 102.879 16.5972 101.509 16.3594 100.131C16.12 98.7531 15.9197 97.3681 15.7567 95.9778C15.5954 94.5875 15.4697 93.1918 15.3848 91.7943C15.2982 90.3968 15.2507 88.9957 15.2422 87.5946C15.232 86.1935 15.2609 84.7942 15.3288 83.3949C15.3967 81.9956 15.502 80.5999 15.6463 79.206C15.7906 77.8139 15.9723 76.4271 16.1931 75.0458C16.4138 73.6626 16.6719 72.2902 16.9673 70.9231C17.2627 69.5579 17.5955 68.2016 17.9657 66.8561L77.7595 94.4047L110.385 154.067C106.201 155.916 101.884 157.308 97.435 158.245C92.9881 159.184 88.4954 159.646 83.9586 159.638Z" fill="#6D5F63"/>
</svg>
