<svg width="139" height="151" viewBox="0 0 139 151" fill="none" xmlns="http://www.w3.org/2000/svg">
<g clip-path="url(#clip0_129_11280)">
<path d="M62.6497 140.383C56.6843 139.782 50.8883 138.2 45.3573 135.659C38.3827 132.454 32.1161 127.864 26.7327 122.016C21.3508 116.169 17.1258 109.362 14.175 101.783C12.52 97.535 11.3095 93.1434 10.545 88.6449L16.8304 93.1434L19.4555 88.8179L6.08399 79.2451L-2.72803 93.771L1.25374 96.6211L5.37162 89.834C5.51496 90.1737 5.65541 90.5041 5.79151 90.8234C11.3226 120.452 34.2938 143.203 62.56 145.882C62.8554 145.91 63.1102 145.657 63.1102 145.334V140.929C63.1102 140.644 62.9104 140.408 62.6497 140.383Z" fill="black"/>
<path d="M126.499 82.9981C125.947 89.4785 124.491 95.7749 122.151 101.783C119.2 109.362 114.975 116.168 109.593 122.016C104.211 127.862 97.9444 132.452 90.9684 135.658C87.0576 137.456 83.015 138.771 78.8725 139.601L83.015 132.773L79.0317 129.923L70.2197 144.447L83.5912 154.02L86.2163 149.695L79.9685 145.221C80.2799 145.065 80.5839 144.914 80.8793 144.765C108.154 138.756 129.096 113.802 131.562 83.0956C131.587 82.7748 131.355 82.4979 131.058 82.4979H127.001C126.741 82.4979 126.523 82.715 126.499 82.9981Z" fill="black"/>
<path d="M73.6758 13.6372C79.6412 14.2381 85.4372 15.8204 90.9682 18.3623C97.9428 21.5663 104.209 26.1576 109.593 32.0042C114.973 37.8507 119.2 44.6583 122.151 52.2366C123.804 56.485 125.015 60.8766 125.779 65.3767L119.495 60.8766L116.87 65.2021L130.24 74.7765L139.054 60.2506L135.07 57.4005L130.952 64.186C130.811 63.8479 130.67 63.5176 130.534 63.1967C125.003 33.5676 102.032 10.817 73.7655 8.1383C73.4701 8.11156 73.2139 8.36323 73.2139 8.68568V13.0914C73.2139 13.3761 73.4137 13.6136 73.6758 13.6372Z" fill="black"/>
<path d="M9.8271 71.0219C10.3802 64.5415 11.8368 58.2451 14.1752 52.2366C17.126 44.6583 21.3511 37.8507 26.733 32.0041C32.1163 26.1576 38.3829 21.5663 45.359 18.3622C49.2684 16.5644 53.3109 15.2479 57.4534 14.4189L53.3109 21.247L57.2942 24.0971L66.1062 9.5712L52.7361 0L50.111 4.32552L56.3588 8.7989C56.046 8.95462 55.742 9.10562 55.4466 9.25504C28.1737 15.2636 7.23099 40.2163 4.76519 70.9244C4.73912 71.2453 4.97079 71.5221 5.26761 71.5221H9.32468C9.58675 71.5221 9.80394 71.3035 9.8271 71.0219Z" fill="black"/>
</g>
<defs>
<clipPath id="clip0_129_11280">
<rect width="139" height="151" fill="white"/>
</clipPath>
</defs>
</svg>
