<svg width="126" height="127" viewBox="0 0 126 127" fill="none" xmlns="http://www.w3.org/2000/svg">
<path d="M80.3446 32.299C82.4761 32.299 84.2086 34.0466 84.2086 36.1964V47.8883C84.2086 50.0367 82.4761 51.7856 80.3446 51.7856H68.7526C66.6224 51.7856 64.8899 50.0367 64.8899 47.8883V36.1964C64.8899 34.0466 66.6224 32.299 68.7526 32.299H80.3446ZM80.3446 28.4017H68.7526C64.4856 28.4017 61.0259 31.8903 61.0259 36.1964V47.8883C61.0259 52.1917 64.4856 55.6829 68.7526 55.6829H80.3446C84.6128 55.6829 88.0726 52.1917 88.0726 47.8883V36.1964C88.0726 31.8903 84.6128 28.4017 80.3446 28.4017Z" fill="black"/>
<path d="M95.4269 79.0443C94.5252 78.9107 93.6248 78.7784 92.7244 78.6474C92.6076 78.6289 92.5302 78.6038 92.5 78.4649C92.2467 77.3788 91.8175 76.3667 91.2321 75.4208C91.1757 75.3282 91.177 75.2713 91.2426 75.1814C91.7834 74.4432 92.3189 73.6997 92.8557 72.9562C93.0407 72.7036 93.0289 72.5408 92.8045 72.3226C92.0944 71.6188 91.3883 70.9203 90.6796 70.2205C90.5667 70.1106 90.4669 70.0551 90.3619 70.0551C90.2687 70.0551 90.1716 70.0987 90.0574 70.1861C89.3421 70.7351 88.6216 71.2828 87.9089 71.8397C87.8498 71.8847 87.6647 71.8873 87.6096 71.8529C86.7407 71.3304 85.8102 70.9454 84.8258 70.7099C84.6932 70.6769 84.6407 70.62 84.6237 70.4877C84.4977 69.5749 84.3638 68.6687 84.2312 67.7585C84.1932 67.4926 84.0632 67.3735 83.8021 67.3735C82.7836 67.3735 81.769 67.3735 80.7518 67.3735C80.4959 67.3735 80.3607 67.4926 80.3226 67.744C80.1914 68.6607 80.0575 69.5722 79.9315 70.4877C79.9131 70.6147 79.8685 70.6729 79.7412 70.706C78.6715 70.9639 77.6687 71.3899 76.7382 71.9773C76.6909 72.0064 76.5361 72.0037 76.4888 71.9693C75.7564 71.4217 75.0214 70.8793 74.2825 70.3422C74.1762 70.2628 74.0777 70.2205 73.9832 70.2205C73.8796 70.2244 73.7798 70.2773 73.6748 70.3832C72.9739 71.0949 72.2796 71.8185 71.5814 72.5356C71.3635 72.7578 71.3569 72.9245 71.5433 73.1719C72.0959 73.9048 72.6458 74.6363 73.2049 75.3653C73.2706 75.4526 73.2653 75.5121 73.2128 75.6008C72.6852 76.4964 72.2901 77.4489 72.0552 78.4649C72.0224 78.6051 71.9462 78.6302 71.8321 78.6461C70.9277 78.7771 70.03 78.9107 69.127 79.043C68.8697 79.0813 68.7529 79.215 68.7529 79.4848C68.7529 80.5061 68.7529 81.5248 68.7529 82.5447C68.7529 82.8146 68.8671 82.9482 69.127 82.9853C70.03 83.1202 70.9304 83.2512 71.8307 83.3835C71.9489 83.3993 72.0211 83.4271 72.0539 83.5647C72.3085 84.6521 72.7377 85.6642 73.3231 86.6087C73.3795 86.7013 73.3769 86.7582 73.3112 86.8482C72.7718 87.5851 72.235 88.3312 71.6982 89.0747C71.5144 89.326 71.5276 89.4887 71.7507 89.711C72.4594 90.4121 73.1669 91.1119 73.8756 91.8104C73.9898 91.9203 74.0909 91.9758 74.1946 91.9758C74.2891 91.9758 74.3849 91.9322 74.4977 91.8435C75.2131 91.2958 75.9323 90.7468 76.6463 90.1912C76.7041 90.1462 76.8917 90.1436 76.9469 90.1766C77.8144 90.6992 78.7437 91.0842 79.7307 91.3196C79.8632 91.3527 79.9144 91.4109 79.9328 91.5432C80.0588 92.4547 80.1914 93.3622 80.3226 94.2711C80.3607 94.537 80.4919 94.6547 80.7518 94.6547C81.7703 94.6547 82.7849 94.6547 83.8034 94.6547C84.0593 94.6547 84.1932 94.5357 84.2312 94.2856C84.3638 93.3715 84.4951 92.4574 84.625 91.5406C84.6407 91.4295 84.667 91.3593 84.8009 91.3276C85.8811 91.0709 86.8877 90.6383 87.8314 90.0444C87.8721 90.0179 88.0086 90.0205 88.0519 90.0523C88.7869 90.5987 89.5219 91.1371 90.2596 91.6821C90.379 91.7708 90.4774 91.8157 90.5693 91.8157C90.6782 91.8157 90.7806 91.7536 90.9027 91.6266C91.5944 90.9162 92.2834 90.2071 92.9751 89.4953C93.193 89.2731 93.1996 89.1064 93.0119 88.8577C92.4606 88.1275 91.9094 87.3946 91.3516 86.6643C91.2859 86.5783 91.2872 86.5188 91.3411 86.4288C91.8661 85.5438 92.2559 84.6006 92.4934 83.5978C92.5289 83.4483 92.5971 83.3993 92.7389 83.3795C93.6366 83.2525 94.5317 83.1202 95.4282 82.9866C95.6815 82.9496 95.8009 82.8146 95.8009 82.5633C95.8009 81.5314 95.8009 80.4995 95.8009 79.469C95.8009 79.215 95.6802 79.0813 95.4269 79.0443ZM82.2769 87.5282C78.7122 87.5282 75.8194 84.6111 75.8194 81.0141C75.8194 77.4171 78.7109 74.5014 82.2769 74.5014C85.843 74.5014 88.7357 77.4171 88.7357 81.0141C88.7357 84.6111 85.843 87.5282 82.2769 87.5282Z" fill="black"/>
<path d="M45.5702 12.8125H61.0262C62.0919 12.8125 62.9582 11.9393 62.9582 10.8638C62.9582 9.78829 62.0919 8.91516 61.0262 8.91516H45.5702C44.5018 8.91516 43.6382 9.78829 43.6382 10.8638C43.6382 11.9393 44.5018 12.8125 45.5702 12.8125Z" fill="black"/>
<path d="M68.7525 12.8125H72.6165C73.6835 12.8125 74.5485 11.9393 74.5485 10.8638C74.5485 9.78829 73.6835 8.91516 72.6165 8.91516H68.7525C67.6854 8.91516 66.8218 9.78829 66.8218 10.8638C66.8218 11.9393 67.6854 12.8125 68.7525 12.8125Z" fill="black"/>
<path d="M49.4338 32.299C51.564 32.299 53.2978 34.0466 53.2978 36.1964V47.8883C53.2978 50.0367 51.564 51.7856 49.4338 51.7856H37.8418C35.7103 51.7856 33.9778 50.0367 33.9778 47.8883V36.1964C33.9778 34.0466 35.7103 32.299 37.8418 32.299H49.4338ZM49.4338 28.4017H37.8418C33.5735 28.4017 30.1138 31.8903 30.1138 36.1964V47.8883C30.1138 52.1917 33.5735 55.6829 37.8418 55.6829H49.4338C53.7007 55.6829 57.1618 52.1917 57.1618 47.8883V36.1964C57.1618 31.8903 53.7007 28.4017 49.4338 28.4017Z" fill="black"/>
<path d="M49.4338 63.4762C51.564 63.4762 53.2978 65.2251 53.2978 67.3735V79.0654C53.2978 81.2152 51.564 82.9628 49.4338 82.9628H37.8418C35.7103 82.9628 33.9778 81.2152 33.9778 79.0654V67.3735C33.9778 65.2251 35.7103 63.4762 37.8418 63.4762H49.4338ZM49.4338 59.5802H37.8418C33.5735 59.5802 30.1138 63.0701 30.1138 67.3735V79.0654C30.1138 83.3702 33.5735 86.8601 37.8418 86.8601H49.4338C53.7007 86.8601 57.1618 83.3702 57.1618 79.0654V67.3735C57.1618 63.0701 53.7007 59.5802 49.4338 59.5802Z" fill="black"/>
<path d="M95.8006 63.4762C97.9321 63.4762 99.6646 65.2251 99.6646 67.3735V94.6547C99.6646 96.8044 97.9321 98.552 95.8006 98.552H68.7526C66.6224 98.552 64.8899 96.8044 64.8899 94.6547V67.3735C64.8899 65.2251 66.6224 63.4762 68.7526 63.4762H95.8006ZM95.8006 59.5802H68.7526C64.4856 59.5802 61.0259 63.0701 61.0259 67.3735V94.6547C61.0259 98.9595 64.4856 102.449 68.7526 102.449H95.8006C100.069 102.449 103.529 98.9595 103.529 94.6547V67.3735C103.529 63.0701 100.069 59.5802 95.8006 59.5802Z" fill="black"/>
<path d="M49.434 118.039H68.7526C69.8197 118.039 70.6846 117.165 70.6846 116.09C70.6846 115.014 69.8197 114.141 68.7526 114.141H49.434C48.3656 114.141 47.502 115.014 47.502 116.09C47.502 117.165 48.3656 118.039 49.434 118.039Z" fill="black"/>
<path d="M95.8009 55.6829V8.91511C95.8009 4.61034 92.2952 1.12048 87.9705 1.12048H30.2166C25.8919 1.12048 22.3862 4.61034 22.3862 8.91511V118.039C22.3862 122.343 25.8919 125.833 30.2166 125.833H87.9705C92.2939 125.833 95.8009 122.343 95.8009 118.039V106.347H26.2502V20.607H91.9369V55.6829H95.8009ZM91.9369 110.244V118.039C91.9369 120.188 90.1585 121.936 87.9705 121.936H30.2166C28.0274 121.936 26.2502 120.188 26.2502 118.039V110.244H91.9369ZM26.2502 16.7097V8.91511C26.2502 6.76537 28.0287 5.0178 30.2166 5.0178H87.9705C90.1585 5.0178 91.9369 6.76537 91.9369 8.91511V16.7097H26.2502Z" fill="black"/>
</svg>
