<svg width="176" height="191" viewBox="0 0 176 191" fill="none" xmlns="http://www.w3.org/2000/svg">
<g clip-path="url(#clip0_129_11275)">
<path d="M150.48 93.594C155.485 88.2738 158.4 81.0059 158.4 73.2167C158.4 57.4214 146.555 44.5667 132 44.5667C124.802 44.5667 118.067 47.6903 113.12 53.2054C111.012 51.5919 108.792 50.2012 106.471 49.0333C111.481 43.7131 114.4 36.4432 114.4 28.65C114.4 12.8547 102.555 0 88 0C73.4452 0 61.6 12.8547 61.6 28.65C61.6 36.4452 64.5187 43.7171 69.5255 49.0333C67.2063 50.2012 64.988 51.5919 62.8797 53.2054C57.9297 47.6863 51.1977 44.5667 44 44.5667C29.4452 44.5667 17.6 57.4214 17.6 73.2167C17.6 81.0099 20.515 88.2778 25.52 93.594C10.0797 101.32 0 118.064 0 136.883V165.533C0 167.29 1.3145 168.717 2.93333 168.717H44.9002C44.3135 171.84 44 175.032 44 178.267V187.817C44 189.573 45.3145 191 46.9333 191H129.067C130.686 191 132 189.573 132 187.817V178.267C132 175.032 131.686 171.84 131.1 168.717H173.067C174.686 168.717 176 167.29 176 165.533V136.883C176 118.06 165.92 101.32 150.48 93.594ZM132 50.9333C143.323 50.9333 152.533 60.929 152.533 73.2167C152.533 80.7831 149.043 87.7585 143.182 91.8829C139.856 94.2486 135.989 95.5 132 95.5C131.56 95.5 131.12 95.4721 130.504 95.4363C130.378 95.4363 130.264 95.4144 130.128 95.3945C130.011 95.3786 129.633 95.315 129.516 95.315L129.102 95.2513C128.938 95.2294 128.779 95.2095 128.368 95.118C127.692 95.0126 127.063 94.8534 126.284 94.6047C126.005 94.5331 125.728 94.4276 125.477 94.3341C123.768 93.6974 122.208 92.8777 120.809 91.875C114.957 87.7585 111.467 80.7831 111.467 73.2167C111.467 71.6568 111.672 70.1189 111.971 68.6048C112.622 65.2941 113.916 62.1387 115.857 59.4587C119.777 54.0411 125.658 50.9333 132 50.9333ZM67.4667 28.65C67.4667 16.3623 76.6773 6.36667 88 6.36667C99.3227 6.36667 108.533 16.3623 108.533 28.65C108.533 36.2164 105.043 43.1919 99.1815 47.3163C92.5797 52.0157 83.5963 52.0376 76.9615 47.4038C76.912 47.368 76.857 47.3461 76.8057 47.3103C70.9573 43.1919 67.4667 36.2164 67.4667 28.65ZM74.855 53.48C75.2198 53.7088 75.6122 53.8739 75.988 54.0809C76.4922 54.3654 76.9945 54.6459 77.5097 54.8906C77.9882 55.1134 78.4777 55.2985 78.969 55.4895C79.6803 55.772 80.3917 56.0485 81.125 56.2654C81.257 56.3032 81.3908 56.3251 81.5265 56.3609C83.6293 56.9439 85.7945 57.3 88 57.3C90.211 57.3 92.3798 56.9439 94.4882 56.3609C94.6147 56.3251 94.743 56.3032 94.8732 56.2694C95.612 56.0525 96.327 55.772 97.0457 55.4855C97.5297 55.2985 98.0118 55.1134 98.483 54.8926C99.0055 54.6459 99.5078 54.3614 100.016 54.0789C100.39 53.8719 100.78 53.7068 101.147 53.476C104.109 54.6519 106.914 56.2296 109.525 58.1953C109.461 58.3087 109.417 58.4361 109.351 58.5514C108.797 59.5602 108.28 60.5947 107.848 61.6671C107.833 61.7029 107.82 61.7407 107.805 61.7785C107.384 62.833 107.034 63.9213 106.729 65.0236C106.671 65.2325 106.608 65.4394 106.557 65.6503C106.278 66.7485 106.06 67.8647 105.904 68.9948C105.875 69.2156 105.853 69.4384 105.829 69.6573C105.692 70.8391 105.6 72.0229 105.6 73.2167C105.6 74.3269 105.677 75.4251 105.791 76.5154C105.826 76.8556 105.884 77.1899 105.932 77.5301C106.036 78.2841 106.163 79.0302 106.322 79.7684C106.401 80.1364 106.485 80.5025 106.579 80.8666C106.764 81.5928 106.979 82.3051 107.217 83.0114C107.321 83.3297 107.419 83.652 107.536 83.9644C107.906 84.9532 108.31 85.9241 108.777 86.8612C108.806 86.9209 108.845 86.9786 108.876 87.0383C109.32 87.9137 109.813 88.7573 110.341 89.575C110.532 89.8754 110.743 90.158 110.944 90.4484C111.344 91.0214 111.756 91.5785 112.196 92.1197C112.444 92.4221 112.695 92.7186 112.953 93.011C113.124 93.202 113.274 93.4089 113.45 93.594C113.289 93.6736 113.144 93.787 112.983 93.8705C111.492 94.6445 110.038 95.4901 108.641 96.4431C108.592 96.4769 108.537 96.4988 108.486 96.5346C108.451 96.4868 108.41 96.445 108.376 96.4013C108.158 96.1108 107.917 95.8541 107.688 95.5756C107.219 95.0006 106.744 94.4276 106.236 93.8984C105.943 93.59 105.629 93.3134 105.325 93.021C104.846 92.5654 104.364 92.1197 103.86 91.7059C103.521 91.4253 103.165 91.1667 102.813 90.9061C102.305 90.534 101.792 90.1739 101.264 89.8396C100.892 89.6049 100.514 89.382 100.129 89.1652C99.5867 88.8588 99.033 88.5802 98.4683 88.3176C98.076 88.1346 97.6855 87.9515 97.284 87.7904C96.6918 87.5476 96.085 87.3467 95.4745 87.1537C95.0803 87.0284 94.6972 86.8931 94.2975 86.7876C93.6173 86.6086 92.9225 86.4792 92.224 86.3579C91.8812 86.2962 91.5438 86.2146 91.1973 86.1689C90.1413 86.0296 89.0762 85.95 88 85.95C86.9238 85.95 85.8623 86.0296 84.8082 86.1669C84.4507 86.2146 84.1042 86.2962 83.7503 86.3598C83.0665 86.4792 82.3863 86.6066 81.719 86.7816C81.2937 86.8931 80.883 87.0363 80.4668 87.1696C79.8948 87.3546 79.3265 87.5417 78.7655 87.7685C78.3145 87.9495 77.8745 88.1525 77.4345 88.3594C76.945 88.5922 76.4573 88.8349 75.9825 89.0975C75.515 89.3562 75.0603 89.6267 74.613 89.9132C74.195 90.1779 73.7917 90.4604 73.3883 90.7509C72.9227 91.0871 72.4625 91.4293 72.017 91.7974C71.6668 92.0879 71.3332 92.4002 70.9958 92.7086C70.5467 93.1224 70.0975 93.5323 69.6722 93.978C69.3587 94.3102 69.069 94.6684 68.7683 95.0185C68.3723 95.4841 67.9653 95.9337 67.5987 96.4291C67.573 96.4649 67.54 96.4968 67.5143 96.5306C67.463 96.4968 67.408 96.4749 67.3585 96.4391C65.9615 95.4881 64.5077 94.6405 63.0172 93.8665C62.8558 93.785 62.711 93.6736 62.5497 93.59C62.733 93.395 62.8907 93.1801 63.0667 92.9812C63.3068 92.7106 63.5397 92.4341 63.767 92.1535C64.2308 91.5885 64.669 90.9996 65.087 90.3967C65.2722 90.1301 65.4665 89.8715 65.6425 89.5989C66.1943 88.7414 66.7132 87.86 67.1733 86.9428C67.1843 86.9169 67.2027 86.8951 67.2137 86.8692C67.6867 85.9281 68.0937 84.9512 68.4677 83.9505C68.5813 83.648 68.673 83.3357 68.7757 83.0273C69.0158 82.315 69.2322 81.5928 69.421 80.8567C69.5108 80.4966 69.597 80.1344 69.6758 79.7684C69.8335 79.0302 69.9637 78.2821 70.0682 77.5241C70.1158 77.1859 70.1745 76.8516 70.2093 76.5114C70.323 75.4251 70.4 74.3269 70.4 73.2167C70.4 72.0229 70.3083 70.8391 70.1708 69.6613C70.1452 69.4384 70.125 69.2176 70.0957 68.9987C69.9398 67.8687 69.7217 66.7545 69.443 65.6523C69.3917 65.4434 69.3257 65.2364 69.2707 65.0256C68.9663 63.9213 68.6162 62.833 68.1945 61.7766C68.1798 61.7447 68.1707 61.7089 68.156 61.6731C67.7197 60.5987 67.2027 59.5602 66.649 58.5514C66.5867 58.4361 66.5427 58.3127 66.4785 58.1973C69.0855 56.2336 71.8905 54.6519 74.855 53.48ZM108.372 117.405C107.624 123.863 104.309 129.657 99.1797 133.266C96.5745 135.123 93.6815 136.273 90.4823 136.698C89.0322 136.943 87.0613 136.959 85.4223 136.686C84.5735 136.575 83.7467 136.396 82.9308 136.173C80.7602 135.582 78.7068 134.617 76.8038 133.26C70.9573 129.142 67.4667 122.166 67.4667 114.6C67.4667 110.653 68.4237 106.807 70.3303 103.283C70.411 103.102 70.5137 102.923 70.6292 102.746C70.6585 102.698 70.675 102.666 70.708 102.611C74.4663 96.1645 80.927 92.3167 88 92.3167C95.073 92.3167 101.534 96.1645 105.369 102.738C105.486 102.921 105.589 103.102 105.771 103.48C107.576 106.807 108.533 110.653 108.533 114.6C108.533 115.545 108.478 116.482 108.372 117.405ZM23.4667 73.2167C23.4667 60.929 32.6773 50.9333 44 50.9333C50.3415 50.9333 56.2228 54.0411 60.1443 59.4587C62.975 63.3603 64.5333 68.2467 64.5333 73.2167C64.5333 74.1617 64.4783 75.0988 64.372 76.022C63.624 82.4802 60.3093 88.2738 55.1723 91.8869C53.7937 92.8737 52.2317 93.6974 50.5468 94.3261C50.2718 94.4236 49.995 94.5291 49.588 94.6445C48.9335 94.8534 48.3065 95.0126 47.388 95.1657C47.2212 95.2075 47.0598 95.2254 46.8985 95.2493L46.2293 95.3727C46.1083 95.3727 45.9653 95.3826 45.848 95.3985C45.7362 95.4144 45.6225 95.4363 45.32 95.4423C44.2145 95.5119 43.1108 95.4901 42.02 95.3766C40.9292 95.2612 39.853 95.0543 38.7933 94.7559C38.7732 94.7479 38.7548 94.74 38.7347 94.732C37.6988 94.4376 36.685 94.0575 35.7042 93.586C35.2495 93.3711 34.8297 93.0687 34.3933 92.8141C33.8617 92.5037 33.3135 92.2371 32.8093 91.877C26.9573 87.7585 23.4667 80.7831 23.4667 73.2167ZM5.86667 136.883C5.86667 119.427 15.8547 103.996 30.855 98.0467C31.2437 98.2914 31.6598 98.4704 32.0577 98.6893C32.5068 98.938 32.9523 99.1966 33.4143 99.4155C34.089 99.7398 34.7802 100.004 35.4787 100.265C35.9242 100.43 36.3623 100.619 36.817 100.758C37.5962 101.001 38.3937 101.166 39.1948 101.329C39.5853 101.409 39.9667 101.52 40.3627 101.58C41.5598 101.761 42.7735 101.867 44 101.867C44.5573 101.867 45.1147 101.835 45.496 101.803C45.8242 101.803 46.123 101.775 46.4347 101.735C46.8362 101.719 47.212 101.666 47.3825 101.606L47.6777 101.56C48.0187 101.511 48.3523 101.459 48.4642 101.421C49.3918 101.278 50.281 101.065 51.1317 100.788C51.5588 100.673 51.9878 100.524 52.4333 100.359C53.416 99.9925 54.351 99.5587 55.2603 99.0932C55.5427 98.9479 55.8103 98.7888 56.0853 98.6356C56.4263 98.4446 56.7802 98.2735 57.1083 98.0666C57.3063 98.1461 57.5043 98.2217 57.6987 98.3053C58.5677 98.6674 59.4202 99.0613 60.2562 99.4891C60.5293 99.6284 60.808 99.7537 61.0757 99.899C62.1427 100.478 63.1877 101.109 64.196 101.797C64.2455 101.831 64.2932 101.871 64.3427 101.904C64.196 102.221 64.0897 102.557 63.9577 102.879C63.7762 103.311 63.6002 103.745 63.4425 104.185C63.195 104.859 62.9878 105.549 62.7917 106.244C62.667 106.679 62.535 107.109 62.4323 107.549C62.2508 108.319 62.1225 109.103 62.0015 109.889C61.9428 110.271 61.8603 110.647 61.8163 111.031C61.6825 112.212 61.6 113.402 61.6 114.6C61.6 115.714 61.6733 116.812 61.7907 117.901C61.8255 118.241 61.8842 118.573 61.9318 118.913C62.0363 119.667 62.1628 120.416 62.3223 121.154C62.4012 121.524 62.4855 121.886 62.579 122.252C62.7642 122.982 62.9823 123.698 63.2188 124.409C63.3252 124.723 63.4187 125.041 63.5323 125.35C63.9027 126.341 64.3097 127.313 64.7772 128.253C64.8028 128.304 64.8322 128.348 64.8597 128.4C65.307 129.285 65.8057 130.139 66.341 130.968C66.5317 131.261 66.737 131.541 66.935 131.828C67.3383 132.405 67.7563 132.968 68.2 133.513C68.4438 133.811 68.6932 134.104 68.948 134.394C69.1185 134.585 69.2707 134.794 69.4467 134.983C69.421 134.995 69.3972 135.011 69.3733 135.025C69.1918 135.117 69.025 135.232 68.8453 135.327C67.5455 136.008 66.2823 136.752 65.0577 137.562C64.592 137.87 64.152 138.21 63.6973 138.539C62.7843 139.195 61.8897 139.876 61.028 140.602C60.5532 141.002 60.093 141.416 59.631 141.837C58.8225 142.578 58.0415 143.355 57.2825 144.157C56.8663 144.597 56.4483 145.029 56.0468 145.488C55.231 146.423 54.4665 147.404 53.7203 148.407C53.4453 148.779 53.1483 149.127 52.8843 149.505C51.909 150.91 50.996 152.366 50.1655 153.886C49.995 154.195 49.8612 154.525 49.6962 154.837C49.0563 156.069 48.455 157.324 47.916 158.62C47.685 159.179 47.4815 159.756 47.267 160.325C47.0158 161.003 46.7243 161.66 46.4988 162.354H5.86667V136.883ZM126.133 184.633H49.8667V178.267C49.8667 174.224 50.3983 170.245 51.4452 166.445C51.8852 164.845 52.4132 163.293 53.0163 161.787C53.2217 161.272 53.4857 160.79 53.713 160.287C54.1457 159.316 54.5692 158.339 55.0678 157.412C55.3722 156.843 55.737 156.318 56.0652 155.766C56.551 154.955 57.024 154.131 57.5612 153.357C57.948 152.8 58.3843 152.291 58.795 151.759C59.3413 151.049 59.8748 150.329 60.4652 149.66C60.9217 149.145 61.4203 148.674 61.9025 148.184C62.5057 147.567 63.1015 146.937 63.745 146.364C64.2638 145.898 64.8212 145.482 65.3638 145.049C66.0238 144.519 66.6747 143.982 67.3677 143.501C67.9452 143.097 68.5557 142.745 69.1533 142.375C69.861 141.939 70.565 141.495 71.3002 141.107C71.9308 140.777 72.5853 140.492 73.2343 140.198C73.7917 139.943 74.3545 139.697 74.9265 139.472C75.1612 139.617 75.405 139.732 75.6415 139.87C75.9697 140.061 76.3015 140.248 76.637 140.423C77.1577 140.697 77.6893 140.938 78.2265 141.175C78.5583 141.318 78.8865 141.471 79.2202 141.599C79.8105 141.823 80.4118 142.012 81.015 142.19C81.3065 142.275 81.5907 142.381 81.884 142.454C82.7842 142.683 83.6972 142.868 84.6175 142.991C85.635 143.164 86.7772 143.25 88 143.25C89.2228 143.25 90.365 143.164 91.2908 143.005C92.235 142.88 93.1627 142.693 94.0775 142.46C94.38 142.385 94.6697 142.279 94.9703 142.19C95.5735 142.012 96.1748 141.827 96.7652 141.601C97.1117 141.467 97.4508 141.312 97.7918 141.165C98.3162 140.936 98.8387 140.699 99.3483 140.433C99.6948 140.252 100.038 140.057 100.379 139.86C100.61 139.726 100.852 139.611 101.079 139.468C101.646 139.695 102.206 139.935 102.76 140.188C103.415 140.486 104.078 140.771 104.711 141.107C105.442 141.493 106.139 141.933 106.841 142.365C107.444 142.737 108.06 143.095 108.641 143.501C109.329 143.978 109.974 144.513 110.627 145.037C111.177 145.474 111.74 145.896 112.264 146.366C112.9 146.937 113.491 147.559 114.092 148.174C114.58 148.672 115.084 149.143 115.544 149.664C116.127 150.327 116.655 151.039 117.198 151.744C117.616 152.285 118.057 152.8 118.448 153.361C118.976 154.121 119.442 154.933 119.924 155.735C120.261 156.296 120.63 156.833 120.941 157.416C121.429 158.319 121.84 159.278 122.265 160.227C122.5 160.752 122.775 161.256 122.989 161.793C123.561 163.225 124.056 164.702 124.481 166.214C124.505 166.293 124.538 166.367 124.56 166.447C125.602 170.245 126.133 174.224 126.133 178.267V184.633ZM170.133 162.35H129.496C129.268 161.654 128.979 160.993 128.724 160.317C128.513 159.75 128.313 159.177 128.08 158.622C127.538 157.32 126.934 156.057 126.291 154.821C126.13 154.513 125.998 154.189 125.831 153.886C124.998 152.364 124.085 150.906 123.108 149.499C122.848 149.123 122.555 148.777 122.281 148.411C121.537 147.4 120.769 146.417 119.949 145.482C119.552 145.023 119.134 144.593 118.717 144.153C117.958 143.349 117.177 142.576 116.365 141.829C115.907 141.41 115.445 140.996 114.968 140.596C114.107 139.87 113.212 139.187 112.299 138.533C111.844 138.204 111.404 137.864 110.939 137.556C109.716 136.744 108.451 136.002 107.151 135.32C106.973 135.224 106.806 135.111 106.623 135.017C106.597 135.005 106.573 134.989 106.55 134.977C106.733 134.782 106.891 134.565 107.07 134.365C107.31 134.094 107.541 133.817 107.774 133.537C108.236 132.972 108.671 132.385 109.087 131.786C109.276 131.519 109.468 131.259 109.644 130.982C110.2 130.125 110.715 129.243 111.179 128.326C111.192 128.304 111.206 128.282 111.217 128.26C111.69 127.317 112.097 126.337 112.469 125.34C112.581 125.037 112.675 124.727 112.777 124.421C113.018 123.708 113.236 122.984 113.423 122.246C113.514 121.886 113.599 121.524 113.678 121.162C113.837 120.42 113.965 119.671 114.072 118.913C114.118 118.575 114.176 118.245 114.213 117.905C114.327 116.812 114.4 115.714 114.4 114.6C114.4 113.396 114.321 112.203 114.184 111.023C114.14 110.633 114.057 110.259 113.998 109.873C113.877 109.087 113.751 108.307 113.573 107.543C113.47 107.099 113.338 106.673 113.216 106.238C113.021 105.553 112.821 104.879 112.585 104.218C112.425 103.777 112.248 103.351 112.068 102.923C111.927 102.587 111.813 102.229 111.661 101.902C111.707 101.871 111.749 101.835 111.795 101.803C112.807 101.113 113.854 100.482 114.924 99.899C115.196 99.7537 115.476 99.6264 115.753 99.4831C116.589 99.0554 117.436 98.6614 118.301 98.3013C118.497 98.2178 118.694 98.1422 118.893 98.0626C119.225 98.2695 119.583 98.4446 119.926 98.6356C120.197 98.7888 120.463 98.944 120.741 99.0872C121.656 99.5548 122.599 99.9925 123.592 100.361C124.018 100.518 124.447 100.667 124.745 100.743C125.726 101.059 126.614 101.274 127.301 101.367C127.653 101.457 127.987 101.507 128.328 101.558L128.359 101.544C128.755 101.654 129.164 101.713 129.569 101.729C129.868 101.767 130.156 101.803 130.333 101.793C130.885 101.835 131.443 101.867 132 101.867C132.431 101.867 132.854 101.787 133.285 101.765C133.824 101.735 134.361 101.702 134.895 101.638C135.619 101.552 136.33 101.421 137.042 101.272C137.593 101.156 138.14 101.033 138.682 100.88C139.352 100.689 140.008 100.456 140.659 100.207C141.22 99.9945 141.773 99.7776 142.32 99.5229C142.93 99.2404 143.522 98.9161 144.111 98.5819C144.448 98.3909 144.808 98.2496 145.138 98.0427C160.145 103.996 170.133 119.427 170.133 136.883V162.35Z" fill="black"/>
</g>
<defs>
<clipPath id="clip0_129_11275">
<rect width="176" height="191" fill="white"/>
</clipPath>
</defs>
</svg>
