<svg width="125" height="125" viewBox="0 0 125 125" fill="none" xmlns="http://www.w3.org/2000/svg">
<g clip-path="url(#clip0_129_11445)">
<path d="M137.5 -12.5H-12.5V137.5H137.5V-12.5Z" fill="white"/>
<path d="M137.5 -12.5H-12.5V137.5H137.5V-12.5Z" fill="white"/>
<path d="M137.5 -12.5H-12.5V137.5H137.5V-12.5Z" fill="white"/>
<path d="M12.5015 13.4908H112.499V111.491H12.5015V13.4908Z" fill="#FD7B33"/>
<path d="M70.7394 95.4114C70.7394 95.4114 70.7394 95.4114 54.2069 95.4114C54.2069 95.4114 54.2069 95.4114 54.2069 70.9961C54.2069 70.9961 54.2069 70.9961 29.6626 70.9961C29.6626 70.9961 29.6626 70.9961 29.6626 54.207C29.6626 54.207 29.6626 54.207 54.2069 54.207C54.2069 54.207 54.2069 54.207 54.2069 29.6627C54.2069 29.6627 54.2069 29.6627 70.7394 29.6627C70.7394 29.6627 70.7394 29.6627 70.7394 54.207C70.7394 54.207 70.7394 54.207 95.4113 54.207C95.4113 54.207 95.4113 54.207 95.4113 70.9961C95.4113 70.9961 95.4113 70.9961 70.7394 70.9961C70.7394 70.9961 70.7394 70.9961 70.7394 95.4114Z" fill="white"/>
</g>
<defs>
<clipPath id="clip0_129_11445">
<rect width="125" height="125" fill="white"/>
</clipPath>
</defs>
</svg>
